solid OpenSCAD_Model
  facet normal 1 0 0
    outer loop
      vertex 120 70 65
      vertex 120 0 60
      vertex 120 70 0
    endloop
  endfacet
  facet normal 1 0 0
    outer loop
      vertex 120 -18 65
      vertex 120 0 60
      vertex 120 70 65
    endloop
  endfacet
  facet normal 1 0 0
    outer loop
      vertex 120 0 60
      vertex 120 -18 65
      vertex 120 -13 60
    endloop
  endfacet
  facet normal 1 0 0
    outer loop
      vertex 120 -18 45
      vertex 120 -13 60
      vertex 120 -18 65
    endloop
  endfacet
  facet normal 1 0 0
    outer loop
      vertex 120 -13 60
      vertex 120 -18 45
      vertex 120 -13 45
    endloop
  endfacet
  facet normal 1 0 0
    outer loop
      vertex 120 70 0
      vertex 120 0 60
      vertex 120 0 0
    endloop
  endfacet
  facet normal 0 0 1
    outer loop
      vertex 115 5 65
      vertex 120 70 65
      vertex 115 65 65
    endloop
  endfacet
  facet normal 0 0 1
    outer loop
      vertex 120 70 65
      vertex 5 65 65
      vertex 115 65 65
    endloop
  endfacet
  facet normal 0 0 1
    outer loop
      vertex 5 65 65
      vertex 0 70 65
      vertex 5 5 65
    endloop
  endfacet
  facet normal 0 0 1
    outer loop
      vertex 0 70 65
      vertex 5 65 65
      vertex 120 70 65
    endloop
  endfacet
  facet normal 0 0 1
    outer loop
      vertex 120 70 65
      vertex 115 5 65
      vertex 120 -18 65
    endloop
  endfacet
  facet normal 0 0 1
    outer loop
      vertex 5 5 65
      vertex 120 -18 65
      vertex 115 5 65
    endloop
  endfacet
  facet normal 0 0 1
    outer loop
      vertex 5 5 65
      vertex 0 -18 65
      vertex 120 -18 65
    endloop
  endfacet
  facet normal 0 0 1
    outer loop
      vertex 0 -18 65
      vertex 5 5 65
      vertex 0 70 65
    endloop
  endfacet
  facet normal 0 0 -1
    outer loop
      vertex 0 -13 60
      vertex 120 0 60
      vertex 120 -13 60
    endloop
  endfacet
  facet normal 0 0 -1
    outer loop
      vertex 120 0 60
      vertex 0 -13 60
      vertex 0 0 60
    endloop
  endfacet
  facet normal -1 0 0
    outer loop
      vertex 0 -13 45
      vertex 0 -18 45
      vertex 0 -13 60
    endloop
  endfacet
  facet normal -1 0 0
    outer loop
      vertex 0 0 60
      vertex 0 70 0
      vertex 0 0 0
    endloop
  endfacet
  facet normal -1 0 0
    outer loop
      vertex 0 70 0
      vertex 0 0 60
      vertex 0 70 65
    endloop
  endfacet
  facet normal -1 0 0
    outer loop
      vertex 0 -18 65
      vertex 0 0 60
      vertex 0 -13 60
    endloop
  endfacet
  facet normal -1 0 0
    outer loop
      vertex 0 0 60
      vertex 0 -18 65
      vertex 0 70 65
    endloop
  endfacet
  facet normal -1 0 0
    outer loop
      vertex 0 -18 65
      vertex 0 -13 60
      vertex 0 -18 45
    endloop
  endfacet
  facet normal 0 -1 0
    outer loop
      vertex 0 0 0
      vertex 120 0 60
      vertex 0 0 60
    endloop
  endfacet
  facet normal 0 -1 0
    outer loop
      vertex 120 0 60
      vertex 0 0 0
      vertex 120 0 0
    endloop
  endfacet
  facet normal 0 -1 0
    outer loop
      vertex 0 -18 45
      vertex 120 -18 65
      vertex 0 -18 65
    endloop
  endfacet
  facet normal 0 -1 0
    outer loop
      vertex 120 -18 65
      vertex 0 -18 45
      vertex 120 -18 45
    endloop
  endfacet
  facet normal 0 0 -1
    outer loop
      vertex 0 -18 45
      vertex 120 -13 45
      vertex 120 -18 45
    endloop
  endfacet
  facet normal 0 0 -1
    outer loop
      vertex 120 -13 45
      vertex 0 -18 45
      vertex 0 -13 45
    endloop
  endfacet
  facet normal 0 1 0
    outer loop
      vertex 120 -13 45
      vertex 0 -13 60
      vertex 120 -13 60
    endloop
  endfacet
  facet normal 0 1 0
    outer loop
      vertex 0 -13 60
      vertex 120 -13 45
      vertex 0 -13 45
    endloop
  endfacet
  facet normal 0 0 -1
    outer loop
      vertex 0 0 0
      vertex 120 70 0
      vertex 120 0 0
    endloop
  endfacet
  facet normal 0 0 -1
    outer loop
      vertex 120 70 0
      vertex 0 0 0
      vertex 0 70 0
    endloop
  endfacet
  facet normal 0 1 0
    outer loop
      vertex 120 70 0
      vertex 0 70 65
      vertex 120 70 65
    endloop
  endfacet
  facet normal 0 1 0
    outer loop
      vertex 0 70 65
      vertex 120 70 0
      vertex 0 70 0
    endloop
  endfacet
  facet normal -1 0 0
    outer loop
      vertex 115 5 5
      vertex 115 65 65
      vertex 115 65 5
    endloop
  endfacet
  facet normal -1 0 0
    outer loop
      vertex 115 65 65
      vertex 115 5 5
      vertex 115 5 65
    endloop
  endfacet
  facet normal 0 0 1
    outer loop
      vertex 5 65 5
      vertex 115 5 5
      vertex 115 65 5
    endloop
  endfacet
  facet normal 0 0 1
    outer loop
      vertex 115 5 5
      vertex 5 65 5
      vertex 5 5 5
    endloop
  endfacet
  facet normal 1 0 0
    outer loop
      vertex 5 5 65
      vertex 5 65 5
      vertex 5 65 65
    endloop
  endfacet
  facet normal 1 0 0
    outer loop
      vertex 5 65 5
      vertex 5 5 65
      vertex 5 5 5
    endloop
  endfacet
  facet normal 0 -1 0
    outer loop
      vertex 5 65 5
      vertex 115 65 65
      vertex 5 65 65
    endloop
  endfacet
  facet normal 0 -1 0
    outer loop
      vertex 115 65 65
      vertex 5 65 5
      vertex 115 65 5
    endloop
  endfacet
  facet normal 0 1 0
    outer loop
      vertex 115 5 5
      vertex 5 5 65
      vertex 115 5 65
    endloop
  endfacet
  facet normal 0 1 0
    outer loop
      vertex 5 5 65
      vertex 115 5 5
      vertex 5 5 5
    endloop
  endfacet
endsolid OpenSCAD_Model
