solid OpenSCAD_Model
  facet normal 0.36481904251427766 0.03834402571183456 0.930288558411408
    outer loop
      vertex 39.12590408325195 8.31646728515625 -5
      vertex 14.5 0 5
      vertex 40 0 -5
    endloop
  endfacet
  facet normal 0.3488747015585608 0.11335627748239631 0.9302885557544814
    outer loop
      vertex 36.54181671142578 16.269466400146484 -5
      vertex 13.246408462524414 5.89768123626709 5
      vertex 14.18313980102539 3.014719009399414 5
    endloop
  endfacet
  facet normal 0.364819025692401 0.03834408072865345 0.9302885627405734
    outer loop
      vertex 39.12590408325195 8.31646728515625 -5
      vertex 14.18313980102539 3.014719009399414 5
      vertex 14.5 0 5
    endloop
  endfacet
  facet normal 0.36481904251427766 -0.03834402571183456 0.930288558411408
    outer loop
      vertex 40 0 -5
      vertex 14.5 0 5
      vertex 39.12590408325195 -8.31646728515625 -5
    endloop
  endfacet
  facet normal 0.31768286141273244 -0.18341427434697727 0.9302885592816836
    outer loop
      vertex 13.246408462524414 -5.89768123626709 5
      vertex 11.730746269226074 -8.5228853225708 5
      vertex 32.360679626464844 -23.511409759521484 -5
    endloop
  endfacet
  facet normal 0.07626783120220987 -0.3588124816922292 0.930288568620283
    outer loop
      vertex 4.480746269226074 -13.790319442749023 5
      vertex 1.5156621932983398 -14.42056655883789 5
      vertex 4.181138038635254 -39.78087615966797 -5
    endloop
  endfacet
  facet normal 0.31768286141273244 0.18341427434697727 0.9302885592816836
    outer loop
      vertex 32.360679626464844 23.511409759521484 -5
      vertex 11.730746269226074 8.5228853225708 5
      vertex 13.246408462524414 5.89768123626709 5
    endloop
  endfacet
  facet normal -0.21561646839154225 0.2967705084860662 0.9302885594541517
    outer loop
      vertex -7.25 12.557368278503418 5
      vertex -26.76522445678711 29.725791931152344 -5
      vertex -9.702393531799316 10.775599479675293 5
    endloop
  endfacet
  facet normal 0.3488747015585608 -0.11335627748239631 0.9302885557544814
    outer loop
      vertex 14.18313980102539 -3.014719009399414 5
      vertex 13.246408462524414 -5.89768123626709 5
      vertex 36.54181671142578 -16.269466400146484 -5
    endloop
  endfacet
  facet normal 0.31768287683939866 0.1834142566015487 0.9302885575123155
    outer loop
      vertex 32.360679626464844 23.511409759521484 -5
      vertex 13.246408462524414 5.89768123626709 5
      vertex 36.54181671142578 16.269466400146484 -5
    endloop
  endfacet
  facet normal 0.3488746817041586 -0.11335631329850819 0.9302885588360165
    outer loop
      vertex 39.12590408325195 -8.31646728515625 -5
      vertex 14.18313980102539 -3.014719009399414 5
      vertex 36.54181671142578 -16.269466400146484 -5
    endloop
  endfacet
  facet normal -0.31768286141273244 -0.18341427434697727 0.9302885592816836
    outer loop
      vertex -13.246408462524414 -5.89768123626709 5
      vertex -32.360679626464844 -23.511409759521484 -5
      vertex -11.730746269226074 -8.5228853225708 5
    endloop
  endfacet
  facet normal 0.31768287683939866 -0.1834142566015487 0.9302885575123155
    outer loop
      vertex 36.54181671142578 -16.269466400146484 -5
      vertex 13.246408462524414 -5.89768123626709 5
      vertex 32.360679626464844 -23.511409759521484 -5
    endloop
  endfacet
  facet normal 0.27260675967816783 0.2454562046810992 0.9302885606957231
    outer loop
      vertex 32.360679626464844 23.511409759521484 -5
      vertex 9.702393531799316 10.775599479675293 5
      vertex 11.730746269226074 8.5228853225708 5
    endloop
  endfacet
  facet normal 0.27260674459246315 -0.2454562297893905 0.9302885584915453
    outer loop
      vertex 32.360679626464844 -23.511409759521484 -5
      vertex 9.702393531799316 -10.775599479675293 5
      vertex 26.76522445678711 -29.725791931152344 -5
    endloop
  endfacet
  facet normal 0.3488746817041586 0.11335631329850819 0.9302885588360165
    outer loop
      vertex 36.54181671142578 16.269466400146484 -5
      vertex 14.18313980102539 3.014719009399414 5
      vertex 39.12590408325195 8.31646728515625 -5
    endloop
  endfacet
  facet normal 0.2156164000042665 0.2967705818262272 0.9302885519083436
    outer loop
      vertex 20 34.641014099121094 -5
      vertex 7.25 12.557368278503418 5
      vertex 26.76522445678711 29.725791931152344 -5
    endloop
  endfacet
  facet normal -0.07626802158667975 0.3588124783739575 0.9302885542918348
    outer loop
      vertex -4.181138038635254 39.78087615966797 -5
      vertex -12.360679626464844 38.042259216308594 -5
      vertex -4.480746269226074 13.790319442749023 5
    endloop
  endfacet
  facet normal 0.07626802158667975 -0.3588124783739575 0.9302885542918348
    outer loop
      vertex 4.480746269226074 -13.790319442749023 5
      vertex 4.181138038635254 -39.78087615966797 -5
      vertex 12.360679626464844 -38.042259216308594 -5
    endloop
  endfacet
  facet normal -0.3488746817041586 -0.11335631329850819 0.9302885588360165
    outer loop
      vertex -14.18313980102539 -3.014719009399414 5
      vertex -39.12590408325195 -8.31646728515625 -5
      vertex -36.54181671142578 -16.269466400146484 -5
    endloop
  endfacet
  facet normal -0.21561646839154225 -0.2967705084860662 0.9302885594541517
    outer loop
      vertex -9.702393531799316 -10.775599479675293 5
      vertex -26.76522445678711 -29.725791931152344 -5
      vertex -7.25 -12.557368278503418 5
    endloop
  endfacet
  facet normal -0.14920262617856098 -0.3351145942905662 0.9302885493409503
    outer loop
      vertex -7.25 -12.557368278503418 5
      vertex -20 -34.641014099121094 -5
      vertex -4.480746269226074 -13.790319442749023 5
    endloop
  endfacet
  facet normal -0.31768287683939866 -0.1834142566015487 0.9302885575123155
    outer loop
      vertex -13.246408462524414 -5.89768123626709 5
      vertex -36.54181671142578 -16.269466400146484 -5
      vertex -32.360679626464844 -23.511409759521484 -5
    endloop
  endfacet
  facet normal 0.21561646839154225 0.2967705084860662 0.9302885594541517
    outer loop
      vertex 26.76522445678711 29.725791931152344 -5
      vertex 7.25 12.557368278503418 5
      vertex 9.702393531799316 10.775599479675293 5
    endloop
  endfacet
  facet normal -0.364819025692401 -0.03834408072865345 0.9302885627405734
    outer loop
      vertex -14.5 0 5
      vertex -39.12590408325195 -8.31646728515625 -5
      vertex -14.18313980102539 -3.014719009399414 5
    endloop
  endfacet
  facet normal -0.14920264769114613 0.3351145792264659 0.9302885513171816
    outer loop
      vertex -12.360679626464844 38.042259216308594 -5
      vertex -20 34.641014099121094 -5
      vertex -4.480746269226074 13.790319442749023 5
    endloop
  endfacet
  facet normal -0.31768286141273244 0.18341427434697727 0.9302885592816836
    outer loop
      vertex -11.730746269226074 8.5228853225708 5
      vertex -32.360679626464844 23.511409759521484 -5
      vertex -13.246408462524414 5.89768123626709 5
    endloop
  endfacet
  facet normal 0.07626783120220987 0.3588124816922292 0.930288568620283
    outer loop
      vertex 4.181138038635254 39.78087615966797 -5
      vertex 1.5156621932983398 14.42056655883789 5
      vertex 4.480746269226074 13.790319442749023 5
    endloop
  endfacet
  facet normal 0.27260675967816783 -0.2454562046810992 0.9302885606957231
    outer loop
      vertex 11.730746269226074 -8.5228853225708 5
      vertex 9.702393531799316 -10.775599479675293 5
      vertex 32.360679626464844 -23.511409759521484 -5
    endloop
  endfacet
  facet normal -0.27260674459246315 0.2454562297893905 0.9302885584915453
    outer loop
      vertex -26.76522445678711 29.725791931152344 -5
      vertex -32.360679626464844 23.511409759521484 -5
      vertex -9.702393531799316 10.775599479675293 5
    endloop
  endfacet
  facet normal 0.2156164000042665 -0.2967705818262272 0.9302885519083436
    outer loop
      vertex 26.76522445678711 -29.725791931152344 -5
      vertex 7.25 -12.557368278503418 5
      vertex 20 -34.641014099121094 -5
    endloop
  endfacet
  facet normal -0.27260675967816783 0.2454562046810992 0.9302885606957231
    outer loop
      vertex -9.702393531799316 10.775599479675293 5
      vertex -32.360679626464844 23.511409759521484 -5
      vertex -11.730746269226074 8.5228853225708 5
    endloop
  endfacet
  facet normal -0.36481904251427766 0.03834402571183456 0.930288558411408
    outer loop
      vertex -39.12590408325195 8.31646728515625 -5
      vertex -40 0 -5
      vertex -14.5 0 5
    endloop
  endfacet
  facet normal -0.3488747015585608 0.11335627748239631 0.9302885557544814
    outer loop
      vertex -13.246408462524414 5.89768123626709 5
      vertex -36.54181671142578 16.269466400146484 -5
      vertex -14.18313980102539 3.014719009399414 5
    endloop
  endfacet
  facet normal 0.27260674459246315 0.2454562297893905 0.9302885584915453
    outer loop
      vertex 26.76522445678711 29.725791931152344 -5
      vertex 9.702393531799316 10.775599479675293 5
      vertex 32.360679626464844 23.511409759521484 -5
    endloop
  endfacet
  facet normal -0.2156164000042665 -0.2967705818262272 0.9302885519083436
    outer loop
      vertex -7.25 -12.557368278503418 5
      vertex -26.76522445678711 -29.725791931152344 -5
      vertex -20 -34.641014099121094 -5
    endloop
  endfacet
  facet normal -0.27260675967816783 -0.2454562046810992 0.9302885606957231
    outer loop
      vertex -11.730746269226074 -8.5228853225708 5
      vertex -32.360679626464844 -23.511409759521484 -5
      vertex -9.702393531799316 -10.775599479675293 5
    endloop
  endfacet
  facet normal -0.27260674459246315 -0.2454562297893905 0.9302885584915453
    outer loop
      vertex -9.702393531799316 -10.775599479675293 5
      vertex -32.360679626464844 -23.511409759521484 -5
      vertex -26.76522445678711 -29.725791931152344 -5
    endloop
  endfacet
  facet normal -0.3488747015585608 -0.11335627748239631 0.9302885557544814
    outer loop
      vertex -14.18313980102539 -3.014719009399414 5
      vertex -36.54181671142578 -16.269466400146484 -5
      vertex -13.246408462524414 -5.89768123626709 5
    endloop
  endfacet
  facet normal 0.14920264769114613 0.3351145792264659 0.9302885513171816
    outer loop
      vertex 12.360679626464844 38.042259216308594 -5
      vertex 4.480746269226074 13.790319442749023 5
      vertex 20 34.641014099121094 -5
    endloop
  endfacet
  facet normal -0.2156164000042665 0.2967705818262272 0.9302885519083436
    outer loop
      vertex -20 34.641014099121094 -5
      vertex -26.76522445678711 29.725791931152344 -5
      vertex -7.25 12.557368278503418 5
    endloop
  endfacet
  facet normal 0.14920262617856098 0.3351145942905662 0.9302885493409503
    outer loop
      vertex 20 34.641014099121094 -5
      vertex 4.480746269226074 13.790319442749023 5
      vertex 7.25 12.557368278503418 5
    endloop
  endfacet
  facet normal 0.07626802158667975 0.3588124783739575 0.9302885542918348
    outer loop
      vertex 12.360679626464844 38.042259216308594 -5
      vertex 4.181138038635254 39.78087615966797 -5
      vertex 4.480746269226074 13.790319442749023 5
    endloop
  endfacet
  facet normal -0.07626783120220987 0.3588124816922292 0.930288568620283
    outer loop
      vertex -4.181138038635254 39.78087615966797 -5
      vertex -4.480746269226074 13.790319442749023 5
      vertex -1.5156621932983398 14.42056655883789 5
    endloop
  endfacet
  facet normal 0.364819025692401 -0.03834408072865345 0.9302885627405734
    outer loop
      vertex 14.5 0 5
      vertex 14.18313980102539 -3.014719009399414 5
      vertex 39.12590408325195 -8.31646728515625 -5
    endloop
  endfacet
  facet normal -0.14920264769114613 -0.3351145792264659 0.9302885513171816
    outer loop
      vertex -4.480746269226074 -13.790319442749023 5
      vertex -20 -34.641014099121094 -5
      vertex -12.360679626464844 -38.042259216308594 -5
    endloop
  endfacet
  facet normal -0.36481904251427766 -0.03834402571183456 0.930288558411408
    outer loop
      vertex -14.5 0 5
      vertex -40 0 -5
      vertex -39.12590408325195 -8.31646728515625 -5
    endloop
  endfacet
  facet normal -0.07626802158667975 -0.3588124783739575 0.9302885542918348
    outer loop
      vertex -4.480746269226074 -13.790319442749023 5
      vertex -12.360679626464844 -38.042259216308594 -5
      vertex -4.181138038635254 -39.78087615966797 -5
    endloop
  endfacet
  facet normal -0.364819025692401 0.03834408072865345 0.9302885627405734
    outer loop
      vertex -14.18313980102539 3.014719009399414 5
      vertex -39.12590408325195 8.31646728515625 -5
      vertex -14.5 0 5
    endloop
  endfacet
  facet normal 0 -0.36682855189491337 0.9302885646479166
    outer loop
      vertex -1.5156621932983398 -14.42056655883789 5
      vertex 4.181138038635254 -39.78087615966797 -5
      vertex 1.5156621932983398 -14.42056655883789 5
    endloop
  endfacet
  facet normal 0 -0.36682855189491337 0.9302885646479166
    outer loop
      vertex 4.181138038635254 -39.78087615966797 -5
      vertex -1.5156621932983398 -14.42056655883789 5
      vertex -4.181138038635254 -39.78087615966797 -5
    endloop
  endfacet
  facet normal 0 0 1
    outer loop
      vertex 12.5 0 5
      vertex 14.5 0 5
      vertex 14.18313980102539 3.014719009399414 5
    endloop
  endfacet
  facet normal 0 0 1
    outer loop
      vertex 12.226844787597656 2.598896026611328 5
      vertex 14.18313980102539 3.014719009399414 5
      vertex 13.246408462524414 5.89768123626709 5
    endloop
  endfacet
  facet normal 0 0 1
    outer loop
      vertex 14.5 0 5
      vertex 12.5 0 5
      vertex 14.18313980102539 -3.014719009399414 5
    endloop
  endfacet
  facet normal 0 0 1
    outer loop
      vertex 12.226844787597656 -2.598896026611328 5
      vertex 14.18313980102539 -3.014719009399414 5
      vertex 12.5 0 5
    endloop
  endfacet
  facet normal 0 0 1
    outer loop
      vertex 14.18313980102539 3.014719009399414 5
      vertex 12.226844787597656 2.598896026611328 5
      vertex 12.5 0 5
    endloop
  endfacet
  facet normal 0 0 1
    outer loop
      vertex 11.419318199157715 5.084207534790039 5
      vertex 13.246408462524414 5.89768123626709 5
      vertex 11.730746269226074 8.5228853225708 5
    endloop
  endfacet
  facet normal 0 0 1
    outer loop
      vertex 13.246408462524414 5.89768123626709 5
      vertex 11.419318199157715 5.084207534790039 5
      vertex 12.226844787597656 2.598896026611328 5
    endloop
  endfacet
  facet normal 0 0 1
    outer loop
      vertex 11.730746269226074 8.5228853225708 5
      vertex 10.112711906433105 7.347314834594727 5
      vertex 11.419318199157715 5.084207534790039 5
    endloop
  endfacet
  facet normal 0 0 1
    outer loop
      vertex 9.702393531799316 10.775599479675293 5
      vertex 10.112711906433105 7.347314834594727 5
      vertex 11.730746269226074 8.5228853225708 5
    endloop
  endfacet
  facet normal 0 0 1
    outer loop
      vertex 9.702393531799316 10.775599479675293 5
      vertex 8.364131927490234 9.28930950164795 5
      vertex 10.112711906433105 7.347314834594727 5
    endloop
  endfacet
  facet normal 0 0 1
    outer loop
      vertex 7.25 12.557368278503418 5
      vertex 8.364131927490234 9.28930950164795 5
      vertex 9.702393531799316 10.775599479675293 5
    endloop
  endfacet
  facet normal 0 0 1
    outer loop
      vertex 7.25 12.557368278503418 5
      vertex 6.25 10.8253173828125 5
      vertex 8.364131927490234 9.28930950164795 5
    endloop
  endfacet
  facet normal 0 0 1
    outer loop
      vertex 4.480746269226074 13.790319442749023 5
      vertex 6.25 10.8253173828125 5
      vertex 7.25 12.557368278503418 5
    endloop
  endfacet
  facet normal 0 0 1
    outer loop
      vertex 4.480746269226074 13.790319442749023 5
      vertex 3.8627119064331055 11.888205528259277 5
      vertex 6.25 10.8253173828125 5
    endloop
  endfacet
  facet normal 0 0 1
    outer loop
      vertex 1.5156621932983398 14.42056655883789 5
      vertex 3.8627119064331055 11.888205528259277 5
      vertex 4.480746269226074 13.790319442749023 5
    endloop
  endfacet
  facet normal 0 0 1
    outer loop
      vertex 1.5156621932983398 14.42056655883789 5
      vertex 1.306605339050293 12.431523323059082 5
      vertex 3.8627119064331055 11.888205528259277 5
    endloop
  endfacet
  facet normal 0 0 1
    outer loop
      vertex 1.5156621932983398 14.42056655883789 5
      vertex -1.306605339050293 12.431523323059082 5
      vertex 1.306605339050293 12.431523323059082 5
    endloop
  endfacet
  facet normal 0 0 1
    outer loop
      vertex -1.5156621932983398 14.42056655883789 5
      vertex -1.306605339050293 12.431523323059082 5
      vertex 1.5156621932983398 14.42056655883789 5
    endloop
  endfacet
  facet normal 0 0 1
    outer loop
      vertex -1.5156621932983398 14.42056655883789 5
      vertex -3.8627119064331055 11.888205528259277 5
      vertex -1.306605339050293 12.431523323059082 5
    endloop
  endfacet
  facet normal 0 0 1
    outer loop
      vertex -4.480746269226074 13.790319442749023 5
      vertex -3.8627119064331055 11.888205528259277 5
      vertex -1.5156621932983398 14.42056655883789 5
    endloop
  endfacet
  facet normal 0 0 1
    outer loop
      vertex -4.480746269226074 13.790319442749023 5
      vertex -6.25 10.8253173828125 5
      vertex -3.8627119064331055 11.888205528259277 5
    endloop
  endfacet
  facet normal 0 0 1
    outer loop
      vertex -7.25 12.557368278503418 5
      vertex -6.25 10.8253173828125 5
      vertex -4.480746269226074 13.790319442749023 5
    endloop
  endfacet
  facet normal 0 0 1
    outer loop
      vertex -7.25 12.557368278503418 5
      vertex -8.364131927490234 9.28930950164795 5
      vertex -6.25 10.8253173828125 5
    endloop
  endfacet
  facet normal 0 0 1
    outer loop
      vertex -9.702393531799316 10.775599479675293 5
      vertex -8.364131927490234 9.28930950164795 5
      vertex -7.25 12.557368278503418 5
    endloop
  endfacet
  facet normal 0 0 1
    outer loop
      vertex -9.702393531799316 10.775599479675293 5
      vertex -10.112711906433105 7.347314834594727 5
      vertex -8.364131927490234 9.28930950164795 5
    endloop
  endfacet
  facet normal 0 0 1
    outer loop
      vertex -11.730746269226074 8.5228853225708 5
      vertex -10.112711906433105 7.347314834594727 5
      vertex -9.702393531799316 10.775599479675293 5
    endloop
  endfacet
  facet normal 0 0 1
    outer loop
      vertex -10.112711906433105 7.347314834594727 5
      vertex -11.730746269226074 8.5228853225708 5
      vertex -11.419318199157715 5.084207534790039 5
    endloop
  endfacet
  facet normal 0 0 1
    outer loop
      vertex -13.246408462524414 5.89768123626709 5
      vertex -11.419318199157715 5.084207534790039 5
      vertex -11.730746269226074 8.5228853225708 5
    endloop
  endfacet
  facet normal 0 0 1
    outer loop
      vertex -11.419318199157715 5.084207534790039 5
      vertex -13.246408462524414 5.89768123626709 5
      vertex -12.226844787597656 2.598896026611328 5
    endloop
  endfacet
  facet normal 0 0 1
    outer loop
      vertex -14.18313980102539 3.014719009399414 5
      vertex -12.226844787597656 2.598896026611328 5
      vertex -13.246408462524414 5.89768123626709 5
    endloop
  endfacet
  facet normal 0 0 1
    outer loop
      vertex 14.18313980102539 -3.014719009399414 5
      vertex 12.226844787597656 -2.598896026611328 5
      vertex 13.246408462524414 -5.89768123626709 5
    endloop
  endfacet
  facet normal 0 0 1
    outer loop
      vertex 11.419318199157715 -5.084207534790039 5
      vertex 13.246408462524414 -5.89768123626709 5
      vertex 12.226844787597656 -2.598896026611328 5
    endloop
  endfacet
  facet normal 0 0 1
    outer loop
      vertex 13.246408462524414 -5.89768123626709 5
      vertex 11.419318199157715 -5.084207534790039 5
      vertex 11.730746269226074 -8.5228853225708 5
    endloop
  endfacet
  facet normal 0 0 1
    outer loop
      vertex 10.112711906433105 -7.347314834594727 5
      vertex 11.730746269226074 -8.5228853225708 5
      vertex 11.419318199157715 -5.084207534790039 5
    endloop
  endfacet
  facet normal 0 0 1
    outer loop
      vertex 10.112711906433105 -7.347314834594727 5
      vertex 9.702393531799316 -10.775599479675293 5
      vertex 11.730746269226074 -8.5228853225708 5
    endloop
  endfacet
  facet normal 0 0 1
    outer loop
      vertex 8.364131927490234 -9.28930950164795 5
      vertex 9.702393531799316 -10.775599479675293 5
      vertex 10.112711906433105 -7.347314834594727 5
    endloop
  endfacet
  facet normal 0 0 1
    outer loop
      vertex 8.364131927490234 -9.28930950164795 5
      vertex 7.25 -12.557368278503418 5
      vertex 9.702393531799316 -10.775599479675293 5
    endloop
  endfacet
  facet normal 0 0 1
    outer loop
      vertex 6.25 -10.8253173828125 5
      vertex 7.25 -12.557368278503418 5
      vertex 8.364131927490234 -9.28930950164795 5
    endloop
  endfacet
  facet normal 0 0 1
    outer loop
      vertex 6.25 -10.8253173828125 5
      vertex 4.480746269226074 -13.790319442749023 5
      vertex 7.25 -12.557368278503418 5
    endloop
  endfacet
  facet normal 0 0 1
    outer loop
      vertex 3.8627119064331055 -11.888205528259277 5
      vertex 4.480746269226074 -13.790319442749023 5
      vertex 6.25 -10.8253173828125 5
    endloop
  endfacet
  facet normal 0 0 1
    outer loop
      vertex 3.8627119064331055 -11.888205528259277 5
      vertex 1.5156621932983398 -14.42056655883789 5
      vertex 4.480746269226074 -13.790319442749023 5
    endloop
  endfacet
  facet normal 0 0 1
    outer loop
      vertex 1.306605339050293 -12.431523323059082 5
      vertex 1.5156621932983398 -14.42056655883789 5
      vertex 3.8627119064331055 -11.888205528259277 5
    endloop
  endfacet
  facet normal 0 0 1
    outer loop
      vertex -1.306605339050293 -12.431523323059082 5
      vertex 1.5156621932983398 -14.42056655883789 5
      vertex 1.306605339050293 -12.431523323059082 5
    endloop
  endfacet
  facet normal 0 0 1
    outer loop
      vertex -1.306605339050293 -12.431523323059082 5
      vertex -1.5156621932983398 -14.42056655883789 5
      vertex 1.5156621932983398 -14.42056655883789 5
    endloop
  endfacet
  facet normal 0 0 1
    outer loop
      vertex -3.8627119064331055 -11.888205528259277 5
      vertex -1.5156621932983398 -14.42056655883789 5
      vertex -1.306605339050293 -12.431523323059082 5
    endloop
  endfacet
  facet normal 0 0 1
    outer loop
      vertex -3.8627119064331055 -11.888205528259277 5
      vertex -4.480746269226074 -13.790319442749023 5
      vertex -1.5156621932983398 -14.42056655883789 5
    endloop
  endfacet
  facet normal 0 0 1
    outer loop
      vertex -6.25 -10.8253173828125 5
      vertex -4.480746269226074 -13.790319442749023 5
      vertex -3.8627119064331055 -11.888205528259277 5
    endloop
  endfacet
  facet normal 0 0 1
    outer loop
      vertex -6.25 -10.8253173828125 5
      vertex -7.25 -12.557368278503418 5
      vertex -4.480746269226074 -13.790319442749023 5
    endloop
  endfacet
  facet normal 0 0 1
    outer loop
      vertex -8.364131927490234 -9.28930950164795 5
      vertex -7.25 -12.557368278503418 5
      vertex -6.25 -10.8253173828125 5
    endloop
  endfacet
  facet normal 0 0 1
    outer loop
      vertex -8.364131927490234 -9.28930950164795 5
      vertex -9.702393531799316 -10.775599479675293 5
      vertex -7.25 -12.557368278503418 5
    endloop
  endfacet
  facet normal 0 0 1
    outer loop
      vertex -10.112711906433105 -7.347314834594727 5
      vertex -9.702393531799316 -10.775599479675293 5
      vertex -8.364131927490234 -9.28930950164795 5
    endloop
  endfacet
  facet normal 0 0 1
    outer loop
      vertex -11.730746269226074 -8.5228853225708 5
      vertex -10.112711906433105 -7.347314834594727 5
      vertex -11.419318199157715 -5.084207534790039 5
    endloop
  endfacet
  facet normal 0 0 1
    outer loop
      vertex -10.112711906433105 -7.347314834594727 5
      vertex -11.730746269226074 -8.5228853225708 5
      vertex -9.702393531799316 -10.775599479675293 5
    endloop
  endfacet
  facet normal 0 0 1
    outer loop
      vertex -13.246408462524414 -5.89768123626709 5
      vertex -11.419318199157715 -5.084207534790039 5
      vertex -12.226844787597656 -2.598896026611328 5
    endloop
  endfacet
  facet normal 0 0 1
    outer loop
      vertex -14.18313980102539 -3.014719009399414 5
      vertex -12.226844787597656 -2.598896026611328 5
      vertex -12.5 0 5
    endloop
  endfacet
  facet normal 0 0 1
    outer loop
      vertex -12.226844787597656 2.598896026611328 5
      vertex -14.18313980102539 3.014719009399414 5
      vertex -12.5 0 5
    endloop
  endfacet
  facet normal 0 0 1
    outer loop
      vertex -11.419318199157715 -5.084207534790039 5
      vertex -13.246408462524414 -5.89768123626709 5
      vertex -11.730746269226074 -8.5228853225708 5
    endloop
  endfacet
  facet normal 0 0 1
    outer loop
      vertex -14.5 0 5
      vertex -12.5 0 5
      vertex -14.18313980102539 3.014719009399414 5
    endloop
  endfacet
  facet normal 0 0 1
    outer loop
      vertex -12.226844787597656 -2.598896026611328 5
      vertex -14.18313980102539 -3.014719009399414 5
      vertex -13.246408462524414 -5.89768123626709 5
    endloop
  endfacet
  facet normal 0 0 1
    outer loop
      vertex -12.5 0 5
      vertex -14.5 0 5
      vertex -14.18313980102539 -3.014719009399414 5
    endloop
  endfacet
  facet normal 0 0 -1
    outer loop
      vertex 38 0 -5
      vertex 40 0 -5
      vertex 39.12590408325195 -8.31646728515625 -5
    endloop
  endfacet
  facet normal 0 0 -1
    outer loop
      vertex 40 0 -5
      vertex 38 0 -5
      vertex 39.12590408325195 8.31646728515625 -5
    endloop
  endfacet
  facet normal 0 0 -1
    outer loop
      vertex 39.12590408325195 -8.31646728515625 -5
      vertex 37.16960906982422 -7.900643348693848 -5
      vertex 38 0 -5
    endloop
  endfacet
  facet normal 0 0 -1
    outer loop
      vertex 36.54181671142578 -16.269466400146484 -5
      vertex 37.16960906982422 -7.900643348693848 -5
      vertex 39.12590408325195 -8.31646728515625 -5
    endloop
  endfacet
  facet normal 0 0 -1
    outer loop
      vertex 36.54181671142578 -16.269466400146484 -5
      vertex 34.714725494384766 -15.455991744995117 -5
      vertex 37.16960906982422 -7.900643348693848 -5
    endloop
  endfacet
  facet normal 0 0 -1
    outer loop
      vertex 32.360679626464844 -23.511409759521484 -5
      vertex 34.714725494384766 -15.455991744995117 -5
      vertex 36.54181671142578 -16.269466400146484 -5
    endloop
  endfacet
  facet normal 0 0 -1
    outer loop
      vertex 32.360679626464844 -23.511409759521484 -5
      vertex 30.742645263671875 -22.335838317871094 -5
      vertex 34.714725494384766 -15.455991744995117 -5
    endloop
  endfacet
  facet normal 0 0 -1
    outer loop
      vertex 26.76522445678711 -29.725791931152344 -5
      vertex 30.742645263671875 -22.335838317871094 -5
      vertex 32.360679626464844 -23.511409759521484 -5
    endloop
  endfacet
  facet normal 0 0 -1
    outer loop
      vertex 26.76522445678711 -29.725791931152344 -5
      vertex 25.426963806152344 -28.239501953125 -5
      vertex 30.742645263671875 -22.335838317871094 -5
    endloop
  endfacet
  facet normal 0 0 -1
    outer loop
      vertex 20 -34.641014099121094 -5
      vertex 25.426963806152344 -28.239501953125 -5
      vertex 26.76522445678711 -29.725791931152344 -5
    endloop
  endfacet
  facet normal 0 0 -1
    outer loop
      vertex 20 -34.641014099121094 -5
      vertex 19 -32.908966064453125 -5
      vertex 25.426963806152344 -28.239501953125 -5
    endloop
  endfacet
  facet normal 0 0 -1
    outer loop
      vertex 12.360679626464844 -38.042259216308594 -5
      vertex 19 -32.908966064453125 -5
      vertex 20 -34.641014099121094 -5
    endloop
  endfacet
  facet normal 0 0 -1
    outer loop
      vertex 12.360679626464844 -38.042259216308594 -5
      vertex 11.742645263671875 -36.1401481628418 -5
      vertex 19 -32.908966064453125 -5
    endloop
  endfacet
  facet normal 0 0 -1
    outer loop
      vertex 4.181138038635254 -39.78087615966797 -5
      vertex 11.742645263671875 -36.1401481628418 -5
      vertex 12.360679626464844 -38.042259216308594 -5
    endloop
  endfacet
  facet normal 0 0 -1
    outer loop
      vertex 4.181138038635254 -39.78087615966797 -5
      vertex 3.972081184387207 -37.791831970214844 -5
      vertex 11.742645263671875 -36.1401481628418 -5
    endloop
  endfacet
  facet normal 0 0 -1
    outer loop
      vertex 4.181138038635254 -39.78087615966797 -5
      vertex -3.972081184387207 -37.791831970214844 -5
      vertex 3.972081184387207 -37.791831970214844 -5
    endloop
  endfacet
  facet normal 0 0 -1
    outer loop
      vertex -4.181138038635254 -39.78087615966797 -5
      vertex -3.972081184387207 -37.791831970214844 -5
      vertex 4.181138038635254 -39.78087615966797 -5
    endloop
  endfacet
  facet normal 0 0 -1
    outer loop
      vertex -4.181138038635254 -39.78087615966797 -5
      vertex -11.742645263671875 -36.1401481628418 -5
      vertex -3.972081184387207 -37.791831970214844 -5
    endloop
  endfacet
  facet normal 0 0 -1
    outer loop
      vertex -12.360679626464844 -38.042259216308594 -5
      vertex -11.742645263671875 -36.1401481628418 -5
      vertex -4.181138038635254 -39.78087615966797 -5
    endloop
  endfacet
  facet normal 0 0 -1
    outer loop
      vertex -12.360679626464844 -38.042259216308594 -5
      vertex -19 -32.908966064453125 -5
      vertex -11.742645263671875 -36.1401481628418 -5
    endloop
  endfacet
  facet normal 0 0 -1
    outer loop
      vertex -20 -34.641014099121094 -5
      vertex -19 -32.908966064453125 -5
      vertex -12.360679626464844 -38.042259216308594 -5
    endloop
  endfacet
  facet normal 0 0 -1
    outer loop
      vertex -20 -34.641014099121094 -5
      vertex -25.426963806152344 -28.239501953125 -5
      vertex -19 -32.908966064453125 -5
    endloop
  endfacet
  facet normal 0 0 -1
    outer loop
      vertex -26.76522445678711 -29.725791931152344 -5
      vertex -25.426963806152344 -28.239501953125 -5
      vertex -20 -34.641014099121094 -5
    endloop
  endfacet
  facet normal 0 0 -1
    outer loop
      vertex -26.76522445678711 -29.725791931152344 -5
      vertex -30.742645263671875 -22.335838317871094 -5
      vertex -25.426963806152344 -28.239501953125 -5
    endloop
  endfacet
  facet normal 0 0 -1
    outer loop
      vertex -32.360679626464844 -23.511409759521484 -5
      vertex -30.742645263671875 -22.335838317871094 -5
      vertex -26.76522445678711 -29.725791931152344 -5
    endloop
  endfacet
  facet normal 0 0 -1
    outer loop
      vertex -32.360679626464844 -23.511409759521484 -5
      vertex -34.714725494384766 -15.455991744995117 -5
      vertex -30.742645263671875 -22.335838317871094 -5
    endloop
  endfacet
  facet normal 0 0 -1
    outer loop
      vertex -36.54181671142578 -16.269466400146484 -5
      vertex -34.714725494384766 -15.455991744995117 -5
      vertex -32.360679626464844 -23.511409759521484 -5
    endloop
  endfacet
  facet normal 0 0 -1
    outer loop
      vertex -36.54181671142578 -16.269466400146484 -5
      vertex -37.16960906982422 -7.900643348693848 -5
      vertex -34.714725494384766 -15.455991744995117 -5
    endloop
  endfacet
  facet normal 0 0 -1
    outer loop
      vertex -39.12590408325195 -8.31646728515625 -5
      vertex -37.16960906982422 -7.900643348693848 -5
      vertex -36.54181671142578 -16.269466400146484 -5
    endloop
  endfacet
  facet normal 0 0 -1
    outer loop
      vertex -37.16960906982422 -7.900643348693848 -5
      vertex -39.12590408325195 -8.31646728515625 -5
      vertex -38 0 -5
    endloop
  endfacet
  facet normal 0 0 -1
    outer loop
      vertex 37.16960906982422 7.900643348693848 -5
      vertex 39.12590408325195 8.31646728515625 -5
      vertex 38 0 -5
    endloop
  endfacet
  facet normal 0 0 -1
    outer loop
      vertex 37.16960906982422 7.900643348693848 -5
      vertex 36.54181671142578 16.269466400146484 -5
      vertex 39.12590408325195 8.31646728515625 -5
    endloop
  endfacet
  facet normal 0 0 -1
    outer loop
      vertex 34.714725494384766 15.455991744995117 -5
      vertex 36.54181671142578 16.269466400146484 -5
      vertex 37.16960906982422 7.900643348693848 -5
    endloop
  endfacet
  facet normal 0 0 -1
    outer loop
      vertex 34.714725494384766 15.455991744995117 -5
      vertex 32.360679626464844 23.511409759521484 -5
      vertex 36.54181671142578 16.269466400146484 -5
    endloop
  endfacet
  facet normal 0 0 -1
    outer loop
      vertex 30.742645263671875 22.335838317871094 -5
      vertex 32.360679626464844 23.511409759521484 -5
      vertex 34.714725494384766 15.455991744995117 -5
    endloop
  endfacet
  facet normal 0 0 -1
    outer loop
      vertex 30.742645263671875 22.335838317871094 -5
      vertex 26.76522445678711 29.725791931152344 -5
      vertex 32.360679626464844 23.511409759521484 -5
    endloop
  endfacet
  facet normal 0 0 -1
    outer loop
      vertex 25.426963806152344 28.239501953125 -5
      vertex 26.76522445678711 29.725791931152344 -5
      vertex 30.742645263671875 22.335838317871094 -5
    endloop
  endfacet
  facet normal 0 0 -1
    outer loop
      vertex 25.426963806152344 28.239501953125 -5
      vertex 20 34.641014099121094 -5
      vertex 26.76522445678711 29.725791931152344 -5
    endloop
  endfacet
  facet normal 0 0 -1
    outer loop
      vertex 19 32.908966064453125 -5
      vertex 20 34.641014099121094 -5
      vertex 25.426963806152344 28.239501953125 -5
    endloop
  endfacet
  facet normal 0 0 -1
    outer loop
      vertex 19 32.908966064453125 -5
      vertex 12.360679626464844 38.042259216308594 -5
      vertex 20 34.641014099121094 -5
    endloop
  endfacet
  facet normal 0 0 -1
    outer loop
      vertex 11.742645263671875 36.1401481628418 -5
      vertex 12.360679626464844 38.042259216308594 -5
      vertex 19 32.908966064453125 -5
    endloop
  endfacet
  facet normal 0 0 -1
    outer loop
      vertex 11.742645263671875 36.1401481628418 -5
      vertex 4.181138038635254 39.78087615966797 -5
      vertex 12.360679626464844 38.042259216308594 -5
    endloop
  endfacet
  facet normal 0 0 -1
    outer loop
      vertex 3.972081184387207 37.791831970214844 -5
      vertex 4.181138038635254 39.78087615966797 -5
      vertex 11.742645263671875 36.1401481628418 -5
    endloop
  endfacet
  facet normal 0 0 -1
    outer loop
      vertex -3.972081184387207 37.791831970214844 -5
      vertex 4.181138038635254 39.78087615966797 -5
      vertex 3.972081184387207 37.791831970214844 -5
    endloop
  endfacet
  facet normal 0 0 -1
    outer loop
      vertex -3.972081184387207 37.791831970214844 -5
      vertex -4.181138038635254 39.78087615966797 -5
      vertex 4.181138038635254 39.78087615966797 -5
    endloop
  endfacet
  facet normal 0 0 -1
    outer loop
      vertex -11.742645263671875 36.1401481628418 -5
      vertex -4.181138038635254 39.78087615966797 -5
      vertex -3.972081184387207 37.791831970214844 -5
    endloop
  endfacet
  facet normal 0 0 -1
    outer loop
      vertex -11.742645263671875 36.1401481628418 -5
      vertex -12.360679626464844 38.042259216308594 -5
      vertex -4.181138038635254 39.78087615966797 -5
    endloop
  endfacet
  facet normal 0 0 -1
    outer loop
      vertex -19 32.908966064453125 -5
      vertex -12.360679626464844 38.042259216308594 -5
      vertex -11.742645263671875 36.1401481628418 -5
    endloop
  endfacet
  facet normal 0 0 -1
    outer loop
      vertex -19 32.908966064453125 -5
      vertex -20 34.641014099121094 -5
      vertex -12.360679626464844 38.042259216308594 -5
    endloop
  endfacet
  facet normal 0 0 -1
    outer loop
      vertex -25.426963806152344 28.239501953125 -5
      vertex -20 34.641014099121094 -5
      vertex -19 32.908966064453125 -5
    endloop
  endfacet
  facet normal 0 0 -1
    outer loop
      vertex -25.426963806152344 28.239501953125 -5
      vertex -26.76522445678711 29.725791931152344 -5
      vertex -20 34.641014099121094 -5
    endloop
  endfacet
  facet normal 0 0 -1
    outer loop
      vertex -30.742645263671875 22.335838317871094 -5
      vertex -26.76522445678711 29.725791931152344 -5
      vertex -25.426963806152344 28.239501953125 -5
    endloop
  endfacet
  facet normal 0 0 -1
    outer loop
      vertex -30.742645263671875 22.335838317871094 -5
      vertex -32.360679626464844 23.511409759521484 -5
      vertex -26.76522445678711 29.725791931152344 -5
    endloop
  endfacet
  facet normal 0 0 -1
    outer loop
      vertex -34.714725494384766 15.455991744995117 -5
      vertex -32.360679626464844 23.511409759521484 -5
      vertex -30.742645263671875 22.335838317871094 -5
    endloop
  endfacet
  facet normal 0 0 -1
    outer loop
      vertex -34.714725494384766 15.455991744995117 -5
      vertex -36.54181671142578 16.269466400146484 -5
      vertex -32.360679626464844 23.511409759521484 -5
    endloop
  endfacet
  facet normal 0 0 -1
    outer loop
      vertex -37.16960906982422 7.900643348693848 -5
      vertex -36.54181671142578 16.269466400146484 -5
      vertex -34.714725494384766 15.455991744995117 -5
    endloop
  endfacet
  facet normal 0 0 -1
    outer loop
      vertex -39.12590408325195 8.31646728515625 -5
      vertex -37.16960906982422 7.900643348693848 -5
      vertex -38 0 -5
    endloop
  endfacet
  facet normal 0 0 -1
    outer loop
      vertex -40 0 -5
      vertex -38 0 -5
      vertex -39.12590408325195 -8.31646728515625 -5
    endloop
  endfacet
  facet normal 0 0 -1
    outer loop
      vertex -37.16960906982422 7.900643348693848 -5
      vertex -39.12590408325195 8.31646728515625 -5
      vertex -36.54181671142578 16.269466400146484 -5
    endloop
  endfacet
  facet normal 0 0 -1
    outer loop
      vertex -38 0 -5
      vertex -40 0 -5
      vertex -39.12590408325195 8.31646728515625 -5
    endloop
  endfacet
  facet normal -0.31768287683939866 0.1834142566015487 0.9302885575123155
    outer loop
      vertex -32.360679626464844 23.511409759521484 -5
      vertex -36.54181671142578 16.269466400146484 -5
      vertex -13.246408462524414 5.89768123626709 5
    endloop
  endfacet
  facet normal 0 0.36682855189491337 0.9302885646479166
    outer loop
      vertex 4.181138038635254 39.78087615966797 -5
      vertex -1.5156621932983398 14.42056655883789 5
      vertex 1.5156621932983398 14.42056655883789 5
    endloop
  endfacet
  facet normal 0 0.36682855189491337 0.9302885646479166
    outer loop
      vertex -1.5156621932983398 14.42056655883789 5
      vertex 4.181138038635254 39.78087615966797 -5
      vertex -4.181138038635254 39.78087615966797 -5
    endloop
  endfacet
  facet normal -0.14920262617856098 0.3351145942905662 0.9302885493409503
    outer loop
      vertex -4.480746269226074 13.790319442749023 5
      vertex -20 34.641014099121094 -5
      vertex -7.25 12.557368278503418 5
    endloop
  endfacet
  facet normal -0.3488746817041586 0.11335631329850819 0.9302885588360165
    outer loop
      vertex -36.54181671142578 16.269466400146484 -5
      vertex -39.12590408325195 8.31646728515625 -5
      vertex -14.18313980102539 3.014719009399414 5
    endloop
  endfacet
  facet normal 0.14920264769114613 -0.3351145792264659 0.9302885513171816
    outer loop
      vertex 20 -34.641014099121094 -5
      vertex 4.480746269226074 -13.790319442749023 5
      vertex 12.360679626464844 -38.042259216308594 -5
    endloop
  endfacet
  facet normal 0.14920262617856098 -0.3351145942905662 0.9302885493409503
    outer loop
      vertex 7.25 -12.557368278503418 5
      vertex 4.480746269226074 -13.790319442749023 5
      vertex 20 -34.641014099121094 -5
    endloop
  endfacet
  facet normal 0.21561646839154225 -0.2967705084860662 0.9302885594541517
    outer loop
      vertex 9.702393531799316 -10.775599479675293 5
      vertex 7.25 -12.557368278503418 5
      vertex 26.76522445678711 -29.725791931152344 -5
    endloop
  endfacet
  facet normal -0.07626783120220987 -0.3588124816922292 0.930288568620283
    outer loop
      vertex -1.5156621932983398 -14.42056655883789 5
      vertex -4.480746269226074 -13.790319442749023 5
      vertex -4.181138038635254 -39.78087615966797 -5
    endloop
  endfacet
  facet normal -0.36481903911476776 -0.03834401932425286 -0.9302885600078283
    outer loop
      vertex 37.16960906982422 7.900643348693848 -5
      vertex 38 0 -5
      vertex 12.226844787597656 2.598896026611328 5
    endloop
  endfacet
  facet normal -0.3488746857209238 -0.11335635247239842 -0.9302885525562916
    outer loop
      vertex 34.714725494384766 15.455991744995117 -5
      vertex 37.16960906982422 7.900643348693848 -5
      vertex 11.419318199157715 5.084207534790039 5
    endloop
  endfacet
  facet normal -0.36481904204610716 -0.03834405913054529 -0.9302885572175732
    outer loop
      vertex 38 0 -5
      vertex 12.5 0 5
      vertex 12.226844787597656 2.598896026611328 5
    endloop
  endfacet
  facet normal -0.2156164679054793 0.29677050774993013 -0.9302885598016425
    outer loop
      vertex 25.426963806152344 -28.239501953125 -5
      vertex 19 -32.908966064453125 -5
      vertex 6.25 -10.8253173828125 5
    endloop
  endfacet
  facet normal -0.07626792102783327 0.358812482688914 -0.9302885608716845
    outer loop
      vertex 11.742645263671875 -36.1401481628418 -5
      vertex 3.972081184387207 -37.791831970214844 -5
      vertex 1.306605339050293 -12.431523323059082 5
    endloop
  endfacet
  facet normal 0.14920249225519294 0.3351145977280679 -0.9302885695817155
    outer loop
      vertex -6.25 -10.8253173828125 5
      vertex -3.8627119064331055 -11.888205528259277 5
      vertex -11.742645263671875 -36.1401481628418 -5
    endloop
  endfacet
  facet normal 0.272606736174395 -0.24545622554299457 -0.9302885620787403
    outer loop
      vertex -8.364131927490234 9.28930950164795 5
      vertex -10.112711906433105 7.347314834594727 5
      vertex -25.426963806152344 28.239501953125 -5
    endloop
  endfacet
  facet normal 0.14920260097737964 0.33511457104681314 -0.9302885617558109
    outer loop
      vertex -6.25 -10.8253173828125 5
      vertex -11.742645263671875 -36.1401481628418 -5
      vertex -19 -32.908966064453125 -5
    endloop
  endfacet
  facet normal 0 -0.3668285638332561 -0.9302885599404255
    outer loop
      vertex -1.306605339050293 12.431523323059082 5
      vertex 3.972081184387207 37.791831970214844 -5
      vertex 1.306605339050293 12.431523323059082 5
    endloop
  endfacet
  facet normal 0 -0.3668285638332561 -0.9302885599404255
    outer loop
      vertex 3.972081184387207 37.791831970214844 -5
      vertex -1.306605339050293 12.431523323059082 5
      vertex -3.972081184387207 37.791831970214844 -5
    endloop
  endfacet
  facet normal 0 0.3668285638332561 -0.9302885599404255
    outer loop
      vertex 3.972081184387207 -37.791831970214844 -5
      vertex -1.306605339050293 -12.431523323059082 5
      vertex 1.306605339050293 -12.431523323059082 5
    endloop
  endfacet
  facet normal 0 0.3668285638332561 -0.9302885599404255
    outer loop
      vertex -1.306605339050293 -12.431523323059082 5
      vertex 3.972081184387207 -37.791831970214844 -5
      vertex -3.972081184387207 -37.791831970214844 -5
    endloop
  endfacet
  facet normal -0.27260677863907934 -0.24545619261785107 -0.9302885583224016
    outer loop
      vertex 25.426963806152344 28.239501953125 -5
      vertex 30.742645263671875 22.335838317871094 -5
      vertex 10.112711906433105 7.347314834594727 5
    endloop
  endfacet
  facet normal -0.2156164679054793 -0.29677050774993013 -0.9302885598016425
    outer loop
      vertex 19 32.908966064453125 -5
      vertex 25.426963806152344 28.239501953125 -5
      vertex 6.25 10.8253173828125 5
    endloop
  endfacet
  facet normal -0.07626801930907365 -0.3588124425577389 -0.930288568292882
    outer loop
      vertex 11.742645263671875 36.1401481628418 -5
      vertex 3.8627119064331055 11.888205528259277 5
      vertex 1.306605339050293 12.431523323059082 5
    endloop
  endfacet
  facet normal -0.3176828128401038 0.18341435352320992 -0.9302885602584084
    outer loop
      vertex 11.419318199157715 -5.084207534790039 5
      vertex 30.742645263671875 -22.335838317871094 -5
      vertex 10.112711906433105 -7.347314834594727 5
    endloop
  endfacet
  facet normal -0.14920260097737964 -0.33511457104681314 -0.9302885617558109
    outer loop
      vertex 11.742645263671875 36.1401481628418 -5
      vertex 19 32.908966064453125 -5
      vertex 6.25 10.8253173828125 5
    endloop
  endfacet
  facet normal 0.07626792102783327 0.358812482688914 -0.9302885608716845
    outer loop
      vertex -1.306605339050293 -12.431523323059082 5
      vertex -3.972081184387207 -37.791831970214844 -5
      vertex -11.742645263671875 -36.1401481628418 -5
    endloop
  endfacet
  facet normal 0.27260677863907934 -0.24545619261785107 -0.9302885583224016
    outer loop
      vertex -25.426963806152344 28.239501953125 -5
      vertex -10.112711906433105 7.347314834594727 5
      vertex -30.742645263671875 22.335838317871094 -5
    endloop
  endfacet
  facet normal 0.36481904204610716 -0.03834405913054529 -0.9302885572175732
    outer loop
      vertex -12.226844787597656 2.598896026611328 5
      vertex -12.5 0 5
      vertex -38 0 -5
    endloop
  endfacet
  facet normal -0.14920249225519294 -0.3351145977280679 -0.9302885695817155
    outer loop
      vertex 11.742645263671875 36.1401481628418 -5
      vertex 6.25 10.8253173828125 5
      vertex 3.8627119064331055 11.888205528259277 5
    endloop
  endfacet
  facet normal -0.2156165163135286 -0.29677045724989737 -0.9302885646918942
    outer loop
      vertex 25.426963806152344 28.239501953125 -5
      vertex 8.364131927490234 9.28930950164795 5
      vertex 6.25 10.8253173828125 5
    endloop
  endfacet
  facet normal 0.14920260097737964 -0.33511457104681314 -0.9302885617558109
    outer loop
      vertex -11.742645263671875 36.1401481628418 -5
      vertex -6.25 10.8253173828125 5
      vertex -19 32.908966064453125 -5
    endloop
  endfacet
  facet normal 0.07626792102783327 -0.358812482688914 -0.9302885608716845
    outer loop
      vertex -3.972081184387207 37.791831970214844 -5
      vertex -1.306605339050293 12.431523323059082 5
      vertex -11.742645263671875 36.1401481628418 -5
    endloop
  endfacet
  facet normal -0.31768289467248984 -0.18341425672763909 -0.9302885513976593
    outer loop
      vertex 30.742645263671875 22.335838317871094 -5
      vertex 34.714725494384766 15.455991744995117 -5
      vertex 11.419318199157715 5.084207534790039 5
    endloop
  endfacet
  facet normal 0.3176828128401038 0.18341435352320992 -0.9302885602584084
    outer loop
      vertex -11.419318199157715 -5.084207534790039 5
      vertex -10.112711906433105 -7.347314834594727 5
      vertex -30.742645263671875 -22.335838317871094 -5
    endloop
  endfacet
  facet normal -0.3176828128401038 -0.18341435352320992 -0.9302885602584084
    outer loop
      vertex 30.742645263671875 22.335838317871094 -5
      vertex 11.419318199157715 5.084207534790039 5
      vertex 10.112711906433105 7.347314834594727 5
    endloop
  endfacet
  facet normal -0.36481903911476776 0.03834401932425286 -0.9302885600078283
    outer loop
      vertex 38 0 -5
      vertex 37.16960906982422 -7.900643348693848 -5
      vertex 12.226844787597656 -2.598896026611328 5
    endloop
  endfacet
  facet normal 0.2156164679054793 -0.29677050774993013 -0.9302885598016425
    outer loop
      vertex -19 32.908966064453125 -5
      vertex -6.25 10.8253173828125 5
      vertex -25.426963806152344 28.239501953125 -5
    endloop
  endfacet
  facet normal -0.34887469955631184 -0.11335625131844039 -0.9302885596934554
    outer loop
      vertex 37.16960906982422 7.900643348693848 -5
      vertex 12.226844787597656 2.598896026611328 5
      vertex 11.419318199157715 5.084207534790039 5
    endloop
  endfacet
  facet normal 0.07626801930907365 0.3588124425577389 -0.930288568292882
    outer loop
      vertex -3.8627119064331055 -11.888205528259277 5
      vertex -1.306605339050293 -12.431523323059082 5
      vertex -11.742645263671875 -36.1401481628418 -5
    endloop
  endfacet
  facet normal 0.3488746857209238 -0.11335635247239842 -0.9302885525562916
    outer loop
      vertex -34.714725494384766 15.455991744995117 -5
      vertex -11.419318199157715 5.084207534790039 5
      vertex -37.16960906982422 7.900643348693848 -5
    endloop
  endfacet
  facet normal -0.07626792102783327 -0.358812482688914 -0.9302885608716845
    outer loop
      vertex 3.972081184387207 37.791831970214844 -5
      vertex 11.742645263671875 36.1401481628418 -5
      vertex 1.306605339050293 12.431523323059082 5
    endloop
  endfacet
  facet normal 0.3176828128401038 -0.18341435352320992 -0.9302885602584084
    outer loop
      vertex -10.112711906433105 7.347314834594727 5
      vertex -11.419318199157715 5.084207534790039 5
      vertex -30.742645263671875 22.335838317871094 -5
    endloop
  endfacet
  facet normal 0.31768289467248984 -0.18341425672763909 -0.9302885513976593
    outer loop
      vertex -30.742645263671875 22.335838317871094 -5
      vertex -11.419318199157715 5.084207534790039 5
      vertex -34.714725494384766 15.455991744995117 -5
    endloop
  endfacet
  facet normal 0.36481904204610716 0.03834405913054529 -0.9302885572175732
    outer loop
      vertex -12.5 0 5
      vertex -12.226844787597656 -2.598896026611328 5
      vertex -38 0 -5
    endloop
  endfacet
  facet normal -0.07626801930907365 0.3588124425577389 -0.930288568292882
    outer loop
      vertex 3.8627119064331055 -11.888205528259277 5
      vertex 11.742645263671875 -36.1401481628418 -5
      vertex 1.306605339050293 -12.431523323059082 5
    endloop
  endfacet
  facet normal 0.31768289467248984 0.18341425672763909 -0.9302885513976593
    outer loop
      vertex -11.419318199157715 -5.084207534790039 5
      vertex -30.742645263671875 -22.335838317871094 -5
      vertex -34.714725494384766 -15.455991744995117 -5
    endloop
  endfacet
  facet normal 0.3488746857209238 0.11335635247239842 -0.9302885525562916
    outer loop
      vertex -11.419318199157715 -5.084207534790039 5
      vertex -34.714725494384766 -15.455991744995117 -5
      vertex -37.16960906982422 -7.900643348693848 -5
    endloop
  endfacet
  facet normal -0.272606736174395 -0.24545622554299457 -0.9302885620787403
    outer loop
      vertex 25.426963806152344 28.239501953125 -5
      vertex 10.112711906433105 7.347314834594727 5
      vertex 8.364131927490234 9.28930950164795 5
    endloop
  endfacet
  facet normal -0.36481904204610716 0.03834405913054529 -0.9302885572175732
    outer loop
      vertex 12.5 0 5
      vertex 38 0 -5
      vertex 12.226844787597656 -2.598896026611328 5
    endloop
  endfacet
  facet normal -0.272606736174395 0.24545622554299457 -0.9302885620787403
    outer loop
      vertex 10.112711906433105 -7.347314834594727 5
      vertex 25.426963806152344 -28.239501953125 -5
      vertex 8.364131927490234 -9.28930950164795 5
    endloop
  endfacet
  facet normal -0.3488746857209238 0.11335635247239842 -0.9302885525562916
    outer loop
      vertex 37.16960906982422 -7.900643348693848 -5
      vertex 34.714725494384766 -15.455991744995117 -5
      vertex 11.419318199157715 -5.084207534790039 5
    endloop
  endfacet
  facet normal 0.34887469955631184 0.11335625131844039 -0.9302885596934554
    outer loop
      vertex -12.226844787597656 -2.598896026611328 5
      vertex -11.419318199157715 -5.084207534790039 5
      vertex -37.16960906982422 -7.900643348693848 -5
    endloop
  endfacet
  facet normal 0.2156165163135286 -0.29677045724989737 -0.9302885646918942
    outer loop
      vertex -6.25 10.8253173828125 5
      vertex -8.364131927490234 9.28930950164795 5
      vertex -25.426963806152344 28.239501953125 -5
    endloop
  endfacet
  facet normal 0.07626801930907365 -0.3588124425577389 -0.930288568292882
    outer loop
      vertex -1.306605339050293 12.431523323059082 5
      vertex -3.8627119064331055 11.888205528259277 5
      vertex -11.742645263671875 36.1401481628418 -5
    endloop
  endfacet
  facet normal -0.14920249225519294 0.3351145977280679 -0.9302885695817155
    outer loop
      vertex 6.25 -10.8253173828125 5
      vertex 11.742645263671875 -36.1401481628418 -5
      vertex 3.8627119064331055 -11.888205528259277 5
    endloop
  endfacet
  facet normal -0.14920260097737964 0.33511457104681314 -0.9302885617558109
    outer loop
      vertex 19 -32.908966064453125 -5
      vertex 11.742645263671875 -36.1401481628418 -5
      vertex 6.25 -10.8253173828125 5
    endloop
  endfacet
  facet normal -0.2156165163135286 0.29677045724989737 -0.9302885646918942
    outer loop
      vertex 8.364131927490234 -9.28930950164795 5
      vertex 25.426963806152344 -28.239501953125 -5
      vertex 6.25 -10.8253173828125 5
    endloop
  endfacet
  facet normal 0.14920249225519294 -0.3351145977280679 -0.9302885695817155
    outer loop
      vertex -3.8627119064331055 11.888205528259277 5
      vertex -6.25 10.8253173828125 5
      vertex -11.742645263671875 36.1401481628418 -5
    endloop
  endfacet
  facet normal 0.27260677863907934 0.24545619261785107 -0.9302885583224016
    outer loop
      vertex -10.112711906433105 -7.347314834594727 5
      vertex -25.426963806152344 -28.239501953125 -5
      vertex -30.742645263671875 -22.335838317871094 -5
    endloop
  endfacet
  facet normal -0.34887469955631184 0.11335625131844039 -0.9302885596934554
    outer loop
      vertex 12.226844787597656 -2.598896026611328 5
      vertex 37.16960906982422 -7.900643348693848 -5
      vertex 11.419318199157715 -5.084207534790039 5
    endloop
  endfacet
  facet normal 0.36481903911476776 0.03834401932425286 -0.9302885600078283
    outer loop
      vertex -12.226844787597656 -2.598896026611328 5
      vertex -37.16960906982422 -7.900643348693848 -5
      vertex -38 0 -5
    endloop
  endfacet
  facet normal 0.34887469955631184 -0.11335625131844039 -0.9302885596934554
    outer loop
      vertex -11.419318199157715 5.084207534790039 5
      vertex -12.226844787597656 2.598896026611328 5
      vertex -37.16960906982422 7.900643348693848 -5
    endloop
  endfacet
  facet normal 0.36481903911476776 -0.03834401932425286 -0.9302885600078283
    outer loop
      vertex -37.16960906982422 7.900643348693848 -5
      vertex -12.226844787597656 2.598896026611328 5
      vertex -38 0 -5
    endloop
  endfacet
  facet normal 0.2156164679054793 0.29677050774993013 -0.9302885598016425
    outer loop
      vertex -6.25 -10.8253173828125 5
      vertex -19 -32.908966064453125 -5
      vertex -25.426963806152344 -28.239501953125 -5
    endloop
  endfacet
  facet normal -0.27260677863907934 0.24545619261785107 -0.9302885583224016
    outer loop
      vertex 30.742645263671875 -22.335838317871094 -5
      vertex 25.426963806152344 -28.239501953125 -5
      vertex 10.112711906433105 -7.347314834594727 5
    endloop
  endfacet
  facet normal -0.31768289467248984 0.18341425672763909 -0.9302885513976593
    outer loop
      vertex 34.714725494384766 -15.455991744995117 -5
      vertex 30.742645263671875 -22.335838317871094 -5
      vertex 11.419318199157715 -5.084207534790039 5
    endloop
  endfacet
  facet normal 0.2156165163135286 0.29677045724989737 -0.9302885646918942
    outer loop
      vertex -8.364131927490234 -9.28930950164795 5
      vertex -6.25 -10.8253173828125 5
      vertex -25.426963806152344 -28.239501953125 -5
    endloop
  endfacet
  facet normal 0.272606736174395 0.24545622554299457 -0.9302885620787403
    outer loop
      vertex -10.112711906433105 -7.347314834594727 5
      vertex -8.364131927490234 -9.28930950164795 5
      vertex -25.426963806152344 -28.239501953125 -5
    endloop
  endfacet
endsolid OpenSCAD_Model
