solid OpenSCAD_Model
  facet normal 0.89691 0.442212 -2.34491e-19
    outer loop
      vertex -1.55885 -18.9 3
      vertex -1.66298 -18.6888 0
      vertex -1.66298 -18.6888 3
    endloop
  endfacet
  facet normal 0.89691 0.442212 -2.34491e-19
    outer loop
      vertex -1.66298 -18.6888 0
      vertex -1.55885 -18.9 3
      vertex -1.55885 -18.9 0
    endloop
  endfacet
  facet normal -0.980801 -0.195014 5.3524e-19
    outer loop
      vertex 1.7846 -17.7651 0
      vertex 1.73867 -17.5341 3
      vertex 1.73867 -17.5341 0
    endloop
  endfacet
  facet normal -0.980801 -0.195014 5.3524e-19
    outer loop
      vertex 1.73867 -17.5341 3
      vertex 1.7846 -17.7651 0
      vertex 1.7846 -17.7651 3
    endloop
  endfacet
  facet normal -0.997858 -0.0654194 5.91998e-20
    outer loop
      vertex 1.8 -18 0
      vertex 1.7846 -17.7651 3
      vertex 1.7846 -17.7651 0
    endloop
  endfacet
  facet normal -0.997858 -0.0654194 5.91998e-20
    outer loop
      vertex 1.7846 -17.7651 3
      vertex 1.8 -18 0
      vertex 1.8 -18 3
    endloop
  endfacet
  facet normal -0.946897 -0.321537 2.4007e-18
    outer loop
      vertex 1.73867 -17.5341 0
      vertex 1.66298 -17.3112 3
      vertex 1.66298 -17.3112 0
    endloop
  endfacet
  facet normal -0.946897 -0.321537 2.4007e-18
    outer loop
      vertex 1.66298 -17.3112 3
      vertex 1.73867 -17.5341 0
      vertex 1.73867 -17.5341 3
    endloop
  endfacet
  facet normal 0.89691 -0.442212 2.34491e-19
    outer loop
      vertex -1.66298 -17.3112 3
      vertex -1.55885 -17.1 0
      vertex -1.55885 -17.1 3
    endloop
  endfacet
  facet normal 0.89691 -0.442212 2.34491e-19
    outer loop
      vertex -1.55885 -17.1 0
      vertex -1.66298 -17.3112 3
      vertex -1.66298 -17.3112 0
    endloop
  endfacet
  facet normal -0.659244 0.751929 0
    outer loop
      vertex 1.27279 -19.2728 0
      vertex 1.09577 -19.428 3
      vertex 1.27279 -19.2728 3
    endloop
  endfacet
  facet normal -0.659244 0.751929 0
    outer loop
      vertex 1.09577 -19.428 3
      vertex 1.27279 -19.2728 0
      vertex 1.09577 -19.428 0
    endloop
  endfacet
  facet normal 0.751787 0.659406 -2.0959e-18
    outer loop
      vertex -1.27279 -19.2728 3
      vertex -1.42804 -19.0958 0
      vertex -1.42804 -19.0958 3
    endloop
  endfacet
  facet normal 0.751787 0.659406 -2.0959e-18
    outer loop
      vertex -1.42804 -19.0958 0
      vertex -1.27279 -19.2728 3
      vertex -1.27279 -19.2728 0
    endloop
  endfacet
  facet normal -0.321504 -0.946908 0
    outer loop
      vertex 0.465874 -16.2613 0
      vertex 0.688829 -16.337 3
      vertex 0.465874 -16.2613 3
    endloop
  endfacet
  facet normal -0.321504 -0.946908 -0
    outer loop
      vertex 0.688829 -16.337 3
      vertex 0.465874 -16.2613 0
      vertex 0.688829 -16.337 0
    endloop
  endfacet
  facet normal -0.997858 0.0654194 -5.91998e-20
    outer loop
      vertex 1.7846 -18.2349 0
      vertex 1.8 -18 3
      vertex 1.8 -18 0
    endloop
  endfacet
  facet normal -0.997858 0.0654194 -5.91998e-20
    outer loop
      vertex 1.8 -18 3
      vertex 1.7846 -18.2349 0
      vertex 1.7846 -18.2349 3
    endloop
  endfacet
  facet normal -0.321504 0.946908 0
    outer loop
      vertex 0.688829 -19.663 0
      vertex 0.465874 -19.7387 3
      vertex 0.688829 -19.663 3
    endloop
  endfacet
  facet normal -0.321504 0.946908 0
    outer loop
      vertex 0.465874 -19.7387 3
      vertex 0.688829 -19.663 0
      vertex 0.465874 -19.7387 0
    endloop
  endfacet
  facet normal -0.555543 0.831488 0
    outer loop
      vertex 1.09577 -19.428 0
      vertex 0.9 -19.5588 3
      vertex 1.09577 -19.428 3
    endloop
  endfacet
  facet normal -0.555543 0.831488 0
    outer loop
      vertex 0.9 -19.5588 3
      vertex 1.09577 -19.428 0
      vertex 0.9 -19.5588 0
    endloop
  endfacet
  facet normal -0.89691 -0.442212 -2.34491e-19
    outer loop
      vertex 1.66298 -17.3112 0
      vertex 1.55885 -17.1 3
      vertex 1.55885 -17.1 0
    endloop
  endfacet
  facet normal -0.89691 -0.442212 -2.34491e-19
    outer loop
      vertex 1.55885 -17.1 3
      vertex 1.66298 -17.3112 0
      vertex 1.66298 -17.3112 3
    endloop
  endfacet
  facet normal -0.831508 0.555513 -2.35382e-18
    outer loop
      vertex 1.42804 -19.0958 0
      vertex 1.55885 -18.9 3
      vertex 1.55885 -18.9 0
    endloop
  endfacet
  facet normal -0.831508 0.555513 -2.35382e-18
    outer loop
      vertex 1.55885 -18.9 3
      vertex 1.42804 -19.0958 0
      vertex 1.42804 -19.0958 3
    endloop
  endfacet
  facet normal -0.4425 -0.896768 0
    outer loop
      vertex 0.688829 -16.337 0
      vertex 0.9 -16.4412 3
      vertex 0.688829 -16.337 3
    endloop
  endfacet
  facet normal -0.4425 -0.896768 -0
    outer loop
      vertex 0.9 -16.4412 3
      vertex 0.688829 -16.337 0
      vertex 0.9 -16.4412 0
    endloop
  endfacet
  facet normal -0.980801 0.195014 -5.3524e-19
    outer loop
      vertex 1.73867 -18.4659 0
      vertex 1.7846 -18.2349 3
      vertex 1.7846 -18.2349 0
    endloop
  endfacet
  facet normal -0.980801 0.195014 -5.3524e-19
    outer loop
      vertex 1.7846 -18.2349 3
      vertex 1.73867 -18.4659 0
      vertex 1.73867 -18.4659 3
    endloop
  endfacet
  facet normal -0.751787 0.659406 2.0959e-18
    outer loop
      vertex 1.27279 -19.2728 0
      vertex 1.42804 -19.0958 3
      vertex 1.42804 -19.0958 0
    endloop
  endfacet
  facet normal -0.751787 0.659406 2.0959e-18
    outer loop
      vertex 1.42804 -19.0958 3
      vertex 1.27279 -19.2728 0
      vertex 1.27279 -19.2728 3
    endloop
  endfacet
  facet normal 0.19495 -0.980813 0
    outer loop
      vertex -0.465874 -16.2613 0
      vertex -0.234946 -16.2154 3
      vertex -0.465874 -16.2613 3
    endloop
  endfacet
  facet normal 0.19495 -0.980813 0
    outer loop
      vertex -0.234946 -16.2154 3
      vertex -0.465874 -16.2613 0
      vertex -0.234946 -16.2154 0
    endloop
  endfacet
  facet normal 0.659244 -0.751929 0
    outer loop
      vertex -1.27279 -16.7272 0
      vertex -1.09577 -16.572 3
      vertex -1.27279 -16.7272 3
    endloop
  endfacet
  facet normal 0.659244 -0.751929 0
    outer loop
      vertex -1.09577 -16.572 3
      vertex -1.27279 -16.7272 0
      vertex -1.09577 -16.572 0
    endloop
  endfacet
  facet normal 0.4425 -0.896768 0
    outer loop
      vertex -0.9 -16.4412 0
      vertex -0.688829 -16.337 3
      vertex -0.9 -16.4412 3
    endloop
  endfacet
  facet normal 0.4425 -0.896768 0
    outer loop
      vertex -0.688829 -16.337 3
      vertex -0.9 -16.4412 0
      vertex -0.688829 -16.337 0
    endloop
  endfacet
  facet normal 0.831508 -0.555513 -2.35382e-18
    outer loop
      vertex -1.55885 -17.1 3
      vertex -1.42804 -16.9042 0
      vertex -1.42804 -16.9042 3
    endloop
  endfacet
  facet normal 0.831508 -0.555513 -2.35382e-18
    outer loop
      vertex -1.42804 -16.9042 0
      vertex -1.55885 -17.1 3
      vertex -1.55885 -17.1 0
    endloop
  endfacet
  facet normal -0.831508 -0.555513 2.35382e-18
    outer loop
      vertex 1.55885 -17.1 0
      vertex 1.42804 -16.9042 3
      vertex 1.42804 -16.9042 0
    endloop
  endfacet
  facet normal -0.831508 -0.555513 2.35382e-18
    outer loop
      vertex 1.42804 -16.9042 3
      vertex 1.55885 -17.1 0
      vertex 1.55885 -17.1 3
    endloop
  endfacet
  facet normal -0.19495 0.980813 0
    outer loop
      vertex 0.465874 -19.7387 0
      vertex 0.234946 -19.7846 3
      vertex 0.465874 -19.7387 3
    endloop
  endfacet
  facet normal -0.19495 0.980813 0
    outer loop
      vertex 0.234946 -19.7846 3
      vertex 0.465874 -19.7387 0
      vertex 0.234946 -19.7846 0
    endloop
  endfacet
  facet normal 0.19495 0.980813 -0
    outer loop
      vertex -0.234946 -19.7846 0
      vertex -0.465874 -19.7387 3
      vertex -0.234946 -19.7846 3
    endloop
  endfacet
  facet normal 0.19495 0.980813 0
    outer loop
      vertex -0.465874 -19.7387 3
      vertex -0.234946 -19.7846 0
      vertex -0.465874 -19.7387 0
    endloop
  endfacet
  facet normal 0.946897 -0.321537 -2.4007e-18
    outer loop
      vertex -1.73867 -17.5341 3
      vertex -1.66298 -17.3112 0
      vertex -1.66298 -17.3112 3
    endloop
  endfacet
  facet normal 0.946897 -0.321537 -2.4007e-18
    outer loop
      vertex -1.66298 -17.3112 0
      vertex -1.73867 -17.5341 3
      vertex -1.73867 -17.5341 0
    endloop
  endfacet
  facet normal -0.659244 -0.751929 0
    outer loop
      vertex 1.09577 -16.572 0
      vertex 1.27279 -16.7272 3
      vertex 1.09577 -16.572 3
    endloop
  endfacet
  facet normal -0.659244 -0.751929 -0
    outer loop
      vertex 1.27279 -16.7272 3
      vertex 1.09577 -16.572 0
      vertex 1.27279 -16.7272 0
    endloop
  endfacet
  facet normal 0.555543 -0.831488 0
    outer loop
      vertex -1.09577 -16.572 0
      vertex -0.9 -16.4412 3
      vertex -1.09577 -16.572 3
    endloop
  endfacet
  facet normal 0.555543 -0.831488 0
    outer loop
      vertex -0.9 -16.4412 3
      vertex -1.09577 -16.572 0
      vertex -0.9 -16.4412 0
    endloop
  endfacet
  facet normal 0.980801 -0.195014 -5.3524e-19
    outer loop
      vertex -1.7846 -17.7651 3
      vertex -1.73867 -17.5341 0
      vertex -1.73867 -17.5341 3
    endloop
  endfacet
  facet normal 0.980801 -0.195014 -5.3524e-19
    outer loop
      vertex -1.73867 -17.5341 0
      vertex -1.7846 -17.7651 3
      vertex -1.7846 -17.7651 0
    endloop
  endfacet
  facet normal 0.946897 0.321537 2.4007e-18
    outer loop
      vertex -1.66298 -18.6888 3
      vertex -1.73867 -18.4659 0
      vertex -1.73867 -18.4659 3
    endloop
  endfacet
  facet normal 0.946897 0.321537 2.4007e-18
    outer loop
      vertex -1.73867 -18.4659 0
      vertex -1.66298 -18.6888 3
      vertex -1.66298 -18.6888 0
    endloop
  endfacet
  facet normal -0.751787 -0.659406 -2.0959e-18
    outer loop
      vertex 1.42804 -16.9042 0
      vertex 1.27279 -16.7272 3
      vertex 1.27279 -16.7272 0
    endloop
  endfacet
  facet normal -0.751787 -0.659406 -2.0959e-18
    outer loop
      vertex 1.27279 -16.7272 3
      vertex 1.42804 -16.9042 0
      vertex 1.42804 -16.9042 3
    endloop
  endfacet
  facet normal -0.4425 0.896768 0
    outer loop
      vertex 0.9 -19.5588 0
      vertex 0.688829 -19.663 3
      vertex 0.9 -19.5588 3
    endloop
  endfacet
  facet normal -0.4425 0.896768 0
    outer loop
      vertex 0.688829 -19.663 3
      vertex 0.9 -19.5588 0
      vertex 0.688829 -19.663 0
    endloop
  endfacet
  facet normal 0.0654066 0.997859 -0
    outer loop
      vertex 0 -19.8 0
      vertex -0.234946 -19.7846 3
      vertex 0 -19.8 3
    endloop
  endfacet
  facet normal 0.0654066 0.997859 0
    outer loop
      vertex -0.234946 -19.7846 3
      vertex 0 -19.8 0
      vertex -0.234946 -19.7846 0
    endloop
  endfacet
  facet normal -0.555543 -0.831488 0
    outer loop
      vertex 0.9 -16.4412 0
      vertex 1.09577 -16.572 3
      vertex 0.9 -16.4412 3
    endloop
  endfacet
  facet normal -0.555543 -0.831488 -0
    outer loop
      vertex 1.09577 -16.572 3
      vertex 0.9 -16.4412 0
      vertex 1.09577 -16.572 0
    endloop
  endfacet
  facet normal 0.997858 -0.0654194 -5.91998e-20
    outer loop
      vertex -1.8 -18 3
      vertex -1.7846 -17.7651 0
      vertex -1.7846 -17.7651 3
    endloop
  endfacet
  facet normal 0.997858 -0.0654194 -5.91998e-20
    outer loop
      vertex -1.7846 -17.7651 0
      vertex -1.8 -18 3
      vertex -1.8 -18 0
    endloop
  endfacet
  facet normal 0.997858 0.0654194 5.91998e-20
    outer loop
      vertex -1.7846 -18.2349 3
      vertex -1.8 -18 0
      vertex -1.8 -18 3
    endloop
  endfacet
  facet normal 0.997858 0.0654194 5.91998e-20
    outer loop
      vertex -1.8 -18 0
      vertex -1.7846 -18.2349 3
      vertex -1.7846 -18.2349 0
    endloop
  endfacet
  facet normal -0.19495 -0.980813 0
    outer loop
      vertex 0.234946 -16.2154 0
      vertex 0.465874 -16.2613 3
      vertex 0.234946 -16.2154 3
    endloop
  endfacet
  facet normal -0.19495 -0.980813 -0
    outer loop
      vertex 0.465874 -16.2613 3
      vertex 0.234946 -16.2154 0
      vertex 0.465874 -16.2613 0
    endloop
  endfacet
  facet normal -0.89691 0.442212 2.34491e-19
    outer loop
      vertex 1.55885 -18.9 0
      vertex 1.66298 -18.6888 3
      vertex 1.66298 -18.6888 0
    endloop
  endfacet
  facet normal -0.89691 0.442212 2.34491e-19
    outer loop
      vertex 1.66298 -18.6888 3
      vertex 1.55885 -18.9 0
      vertex 1.55885 -18.9 3
    endloop
  endfacet
  facet normal 0.321504 -0.946908 0
    outer loop
      vertex -0.688829 -16.337 0
      vertex -0.465874 -16.2613 3
      vertex -0.688829 -16.337 3
    endloop
  endfacet
  facet normal 0.321504 -0.946908 0
    outer loop
      vertex -0.465874 -16.2613 3
      vertex -0.688829 -16.337 0
      vertex -0.465874 -16.2613 0
    endloop
  endfacet
  facet normal -0.0654066 -0.997859 0
    outer loop
      vertex 0 -16.2 0
      vertex 0.234946 -16.2154 3
      vertex 0 -16.2 3
    endloop
  endfacet
  facet normal -0.0654066 -0.997859 -0
    outer loop
      vertex 0.234946 -16.2154 3
      vertex 0 -16.2 0
      vertex 0.234946 -16.2154 0
    endloop
  endfacet
  facet normal 0.321504 0.946908 -0
    outer loop
      vertex -0.465874 -19.7387 0
      vertex -0.688829 -19.663 3
      vertex -0.465874 -19.7387 3
    endloop
  endfacet
  facet normal 0.321504 0.946908 0
    outer loop
      vertex -0.688829 -19.663 3
      vertex -0.465874 -19.7387 0
      vertex -0.688829 -19.663 0
    endloop
  endfacet
  facet normal 0.980801 0.195014 5.3524e-19
    outer loop
      vertex -1.73867 -18.4659 3
      vertex -1.7846 -18.2349 0
      vertex -1.7846 -18.2349 3
    endloop
  endfacet
  facet normal 0.980801 0.195014 5.3524e-19
    outer loop
      vertex -1.7846 -18.2349 0
      vertex -1.73867 -18.4659 3
      vertex -1.73867 -18.4659 0
    endloop
  endfacet
  facet normal -0.0654066 0.997859 0
    outer loop
      vertex 0.234946 -19.7846 0
      vertex 0 -19.8 3
      vertex 0.234946 -19.7846 3
    endloop
  endfacet
  facet normal -0.0654066 0.997859 0
    outer loop
      vertex 0 -19.8 3
      vertex 0.234946 -19.7846 0
      vertex 0 -19.8 0
    endloop
  endfacet
  facet normal -0.946897 0.321537 -2.4007e-18
    outer loop
      vertex 1.66298 -18.6888 0
      vertex 1.73867 -18.4659 3
      vertex 1.73867 -18.4659 0
    endloop
  endfacet
  facet normal -0.946897 0.321537 -2.4007e-18
    outer loop
      vertex 1.73867 -18.4659 3
      vertex 1.66298 -18.6888 0
      vertex 1.66298 -18.6888 3
    endloop
  endfacet
  facet normal 0.4425 0.896768 -0
    outer loop
      vertex -0.688829 -19.663 0
      vertex -0.9 -19.5588 3
      vertex -0.688829 -19.663 3
    endloop
  endfacet
  facet normal 0.4425 0.896768 0
    outer loop
      vertex -0.9 -19.5588 3
      vertex -0.688829 -19.663 0
      vertex -0.9 -19.5588 0
    endloop
  endfacet
  facet normal 0.831508 0.555513 2.35382e-18
    outer loop
      vertex -1.42804 -19.0958 3
      vertex -1.55885 -18.9 0
      vertex -1.55885 -18.9 3
    endloop
  endfacet
  facet normal 0.831508 0.555513 2.35382e-18
    outer loop
      vertex -1.55885 -18.9 0
      vertex -1.42804 -19.0958 3
      vertex -1.42804 -19.0958 0
    endloop
  endfacet
  facet normal 0.0654066 -0.997859 0
    outer loop
      vertex -0.234946 -16.2154 0
      vertex 0 -16.2 3
      vertex -0.234946 -16.2154 3
    endloop
  endfacet
  facet normal 0.0654066 -0.997859 0
    outer loop
      vertex 0 -16.2 3
      vertex -0.234946 -16.2154 0
      vertex 0 -16.2 0
    endloop
  endfacet
  facet normal 0.751787 -0.659406 2.0959e-18
    outer loop
      vertex -1.42804 -16.9042 3
      vertex -1.27279 -16.7272 0
      vertex -1.27279 -16.7272 3
    endloop
  endfacet
  facet normal 0.751787 -0.659406 2.0959e-18
    outer loop
      vertex -1.27279 -16.7272 0
      vertex -1.42804 -16.9042 3
      vertex -1.42804 -16.9042 0
    endloop
  endfacet
  facet normal 0.659244 0.751929 -0
    outer loop
      vertex -1.09577 -19.428 0
      vertex -1.27279 -19.2728 3
      vertex -1.09577 -19.428 3
    endloop
  endfacet
  facet normal 0.659244 0.751929 0
    outer loop
      vertex -1.27279 -19.2728 3
      vertex -1.09577 -19.428 0
      vertex -1.27279 -19.2728 0
    endloop
  endfacet
  facet normal 0.555543 0.831488 -0
    outer loop
      vertex -0.9 -19.5588 0
      vertex -1.09577 -19.428 3
      vertex -0.9 -19.5588 3
    endloop
  endfacet
  facet normal 0.555543 0.831488 0
    outer loop
      vertex -1.09577 -19.428 3
      vertex -0.9 -19.5588 0
      vertex -1.09577 -19.428 0
    endloop
  endfacet
  facet normal -0.980801 -0.195014 5.3524e-19
    outer loop
      vertex 1.7846 18.2349 0
      vertex 1.73867 18.4659 3
      vertex 1.73867 18.4659 0
    endloop
  endfacet
  facet normal -0.980801 -0.195014 5.3524e-19
    outer loop
      vertex 1.73867 18.4659 3
      vertex 1.7846 18.2349 0
      vertex 1.7846 18.2349 3
    endloop
  endfacet
  facet normal -0.997858 -0.0654194 5.91998e-20
    outer loop
      vertex 1.8 18 0
      vertex 1.7846 18.2349 3
      vertex 1.7846 18.2349 0
    endloop
  endfacet
  facet normal -0.997858 -0.0654194 5.91998e-20
    outer loop
      vertex 1.7846 18.2349 3
      vertex 1.8 18 0
      vertex 1.8 18 3
    endloop
  endfacet
  facet normal -0.946897 -0.321537 2.4007e-18
    outer loop
      vertex 1.73867 18.4659 0
      vertex 1.66298 18.6888 3
      vertex 1.66298 18.6888 0
    endloop
  endfacet
  facet normal -0.946897 -0.321537 2.4007e-18
    outer loop
      vertex 1.66298 18.6888 3
      vertex 1.73867 18.4659 0
      vertex 1.73867 18.4659 3
    endloop
  endfacet
  facet normal -0.946897 0.321537 -2.4007e-18
    outer loop
      vertex 1.66298 17.3112 0
      vertex 1.73867 17.5341 3
      vertex 1.73867 17.5341 0
    endloop
  endfacet
  facet normal -0.946897 0.321537 -2.4007e-18
    outer loop
      vertex 1.73867 17.5341 3
      vertex 1.66298 17.3112 0
      vertex 1.66298 17.3112 3
    endloop
  endfacet
  facet normal -0.980801 0.195014 -5.3524e-19
    outer loop
      vertex 1.73867 17.5341 0
      vertex 1.7846 17.7651 3
      vertex 1.7846 17.7651 0
    endloop
  endfacet
  facet normal -0.980801 0.195014 -5.3524e-19
    outer loop
      vertex 1.7846 17.7651 3
      vertex 1.73867 17.5341 0
      vertex 1.73867 17.5341 3
    endloop
  endfacet
  facet normal -0.19495 0.980813 0
    outer loop
      vertex 0.465874 16.2613 0
      vertex 0.234946 16.2154 3
      vertex 0.465874 16.2613 3
    endloop
  endfacet
  facet normal -0.19495 0.980813 0
    outer loop
      vertex 0.234946 16.2154 3
      vertex 0.465874 16.2613 0
      vertex 0.234946 16.2154 0
    endloop
  endfacet
  facet normal -0.89691 0.442212 2.34491e-19
    outer loop
      vertex 1.55885 17.1 0
      vertex 1.66298 17.3112 3
      vertex 1.66298 17.3112 0
    endloop
  endfacet
  facet normal -0.89691 0.442212 2.34491e-19
    outer loop
      vertex 1.66298 17.3112 3
      vertex 1.55885 17.1 0
      vertex 1.55885 17.1 3
    endloop
  endfacet
  facet normal -0.4425 0.896768 0
    outer loop
      vertex 0.9 16.4412 0
      vertex 0.688829 16.337 3
      vertex 0.9 16.4412 3
    endloop
  endfacet
  facet normal -0.4425 0.896768 0
    outer loop
      vertex 0.688829 16.337 3
      vertex 0.9 16.4412 0
      vertex 0.688829 16.337 0
    endloop
  endfacet
  facet normal 0.831508 -0.555513 -2.35382e-18
    outer loop
      vertex -1.55885 18.9 3
      vertex -1.42804 19.0958 0
      vertex -1.42804 19.0958 3
    endloop
  endfacet
  facet normal 0.831508 -0.555513 -2.35382e-18
    outer loop
      vertex -1.42804 19.0958 0
      vertex -1.55885 18.9 3
      vertex -1.55885 18.9 0
    endloop
  endfacet
  facet normal -0.89691 -0.442212 -2.34491e-19
    outer loop
      vertex 1.66298 18.6888 0
      vertex 1.55885 18.9 3
      vertex 1.55885 18.9 0
    endloop
  endfacet
  facet normal -0.89691 -0.442212 -2.34491e-19
    outer loop
      vertex 1.55885 18.9 3
      vertex 1.66298 18.6888 0
      vertex 1.66298 18.6888 3
    endloop
  endfacet
  facet normal 0.751787 -0.659406 2.0959e-18
    outer loop
      vertex -1.42804 19.0958 3
      vertex -1.27279 19.2728 0
      vertex -1.27279 19.2728 3
    endloop
  endfacet
  facet normal 0.751787 -0.659406 2.0959e-18
    outer loop
      vertex -1.27279 19.2728 0
      vertex -1.42804 19.0958 3
      vertex -1.42804 19.0958 0
    endloop
  endfacet
  facet normal 0.19495 0.980813 -0
    outer loop
      vertex -0.234946 16.2154 0
      vertex -0.465874 16.2613 3
      vertex -0.234946 16.2154 3
    endloop
  endfacet
  facet normal 0.19495 0.980813 0
    outer loop
      vertex -0.465874 16.2613 3
      vertex -0.234946 16.2154 0
      vertex -0.465874 16.2613 0
    endloop
  endfacet
  facet normal -0.19495 -0.980813 0
    outer loop
      vertex 0.234946 19.7846 0
      vertex 0.465874 19.7387 3
      vertex 0.234946 19.7846 3
    endloop
  endfacet
  facet normal -0.19495 -0.980813 -0
    outer loop
      vertex 0.465874 19.7387 3
      vertex 0.234946 19.7846 0
      vertex 0.465874 19.7387 0
    endloop
  endfacet
  facet normal -0.831508 0.555513 -2.35382e-18
    outer loop
      vertex 1.42804 16.9042 0
      vertex 1.55885 17.1 3
      vertex 1.55885 17.1 0
    endloop
  endfacet
  facet normal -0.831508 0.555513 -2.35382e-18
    outer loop
      vertex 1.55885 17.1 3
      vertex 1.42804 16.9042 0
      vertex 1.42804 16.9042 3
    endloop
  endfacet
  facet normal -0.0654066 0.997859 0
    outer loop
      vertex 0.234946 16.2154 0
      vertex 0 16.2 3
      vertex 0.234946 16.2154 3
    endloop
  endfacet
  facet normal -0.0654066 0.997859 0
    outer loop
      vertex 0 16.2 3
      vertex 0.234946 16.2154 0
      vertex 0 16.2 0
    endloop
  endfacet
  facet normal 0.659244 0.751929 -0
    outer loop
      vertex -1.09577 16.572 0
      vertex -1.27279 16.7272 3
      vertex -1.09577 16.572 3
    endloop
  endfacet
  facet normal 0.659244 0.751929 0
    outer loop
      vertex -1.27279 16.7272 3
      vertex -1.09577 16.572 0
      vertex -1.27279 16.7272 0
    endloop
  endfacet
  facet normal 0.997858 -0.0654194 -5.91998e-20
    outer loop
      vertex -1.8 18 3
      vertex -1.7846 18.2349 0
      vertex -1.7846 18.2349 3
    endloop
  endfacet
  facet normal 0.997858 -0.0654194 -5.91998e-20
    outer loop
      vertex -1.7846 18.2349 0
      vertex -1.8 18 3
      vertex -1.8 18 0
    endloop
  endfacet
  facet normal -0.4425 -0.896768 0
    outer loop
      vertex 0.688829 19.663 0
      vertex 0.9 19.5588 3
      vertex 0.688829 19.663 3
    endloop
  endfacet
  facet normal -0.4425 -0.896768 -0
    outer loop
      vertex 0.9 19.5588 3
      vertex 0.688829 19.663 0
      vertex 0.9 19.5588 0
    endloop
  endfacet
  facet normal 0.89691 -0.442212 2.34491e-19
    outer loop
      vertex -1.66298 18.6888 3
      vertex -1.55885 18.9 0
      vertex -1.55885 18.9 3
    endloop
  endfacet
  facet normal 0.89691 -0.442212 2.34491e-19
    outer loop
      vertex -1.55885 18.9 0
      vertex -1.66298 18.6888 3
      vertex -1.66298 18.6888 0
    endloop
  endfacet
  facet normal 0.946897 0.321537 2.4007e-18
    outer loop
      vertex -1.66298 17.3112 3
      vertex -1.73867 17.5341 0
      vertex -1.73867 17.5341 3
    endloop
  endfacet
  facet normal 0.946897 0.321537 2.4007e-18
    outer loop
      vertex -1.73867 17.5341 0
      vertex -1.66298 17.3112 3
      vertex -1.66298 17.3112 0
    endloop
  endfacet
  facet normal -0.831508 -0.555513 2.35382e-18
    outer loop
      vertex 1.55885 18.9 0
      vertex 1.42804 19.0958 3
      vertex 1.42804 19.0958 0
    endloop
  endfacet
  facet normal -0.831508 -0.555513 2.35382e-18
    outer loop
      vertex 1.42804 19.0958 3
      vertex 1.55885 18.9 0
      vertex 1.55885 18.9 3
    endloop
  endfacet
  facet normal 0.831508 0.555513 2.35382e-18
    outer loop
      vertex -1.42804 16.9042 3
      vertex -1.55885 17.1 0
      vertex -1.55885 17.1 3
    endloop
  endfacet
  facet normal 0.831508 0.555513 2.35382e-18
    outer loop
      vertex -1.55885 17.1 0
      vertex -1.42804 16.9042 3
      vertex -1.42804 16.9042 0
    endloop
  endfacet
  facet normal 0.0654066 0.997859 -0
    outer loop
      vertex 0 16.2 0
      vertex -0.234946 16.2154 3
      vertex 0 16.2 3
    endloop
  endfacet
  facet normal 0.0654066 0.997859 0
    outer loop
      vertex -0.234946 16.2154 3
      vertex 0 16.2 0
      vertex -0.234946 16.2154 0
    endloop
  endfacet
  facet normal -0.751787 -0.659406 -2.0959e-18
    outer loop
      vertex 1.42804 19.0958 0
      vertex 1.27279 19.2728 3
      vertex 1.27279 19.2728 0
    endloop
  endfacet
  facet normal -0.751787 -0.659406 -2.0959e-18
    outer loop
      vertex 1.27279 19.2728 3
      vertex 1.42804 19.0958 0
      vertex 1.42804 19.0958 3
    endloop
  endfacet
  facet normal -0.997858 0.0654194 -5.91998e-20
    outer loop
      vertex 1.7846 17.7651 0
      vertex 1.8 18 3
      vertex 1.8 18 0
    endloop
  endfacet
  facet normal -0.997858 0.0654194 -5.91998e-20
    outer loop
      vertex 1.8 18 3
      vertex 1.7846 17.7651 0
      vertex 1.7846 17.7651 3
    endloop
  endfacet
  facet normal -0.659244 -0.751929 0
    outer loop
      vertex 1.09577 19.428 0
      vertex 1.27279 19.2728 3
      vertex 1.09577 19.428 3
    endloop
  endfacet
  facet normal -0.659244 -0.751929 -0
    outer loop
      vertex 1.27279 19.2728 3
      vertex 1.09577 19.428 0
      vertex 1.27279 19.2728 0
    endloop
  endfacet
  facet normal -0.555543 -0.831488 0
    outer loop
      vertex 0.9 19.5588 0
      vertex 1.09577 19.428 3
      vertex 0.9 19.5588 3
    endloop
  endfacet
  facet normal -0.555543 -0.831488 -0
    outer loop
      vertex 1.09577 19.428 3
      vertex 0.9 19.5588 0
      vertex 1.09577 19.428 0
    endloop
  endfacet
  facet normal 0.4425 0.896768 -0
    outer loop
      vertex -0.688829 16.337 0
      vertex -0.9 16.4412 3
      vertex -0.688829 16.337 3
    endloop
  endfacet
  facet normal 0.4425 0.896768 0
    outer loop
      vertex -0.9 16.4412 3
      vertex -0.688829 16.337 0
      vertex -0.9 16.4412 0
    endloop
  endfacet
  facet normal -0.321504 -0.946908 0
    outer loop
      vertex 0.465874 19.7387 0
      vertex 0.688829 19.663 3
      vertex 0.465874 19.7387 3
    endloop
  endfacet
  facet normal -0.321504 -0.946908 -0
    outer loop
      vertex 0.688829 19.663 3
      vertex 0.465874 19.7387 0
      vertex 0.688829 19.663 0
    endloop
  endfacet
  facet normal -0.555543 0.831488 0
    outer loop
      vertex 1.09577 16.572 0
      vertex 0.9 16.4412 3
      vertex 1.09577 16.572 3
    endloop
  endfacet
  facet normal -0.555543 0.831488 0
    outer loop
      vertex 0.9 16.4412 3
      vertex 1.09577 16.572 0
      vertex 0.9 16.4412 0
    endloop
  endfacet
  facet normal 0.4425 -0.896768 0
    outer loop
      vertex -0.9 19.5588 0
      vertex -0.688829 19.663 3
      vertex -0.9 19.5588 3
    endloop
  endfacet
  facet normal 0.4425 -0.896768 0
    outer loop
      vertex -0.688829 19.663 3
      vertex -0.9 19.5588 0
      vertex -0.688829 19.663 0
    endloop
  endfacet
  facet normal 0.321504 0.946908 -0
    outer loop
      vertex -0.465874 16.2613 0
      vertex -0.688829 16.337 3
      vertex -0.465874 16.2613 3
    endloop
  endfacet
  facet normal 0.321504 0.946908 0
    outer loop
      vertex -0.688829 16.337 3
      vertex -0.465874 16.2613 0
      vertex -0.688829 16.337 0
    endloop
  endfacet
  facet normal 0.555543 0.831488 -0
    outer loop
      vertex -0.9 16.4412 0
      vertex -1.09577 16.572 3
      vertex -0.9 16.4412 3
    endloop
  endfacet
  facet normal 0.555543 0.831488 0
    outer loop
      vertex -1.09577 16.572 3
      vertex -0.9 16.4412 0
      vertex -1.09577 16.572 0
    endloop
  endfacet
  facet normal 0.997858 0.0654194 5.91998e-20
    outer loop
      vertex -1.7846 17.7651 3
      vertex -1.8 18 0
      vertex -1.8 18 3
    endloop
  endfacet
  facet normal 0.997858 0.0654194 5.91998e-20
    outer loop
      vertex -1.8 18 0
      vertex -1.7846 17.7651 3
      vertex -1.7846 17.7651 0
    endloop
  endfacet
  facet normal 0.89691 0.442212 -2.34491e-19
    outer loop
      vertex -1.55885 17.1 3
      vertex -1.66298 17.3112 0
      vertex -1.66298 17.3112 3
    endloop
  endfacet
  facet normal 0.89691 0.442212 -2.34491e-19
    outer loop
      vertex -1.66298 17.3112 0
      vertex -1.55885 17.1 3
      vertex -1.55885 17.1 0
    endloop
  endfacet
  facet normal -0.321504 0.946908 0
    outer loop
      vertex 0.688829 16.337 0
      vertex 0.465874 16.2613 3
      vertex 0.688829 16.337 3
    endloop
  endfacet
  facet normal -0.321504 0.946908 0
    outer loop
      vertex 0.465874 16.2613 3
      vertex 0.688829 16.337 0
      vertex 0.465874 16.2613 0
    endloop
  endfacet
  facet normal -0.751787 0.659406 2.0959e-18
    outer loop
      vertex 1.27279 16.7272 0
      vertex 1.42804 16.9042 3
      vertex 1.42804 16.9042 0
    endloop
  endfacet
  facet normal -0.751787 0.659406 2.0959e-18
    outer loop
      vertex 1.42804 16.9042 3
      vertex 1.27279 16.7272 0
      vertex 1.27279 16.7272 3
    endloop
  endfacet
  facet normal 0.659244 -0.751929 0
    outer loop
      vertex -1.27279 19.2728 0
      vertex -1.09577 19.428 3
      vertex -1.27279 19.2728 3
    endloop
  endfacet
  facet normal 0.659244 -0.751929 0
    outer loop
      vertex -1.09577 19.428 3
      vertex -1.27279 19.2728 0
      vertex -1.09577 19.428 0
    endloop
  endfacet
  facet normal 0.555543 -0.831488 0
    outer loop
      vertex -1.09577 19.428 0
      vertex -0.9 19.5588 3
      vertex -1.09577 19.428 3
    endloop
  endfacet
  facet normal 0.555543 -0.831488 0
    outer loop
      vertex -0.9 19.5588 3
      vertex -1.09577 19.428 0
      vertex -0.9 19.5588 0
    endloop
  endfacet
  facet normal 0.751787 0.659406 -2.0959e-18
    outer loop
      vertex -1.27279 16.7272 3
      vertex -1.42804 16.9042 0
      vertex -1.42804 16.9042 3
    endloop
  endfacet
  facet normal 0.751787 0.659406 -2.0959e-18
    outer loop
      vertex -1.42804 16.9042 0
      vertex -1.27279 16.7272 3
      vertex -1.27279 16.7272 0
    endloop
  endfacet
  facet normal 0.980801 -0.195014 -5.3524e-19
    outer loop
      vertex -1.7846 18.2349 3
      vertex -1.73867 18.4659 0
      vertex -1.73867 18.4659 3
    endloop
  endfacet
  facet normal 0.980801 -0.195014 -5.3524e-19
    outer loop
      vertex -1.73867 18.4659 0
      vertex -1.7846 18.2349 3
      vertex -1.7846 18.2349 0
    endloop
  endfacet
  facet normal 0.321504 -0.946908 0
    outer loop
      vertex -0.688829 19.663 0
      vertex -0.465874 19.7387 3
      vertex -0.688829 19.663 3
    endloop
  endfacet
  facet normal 0.321504 -0.946908 0
    outer loop
      vertex -0.465874 19.7387 3
      vertex -0.688829 19.663 0
      vertex -0.465874 19.7387 0
    endloop
  endfacet
  facet normal 0.980801 0.195014 5.3524e-19
    outer loop
      vertex -1.73867 17.5341 3
      vertex -1.7846 17.7651 0
      vertex -1.7846 17.7651 3
    endloop
  endfacet
  facet normal 0.980801 0.195014 5.3524e-19
    outer loop
      vertex -1.7846 17.7651 0
      vertex -1.73867 17.5341 3
      vertex -1.73867 17.5341 0
    endloop
  endfacet
  facet normal -0.0654066 -0.997859 0
    outer loop
      vertex 0 19.8 0
      vertex 0.234946 19.7846 3
      vertex 0 19.8 3
    endloop
  endfacet
  facet normal -0.0654066 -0.997859 -0
    outer loop
      vertex 0.234946 19.7846 3
      vertex 0 19.8 0
      vertex 0.234946 19.7846 0
    endloop
  endfacet
  facet normal 0.19495 -0.980813 0
    outer loop
      vertex -0.465874 19.7387 0
      vertex -0.234946 19.7846 3
      vertex -0.465874 19.7387 3
    endloop
  endfacet
  facet normal 0.19495 -0.980813 0
    outer loop
      vertex -0.234946 19.7846 3
      vertex -0.465874 19.7387 0
      vertex -0.234946 19.7846 0
    endloop
  endfacet
  facet normal -0.659244 0.751929 0
    outer loop
      vertex 1.27279 16.7272 0
      vertex 1.09577 16.572 3
      vertex 1.27279 16.7272 3
    endloop
  endfacet
  facet normal -0.659244 0.751929 0
    outer loop
      vertex 1.09577 16.572 3
      vertex 1.27279 16.7272 0
      vertex 1.09577 16.572 0
    endloop
  endfacet
  facet normal 0.0654066 -0.997859 0
    outer loop
      vertex -0.234946 19.7846 0
      vertex 0 19.8 3
      vertex -0.234946 19.7846 3
    endloop
  endfacet
  facet normal 0.0654066 -0.997859 0
    outer loop
      vertex 0 19.8 3
      vertex -0.234946 19.7846 0
      vertex 0 19.8 0
    endloop
  endfacet
  facet normal 0.946897 -0.321537 -2.4007e-18
    outer loop
      vertex -1.73867 18.4659 3
      vertex -1.66298 18.6888 0
      vertex -1.66298 18.6888 3
    endloop
  endfacet
  facet normal 0.946897 -0.321537 -2.4007e-18
    outer loop
      vertex -1.66298 18.6888 0
      vertex -1.73867 18.4659 3
      vertex -1.73867 18.4659 0
    endloop
  endfacet
  facet normal -0.19495 0.980813 0
    outer loop
      vertex -7.39158 31.9743 0
      vertex -7.77646 31.8978 3
      vertex -7.39158 31.9743 3
    endloop
  endfacet
  facet normal -0.19495 0.980813 0
    outer loop
      vertex -7.77646 31.8978 3
      vertex -7.39158 31.9743 0
      vertex -7.77646 31.8978 0
    endloop
  endfacet
  facet normal 1 -0 0
    outer loop
      vertex 10 -29 3
      vertex 10 29 0
      vertex 10 29 3
    endloop
  endfacet
  facet normal 1 0 0
    outer loop
      vertex 10 29 0
      vertex 10 -29 3
      vertex 10 -29 0
    endloop
  endfacet
  facet normal -0.997858 0.0654112 -1.7097e-19
    outer loop
      vertex -10 29 0
      vertex -9.97433 29.3916 3
      vertex -9.97433 29.3916 0
    endloop
  endfacet
  facet normal -0.997858 0.0654112 -1.7097e-19
    outer loop
      vertex -9.97433 29.3916 3
      vertex -10 29 0
      vertex -10 29 3
    endloop
  endfacet
  facet normal -0.980791 0.195062 3.03439e-19
    outer loop
      vertex -9.97433 29.3916 0
      vertex -9.89778 29.7765 3
      vertex -9.89778 29.7765 0
    endloop
  endfacet
  facet normal -0.980791 0.195062 3.03439e-19
    outer loop
      vertex -9.89778 29.7765 3
      vertex -9.97433 29.3916 0
      vertex -9.97433 29.3916 3
    endloop
  endfacet
  facet normal -0.555547 -0.831485 0
    outer loop
      vertex -8.82628 -31.3801 0
      vertex -8.5 -31.5981 3
      vertex -8.82628 -31.3801 3
    endloop
  endfacet
  facet normal -0.555547 -0.831485 -0
    outer loop
      vertex -8.5 -31.5981 3
      vertex -8.82628 -31.3801 0
      vertex -8.5 -31.5981 0
    endloop
  endfacet
  facet normal 0.751799 -0.659392 -4.7867e-18
    outer loop
      vertex 9.12132 -31.1213 3
      vertex 9.38006 -30.8263 0
      vertex 9.38006 -30.8263 3
    endloop
  endfacet
  facet normal 0.751799 -0.659392 -4.7867e-18
    outer loop
      vertex 9.38006 -30.8263 0
      vertex 9.12132 -31.1213 3
      vertex 9.12132 -31.1213 0
    endloop
  endfacet
  facet normal 0.831477 0.555558 -1.68173e-18
    outer loop
      vertex 9.59808 30.5 3
      vertex 9.38006 30.8263 0
      vertex 9.38006 30.8263 3
    endloop
  endfacet
  facet normal 0.831477 0.555558 -1.68173e-18
    outer loop
      vertex 9.38006 30.8263 0
      vertex 9.59808 30.5 3
      vertex 9.59808 30.5 0
    endloop
  endfacet
  facet normal -0.0654906 -0.997853 0
    outer loop
      vertex -7.39158 -31.9743 0
      vertex -7 -32 3
      vertex -7.39158 -31.9743 3
    endloop
  endfacet
  facet normal -0.0654906 -0.997853 -0
    outer loop
      vertex -7 -32 3
      vertex -7.39158 -31.9743 0
      vertex -7 -32 0
    endloop
  endfacet
  facet normal 0.8969 -0.442233 -1.43848e-18
    outer loop
      vertex 9.59808 -30.5 3
      vertex 9.77164 -30.148 0
      vertex 9.77164 -30.148 3
    endloop
  endfacet
  facet normal 0.8969 -0.442233 -1.43848e-18
    outer loop
      vertex 9.77164 -30.148 0
      vertex 9.59808 -30.5 3
      vertex 9.59808 -30.5 0
    endloop
  endfacet
  facet normal -1 0 0
    outer loop
      vertex -10 -29 0
      vertex -10 29 3
      vertex -10 29 0
    endloop
  endfacet
  facet normal -1 -0 0
    outer loop
      vertex -10 29 3
      vertex -10 -29 0
      vertex -10 -29 3
    endloop
  endfacet
  facet normal 0.19495 -0.980813 0
    outer loop
      vertex 7.39158 -31.9743 0
      vertex 7.77646 -31.8978 3
      vertex 7.39158 -31.9743 3
    endloop
  endfacet
  facet normal 0.19495 -0.980813 0
    outer loop
      vertex 7.77646 -31.8978 3
      vertex 7.39158 -31.9743 0
      vertex 7.77646 -31.8978 0
    endloop
  endfacet
  facet normal -0.555547 0.831485 0
    outer loop
      vertex -8.5 31.5981 0
      vertex -8.82628 31.3801 3
      vertex -8.5 31.5981 3
    endloop
  endfacet
  facet normal -0.555547 0.831485 0
    outer loop
      vertex -8.82628 31.3801 3
      vertex -8.5 31.5981 0
      vertex -8.82628 31.3801 0
    endloop
  endfacet
  facet normal -0.946905 0.321514 -1.33963e-18
    outer loop
      vertex -9.89778 29.7765 0
      vertex -9.77164 30.148 3
      vertex -9.77164 30.148 0
    endloop
  endfacet
  facet normal -0.946905 0.321514 -1.33963e-18
    outer loop
      vertex -9.77164 30.148 3
      vertex -9.89778 29.7765 0
      vertex -9.89778 29.7765 3
    endloop
  endfacet
  facet normal 0 1 -0
    outer loop
      vertex 7 32 0
      vertex -7 32 3
      vertex 7 32 3
    endloop
  endfacet
  facet normal 0 1 0
    outer loop
      vertex -7 32 3
      vertex 7 32 0
      vertex -7 32 0
    endloop
  endfacet
  facet normal 0.980791 -0.195062 3.03439e-19
    outer loop
      vertex 9.89778 -29.7765 3
      vertex 9.97433 -29.3916 0
      vertex 9.97433 -29.3916 3
    endloop
  endfacet
  facet normal 0.980791 -0.195062 3.03439e-19
    outer loop
      vertex 9.97433 -29.3916 0
      vertex 9.89778 -29.7765 3
      vertex 9.89778 -29.7765 0
    endloop
  endfacet
  facet normal 0.997858 -0.0654112 -1.7097e-19
    outer loop
      vertex 9.97433 -29.3916 3
      vertex 10 -29 0
      vertex 10 -29 3
    endloop
  endfacet
  facet normal 0.997858 -0.0654112 -1.7097e-19
    outer loop
      vertex 10 -29 0
      vertex 9.97433 -29.3916 3
      vertex 9.97433 -29.3916 0
    endloop
  endfacet
  facet normal -0.44216 -0.896936 0
    outer loop
      vertex -8.5 -31.5981 0
      vertex -8.14805 -31.7716 3
      vertex -8.5 -31.5981 3
    endloop
  endfacet
  facet normal -0.44216 -0.896936 -0
    outer loop
      vertex -8.14805 -31.7716 3
      vertex -8.5 -31.5981 0
      vertex -8.14805 -31.7716 0
    endloop
  endfacet
  facet normal 0.0654906 -0.997853 0
    outer loop
      vertex 7 -32 0
      vertex 7.39158 -31.9743 3
      vertex 7 -32 3
    endloop
  endfacet
  facet normal 0.0654906 -0.997853 0
    outer loop
      vertex 7.39158 -31.9743 3
      vertex 7 -32 0
      vertex 7.39158 -31.9743 0
    endloop
  endfacet
  facet normal 0 -1 0
    outer loop
      vertex -7 -32 0
      vertex 7 -32 3
      vertex -7 -32 3
    endloop
  endfacet
  facet normal 0 -1 -0
    outer loop
      vertex 7 -32 3
      vertex -7 -32 0
      vertex 7 -32 0
    endloop
  endfacet
  facet normal 0.659428 -0.751768 0
    outer loop
      vertex 8.82628 -31.3801 0
      vertex 9.12132 -31.1213 3
      vertex 8.82628 -31.3801 3
    endloop
  endfacet
  facet normal 0.659428 -0.751768 0
    outer loop
      vertex 9.12132 -31.1213 3
      vertex 8.82628 -31.3801 0
      vertex 9.12132 -31.1213 0
    endloop
  endfacet
  facet normal 0.946905 -0.321514 -1.33963e-18
    outer loop
      vertex 9.77164 -30.148 3
      vertex 9.89778 -29.7765 0
      vertex 9.89778 -29.7765 3
    endloop
  endfacet
  facet normal 0.946905 -0.321514 -1.33963e-18
    outer loop
      vertex 9.89778 -29.7765 0
      vertex 9.77164 -30.148 3
      vertex 9.77164 -30.148 0
    endloop
  endfacet
  facet normal 0.831477 -0.555558 1.68173e-18
    outer loop
      vertex 9.38006 -30.8263 3
      vertex 9.59808 -30.5 0
      vertex 9.59808 -30.5 3
    endloop
  endfacet
  facet normal 0.831477 -0.555558 1.68173e-18
    outer loop
      vertex 9.59808 -30.5 0
      vertex 9.38006 -30.8263 3
      vertex 9.38006 -30.8263 0
    endloop
  endfacet
  facet normal 0 0 -1
    outer loop
      vertex 1.66298 -17.3112 0
      vertex 10 -29 0
      vertex 1.73867 -17.5341 0
    endloop
  endfacet
  facet normal 0 0 -1
    outer loop
      vertex 10 29 0
      vertex 1.7846 17.7651 0
      vertex 1.8 18 0
    endloop
  endfacet
  facet normal 0 0 -1
    outer loop
      vertex 10 -29 0
      vertex 1.66298 -17.3112 0
      vertex 10 29 0
    endloop
  endfacet
  facet normal 0 0 -1
    outer loop
      vertex 10 29 0
      vertex 1.73867 17.5341 0
      vertex 1.7846 17.7651 0
    endloop
  endfacet
  facet normal 0 0 -1
    outer loop
      vertex 1.66298 17.3112 0
      vertex 10 29 0
      vertex 1.66298 -17.3112 0
    endloop
  endfacet
  facet normal 0 0 -1
    outer loop
      vertex 10 29 0
      vertex 1.66298 17.3112 0
      vertex 1.73867 17.5341 0
    endloop
  endfacet
  facet normal 0 0 -1
    outer loop
      vertex 1.55885 -17.1 0
      vertex 1.66298 17.3112 0
      vertex 1.66298 -17.3112 0
    endloop
  endfacet
  facet normal 0 0 -1
    outer loop
      vertex 1.55885 -17.1 0
      vertex 1.55885 17.1 0
      vertex 1.66298 17.3112 0
    endloop
  endfacet
  facet normal 0 0 -1
    outer loop
      vertex 1.42804 -16.9042 0
      vertex 1.55885 17.1 0
      vertex 1.55885 -17.1 0
    endloop
  endfacet
  facet normal 0 0 -1
    outer loop
      vertex 1.42804 -16.9042 0
      vertex 1.42804 16.9042 0
      vertex 1.55885 17.1 0
    endloop
  endfacet
  facet normal 0 0 -1
    outer loop
      vertex 1.27279 -16.7272 0
      vertex 1.42804 16.9042 0
      vertex 1.42804 -16.9042 0
    endloop
  endfacet
  facet normal 0 0 -1
    outer loop
      vertex 1.27279 -16.7272 0
      vertex 1.27279 16.7272 0
      vertex 1.42804 16.9042 0
    endloop
  endfacet
  facet normal 0 0 -1
    outer loop
      vertex 1.09577 -16.572 0
      vertex 1.27279 16.7272 0
      vertex 1.27279 -16.7272 0
    endloop
  endfacet
  facet normal 0 0 -1
    outer loop
      vertex 1.09577 -16.572 0
      vertex 1.09577 16.572 0
      vertex 1.27279 16.7272 0
    endloop
  endfacet
  facet normal 0 0 -1
    outer loop
      vertex 0.9 -16.4412 0
      vertex 1.09577 16.572 0
      vertex 1.09577 -16.572 0
    endloop
  endfacet
  facet normal 0 0 -1
    outer loop
      vertex 0.9 -16.4412 0
      vertex 0.9 16.4412 0
      vertex 1.09577 16.572 0
    endloop
  endfacet
  facet normal 0 0 -1
    outer loop
      vertex 0.688829 -16.337 0
      vertex 0.9 16.4412 0
      vertex 0.9 -16.4412 0
    endloop
  endfacet
  facet normal 0 0 -1
    outer loop
      vertex 0.688829 -16.337 0
      vertex 0.688829 16.337 0
      vertex 0.9 16.4412 0
    endloop
  endfacet
  facet normal 0 0 -1
    outer loop
      vertex 0.465874 -16.2613 0
      vertex 0.688829 16.337 0
      vertex 0.688829 -16.337 0
    endloop
  endfacet
  facet normal 0 0 -1
    outer loop
      vertex 0.465874 -16.2613 0
      vertex 0.465874 16.2613 0
      vertex 0.688829 16.337 0
    endloop
  endfacet
  facet normal 0 0 -1
    outer loop
      vertex 0.234946 -16.2154 0
      vertex 0.465874 16.2613 0
      vertex 0.465874 -16.2613 0
    endloop
  endfacet
  facet normal 0 0 -1
    outer loop
      vertex 0.234946 -16.2154 0
      vertex 0.234946 16.2154 0
      vertex 0.465874 16.2613 0
    endloop
  endfacet
  facet normal 0 0 -1
    outer loop
      vertex 0 -16.2 0
      vertex 0.234946 16.2154 0
      vertex 0.234946 -16.2154 0
    endloop
  endfacet
  facet normal 0 0 -1
    outer loop
      vertex 0 -16.2 0
      vertex 0 16.2 0
      vertex 0.234946 16.2154 0
    endloop
  endfacet
  facet normal 0 0 -1
    outer loop
      vertex -0.234946 -16.2154 0
      vertex 0 16.2 0
      vertex 0 -16.2 0
    endloop
  endfacet
  facet normal 0 0 -1
    outer loop
      vertex -0.234946 -16.2154 0
      vertex -0.234946 16.2154 0
      vertex 0 16.2 0
    endloop
  endfacet
  facet normal 0 0 -1
    outer loop
      vertex -0.465874 -16.2613 0
      vertex -0.234946 16.2154 0
      vertex -0.234946 -16.2154 0
    endloop
  endfacet
  facet normal 0 0 -1
    outer loop
      vertex -0.465874 -16.2613 0
      vertex -0.465874 16.2613 0
      vertex -0.234946 16.2154 0
    endloop
  endfacet
  facet normal 0 0 -1
    outer loop
      vertex -0.688829 -16.337 0
      vertex -0.465874 16.2613 0
      vertex -0.465874 -16.2613 0
    endloop
  endfacet
  facet normal 0 0 -1
    outer loop
      vertex -0.688829 -16.337 0
      vertex -0.688829 16.337 0
      vertex -0.465874 16.2613 0
    endloop
  endfacet
  facet normal 0 0 -1
    outer loop
      vertex -0.9 -16.4412 0
      vertex -0.688829 16.337 0
      vertex -0.688829 -16.337 0
    endloop
  endfacet
  facet normal 0 0 -1
    outer loop
      vertex -0.9 -16.4412 0
      vertex -0.9 16.4412 0
      vertex -0.688829 16.337 0
    endloop
  endfacet
  facet normal 0 0 -1
    outer loop
      vertex -1.09577 -16.572 0
      vertex -0.9 16.4412 0
      vertex -0.9 -16.4412 0
    endloop
  endfacet
  facet normal 0 0 -1
    outer loop
      vertex -1.09577 -16.572 0
      vertex -1.09577 16.572 0
      vertex -0.9 16.4412 0
    endloop
  endfacet
  facet normal 0 0 -1
    outer loop
      vertex -1.27279 -16.7272 0
      vertex -1.09577 16.572 0
      vertex -1.09577 -16.572 0
    endloop
  endfacet
  facet normal 0 0 -1
    outer loop
      vertex -1.27279 -16.7272 0
      vertex -1.27279 16.7272 0
      vertex -1.09577 16.572 0
    endloop
  endfacet
  facet normal 0 0 -1
    outer loop
      vertex -1.42804 -16.9042 0
      vertex -1.27279 16.7272 0
      vertex -1.27279 -16.7272 0
    endloop
  endfacet
  facet normal 0 0 -1
    outer loop
      vertex -1.42804 -16.9042 0
      vertex -1.42804 16.9042 0
      vertex -1.27279 16.7272 0
    endloop
  endfacet
  facet normal 0 0 -1
    outer loop
      vertex -1.55885 -17.1 0
      vertex -1.42804 16.9042 0
      vertex -1.42804 -16.9042 0
    endloop
  endfacet
  facet normal 0 0 -1
    outer loop
      vertex -1.55885 -17.1 0
      vertex -1.55885 17.1 0
      vertex -1.42804 16.9042 0
    endloop
  endfacet
  facet normal 0 0 -1
    outer loop
      vertex -1.66298 -17.3112 0
      vertex -1.55885 17.1 0
      vertex -1.55885 -17.1 0
    endloop
  endfacet
  facet normal 0 0 -1
    outer loop
      vertex -1.66298 -17.3112 0
      vertex -1.66298 17.3112 0
      vertex -1.55885 17.1 0
    endloop
  endfacet
  facet normal 0 0 -1
    outer loop
      vertex -10 -29 0
      vertex -1.66298 -17.3112 0
      vertex -1.73867 -17.5341 0
    endloop
  endfacet
  facet normal -0 0 -1
    outer loop
      vertex -1.66298 -17.3112 0
      vertex -10 -29 0
      vertex -1.66298 17.3112 0
    endloop
  endfacet
  facet normal 0 0 -1
    outer loop
      vertex -10 -29 0
      vertex -1.73867 -17.5341 0
      vertex -1.7846 -17.7651 0
    endloop
  endfacet
  facet normal 0 0 -1
    outer loop
      vertex -10 29 0
      vertex -1.66298 17.3112 0
      vertex -10 -29 0
    endloop
  endfacet
  facet normal 0 0 -1
    outer loop
      vertex -10 -29 0
      vertex -1.7846 -17.7651 0
      vertex -1.8 -18 0
    endloop
  endfacet
  facet normal 0 0 -1
    outer loop
      vertex -1.66298 17.3112 0
      vertex -10 29 0
      vertex -1.73867 17.5341 0
    endloop
  endfacet
  facet normal 0 0 -1
    outer loop
      vertex 7 -32 0
      vertex 10 -29 0
      vertex 9.97433 -29.3916 0
    endloop
  endfacet
  facet normal 0 0 -1
    outer loop
      vertex 1.7846 -17.7651 0
      vertex 10 -29 0
      vertex 1.8 -18 0
    endloop
  endfacet
  facet normal 0 0 -1
    outer loop
      vertex 7 -32 0
      vertex 9.97433 -29.3916 0
      vertex 9.89778 -29.7765 0
    endloop
  endfacet
  facet normal 0 0 -1
    outer loop
      vertex 1.73867 -17.5341 0
      vertex 10 -29 0
      vertex 1.7846 -17.7651 0
    endloop
  endfacet
  facet normal 0 0 -1
    outer loop
      vertex 7 -32 0
      vertex 9.89778 -29.7765 0
      vertex 9.77164 -30.148 0
    endloop
  endfacet
  facet normal 0 0 -1
    outer loop
      vertex 1.7846 18.2349 0
      vertex 10 29 0
      vertex 1.8 18 0
    endloop
  endfacet
  facet normal 0 0 -1
    outer loop
      vertex 7 -32 0
      vertex 9.77164 -30.148 0
      vertex 9.59808 -30.5 0
    endloop
  endfacet
  facet normal 0 0 -1
    outer loop
      vertex 1.73867 18.4659 0
      vertex 10 29 0
      vertex 1.7846 18.2349 0
    endloop
  endfacet
  facet normal 0 0 -1
    outer loop
      vertex 7 -32 0
      vertex 9.59808 -30.5 0
      vertex 9.38006 -30.8263 0
    endloop
  endfacet
  facet normal 0 0 -1
    outer loop
      vertex 1.66298 18.6888 0
      vertex 10 29 0
      vertex 1.73867 18.4659 0
    endloop
  endfacet
  facet normal 0 0 -1
    outer loop
      vertex 7 -32 0
      vertex 9.38006 -30.8263 0
      vertex 9.12132 -31.1213 0
    endloop
  endfacet
  facet normal 0 0 -1
    outer loop
      vertex 1.55885 18.9 0
      vertex 10 29 0
      vertex 1.66298 18.6888 0
    endloop
  endfacet
  facet normal 0 0 -1
    outer loop
      vertex 7 -32 0
      vertex 9.12132 -31.1213 0
      vertex 8.82628 -31.3801 0
    endloop
  endfacet
  facet normal 0 0 -1
    outer loop
      vertex 1.42804 19.0958 0
      vertex 10 29 0
      vertex 1.55885 18.9 0
    endloop
  endfacet
  facet normal 0 0 -1
    outer loop
      vertex 7 -32 0
      vertex 8.82628 -31.3801 0
      vertex 8.5 -31.5981 0
    endloop
  endfacet
  facet normal 0 0 -1
    outer loop
      vertex 1.27279 19.2728 0
      vertex 10 29 0
      vertex 1.42804 19.0958 0
    endloop
  endfacet
  facet normal 0 0 -1
    outer loop
      vertex 7 -32 0
      vertex 8.5 -31.5981 0
      vertex 8.14805 -31.7716 0
    endloop
  endfacet
  facet normal 0 0 -1
    outer loop
      vertex 1.09577 19.428 0
      vertex 10 29 0
      vertex 1.27279 19.2728 0
    endloop
  endfacet
  facet normal 0 0 -1
    outer loop
      vertex 7 -32 0
      vertex 8.14805 -31.7716 0
      vertex 7.77646 -31.8978 0
    endloop
  endfacet
  facet normal 0 0 -1
    outer loop
      vertex 0.9 19.5588 0
      vertex 10 29 0
      vertex 1.09577 19.428 0
    endloop
  endfacet
  facet normal 0 0 -1
    outer loop
      vertex 7 -32 0
      vertex 7.77646 -31.8978 0
      vertex 7.39158 -31.9743 0
    endloop
  endfacet
  facet normal 0 -0 -1
    outer loop
      vertex 7 32 0
      vertex 10 29 0
      vertex 0.9 19.5588 0
    endloop
  endfacet
  facet normal -0 0 -1
    outer loop
      vertex 10 -29 0
      vertex 7 -32 0
      vertex 0.9 -19.5588 0
    endloop
  endfacet
  facet normal 0 0 -1
    outer loop
      vertex 10 29 0
      vertex 7 32 0
      vertex 9.97433 29.3916 0
    endloop
  endfacet
  facet normal 0 0 -1
    outer loop
      vertex 9.97433 29.3916 0
      vertex 7 32 0
      vertex 9.89778 29.7765 0
    endloop
  endfacet
  facet normal 0 0 -1
    outer loop
      vertex 10 -29 0
      vertex 1.7846 -18.2349 0
      vertex 1.8 -18 0
    endloop
  endfacet
  facet normal 0 0 -1
    outer loop
      vertex 10 -29 0
      vertex 1.73867 -18.4659 0
      vertex 1.7846 -18.2349 0
    endloop
  endfacet
  facet normal 0 0 -1
    outer loop
      vertex 10 -29 0
      vertex 1.66298 -18.6888 0
      vertex 1.73867 -18.4659 0
    endloop
  endfacet
  facet normal 0 0 -1
    outer loop
      vertex 10 -29 0
      vertex 1.55885 -18.9 0
      vertex 1.66298 -18.6888 0
    endloop
  endfacet
  facet normal 0 0 -1
    outer loop
      vertex 10 -29 0
      vertex 1.42804 -19.0958 0
      vertex 1.55885 -18.9 0
    endloop
  endfacet
  facet normal 0 0 -1
    outer loop
      vertex 10 -29 0
      vertex 1.27279 -19.2728 0
      vertex 1.42804 -19.0958 0
    endloop
  endfacet
  facet normal 0 0 -1
    outer loop
      vertex 10 -29 0
      vertex 1.09577 -19.428 0
      vertex 1.27279 -19.2728 0
    endloop
  endfacet
  facet normal 0 0 -1
    outer loop
      vertex 10 -29 0
      vertex 0.9 -19.5588 0
      vertex 1.09577 -19.428 0
    endloop
  endfacet
  facet normal 0 0 -1
    outer loop
      vertex 7 -32 0
      vertex 0.688829 -19.663 0
      vertex 0.9 -19.5588 0
    endloop
  endfacet
  facet normal 0 0 -1
    outer loop
      vertex 7 -32 0
      vertex 0.465874 -19.7387 0
      vertex 0.688829 -19.663 0
    endloop
  endfacet
  facet normal 0 0 -1
    outer loop
      vertex 7 -32 0
      vertex 0.234946 -19.7846 0
      vertex 0.465874 -19.7387 0
    endloop
  endfacet
  facet normal 0 0 -1
    outer loop
      vertex 7 -32 0
      vertex 0 -19.8 0
      vertex 0.234946 -19.7846 0
    endloop
  endfacet
  facet normal 0 0 -1
    outer loop
      vertex -7 -32 0
      vertex 0 -19.8 0
      vertex 7 -32 0
    endloop
  endfacet
  facet normal -0 0 -1
    outer loop
      vertex 0 -19.8 0
      vertex -7 -32 0
      vertex -0.234946 -19.7846 0
    endloop
  endfacet
  facet normal -0 0 -1
    outer loop
      vertex -0.234946 -19.7846 0
      vertex -7 -32 0
      vertex -0.465874 -19.7387 0
    endloop
  endfacet
  facet normal -0 0 -1
    outer loop
      vertex -0.465874 -19.7387 0
      vertex -7 -32 0
      vertex -0.688829 -19.663 0
    endloop
  endfacet
  facet normal -0 0 -1
    outer loop
      vertex -0.688829 -19.663 0
      vertex -7 -32 0
      vertex -0.9 -19.5588 0
    endloop
  endfacet
  facet normal 0 0 -1
    outer loop
      vertex -10 -29 0
      vertex -0.9 -19.5588 0
      vertex -7 -32 0
    endloop
  endfacet
  facet normal -0 0 -1
    outer loop
      vertex -0.9 -19.5588 0
      vertex -10 -29 0
      vertex -1.09577 -19.428 0
    endloop
  endfacet
  facet normal -0 0 -1
    outer loop
      vertex -1.09577 -19.428 0
      vertex -10 -29 0
      vertex -1.27279 -19.2728 0
    endloop
  endfacet
  facet normal -0 0 -1
    outer loop
      vertex -1.7846 -18.2349 0
      vertex -10 -29 0
      vertex -1.8 -18 0
    endloop
  endfacet
  facet normal -0 0 -1
    outer loop
      vertex -1.73867 -18.4659 0
      vertex -10 -29 0
      vertex -1.7846 -18.2349 0
    endloop
  endfacet
  facet normal -0 0 -1
    outer loop
      vertex -1.66298 -18.6888 0
      vertex -10 -29 0
      vertex -1.73867 -18.4659 0
    endloop
  endfacet
  facet normal -0 0 -1
    outer loop
      vertex -1.55885 -18.9 0
      vertex -10 -29 0
      vertex -1.66298 -18.6888 0
    endloop
  endfacet
  facet normal -0 0 -1
    outer loop
      vertex -1.42804 -19.0958 0
      vertex -10 -29 0
      vertex -1.55885 -18.9 0
    endloop
  endfacet
  facet normal -0 0 -1
    outer loop
      vertex -1.27279 -19.2728 0
      vertex -10 -29 0
      vertex -1.42804 -19.0958 0
    endloop
  endfacet
  facet normal 0 0 -1
    outer loop
      vertex 9.77164 30.148 0
      vertex 7 32 0
      vertex 9.59808 30.5 0
    endloop
  endfacet
  facet normal 0 0 -1
    outer loop
      vertex 9.59808 30.5 0
      vertex 7 32 0
      vertex 9.38006 30.8263 0
    endloop
  endfacet
  facet normal 0 0 -1
    outer loop
      vertex 9.38006 30.8263 0
      vertex 7 32 0
      vertex 9.12132 31.1213 0
    endloop
  endfacet
  facet normal 0 0 -1
    outer loop
      vertex 9.12132 31.1213 0
      vertex 7 32 0
      vertex 8.82628 31.3801 0
    endloop
  endfacet
  facet normal 0 0 -1
    outer loop
      vertex 8.5 31.5981 0
      vertex 7 32 0
      vertex 8.14805 31.7716 0
    endloop
  endfacet
  facet normal 0 0 -1
    outer loop
      vertex 8.14805 31.7716 0
      vertex 7 32 0
      vertex 7.77646 31.8978 0
    endloop
  endfacet
  facet normal 0 0 -1
    outer loop
      vertex 7.77646 31.8978 0
      vertex 7 32 0
      vertex 7.39158 31.9743 0
    endloop
  endfacet
  facet normal 0 0 -1
    outer loop
      vertex 8.82628 31.3801 0
      vertex 7 32 0
      vertex 8.5 31.5981 0
    endloop
  endfacet
  facet normal 0 0 -1
    outer loop
      vertex 9.89778 29.7765 0
      vertex 7 32 0
      vertex 9.77164 30.148 0
    endloop
  endfacet
  facet normal 0 0 -1
    outer loop
      vertex 0.688829 19.663 0
      vertex 7 32 0
      vertex 0.9 19.5588 0
    endloop
  endfacet
  facet normal 0 0 -1
    outer loop
      vertex 0.465874 19.7387 0
      vertex 7 32 0
      vertex 0.688829 19.663 0
    endloop
  endfacet
  facet normal 0 0 -1
    outer loop
      vertex 0.234946 19.7846 0
      vertex 7 32 0
      vertex 0.465874 19.7387 0
    endloop
  endfacet
  facet normal 0 0 -1
    outer loop
      vertex 0 19.8 0
      vertex 7 32 0
      vertex 0.234946 19.7846 0
    endloop
  endfacet
  facet normal 0 0 -1
    outer loop
      vertex -7 32 0
      vertex 0 19.8 0
      vertex -0.234946 19.7846 0
    endloop
  endfacet
  facet normal 0 0 -1
    outer loop
      vertex -7 32 0
      vertex -0.234946 19.7846 0
      vertex -0.465874 19.7387 0
    endloop
  endfacet
  facet normal 0 0 -1
    outer loop
      vertex -7 32 0
      vertex -0.465874 19.7387 0
      vertex -0.688829 19.663 0
    endloop
  endfacet
  facet normal 0 0 -1
    outer loop
      vertex -7 32 0
      vertex -0.688829 19.663 0
      vertex -0.9 19.5588 0
    endloop
  endfacet
  facet normal 0 0 -1
    outer loop
      vertex -10 29 0
      vertex -0.9 19.5588 0
      vertex -1.09577 19.428 0
    endloop
  endfacet
  facet normal 0 0 -1
    outer loop
      vertex -10 29 0
      vertex -1.09577 19.428 0
      vertex -1.27279 19.2728 0
    endloop
  endfacet
  facet normal 0 0 -1
    outer loop
      vertex -10 29 0
      vertex -1.27279 19.2728 0
      vertex -1.42804 19.0958 0
    endloop
  endfacet
  facet normal 0 0 -1
    outer loop
      vertex -10 29 0
      vertex -1.42804 19.0958 0
      vertex -1.55885 18.9 0
    endloop
  endfacet
  facet normal 0 0 -1
    outer loop
      vertex -1.73867 17.5341 0
      vertex -10 29 0
      vertex -1.7846 17.7651 0
    endloop
  endfacet
  facet normal 0 0 -1
    outer loop
      vertex 0 19.8 0
      vertex -7 32 0
      vertex 7 32 0
    endloop
  endfacet
  facet normal 0 0 -1
    outer loop
      vertex -10 29 0
      vertex -1.55885 18.9 0
      vertex -1.66298 18.6888 0
    endloop
  endfacet
  facet normal 0 0 -1
    outer loop
      vertex -10 29 0
      vertex -1.66298 18.6888 0
      vertex -1.73867 18.4659 0
    endloop
  endfacet
  facet normal 0 0 -1
    outer loop
      vertex -10 29 0
      vertex -1.73867 18.4659 0
      vertex -1.7846 18.2349 0
    endloop
  endfacet
  facet normal 0 0 -1
    outer loop
      vertex -1.7846 17.7651 0
      vertex -10 29 0
      vertex -1.8 18 0
    endloop
  endfacet
  facet normal 0 0 -1
    outer loop
      vertex -10 -29 0
      vertex -7 -32 0
      vertex -7.39158 -31.9743 0
    endloop
  endfacet
  facet normal 0 0 -1
    outer loop
      vertex -1.8 18 0
      vertex -10 29 0
      vertex -1.7846 18.2349 0
    endloop
  endfacet
  facet normal 0 0 -1
    outer loop
      vertex -10 -29 0
      vertex -7.39158 -31.9743 0
      vertex -7.77646 -31.8978 0
    endloop
  endfacet
  facet normal 0 0 -1
    outer loop
      vertex -0.9 19.5588 0
      vertex -10 29 0
      vertex -7 32 0
    endloop
  endfacet
  facet normal 0 0 -1
    outer loop
      vertex -10 -29 0
      vertex -7.77646 -31.8978 0
      vertex -8.14805 -31.7716 0
    endloop
  endfacet
  facet normal 0 0 -1
    outer loop
      vertex -7 32 0
      vertex -10 29 0
      vertex -7.39158 31.9743 0
    endloop
  endfacet
  facet normal 0 0 -1
    outer loop
      vertex -10 -29 0
      vertex -8.14805 -31.7716 0
      vertex -8.5 -31.5981 0
    endloop
  endfacet
  facet normal 0 0 -1
    outer loop
      vertex -7.39158 31.9743 0
      vertex -10 29 0
      vertex -7.77646 31.8978 0
    endloop
  endfacet
  facet normal 0 0 -1
    outer loop
      vertex -10 -29 0
      vertex -8.5 -31.5981 0
      vertex -8.82628 -31.3801 0
    endloop
  endfacet
  facet normal 0 0 -1
    outer loop
      vertex -7.77646 31.8978 0
      vertex -10 29 0
      vertex -8.14805 31.7716 0
    endloop
  endfacet
  facet normal 0 0 -1
    outer loop
      vertex -10 -29 0
      vertex -8.82628 -31.3801 0
      vertex -9.12132 -31.1213 0
    endloop
  endfacet
  facet normal 0 0 -1
    outer loop
      vertex -8.14805 31.7716 0
      vertex -10 29 0
      vertex -8.5 31.5981 0
    endloop
  endfacet
  facet normal 0 0 -1
    outer loop
      vertex -10 -29 0
      vertex -9.12132 -31.1213 0
      vertex -9.38006 -30.8263 0
    endloop
  endfacet
  facet normal 0 0 -1
    outer loop
      vertex -8.5 31.5981 0
      vertex -10 29 0
      vertex -8.82628 31.3801 0
    endloop
  endfacet
  facet normal 0 0 -1
    outer loop
      vertex -10 -29 0
      vertex -9.38006 -30.8263 0
      vertex -9.59808 -30.5 0
    endloop
  endfacet
  facet normal 0 0 -1
    outer loop
      vertex -8.82628 31.3801 0
      vertex -10 29 0
      vertex -9.12132 31.1213 0
    endloop
  endfacet
  facet normal 0 0 -1
    outer loop
      vertex -10 -29 0
      vertex -9.59808 -30.5 0
      vertex -9.77164 -30.148 0
    endloop
  endfacet
  facet normal 0 0 -1
    outer loop
      vertex -9.12132 31.1213 0
      vertex -10 29 0
      vertex -9.38006 30.8263 0
    endloop
  endfacet
  facet normal 0 0 -1
    outer loop
      vertex -10 -29 0
      vertex -9.77164 -30.148 0
      vertex -9.89778 -29.7765 0
    endloop
  endfacet
  facet normal 0 0 -1
    outer loop
      vertex -9.38006 30.8263 0
      vertex -10 29 0
      vertex -9.59808 30.5 0
    endloop
  endfacet
  facet normal 0 0 -1
    outer loop
      vertex -10 -29 0
      vertex -9.89778 -29.7765 0
      vertex -9.97433 -29.3916 0
    endloop
  endfacet
  facet normal 0 0 -1
    outer loop
      vertex -9.59808 30.5 0
      vertex -10 29 0
      vertex -9.77164 30.148 0
    endloop
  endfacet
  facet normal 0 0 -1
    outer loop
      vertex -9.77164 30.148 0
      vertex -10 29 0
      vertex -9.89778 29.7765 0
    endloop
  endfacet
  facet normal 0 0 -1
    outer loop
      vertex -9.89778 29.7765 0
      vertex -10 29 0
      vertex -9.97433 29.3916 0
    endloop
  endfacet
  facet normal -0.321582 -0.946882 0
    outer loop
      vertex -8.14805 -31.7716 0
      vertex -7.77646 -31.8978 3
      vertex -8.14805 -31.7716 3
    endloop
  endfacet
  facet normal -0.321582 -0.946882 -0
    outer loop
      vertex -7.77646 -31.8978 3
      vertex -8.14805 -31.7716 0
      vertex -7.77646 -31.8978 0
    endloop
  endfacet
  facet normal -0.997858 -0.0654112 1.7097e-19
    outer loop
      vertex -9.97433 -29.3916 0
      vertex -10 -29 3
      vertex -10 -29 0
    endloop
  endfacet
  facet normal -0.997858 -0.0654112 1.7097e-19
    outer loop
      vertex -10 -29 3
      vertex -9.97433 -29.3916 0
      vertex -9.97433 -29.3916 3
    endloop
  endfacet
  facet normal 0.997858 0.0654112 1.7097e-19
    outer loop
      vertex 10 29 3
      vertex 9.97433 29.3916 0
      vertex 9.97433 29.3916 3
    endloop
  endfacet
  facet normal 0.997858 0.0654112 1.7097e-19
    outer loop
      vertex 9.97433 29.3916 0
      vertex 10 29 3
      vertex 10 29 0
    endloop
  endfacet
  facet normal -0.0654906 0.997853 0
    outer loop
      vertex -7 32 0
      vertex -7.39158 31.9743 3
      vertex -7 32 3
    endloop
  endfacet
  facet normal -0.0654906 0.997853 0
    outer loop
      vertex -7.39158 31.9743 3
      vertex -7 32 0
      vertex -7.39158 31.9743 0
    endloop
  endfacet
  facet normal 0.321582 -0.946882 0
    outer loop
      vertex 7.77646 -31.8978 0
      vertex 8.14805 -31.7716 3
      vertex 7.77646 -31.8978 3
    endloop
  endfacet
  facet normal 0.321582 -0.946882 0
    outer loop
      vertex 8.14805 -31.7716 3
      vertex 7.77646 -31.8978 0
      vertex 8.14805 -31.7716 0
    endloop
  endfacet
  facet normal 0 0 1
    outer loop
      vertex 1.66298 17.3112 3
      vertex 10 29 3
      vertex 1.73867 17.5341 3
    endloop
  endfacet
  facet normal 0 0 1
    outer loop
      vertex 10 -29 3
      vertex 1.7846 -17.7651 3
      vertex 1.8 -18 3
    endloop
  endfacet
  facet normal 0 0 1
    outer loop
      vertex 10 29 3
      vertex 1.66298 17.3112 3
      vertex 10 -29 3
    endloop
  endfacet
  facet normal 0 0 1
    outer loop
      vertex 10 -29 3
      vertex 1.73867 -17.5341 3
      vertex 1.7846 -17.7651 3
    endloop
  endfacet
  facet normal -0 0 1
    outer loop
      vertex 1.66298 -17.3112 3
      vertex 10 -29 3
      vertex 1.66298 17.3112 3
    endloop
  endfacet
  facet normal 0 0 1
    outer loop
      vertex 10 -29 3
      vertex 1.66298 -17.3112 3
      vertex 1.73867 -17.5341 3
    endloop
  endfacet
  facet normal -0 0 1
    outer loop
      vertex 1.55885 17.1 3
      vertex 1.66298 -17.3112 3
      vertex 1.66298 17.3112 3
    endloop
  endfacet
  facet normal 0 0 1
    outer loop
      vertex 1.55885 17.1 3
      vertex 1.55885 -17.1 3
      vertex 1.66298 -17.3112 3
    endloop
  endfacet
  facet normal -0 0 1
    outer loop
      vertex 1.42804 16.9042 3
      vertex 1.55885 -17.1 3
      vertex 1.55885 17.1 3
    endloop
  endfacet
  facet normal 0 0 1
    outer loop
      vertex 1.42804 16.9042 3
      vertex 1.42804 -16.9042 3
      vertex 1.55885 -17.1 3
    endloop
  endfacet
  facet normal -0 0 1
    outer loop
      vertex 1.27279 16.7272 3
      vertex 1.42804 -16.9042 3
      vertex 1.42804 16.9042 3
    endloop
  endfacet
  facet normal 0 0 1
    outer loop
      vertex 1.27279 16.7272 3
      vertex 1.27279 -16.7272 3
      vertex 1.42804 -16.9042 3
    endloop
  endfacet
  facet normal -0 0 1
    outer loop
      vertex 1.09577 16.572 3
      vertex 1.27279 -16.7272 3
      vertex 1.27279 16.7272 3
    endloop
  endfacet
  facet normal 0 0 1
    outer loop
      vertex 1.09577 16.572 3
      vertex 1.09577 -16.572 3
      vertex 1.27279 -16.7272 3
    endloop
  endfacet
  facet normal -0 0 1
    outer loop
      vertex 0.9 16.4412 3
      vertex 1.09577 -16.572 3
      vertex 1.09577 16.572 3
    endloop
  endfacet
  facet normal 0 0 1
    outer loop
      vertex 0.9 16.4412 3
      vertex 0.9 -16.4412 3
      vertex 1.09577 -16.572 3
    endloop
  endfacet
  facet normal -0 0 1
    outer loop
      vertex 0.688829 16.337 3
      vertex 0.9 -16.4412 3
      vertex 0.9 16.4412 3
    endloop
  endfacet
  facet normal 0 0 1
    outer loop
      vertex 0.688829 16.337 3
      vertex 0.688829 -16.337 3
      vertex 0.9 -16.4412 3
    endloop
  endfacet
  facet normal -0 0 1
    outer loop
      vertex 0.465874 16.2613 3
      vertex 0.688829 -16.337 3
      vertex 0.688829 16.337 3
    endloop
  endfacet
  facet normal 0 0 1
    outer loop
      vertex 0.465874 16.2613 3
      vertex 0.465874 -16.2613 3
      vertex 0.688829 -16.337 3
    endloop
  endfacet
  facet normal -0 0 1
    outer loop
      vertex 0.234946 16.2154 3
      vertex 0.465874 -16.2613 3
      vertex 0.465874 16.2613 3
    endloop
  endfacet
  facet normal 0 0 1
    outer loop
      vertex 0.234946 16.2154 3
      vertex 0.234946 -16.2154 3
      vertex 0.465874 -16.2613 3
    endloop
  endfacet
  facet normal -0 0 1
    outer loop
      vertex 0 16.2 3
      vertex 0.234946 -16.2154 3
      vertex 0.234946 16.2154 3
    endloop
  endfacet
  facet normal 0 0 1
    outer loop
      vertex 0 16.2 3
      vertex 0 -16.2 3
      vertex 0.234946 -16.2154 3
    endloop
  endfacet
  facet normal 0 0 1
    outer loop
      vertex -0.234946 16.2154 3
      vertex 0 -16.2 3
      vertex 0 16.2 3
    endloop
  endfacet
  facet normal 0 0 1
    outer loop
      vertex -0.234946 16.2154 3
      vertex -0.234946 -16.2154 3
      vertex 0 -16.2 3
    endloop
  endfacet
  facet normal 0 0 1
    outer loop
      vertex -0.465874 16.2613 3
      vertex -0.234946 -16.2154 3
      vertex -0.234946 16.2154 3
    endloop
  endfacet
  facet normal 0 0 1
    outer loop
      vertex -0.465874 16.2613 3
      vertex -0.465874 -16.2613 3
      vertex -0.234946 -16.2154 3
    endloop
  endfacet
  facet normal 0 0 1
    outer loop
      vertex -0.688829 16.337 3
      vertex -0.465874 -16.2613 3
      vertex -0.465874 16.2613 3
    endloop
  endfacet
  facet normal 0 0 1
    outer loop
      vertex -0.688829 16.337 3
      vertex -0.688829 -16.337 3
      vertex -0.465874 -16.2613 3
    endloop
  endfacet
  facet normal 0 0 1
    outer loop
      vertex -0.9 16.4412 3
      vertex -0.688829 -16.337 3
      vertex -0.688829 16.337 3
    endloop
  endfacet
  facet normal 0 0 1
    outer loop
      vertex -0.9 16.4412 3
      vertex -0.9 -16.4412 3
      vertex -0.688829 -16.337 3
    endloop
  endfacet
  facet normal 0 0 1
    outer loop
      vertex -1.09577 16.572 3
      vertex -0.9 -16.4412 3
      vertex -0.9 16.4412 3
    endloop
  endfacet
  facet normal 0 0 1
    outer loop
      vertex -1.09577 16.572 3
      vertex -1.09577 -16.572 3
      vertex -0.9 -16.4412 3
    endloop
  endfacet
  facet normal 0 0 1
    outer loop
      vertex -1.27279 16.7272 3
      vertex -1.09577 -16.572 3
      vertex -1.09577 16.572 3
    endloop
  endfacet
  facet normal 0 0 1
    outer loop
      vertex -1.27279 16.7272 3
      vertex -1.27279 -16.7272 3
      vertex -1.09577 -16.572 3
    endloop
  endfacet
  facet normal 0 0 1
    outer loop
      vertex -1.42804 16.9042 3
      vertex -1.27279 -16.7272 3
      vertex -1.27279 16.7272 3
    endloop
  endfacet
  facet normal 0 0 1
    outer loop
      vertex -1.42804 16.9042 3
      vertex -1.42804 -16.9042 3
      vertex -1.27279 -16.7272 3
    endloop
  endfacet
  facet normal 0 0 1
    outer loop
      vertex -1.55885 17.1 3
      vertex -1.42804 -16.9042 3
      vertex -1.42804 16.9042 3
    endloop
  endfacet
  facet normal 0 0 1
    outer loop
      vertex -1.55885 17.1 3
      vertex -1.55885 -17.1 3
      vertex -1.42804 -16.9042 3
    endloop
  endfacet
  facet normal 0 0 1
    outer loop
      vertex -1.66298 17.3112 3
      vertex -1.55885 -17.1 3
      vertex -1.55885 17.1 3
    endloop
  endfacet
  facet normal 0 0 1
    outer loop
      vertex -1.66298 17.3112 3
      vertex -1.66298 -17.3112 3
      vertex -1.55885 -17.1 3
    endloop
  endfacet
  facet normal 0 0 1
    outer loop
      vertex -10 29 3
      vertex -1.66298 17.3112 3
      vertex -1.73867 17.5341 3
    endloop
  endfacet
  facet normal 0 0 1
    outer loop
      vertex -1.66298 17.3112 3
      vertex -10 29 3
      vertex -1.66298 -17.3112 3
    endloop
  endfacet
  facet normal 0 0 1
    outer loop
      vertex -10 29 3
      vertex -1.73867 17.5341 3
      vertex -1.7846 17.7651 3
    endloop
  endfacet
  facet normal 0 0 1
    outer loop
      vertex -10 -29 3
      vertex -1.66298 -17.3112 3
      vertex -10 29 3
    endloop
  endfacet
  facet normal 0 0 1
    outer loop
      vertex -10 29 3
      vertex -1.7846 17.7651 3
      vertex -1.8 18 3
    endloop
  endfacet
  facet normal 0 0 1
    outer loop
      vertex -1.66298 -17.3112 3
      vertex -10 -29 3
      vertex -1.73867 -17.5341 3
    endloop
  endfacet
  facet normal 0 0 1
    outer loop
      vertex 7 32 3
      vertex 10 29 3
      vertex 9.97433 29.3916 3
    endloop
  endfacet
  facet normal 0 0 1
    outer loop
      vertex 1.7846 17.7651 3
      vertex 10 29 3
      vertex 1.8 18 3
    endloop
  endfacet
  facet normal 0 0 1
    outer loop
      vertex 7 32 3
      vertex 9.97433 29.3916 3
      vertex 9.89778 29.7765 3
    endloop
  endfacet
  facet normal 0 0 1
    outer loop
      vertex 1.73867 17.5341 3
      vertex 10 29 3
      vertex 1.7846 17.7651 3
    endloop
  endfacet
  facet normal 0 0 1
    outer loop
      vertex 7 32 3
      vertex 9.89778 29.7765 3
      vertex 9.77164 30.148 3
    endloop
  endfacet
  facet normal -0 0 1
    outer loop
      vertex 1.7846 -18.2349 3
      vertex 10 -29 3
      vertex 1.8 -18 3
    endloop
  endfacet
  facet normal 0 0 1
    outer loop
      vertex 7 32 3
      vertex 9.77164 30.148 3
      vertex 9.59808 30.5 3
    endloop
  endfacet
  facet normal -0 0 1
    outer loop
      vertex 1.73867 -18.4659 3
      vertex 10 -29 3
      vertex 1.7846 -18.2349 3
    endloop
  endfacet
  facet normal 0 0 1
    outer loop
      vertex 7 32 3
      vertex 9.59808 30.5 3
      vertex 9.38006 30.8263 3
    endloop
  endfacet
  facet normal -0 0 1
    outer loop
      vertex 1.66298 -18.6888 3
      vertex 10 -29 3
      vertex 1.73867 -18.4659 3
    endloop
  endfacet
  facet normal 0 0 1
    outer loop
      vertex 7 32 3
      vertex 9.38006 30.8263 3
      vertex 9.12132 31.1213 3
    endloop
  endfacet
  facet normal -0 0 1
    outer loop
      vertex 1.55885 -18.9 3
      vertex 10 -29 3
      vertex 1.66298 -18.6888 3
    endloop
  endfacet
  facet normal 0 0 1
    outer loop
      vertex 7 32 3
      vertex 9.12132 31.1213 3
      vertex 8.82628 31.3801 3
    endloop
  endfacet
  facet normal -0 0 1
    outer loop
      vertex 1.42804 -19.0958 3
      vertex 10 -29 3
      vertex 1.55885 -18.9 3
    endloop
  endfacet
  facet normal 0 0 1
    outer loop
      vertex 7 32 3
      vertex 8.82628 31.3801 3
      vertex 8.5 31.5981 3
    endloop
  endfacet
  facet normal -0 0 1
    outer loop
      vertex 1.27279 -19.2728 3
      vertex 10 -29 3
      vertex 1.42804 -19.0958 3
    endloop
  endfacet
  facet normal 0 0 1
    outer loop
      vertex 7 32 3
      vertex 8.5 31.5981 3
      vertex 8.14805 31.7716 3
    endloop
  endfacet
  facet normal -0 0 1
    outer loop
      vertex 1.09577 -19.428 3
      vertex 10 -29 3
      vertex 1.27279 -19.2728 3
    endloop
  endfacet
  facet normal 0 0 1
    outer loop
      vertex 7 32 3
      vertex 8.14805 31.7716 3
      vertex 7.77646 31.8978 3
    endloop
  endfacet
  facet normal -0 0 1
    outer loop
      vertex 0.9 -19.5588 3
      vertex 10 -29 3
      vertex 1.09577 -19.428 3
    endloop
  endfacet
  facet normal 0 0 1
    outer loop
      vertex 7 32 3
      vertex 7.77646 31.8978 3
      vertex 7.39158 31.9743 3
    endloop
  endfacet
  facet normal 0 -0 1
    outer loop
      vertex 7 -32 3
      vertex 10 -29 3
      vertex 0.9 -19.5588 3
    endloop
  endfacet
  facet normal 0 0 1
    outer loop
      vertex 10 29 3
      vertex 7 32 3
      vertex 0.9 19.5588 3
    endloop
  endfacet
  facet normal 0 0 1
    outer loop
      vertex 10 -29 3
      vertex 7 -32 3
      vertex 9.97433 -29.3916 3
    endloop
  endfacet
  facet normal 0 0 1
    outer loop
      vertex 9.97433 -29.3916 3
      vertex 7 -32 3
      vertex 9.89778 -29.7765 3
    endloop
  endfacet
  facet normal 0 0 1
    outer loop
      vertex 10 29 3
      vertex 1.7846 18.2349 3
      vertex 1.8 18 3
    endloop
  endfacet
  facet normal 0 0 1
    outer loop
      vertex 10 29 3
      vertex 1.73867 18.4659 3
      vertex 1.7846 18.2349 3
    endloop
  endfacet
  facet normal 0 0 1
    outer loop
      vertex 10 29 3
      vertex 1.66298 18.6888 3
      vertex 1.73867 18.4659 3
    endloop
  endfacet
  facet normal 0 0 1
    outer loop
      vertex 10 29 3
      vertex 1.55885 18.9 3
      vertex 1.66298 18.6888 3
    endloop
  endfacet
  facet normal 0 0 1
    outer loop
      vertex 10 29 3
      vertex 1.42804 19.0958 3
      vertex 1.55885 18.9 3
    endloop
  endfacet
  facet normal 0 0 1
    outer loop
      vertex 10 29 3
      vertex 1.27279 19.2728 3
      vertex 1.42804 19.0958 3
    endloop
  endfacet
  facet normal 0 0 1
    outer loop
      vertex 10 29 3
      vertex 1.09577 19.428 3
      vertex 1.27279 19.2728 3
    endloop
  endfacet
  facet normal 0 0 1
    outer loop
      vertex 10 29 3
      vertex 0.9 19.5588 3
      vertex 1.09577 19.428 3
    endloop
  endfacet
  facet normal 0 0 1
    outer loop
      vertex 7 32 3
      vertex 0.688829 19.663 3
      vertex 0.9 19.5588 3
    endloop
  endfacet
  facet normal 0 0 1
    outer loop
      vertex 7 32 3
      vertex 0.465874 19.7387 3
      vertex 0.688829 19.663 3
    endloop
  endfacet
  facet normal 0 0 1
    outer loop
      vertex 7 32 3
      vertex 0.234946 19.7846 3
      vertex 0.465874 19.7387 3
    endloop
  endfacet
  facet normal 0 0 1
    outer loop
      vertex 7 32 3
      vertex 0 19.8 3
      vertex 0.234946 19.7846 3
    endloop
  endfacet
  facet normal -0 0 1
    outer loop
      vertex -7 32 3
      vertex 0 19.8 3
      vertex 7 32 3
    endloop
  endfacet
  facet normal 0 0 1
    outer loop
      vertex 0 19.8 3
      vertex -7 32 3
      vertex -0.234946 19.7846 3
    endloop
  endfacet
  facet normal 0 0 1
    outer loop
      vertex -0.234946 19.7846 3
      vertex -7 32 3
      vertex -0.465874 19.7387 3
    endloop
  endfacet
  facet normal 0 0 1
    outer loop
      vertex -0.465874 19.7387 3
      vertex -7 32 3
      vertex -0.688829 19.663 3
    endloop
  endfacet
  facet normal 0 0 1
    outer loop
      vertex -0.688829 19.663 3
      vertex -7 32 3
      vertex -0.9 19.5588 3
    endloop
  endfacet
  facet normal -0 0 1
    outer loop
      vertex -10 29 3
      vertex -0.9 19.5588 3
      vertex -7 32 3
    endloop
  endfacet
  facet normal 0 0 1
    outer loop
      vertex -0.9 19.5588 3
      vertex -10 29 3
      vertex -1.09577 19.428 3
    endloop
  endfacet
  facet normal 0 0 1
    outer loop
      vertex -1.09577 19.428 3
      vertex -10 29 3
      vertex -1.27279 19.2728 3
    endloop
  endfacet
  facet normal 0 0 1
    outer loop
      vertex -1.7846 18.2349 3
      vertex -10 29 3
      vertex -1.8 18 3
    endloop
  endfacet
  facet normal 0 0 1
    outer loop
      vertex -1.73867 18.4659 3
      vertex -10 29 3
      vertex -1.7846 18.2349 3
    endloop
  endfacet
  facet normal 0 0 1
    outer loop
      vertex -1.66298 18.6888 3
      vertex -10 29 3
      vertex -1.73867 18.4659 3
    endloop
  endfacet
  facet normal 0 0 1
    outer loop
      vertex -1.55885 18.9 3
      vertex -10 29 3
      vertex -1.66298 18.6888 3
    endloop
  endfacet
  facet normal 0 0 1
    outer loop
      vertex -1.42804 19.0958 3
      vertex -10 29 3
      vertex -1.55885 18.9 3
    endloop
  endfacet
  facet normal 0 0 1
    outer loop
      vertex -1.27279 19.2728 3
      vertex -10 29 3
      vertex -1.42804 19.0958 3
    endloop
  endfacet
  facet normal 0 0 1
    outer loop
      vertex 9.77164 -30.148 3
      vertex 7 -32 3
      vertex 9.59808 -30.5 3
    endloop
  endfacet
  facet normal 0 0 1
    outer loop
      vertex 9.59808 -30.5 3
      vertex 7 -32 3
      vertex 9.38006 -30.8263 3
    endloop
  endfacet
  facet normal 0 0 1
    outer loop
      vertex 9.38006 -30.8263 3
      vertex 7 -32 3
      vertex 9.12132 -31.1213 3
    endloop
  endfacet
  facet normal 0 0 1
    outer loop
      vertex 9.12132 -31.1213 3
      vertex 7 -32 3
      vertex 8.82628 -31.3801 3
    endloop
  endfacet
  facet normal 0 0 1
    outer loop
      vertex 8.5 -31.5981 3
      vertex 7 -32 3
      vertex 8.14805 -31.7716 3
    endloop
  endfacet
  facet normal 0 0 1
    outer loop
      vertex 8.14805 -31.7716 3
      vertex 7 -32 3
      vertex 7.77646 -31.8978 3
    endloop
  endfacet
  facet normal 0 0 1
    outer loop
      vertex 7.77646 -31.8978 3
      vertex 7 -32 3
      vertex 7.39158 -31.9743 3
    endloop
  endfacet
  facet normal 0 0 1
    outer loop
      vertex 8.82628 -31.3801 3
      vertex 7 -32 3
      vertex 8.5 -31.5981 3
    endloop
  endfacet
  facet normal 0 0 1
    outer loop
      vertex 9.89778 -29.7765 3
      vertex 7 -32 3
      vertex 9.77164 -30.148 3
    endloop
  endfacet
  facet normal -0 0 1
    outer loop
      vertex 0.688829 -19.663 3
      vertex 7 -32 3
      vertex 0.9 -19.5588 3
    endloop
  endfacet
  facet normal -0 0 1
    outer loop
      vertex 0.465874 -19.7387 3
      vertex 7 -32 3
      vertex 0.688829 -19.663 3
    endloop
  endfacet
  facet normal -0 0 1
    outer loop
      vertex 0.234946 -19.7846 3
      vertex 7 -32 3
      vertex 0.465874 -19.7387 3
    endloop
  endfacet
  facet normal -0 0 1
    outer loop
      vertex 0 -19.8 3
      vertex 7 -32 3
      vertex 0.234946 -19.7846 3
    endloop
  endfacet
  facet normal 0 0 1
    outer loop
      vertex -7 -32 3
      vertex 0 -19.8 3
      vertex -0.234946 -19.7846 3
    endloop
  endfacet
  facet normal 0 0 1
    outer loop
      vertex -7 -32 3
      vertex -0.234946 -19.7846 3
      vertex -0.465874 -19.7387 3
    endloop
  endfacet
  facet normal 0 0 1
    outer loop
      vertex -7 -32 3
      vertex -0.465874 -19.7387 3
      vertex -0.688829 -19.663 3
    endloop
  endfacet
  facet normal 0 0 1
    outer loop
      vertex -7 -32 3
      vertex -0.688829 -19.663 3
      vertex -0.9 -19.5588 3
    endloop
  endfacet
  facet normal 0 0 1
    outer loop
      vertex -10 -29 3
      vertex -0.9 -19.5588 3
      vertex -1.09577 -19.428 3
    endloop
  endfacet
  facet normal 0 0 1
    outer loop
      vertex -10 -29 3
      vertex -1.09577 -19.428 3
      vertex -1.27279 -19.2728 3
    endloop
  endfacet
  facet normal 0 0 1
    outer loop
      vertex -10 -29 3
      vertex -1.27279 -19.2728 3
      vertex -1.42804 -19.0958 3
    endloop
  endfacet
  facet normal 0 0 1
    outer loop
      vertex -10 -29 3
      vertex -1.42804 -19.0958 3
      vertex -1.55885 -18.9 3
    endloop
  endfacet
  facet normal 0 0 1
    outer loop
      vertex -1.73867 -17.5341 3
      vertex -10 -29 3
      vertex -1.7846 -17.7651 3
    endloop
  endfacet
  facet normal 0 0 1
    outer loop
      vertex 0 -19.8 3
      vertex -7 -32 3
      vertex 7 -32 3
    endloop
  endfacet
  facet normal 0 0 1
    outer loop
      vertex -10 -29 3
      vertex -1.55885 -18.9 3
      vertex -1.66298 -18.6888 3
    endloop
  endfacet
  facet normal 0 0 1
    outer loop
      vertex -10 -29 3
      vertex -1.66298 -18.6888 3
      vertex -1.73867 -18.4659 3
    endloop
  endfacet
  facet normal 0 0 1
    outer loop
      vertex -10 -29 3
      vertex -1.73867 -18.4659 3
      vertex -1.7846 -18.2349 3
    endloop
  endfacet
  facet normal 0 0 1
    outer loop
      vertex -1.7846 -17.7651 3
      vertex -10 -29 3
      vertex -1.8 -18 3
    endloop
  endfacet
  facet normal 0 0 1
    outer loop
      vertex -10 29 3
      vertex -7 32 3
      vertex -7.39158 31.9743 3
    endloop
  endfacet
  facet normal 0 0 1
    outer loop
      vertex -1.8 -18 3
      vertex -10 -29 3
      vertex -1.7846 -18.2349 3
    endloop
  endfacet
  facet normal 0 0 1
    outer loop
      vertex -10 29 3
      vertex -7.39158 31.9743 3
      vertex -7.77646 31.8978 3
    endloop
  endfacet
  facet normal 0 0 1
    outer loop
      vertex -0.9 -19.5588 3
      vertex -10 -29 3
      vertex -7 -32 3
    endloop
  endfacet
  facet normal 0 0 1
    outer loop
      vertex -10 29 3
      vertex -7.77646 31.8978 3
      vertex -8.14805 31.7716 3
    endloop
  endfacet
  facet normal 0 0 1
    outer loop
      vertex -7 -32 3
      vertex -10 -29 3
      vertex -7.39158 -31.9743 3
    endloop
  endfacet
  facet normal 0 0 1
    outer loop
      vertex -10 29 3
      vertex -8.14805 31.7716 3
      vertex -8.5 31.5981 3
    endloop
  endfacet
  facet normal 0 0 1
    outer loop
      vertex -7.39158 -31.9743 3
      vertex -10 -29 3
      vertex -7.77646 -31.8978 3
    endloop
  endfacet
  facet normal 0 0 1
    outer loop
      vertex -10 29 3
      vertex -8.5 31.5981 3
      vertex -8.82628 31.3801 3
    endloop
  endfacet
  facet normal 0 0 1
    outer loop
      vertex -7.77646 -31.8978 3
      vertex -10 -29 3
      vertex -8.14805 -31.7716 3
    endloop
  endfacet
  facet normal 0 0 1
    outer loop
      vertex -10 29 3
      vertex -8.82628 31.3801 3
      vertex -9.12132 31.1213 3
    endloop
  endfacet
  facet normal 0 0 1
    outer loop
      vertex -8.14805 -31.7716 3
      vertex -10 -29 3
      vertex -8.5 -31.5981 3
    endloop
  endfacet
  facet normal 0 0 1
    outer loop
      vertex -10 29 3
      vertex -9.12132 31.1213 3
      vertex -9.38006 30.8263 3
    endloop
  endfacet
  facet normal 0 0 1
    outer loop
      vertex -8.5 -31.5981 3
      vertex -10 -29 3
      vertex -8.82628 -31.3801 3
    endloop
  endfacet
  facet normal 0 0 1
    outer loop
      vertex -10 29 3
      vertex -9.38006 30.8263 3
      vertex -9.59808 30.5 3
    endloop
  endfacet
  facet normal 0 0 1
    outer loop
      vertex -8.82628 -31.3801 3
      vertex -10 -29 3
      vertex -9.12132 -31.1213 3
    endloop
  endfacet
  facet normal 0 0 1
    outer loop
      vertex -10 29 3
      vertex -9.59808 30.5 3
      vertex -9.77164 30.148 3
    endloop
  endfacet
  facet normal 0 0 1
    outer loop
      vertex -9.12132 -31.1213 3
      vertex -10 -29 3
      vertex -9.38006 -30.8263 3
    endloop
  endfacet
  facet normal 0 0 1
    outer loop
      vertex -10 29 3
      vertex -9.77164 30.148 3
      vertex -9.89778 29.7765 3
    endloop
  endfacet
  facet normal 0 0 1
    outer loop
      vertex -9.38006 -30.8263 3
      vertex -10 -29 3
      vertex -9.59808 -30.5 3
    endloop
  endfacet
  facet normal 0 0 1
    outer loop
      vertex -10 29 3
      vertex -9.89778 29.7765 3
      vertex -9.97433 29.3916 3
    endloop
  endfacet
  facet normal 0 0 1
    outer loop
      vertex -9.59808 -30.5 3
      vertex -10 -29 3
      vertex -9.77164 -30.148 3
    endloop
  endfacet
  facet normal 0 0 1
    outer loop
      vertex -9.77164 -30.148 3
      vertex -10 -29 3
      vertex -9.89778 -29.7765 3
    endloop
  endfacet
  facet normal 0 0 1
    outer loop
      vertex -9.89778 -29.7765 3
      vertex -10 -29 3
      vertex -9.97433 -29.3916 3
    endloop
  endfacet
  facet normal -0.831477 0.555558 1.68173e-18
    outer loop
      vertex -9.59808 30.5 0
      vertex -9.38006 30.8263 3
      vertex -9.38006 30.8263 0
    endloop
  endfacet
  facet normal -0.831477 0.555558 1.68173e-18
    outer loop
      vertex -9.38006 30.8263 3
      vertex -9.59808 30.5 0
      vertex -9.59808 30.5 3
    endloop
  endfacet
  facet normal 0.19495 0.980813 -0
    outer loop
      vertex 7.77646 31.8978 0
      vertex 7.39158 31.9743 3
      vertex 7.77646 31.8978 3
    endloop
  endfacet
  facet normal 0.19495 0.980813 0
    outer loop
      vertex 7.39158 31.9743 3
      vertex 7.77646 31.8978 0
      vertex 7.39158 31.9743 0
    endloop
  endfacet
  facet normal -0.751799 -0.659392 4.7867e-18
    outer loop
      vertex -9.12132 -31.1213 0
      vertex -9.38006 -30.8263 3
      vertex -9.38006 -30.8263 0
    endloop
  endfacet
  facet normal -0.751799 -0.659392 4.7867e-18
    outer loop
      vertex -9.38006 -30.8263 3
      vertex -9.12132 -31.1213 0
      vertex -9.12132 -31.1213 3
    endloop
  endfacet
  facet normal -0.8969 0.442233 -1.43848e-18
    outer loop
      vertex -9.77164 30.148 0
      vertex -9.59808 30.5 3
      vertex -9.59808 30.5 0
    endloop
  endfacet
  facet normal -0.8969 0.442233 -1.43848e-18
    outer loop
      vertex -9.59808 30.5 3
      vertex -9.77164 30.148 0
      vertex -9.77164 30.148 3
    endloop
  endfacet
  facet normal 0.980791 0.195062 -3.03439e-19
    outer loop
      vertex 9.97433 29.3916 3
      vertex 9.89778 29.7765 0
      vertex 9.89778 29.7765 3
    endloop
  endfacet
  facet normal 0.980791 0.195062 -3.03439e-19
    outer loop
      vertex 9.89778 29.7765 0
      vertex 9.97433 29.3916 3
      vertex 9.97433 29.3916 0
    endloop
  endfacet
  facet normal 0.555547 0.831485 -0
    outer loop
      vertex 8.82628 31.3801 0
      vertex 8.5 31.5981 3
      vertex 8.82628 31.3801 3
    endloop
  endfacet
  facet normal 0.555547 0.831485 0
    outer loop
      vertex 8.5 31.5981 3
      vertex 8.82628 31.3801 0
      vertex 8.5 31.5981 0
    endloop
  endfacet
  facet normal 0.946905 0.321514 1.33963e-18
    outer loop
      vertex 9.89778 29.7765 3
      vertex 9.77164 30.148 0
      vertex 9.77164 30.148 3
    endloop
  endfacet
  facet normal 0.946905 0.321514 1.33963e-18
    outer loop
      vertex 9.77164 30.148 0
      vertex 9.89778 29.7765 3
      vertex 9.89778 29.7765 0
    endloop
  endfacet
  facet normal 0.321582 0.946882 -0
    outer loop
      vertex 8.14805 31.7716 0
      vertex 7.77646 31.8978 3
      vertex 8.14805 31.7716 3
    endloop
  endfacet
  facet normal 0.321582 0.946882 0
    outer loop
      vertex 7.77646 31.8978 3
      vertex 8.14805 31.7716 0
      vertex 7.77646 31.8978 0
    endloop
  endfacet
  facet normal 0.44216 -0.896936 0
    outer loop
      vertex 8.14805 -31.7716 0
      vertex 8.5 -31.5981 3
      vertex 8.14805 -31.7716 3
    endloop
  endfacet
  facet normal 0.44216 -0.896936 0
    outer loop
      vertex 8.5 -31.5981 3
      vertex 8.14805 -31.7716 0
      vertex 8.5 -31.5981 0
    endloop
  endfacet
  facet normal -0.831477 -0.555558 -1.68173e-18
    outer loop
      vertex -9.38006 -30.8263 0
      vertex -9.59808 -30.5 3
      vertex -9.59808 -30.5 0
    endloop
  endfacet
  facet normal -0.831477 -0.555558 -1.68173e-18
    outer loop
      vertex -9.59808 -30.5 3
      vertex -9.38006 -30.8263 0
      vertex -9.38006 -30.8263 3
    endloop
  endfacet
  facet normal 0.8969 0.442233 1.43848e-18
    outer loop
      vertex 9.77164 30.148 3
      vertex 9.59808 30.5 0
      vertex 9.59808 30.5 3
    endloop
  endfacet
  facet normal 0.8969 0.442233 1.43848e-18
    outer loop
      vertex 9.59808 30.5 0
      vertex 9.77164 30.148 3
      vertex 9.77164 30.148 0
    endloop
  endfacet
  facet normal -0.659428 0.751768 0
    outer loop
      vertex -8.82628 31.3801 0
      vertex -9.12132 31.1213 3
      vertex -8.82628 31.3801 3
    endloop
  endfacet
  facet normal -0.659428 0.751768 0
    outer loop
      vertex -9.12132 31.1213 3
      vertex -8.82628 31.3801 0
      vertex -9.12132 31.1213 0
    endloop
  endfacet
  facet normal 0.555547 -0.831485 0
    outer loop
      vertex 8.5 -31.5981 0
      vertex 8.82628 -31.3801 3
      vertex 8.5 -31.5981 3
    endloop
  endfacet
  facet normal 0.555547 -0.831485 0
    outer loop
      vertex 8.82628 -31.3801 3
      vertex 8.5 -31.5981 0
      vertex 8.82628 -31.3801 0
    endloop
  endfacet
  facet normal -0.751799 0.659392 -4.7867e-18
    outer loop
      vertex -9.38006 30.8263 0
      vertex -9.12132 31.1213 3
      vertex -9.12132 31.1213 0
    endloop
  endfacet
  facet normal -0.751799 0.659392 -4.7867e-18
    outer loop
      vertex -9.12132 31.1213 3
      vertex -9.38006 30.8263 0
      vertex -9.38006 30.8263 3
    endloop
  endfacet
  facet normal 0.44216 0.896936 -0
    outer loop
      vertex 8.5 31.5981 0
      vertex 8.14805 31.7716 3
      vertex 8.5 31.5981 3
    endloop
  endfacet
  facet normal 0.44216 0.896936 0
    outer loop
      vertex 8.14805 31.7716 3
      vertex 8.5 31.5981 0
      vertex 8.14805 31.7716 0
    endloop
  endfacet
  facet normal -0.946905 -0.321514 1.33963e-18
    outer loop
      vertex -9.77164 -30.148 0
      vertex -9.89778 -29.7765 3
      vertex -9.89778 -29.7765 0
    endloop
  endfacet
  facet normal -0.946905 -0.321514 1.33963e-18
    outer loop
      vertex -9.89778 -29.7765 3
      vertex -9.77164 -30.148 0
      vertex -9.77164 -30.148 3
    endloop
  endfacet
  facet normal 0.659428 0.751768 -0
    outer loop
      vertex 9.12132 31.1213 0
      vertex 8.82628 31.3801 3
      vertex 9.12132 31.1213 3
    endloop
  endfacet
  facet normal 0.659428 0.751768 0
    outer loop
      vertex 8.82628 31.3801 3
      vertex 9.12132 31.1213 0
      vertex 8.82628 31.3801 0
    endloop
  endfacet
  facet normal -0.8969 -0.442233 1.43848e-18
    outer loop
      vertex -9.59808 -30.5 0
      vertex -9.77164 -30.148 3
      vertex -9.77164 -30.148 0
    endloop
  endfacet
  facet normal -0.8969 -0.442233 1.43848e-18
    outer loop
      vertex -9.77164 -30.148 3
      vertex -9.59808 -30.5 0
      vertex -9.59808 -30.5 3
    endloop
  endfacet
  facet normal 0.0654906 0.997853 -0
    outer loop
      vertex 7.39158 31.9743 0
      vertex 7 32 3
      vertex 7.39158 31.9743 3
    endloop
  endfacet
  facet normal 0.0654906 0.997853 0
    outer loop
      vertex 7 32 3
      vertex 7.39158 31.9743 0
      vertex 7 32 0
    endloop
  endfacet
  facet normal 0.751799 0.659392 4.7867e-18
    outer loop
      vertex 9.38006 30.8263 3
      vertex 9.12132 31.1213 0
      vertex 9.12132 31.1213 3
    endloop
  endfacet
  facet normal 0.751799 0.659392 4.7867e-18
    outer loop
      vertex 9.12132 31.1213 0
      vertex 9.38006 30.8263 3
      vertex 9.38006 30.8263 0
    endloop
  endfacet
  facet normal -0.659428 -0.751768 0
    outer loop
      vertex -9.12132 -31.1213 0
      vertex -8.82628 -31.3801 3
      vertex -9.12132 -31.1213 3
    endloop
  endfacet
  facet normal -0.659428 -0.751768 -0
    outer loop
      vertex -8.82628 -31.3801 3
      vertex -9.12132 -31.1213 0
      vertex -8.82628 -31.3801 0
    endloop
  endfacet
  facet normal -0.980791 -0.195062 -3.03439e-19
    outer loop
      vertex -9.89778 -29.7765 0
      vertex -9.97433 -29.3916 3
      vertex -9.97433 -29.3916 0
    endloop
  endfacet
  facet normal -0.980791 -0.195062 -3.03439e-19
    outer loop
      vertex -9.97433 -29.3916 3
      vertex -9.89778 -29.7765 0
      vertex -9.89778 -29.7765 3
    endloop
  endfacet
  facet normal -0.19495 -0.980813 0
    outer loop
      vertex -7.77646 -31.8978 0
      vertex -7.39158 -31.9743 3
      vertex -7.77646 -31.8978 3
    endloop
  endfacet
  facet normal -0.19495 -0.980813 -0
    outer loop
      vertex -7.39158 -31.9743 3
      vertex -7.77646 -31.8978 0
      vertex -7.39158 -31.9743 0
    endloop
  endfacet
  facet normal -0.44216 0.896936 0
    outer loop
      vertex -8.14805 31.7716 0
      vertex -8.5 31.5981 3
      vertex -8.14805 31.7716 3
    endloop
  endfacet
  facet normal -0.44216 0.896936 0
    outer loop
      vertex -8.5 31.5981 3
      vertex -8.14805 31.7716 0
      vertex -8.5 31.5981 0
    endloop
  endfacet
  facet normal -0.321582 0.946882 0
    outer loop
      vertex -7.77646 31.8978 0
      vertex -8.14805 31.7716 3
      vertex -7.77646 31.8978 3
    endloop
  endfacet
  facet normal -0.321582 0.946882 0
    outer loop
      vertex -8.14805 31.7716 3
      vertex -7.77646 31.8978 0
      vertex -8.14805 31.7716 0
    endloop
  endfacet
endsolid OpenSCAD_Model
