solid OpenSCAD_Model
  facet normal 0 0.8660253 0.5000001
    outer loop
      vertex 6.5 6.6558485 46.988914
      vertex 0 5.7202463 48.609425
      vertex 6.5 5.7202463 48.609425
    endloop
  endfacet
  facet normal 0 0.8660253 0.5000001
    outer loop
      vertex 0 5.7202463 48.609425
      vertex 6.5 6.6558485 46.988914
      vertex 0 6.6558485 46.988914
    endloop
  endfacet
  facet normal 0 -0.7431445 -0.669131
    outer loop
      vertex 0 13.897114 52.25
      vertex 6.5 12.645033 53.640575
      vertex 0 12.645033 53.640575
    endloop
  endfacet
  facet normal 0 -0.7431445 -0.669131
    outer loop
      vertex 6.5 12.645033 53.640575
      vertex 0 13.897114 52.25
      vertex 6.5 13.897114 52.25
    endloop
  endfacet
  facet normal 0 -0.20791186 0.97814757
    outer loop
      vertex 0 11.830315 45.889046
      vertex 6.5 10 45.5
      vertex 6.5 11.830315 45.889046
    endloop
  endfacet
  facet normal 0 -0.20791186 0.97814757
    outer loop
      vertex 6.5 10 45.5
      vertex 0 11.830315 45.889046
      vertex 0 10 45.5
    endloop
  endfacet
  facet normal 0 -0.8660253 0.5000001
    outer loop
      vertex 0 13.3441515 46.988914
      vertex 6.5 14.279754 48.609425
      vertex 0 14.279754 48.609425
    endloop
  endfacet
  facet normal 0 -0.8660253 0.5000001
    outer loop
      vertex 6.5 14.279754 48.609425
      vertex 0 13.3441515 46.988914
      vertex 6.5 13.3441515 46.988914
    endloop
  endfacet
  facet normal 0 0.9510564 -0.30901733
    outer loop
      vertex 6.5 5.5246515 50.47038
      vertex 0 6.102886 52.25
      vertex 6.5 6.102886 52.25
    endloop
  endfacet
  facet normal 0 0.9510564 -0.30901733
    outer loop
      vertex 0 6.102886 52.25
      vertex 6.5 5.5246515 50.47038
      vertex 0 5.5246515 50.47038
    endloop
  endfacet
  facet normal 0 0.5877859 0.8090165
    outer loop
      vertex 0 8.169685 45.889046
      vertex 6.5 6.6558485 46.988914
      vertex 6.5 8.169685 45.889046
    endloop
  endfacet
  facet normal 0 0.5877859 0.8090165
    outer loop
      vertex 6.5 6.6558485 46.988914
      vertex 0 8.169685 45.889046
      vertex 0 6.6558485 46.988914
    endloop
  endfacet
  facet normal 0 -0.40673742 -0.91354513
    outer loop
      vertex 0 10.935602 54.401665
      vertex 6.5 12.645033 53.640575
      vertex 6.5 10.935602 54.401665
    endloop
  endfacet
  facet normal 0 -0.40673742 -0.91354513
    outer loop
      vertex 6.5 12.645033 53.640575
      vertex 0 10.935602 54.401665
      vertex 0 12.645033 53.640575
    endloop
  endfacet
  facet normal 0 -0.9510564 -0.30901733
    outer loop
      vertex 0 14.475348 50.47038
      vertex 6.5 13.897114 52.25
      vertex 0 13.897114 52.25
    endloop
  endfacet
  facet normal 0 -0.9510564 -0.30901733
    outer loop
      vertex 6.5 13.897114 52.25
      vertex 0 14.475348 50.47038
      vertex 6.5 14.475348 50.47038
    endloop
  endfacet
  facet normal 0 0.20791186 0.97814757
    outer loop
      vertex 0 10 45.5
      vertex 6.5 8.169685 45.889046
      vertex 6.5 10 45.5
    endloop
  endfacet
  facet normal 0 0.20791186 0.97814757
    outer loop
      vertex 6.5 8.169685 45.889046
      vertex 0 10 45.5
      vertex 0 8.169685 45.889046
    endloop
  endfacet
  facet normal 0 0.99452186 0.104528785
    outer loop
      vertex 6.5 5.7202463 48.609425
      vertex 0 5.5246515 50.47038
      vertex 6.5 5.5246515 50.47038
    endloop
  endfacet
  facet normal 0 0.99452186 0.104528785
    outer loop
      vertex 0 5.5246515 50.47038
      vertex 6.5 5.7202463 48.609425
      vertex 0 5.7202463 48.609425
    endloop
  endfacet
  facet normal 0 -0.5877859 0.8090165
    outer loop
      vertex 0 13.3441515 46.988914
      vertex 6.5 11.830315 45.889046
      vertex 6.5 13.3441515 46.988914
    endloop
  endfacet
  facet normal 0 -0.5877859 0.8090165
    outer loop
      vertex 6.5 11.830315 45.889046
      vertex 0 13.3441515 46.988914
      vertex 0 11.830315 45.889046
    endloop
  endfacet
  facet normal 0 0.40673742 -0.91354513
    outer loop
      vertex 0 7.354967 53.640575
      vertex 6.5 9.064398 54.401665
      vertex 6.5 7.354967 53.640575
    endloop
  endfacet
  facet normal 0 0.40673742 -0.91354513
    outer loop
      vertex 6.5 9.064398 54.401665
      vertex 0 7.354967 53.640575
      vertex 0 9.064398 54.401665
    endloop
  endfacet
  facet normal 0 -0.99452186 0.104528785
    outer loop
      vertex 0 14.279754 48.609425
      vertex 6.5 14.475348 50.47038
      vertex 0 14.475348 50.47038
    endloop
  endfacet
  facet normal 0 -0.99452186 0.104528785
    outer loop
      vertex 6.5 14.475348 50.47038
      vertex 0 14.279754 48.609425
      vertex 6.5 14.279754 48.609425
    endloop
  endfacet
  facet normal 0 0.7431445 -0.669131
    outer loop
      vertex 6.5 6.102886 52.25
      vertex 0 7.354967 53.640575
      vertex 6.5 7.354967 53.640575
    endloop
  endfacet
  facet normal 0 0.7431445 -0.669131
    outer loop
      vertex 0 7.354967 53.640575
      vertex 6.5 6.102886 52.25
      vertex 0 6.102886 52.25
    endloop
  endfacet
  facet normal 0 0 -1
    outer loop
      vertex 0 9.064398 54.401665
      vertex 6.5 10.935602 54.401665
      vertex 6.5 9.064398 54.401665
    endloop
  endfacet
  facet normal 0 0 -1
    outer loop
      vertex 6.5 10.935602 54.401665
      vertex 0 9.064398 54.401665
      vertex 0 10.935602 54.401665
    endloop
  endfacet
  facet normal -1 0 0
    outer loop
      vertex 0 144.27975 48.609425
      vertex 0 150 60
      vertex 0 150 0
    endloop
  endfacet
  facet normal -1 0 0
    outer loop
      vertex 0 150 60
      vertex 0 144.27975 48.609425
      vertex 0 144.47534 50.47038
    endloop
  endfacet
  facet normal -1 0 0
    outer loop
      vertex 0 150 0
      vertex 0 143.34415 46.988914
      vertex 0 144.27975 48.609425
    endloop
  endfacet
  facet normal -1 0 0
    outer loop
      vertex 0 150 0
      vertex 0 141.83032 45.889046
      vertex 0 143.34415 46.988914
    endloop
  endfacet
  facet normal -1 0 0
    outer loop
      vertex 0 150 0
      vertex 0 140 45.5
      vertex 0 141.83032 45.889046
    endloop
  endfacet
  facet normal -1 0 0
    outer loop
      vertex 0 150 0
      vertex 0 138.16968 45.889046
      vertex 0 140 45.5
    endloop
  endfacet
  facet normal -1 0 0
    outer loop
      vertex 0 150 0
      vertex 0 136.65585 46.988914
      vertex 0 138.16968 45.889046
    endloop
  endfacet
  facet normal -1 0 0
    outer loop
      vertex 0 13.3441515 46.988914
      vertex 0 136.65585 46.988914
      vertex 0 150 0
    endloop
  endfacet
  facet normal -1 0 0
    outer loop
      vertex 0 135.72025 48.609425
      vertex 0 14.475348 50.47038
      vertex 0 135.52466 50.47038
    endloop
  endfacet
  facet normal -1 0 0
    outer loop
      vertex 0 136.65585 46.988914
      vertex 0 13.3441515 46.988914
      vertex 0 135.72025 48.609425
    endloop
  endfacet
  facet normal -1 0 0
    outer loop
      vertex 0 135.72025 48.609425
      vertex 0 14.279754 48.609425
      vertex 0 14.475348 50.47038
    endloop
  endfacet
  facet normal -1 0 0
    outer loop
      vertex 0 135.72025 48.609425
      vertex 0 13.3441515 46.988914
      vertex 0 14.279754 48.609425
    endloop
  endfacet
  facet normal -1 0 0
    outer loop
      vertex 0 0 0
      vertex 0 13.3441515 46.988914
      vertex 0 150 0
    endloop
  endfacet
  facet normal -1 0 0
    outer loop
      vertex 0 13.3441515 46.988914
      vertex 0 0 0
      vertex 0 11.830315 45.889046
    endloop
  endfacet
  facet normal -1 0 0
    outer loop
      vertex 0 11.830315 45.889046
      vertex 0 0 0
      vertex 0 10 45.5
    endloop
  endfacet
  facet normal -1 0 0
    outer loop
      vertex 0 0 60
      vertex 0 5.7202463 48.609425
      vertex 0 0 0
    endloop
  endfacet
  facet normal -1 0 0
    outer loop
      vertex 0 6.6558485 46.988914
      vertex 0 0 0
      vertex 0 5.7202463 48.609425
    endloop
  endfacet
  facet normal -1 0 0
    outer loop
      vertex 0 8.169685 45.889046
      vertex 0 0 0
      vertex 0 6.6558485 46.988914
    endloop
  endfacet
  facet normal -1 0 0
    outer loop
      vertex 0 10 45.5
      vertex 0 0 0
      vertex 0 8.169685 45.889046
    endloop
  endfacet
  facet normal -1 0 0
    outer loop
      vertex 0 143.89711 52.25
      vertex 0 150 60
      vertex 0 144.47534 50.47038
    endloop
  endfacet
  facet normal -1 0 0
    outer loop
      vertex 0 142.64503 53.640575
      vertex 0 150 60
      vertex 0 143.89711 52.25
    endloop
  endfacet
  facet normal -1 0 0
    outer loop
      vertex 0 140.93561 54.401665
      vertex 0 150 60
      vertex 0 142.64503 53.640575
    endloop
  endfacet
  facet normal -1 0 0
    outer loop
      vertex 0 139.06439 54.401665
      vertex 0 150 60
      vertex 0 140.93561 54.401665
    endloop
  endfacet
  facet normal -1 0 0
    outer loop
      vertex 0 137.35497 53.640575
      vertex 0 150 60
      vertex 0 139.06439 54.401665
    endloop
  endfacet
  facet normal -1 0 0
    outer loop
      vertex 0 14.475348 50.47038
      vertex 0 136.10289 52.25
      vertex 0 135.52466 50.47038
    endloop
  endfacet
  facet normal -1 0 0
    outer loop
      vertex 0 13.897114 52.25
      vertex 0 136.10289 52.25
      vertex 0 14.475348 50.47038
    endloop
  endfacet
  facet normal -1 0 0
    outer loop
      vertex 0 136.10289 52.25
      vertex 0 13.897114 52.25
      vertex 0 137.35497 53.640575
    endloop
  endfacet
  facet normal -1 0 0
    outer loop
      vertex 0 12.645033 53.640575
      vertex 0 137.35497 53.640575
      vertex 0 13.897114 52.25
    endloop
  endfacet
  facet normal -1 0 0
    outer loop
      vertex 0 137.35497 53.640575
      vertex 0 12.645033 53.640575
      vertex 0 150 60
    endloop
  endfacet
  facet normal -1 0 0
    outer loop
      vertex 0 10.935602 54.401665
      vertex 0 150 60
      vertex 0 12.645033 53.640575
    endloop
  endfacet
  facet normal -1 0 0
    outer loop
      vertex 0 0 60
      vertex 0 10.935602 54.401665
      vertex 0 9.064398 54.401665
    endloop
  endfacet
  facet normal -1 0 0
    outer loop
      vertex 0 10.935602 54.401665
      vertex 0 0 60
      vertex 0 150 60
    endloop
  endfacet
  facet normal -1 0 0
    outer loop
      vertex 0 7.354967 53.640575
      vertex 0 0 60
      vertex 0 9.064398 54.401665
    endloop
  endfacet
  facet normal -1 0 0
    outer loop
      vertex 0 6.102886 52.25
      vertex 0 0 60
      vertex 0 7.354967 53.640575
    endloop
  endfacet
  facet normal -1 0 0
    outer loop
      vertex 0 5.5246515 50.47038
      vertex 0 0 60
      vertex 0 6.102886 52.25
    endloop
  endfacet
  facet normal -1 0 0
    outer loop
      vertex 0 5.7202463 48.609425
      vertex 0 0 60
      vertex 0 5.5246515 50.47038
    endloop
  endfacet
  facet normal -1 0 0
    outer loop
      vertex 0 9 49
      vertex 0 11 51
      vertex 0 11 49
    endloop
  endfacet
  facet normal -1 0 0
    outer loop
      vertex 0 11 51
      vertex 0 9 49
      vertex 0 9 51
    endloop
  endfacet
  facet normal -1 0 0
    outer loop
      vertex 0 139 49
      vertex 0 141 51
      vertex 0 141 49
    endloop
  endfacet
  facet normal -1 0 0
    outer loop
      vertex 0 141 51
      vertex 0 139 49
      vertex 0 139 51
    endloop
  endfacet
  facet normal 1 0 0
    outer loop
      vertex 6.5 144.27975 48.609425
      vertex 6.5 150 60
      vertex 6.5 144.47534 50.47038
    endloop
  endfacet
  facet normal 1 0 0
    outer loop
      vertex 6.5 150 60
      vertex 6.5 143.89711 52.25
      vertex 6.5 144.47534 50.47038
    endloop
  endfacet
  facet normal 1 0 0
    outer loop
      vertex 6.5 150 60
      vertex 6.5 142.64503 53.640575
      vertex 6.5 143.89711 52.25
    endloop
  endfacet
  facet normal 1 0 0
    outer loop
      vertex 6.5 150 60
      vertex 6.5 140.93561 54.401665
      vertex 6.5 142.64503 53.640575
    endloop
  endfacet
  facet normal 1 0 0
    outer loop
      vertex 6.5 150 60
      vertex 6.5 139.06439 54.401665
      vertex 6.5 140.93561 54.401665
    endloop
  endfacet
  facet normal 1 0 0
    outer loop
      vertex 6.5 150 60
      vertex 6.5 137.35497 53.640575
      vertex 6.5 139.06439 54.401665
    endloop
  endfacet
  facet normal 1 0 0
    outer loop
      vertex 6.5 14.475348 50.47038
      vertex 6.5 135.52466 50.47038
      vertex 6.5 136.10289 52.25
    endloop
  endfacet
  facet normal 1 0 0
    outer loop
      vertex 6.5 100 6.5
      vertex 6.5 50 6.5
      vertex 6.5 100 0
    endloop
  endfacet
  facet normal 1 0 0
    outer loop
      vertex 6.5 135.52466 50.47038
      vertex 6.5 50 6.5
      vertex 6.5 100 6.5
    endloop
  endfacet
  facet normal 1 0 0
    outer loop
      vertex 6.5 13.897114 52.25
      vertex 6.5 136.10289 52.25
      vertex 6.5 137.35497 53.640575
    endloop
  endfacet
  facet normal 1 0 0
    outer loop
      vertex 6.5 135.52466 50.47038
      vertex 6.5 14.475348 50.47038
      vertex 6.5 50 6.5
    endloop
  endfacet
  facet normal 1 0 0
    outer loop
      vertex 6.5 12.645033 53.640575
      vertex 6.5 137.35497 53.640575
      vertex 6.5 150 60
    endloop
  endfacet
  facet normal 1 0 0
    outer loop
      vertex 6.5 136.10289 52.25
      vertex 6.5 13.897114 52.25
      vertex 6.5 14.475348 50.47038
    endloop
  endfacet
  facet normal 1 0 0
    outer loop
      vertex 6.5 137.35497 53.640575
      vertex 6.5 12.645033 53.640575
      vertex 6.5 13.897114 52.25
    endloop
  endfacet
  facet normal 1 0 0
    outer loop
      vertex 6.5 150 60
      vertex 6.5 10.935602 54.401665
      vertex 6.5 12.645033 53.640575
    endloop
  endfacet
  facet normal 1 0 0
    outer loop
      vertex 6.5 0 60
      vertex 6.5 10.935602 54.401665
      vertex 6.5 150 60
    endloop
  endfacet
  facet normal 1 0 0
    outer loop
      vertex 6.5 6.102886 52.25
      vertex 6.5 0 60
      vertex 6.5 5.5246515 50.47038
    endloop
  endfacet
  facet normal 1 0 0
    outer loop
      vertex 6.5 7.354967 53.640575
      vertex 6.5 0 60
      vertex 6.5 6.102886 52.25
    endloop
  endfacet
  facet normal 1 0 0
    outer loop
      vertex 6.5 9.064398 54.401665
      vertex 6.5 0 60
      vertex 6.5 7.354967 53.640575
    endloop
  endfacet
  facet normal 1 0 0
    outer loop
      vertex 6.5 10.935602 54.401665
      vertex 6.5 0 60
      vertex 6.5 9.064398 54.401665
    endloop
  endfacet
  facet normal 1 0 0
    outer loop
      vertex 6.5 150 60
      vertex 6.5 144.27975 48.609425
      vertex 6.5 150 6.5
    endloop
  endfacet
  facet normal 1 0 0
    outer loop
      vertex 6.5 143.34415 46.988914
      vertex 6.5 150 6.5
      vertex 6.5 144.27975 48.609425
    endloop
  endfacet
  facet normal 1 0 0
    outer loop
      vertex 6.5 141.83032 45.889046
      vertex 6.5 150 6.5
      vertex 6.5 143.34415 46.988914
    endloop
  endfacet
  facet normal 1 0 0
    outer loop
      vertex 6.5 140 45.5
      vertex 6.5 150 6.5
      vertex 6.5 141.83032 45.889046
    endloop
  endfacet
  facet normal 1 0 0
    outer loop
      vertex 6.5 138.16968 45.889046
      vertex 6.5 150 6.5
      vertex 6.5 140 45.5
    endloop
  endfacet
  facet normal 1 0 0
    outer loop
      vertex 6.5 100 6.5
      vertex 6.5 138.16968 45.889046
      vertex 6.5 136.65585 46.988914
    endloop
  endfacet
  facet normal 1 0 0
    outer loop
      vertex 6.5 100 6.5
      vertex 6.5 136.65585 46.988914
      vertex 6.5 135.72025 48.609425
    endloop
  endfacet
  facet normal 1 0 0
    outer loop
      vertex 6.5 138.16968 45.889046
      vertex 6.5 100 6.5
      vertex 6.5 150 6.5
    endloop
  endfacet
  facet normal 1 0 0
    outer loop
      vertex 6.5 100 6.5
      vertex 6.5 135.72025 48.609425
      vertex 6.5 135.52466 50.47038
    endloop
  endfacet
  facet normal 1 0 0
    outer loop
      vertex 6.5 100 0
      vertex 6.5 50 6.5
      vertex 6.5 50 0
    endloop
  endfacet
  facet normal 1 0 0
    outer loop
      vertex 6.5 14.279754 48.609425
      vertex 6.5 50 6.5
      vertex 6.5 14.475348 50.47038
    endloop
  endfacet
  facet normal 1 0 0
    outer loop
      vertex 6.5 13.3441515 46.988914
      vertex 6.5 50 6.5
      vertex 6.5 14.279754 48.609425
    endloop
  endfacet
  facet normal 1 0 0
    outer loop
      vertex 6.5 11.830315 45.889046
      vertex 6.5 50 6.5
      vertex 6.5 13.3441515 46.988914
    endloop
  endfacet
  facet normal 1 0 0
    outer loop
      vertex 6.5 0 6.5
      vertex 6.5 11.830315 45.889046
      vertex 6.5 10 45.5
    endloop
  endfacet
  facet normal 1 0 0
    outer loop
      vertex 6.5 0 6.5
      vertex 6.5 10 45.5
      vertex 6.5 8.169685 45.889046
    endloop
  endfacet
  facet normal 1 0 0
    outer loop
      vertex 6.5 0 6.5
      vertex 6.5 8.169685 45.889046
      vertex 6.5 6.6558485 46.988914
    endloop
  endfacet
  facet normal 1 0 0
    outer loop
      vertex 6.5 0 60
      vertex 6.5 5.7202463 48.609425
      vertex 6.5 5.5246515 50.47038
    endloop
  endfacet
  facet normal 1 0 0
    outer loop
      vertex 6.5 11.830315 45.889046
      vertex 6.5 0 6.5
      vertex 6.5 50 6.5
    endloop
  endfacet
  facet normal 1 0 0
    outer loop
      vertex 6.5 5.7202463 48.609425
      vertex 6.5 0 6.5
      vertex 6.5 6.6558485 46.988914
    endloop
  endfacet
  facet normal 1 0 0
    outer loop
      vertex 6.5 0 6.5
      vertex 6.5 5.7202463 48.609425
      vertex 6.5 0 60
    endloop
  endfacet
  facet normal 1 0 0
    outer loop
      vertex 1 9 51
      vertex 1 11 49
      vertex 1 11 51
    endloop
  endfacet
  facet normal 1 0 0
    outer loop
      vertex 1 11 49
      vertex 1 9 51
      vertex 1 9 49
    endloop
  endfacet
  facet normal 0 0 1
    outer loop
      vertex 0 11 51
      vertex 1 9 51
      vertex 1 11 51
    endloop
  endfacet
  facet normal 0 0 1
    outer loop
      vertex 1 9 51
      vertex 0 11 51
      vertex 0 9 51
    endloop
  endfacet
  facet normal 0 0 -1
    outer loop
      vertex 0 9 49
      vertex 1 11 49
      vertex 1 9 49
    endloop
  endfacet
  facet normal 0 0 -1
    outer loop
      vertex 1 11 49
      vertex 0 9 49
      vertex 0 11 49
    endloop
  endfacet
  facet normal 0 1 0
    outer loop
      vertex 1 11 49
      vertex 0 11 51
      vertex 1 11 51
    endloop
  endfacet
  facet normal 0 1 0
    outer loop
      vertex 0 11 51
      vertex 1 11 49
      vertex 0 11 49
    endloop
  endfacet
  facet normal 0 -1 0
    outer loop
      vertex 0 9 49
      vertex 1 9 51
      vertex 0 9 51
    endloop
  endfacet
  facet normal 0 -1 0
    outer loop
      vertex 1 9 51
      vertex 0 9 49
      vertex 1 9 49
    endloop
  endfacet
  facet normal 0 0.866024 0.5000024
    outer loop
      vertex 6.5 136.65585 46.988914
      vertex 0 135.72025 48.609425
      vertex 6.5 135.72025 48.609425
    endloop
  endfacet
  facet normal 0 0.866024 0.5000024
    outer loop
      vertex 0 135.72025 48.609425
      vertex 6.5 136.65585 46.988914
      vertex 0 136.65585 46.988914
    endloop
  endfacet
  facet normal 0 -0.743146 -0.66912925
    outer loop
      vertex 0 143.89711 52.25
      vertex 6.5 142.64503 53.640575
      vertex 0 142.64503 53.640575
    endloop
  endfacet
  facet normal 0 -0.743146 -0.66912925
    outer loop
      vertex 6.5 142.64503 53.640575
      vertex 0 143.89711 52.25
      vertex 6.5 143.89711 52.25
    endloop
  endfacet
  facet normal 0 -0.20791103 0.97814775
    outer loop
      vertex 0 141.83032 45.889046
      vertex 6.5 140 45.5
      vertex 6.5 141.83032 45.889046
    endloop
  endfacet
  facet normal 0 -0.20791103 0.97814775
    outer loop
      vertex 6.5 140 45.5
      vertex 0 141.83032 45.889046
      vertex 0 140 45.5
    endloop
  endfacet
  facet normal 0 -0.866024 0.5000024
    outer loop
      vertex 0 143.34415 46.988914
      vertex 6.5 144.27975 48.609425
      vertex 0 144.27975 48.609425
    endloop
  endfacet
  facet normal 0 -0.866024 0.5000024
    outer loop
      vertex 6.5 144.27975 48.609425
      vertex 0 143.34415 46.988914
      vertex 6.5 143.34415 46.988914
    endloop
  endfacet
  facet normal 0 0.95105684 -0.30901596
    outer loop
      vertex 6.5 135.52466 50.47038
      vertex 0 136.10289 52.25
      vertex 6.5 136.10289 52.25
    endloop
  endfacet
  facet normal 0 0.95105684 -0.30901596
    outer loop
      vertex 0 136.10289 52.25
      vertex 6.5 135.52466 50.47038
      vertex 0 135.52466 50.47038
    endloop
  endfacet
  facet normal 0 0.58778906 0.8090142
    outer loop
      vertex 0 138.16968 45.889046
      vertex 6.5 136.65585 46.988914
      vertex 6.5 138.16968 45.889046
    endloop
  endfacet
  facet normal 0 0.58778906 0.8090142
    outer loop
      vertex 6.5 136.65585 46.988914
      vertex 0 138.16968 45.889046
      vertex 0 136.65585 46.988914
    endloop
  endfacet
  facet normal 0 -0.4067382 -0.9135448
    outer loop
      vertex 0 140.93561 54.401665
      vertex 6.5 142.64503 53.640575
      vertex 6.5 140.93561 54.401665
    endloop
  endfacet
  facet normal 0 -0.4067382 -0.9135448
    outer loop
      vertex 6.5 142.64503 53.640575
      vertex 0 140.93561 54.401665
      vertex 0 142.64503 53.640575
    endloop
  endfacet
  facet normal 0 -0.95105684 -0.30901596
    outer loop
      vertex 0 144.47534 50.47038
      vertex 6.5 143.89711 52.25
      vertex 0 143.89711 52.25
    endloop
  endfacet
  facet normal 0 -0.95105684 -0.30901596
    outer loop
      vertex 6.5 143.89711 52.25
      vertex 0 144.47534 50.47038
      vertex 6.5 144.47534 50.47038
    endloop
  endfacet
  facet normal 0 0.20791103 0.97814775
    outer loop
      vertex 0 140 45.5
      vertex 6.5 138.16968 45.889046
      vertex 6.5 140 45.5
    endloop
  endfacet
  facet normal 0 0.20791103 0.97814775
    outer loop
      vertex 6.5 138.16968 45.889046
      vertex 0 140 45.5
      vertex 0 138.16968 45.889046
    endloop
  endfacet
  facet normal 0 0.9945223 0.104524754
    outer loop
      vertex 6.5 135.72025 48.609425
      vertex 0 135.52466 50.47038
      vertex 6.5 135.52466 50.47038
    endloop
  endfacet
  facet normal 0 0.9945223 0.104524754
    outer loop
      vertex 0 135.52466 50.47038
      vertex 6.5 135.72025 48.609425
      vertex 0 135.72025 48.609425
    endloop
  endfacet
  facet normal 0 -0.58778906 0.8090142
    outer loop
      vertex 0 143.34415 46.988914
      vertex 6.5 141.83032 45.889046
      vertex 6.5 143.34415 46.988914
    endloop
  endfacet
  facet normal 0 -0.58778906 0.8090142
    outer loop
      vertex 6.5 141.83032 45.889046
      vertex 0 143.34415 46.988914
      vertex 0 141.83032 45.889046
    endloop
  endfacet
  facet normal 0 0.4067382 -0.9135448
    outer loop
      vertex 0 137.35497 53.640575
      vertex 6.5 139.06439 54.401665
      vertex 6.5 137.35497 53.640575
    endloop
  endfacet
  facet normal 0 0.4067382 -0.9135448
    outer loop
      vertex 6.5 139.06439 54.401665
      vertex 0 137.35497 53.640575
      vertex 0 139.06439 54.401665
    endloop
  endfacet
  facet normal 0 -0.9945223 0.104524754
    outer loop
      vertex 0 144.27975 48.609425
      vertex 6.5 144.47534 50.47038
      vertex 0 144.47534 50.47038
    endloop
  endfacet
  facet normal 0 -0.9945223 0.104524754
    outer loop
      vertex 6.5 144.47534 50.47038
      vertex 0 144.27975 48.609425
      vertex 6.5 144.27975 48.609425
    endloop
  endfacet
  facet normal 0 0.743146 -0.66912925
    outer loop
      vertex 6.5 136.10289 52.25
      vertex 0 137.35497 53.640575
      vertex 6.5 137.35497 53.640575
    endloop
  endfacet
  facet normal 0 0.743146 -0.66912925
    outer loop
      vertex 0 137.35497 53.640575
      vertex 6.5 136.10289 52.25
      vertex 0 136.10289 52.25
    endloop
  endfacet
  facet normal 0 0 -1
    outer loop
      vertex 0 139.06439 54.401665
      vertex 6.5 140.93561 54.401665
      vertex 6.5 139.06439 54.401665
    endloop
  endfacet
  facet normal 0 0 -1
    outer loop
      vertex 6.5 140.93561 54.401665
      vertex 0 139.06439 54.401665
      vertex 0 140.93561 54.401665
    endloop
  endfacet
  facet normal 1 0 0
    outer loop
      vertex 1 139 51
      vertex 1 141 49
      vertex 1 141 51
    endloop
  endfacet
  facet normal 1 0 0
    outer loop
      vertex 1 141 49
      vertex 1 139 51
      vertex 1 139 49
    endloop
  endfacet
  facet normal 0 0 1
    outer loop
      vertex 0 141 51
      vertex 1 139 51
      vertex 1 141 51
    endloop
  endfacet
  facet normal 0 0 1
    outer loop
      vertex 1 139 51
      vertex 0 141 51
      vertex 0 139 51
    endloop
  endfacet
  facet normal 0 0 -1
    outer loop
      vertex 0 139 49
      vertex 1 141 49
      vertex 1 139 49
    endloop
  endfacet
  facet normal 0 0 -1
    outer loop
      vertex 1 141 49
      vertex 0 139 49
      vertex 0 141 49
    endloop
  endfacet
  facet normal 0 1 0
    outer loop
      vertex 1 141 49
      vertex 0 141 51
      vertex 1 141 51
    endloop
  endfacet
  facet normal 0 1 0
    outer loop
      vertex 0 141 51
      vertex 1 141 49
      vertex 0 141 49
    endloop
  endfacet
  facet normal 0 -1 0
    outer loop
      vertex 0 139 49
      vertex 1 139 51
      vertex 0 139 51
    endloop
  endfacet
  facet normal 0 -1 0
    outer loop
      vertex 1 139 51
      vertex 0 139 49
      vertex 1 139 49
    endloop
  endfacet
  facet normal 0 0 1
    outer loop
      vertex 0 150 60
      vertex 6.5 0 60
      vertex 6.5 150 60
    endloop
  endfacet
  facet normal 0 0 1
    outer loop
      vertex 6.5 0 60
      vertex 0 150 60
      vertex 0 0 60
    endloop
  endfacet
  facet normal 0 0 -1
    outer loop
      vertex 42 0 0
      vertex 6.5 50 0
      vertex 42 50 0
    endloop
  endfacet
  facet normal 0 0 -1
    outer loop
      vertex 6.5 50 0
      vertex 0 0 0
      vertex 6.5 100 0
    endloop
  endfacet
  facet normal 0 0 -1
    outer loop
      vertex 0 0 0
      vertex 6.5 50 0
      vertex 42 0 0
    endloop
  endfacet
  facet normal 0 0 -1
    outer loop
      vertex 6.5 100 0
      vertex 42 150 0
      vertex 42 100 0
    endloop
  endfacet
  facet normal 0 0 -1
    outer loop
      vertex 6.5 100 0
      vertex 0 150 0
      vertex 42 150 0
    endloop
  endfacet
  facet normal 0 0 -1
    outer loop
      vertex 0 150 0
      vertex 6.5 100 0
      vertex 0 0 0
    endloop
  endfacet
  facet normal 0 1 0
    outer loop
      vertex 42 150 30
      vertex 35.5 150 6.5
      vertex 35.5 150 30
    endloop
  endfacet
  facet normal 0 1 0
    outer loop
      vertex 35.5 150 6.5
      vertex 42 150 0
      vertex 6.5 150 6.5
    endloop
  endfacet
  facet normal 0 1 0
    outer loop
      vertex 42 150 0
      vertex 35.5 150 6.5
      vertex 42 150 30
    endloop
  endfacet
  facet normal 0 1 0
    outer loop
      vertex 6.5 150 6.5
      vertex 0 150 60
      vertex 6.5 150 60
    endloop
  endfacet
  facet normal 0 1 0
    outer loop
      vertex 6.5 150 6.5
      vertex 0 150 0
      vertex 0 150 60
    endloop
  endfacet
  facet normal 0 1 0
    outer loop
      vertex 0 150 0
      vertex 6.5 150 6.5
      vertex 42 150 0
    endloop
  endfacet
  facet normal 0 -1 0
    outer loop
      vertex 0 0 60
      vertex 6.5 0 6.5
      vertex 6.5 0 60
    endloop
  endfacet
  facet normal 0 -1 0
    outer loop
      vertex 6.5 0 6.5
      vertex 0 0 0
      vertex 35.5 0 6.5
    endloop
  endfacet
  facet normal 0 -1 0
    outer loop
      vertex 0 0 0
      vertex 6.5 0 6.5
      vertex 0 0 60
    endloop
  endfacet
  facet normal 0 -1 0
    outer loop
      vertex 35.5 0 6.5
      vertex 42 0 30
      vertex 35.5 0 30
    endloop
  endfacet
  facet normal 0 -1 0
    outer loop
      vertex 35.5 0 6.5
      vertex 42 0 0
      vertex 42 0 30
    endloop
  endfacet
  facet normal 0 -1 0
    outer loop
      vertex 42 0 0
      vertex 35.5 0 6.5
      vertex 0 0 0
    endloop
  endfacet
  facet normal 1 0 0
    outer loop
      vertex 42 0 30
      vertex 42 50 0
      vertex 42 50 30
    endloop
  endfacet
  facet normal 1 0 0
    outer loop
      vertex 42 50 0
      vertex 42 0 30
      vertex 42 0 0
    endloop
  endfacet
  facet normal 0 0 1
    outer loop
      vertex 6.5 50 6.5
      vertex 35.5 0 6.5
      vertex 35.5 50 6.5
    endloop
  endfacet
  facet normal 0 0 1
    outer loop
      vertex 35.5 0 6.5
      vertex 6.5 50 6.5
      vertex 6.5 0 6.5
    endloop
  endfacet
  facet normal 0 1 0
    outer loop
      vertex 42 50 30
      vertex 35.5 50 6.5
      vertex 35.5 50 30
    endloop
  endfacet
  facet normal 0 1 0
    outer loop
      vertex 42 50 0
      vertex 35.5 50 6.5
      vertex 42 50 30
    endloop
  endfacet
  facet normal 0 1 0
    outer loop
      vertex 6.5 50 0
      vertex 35.5 50 6.5
      vertex 42 50 0
    endloop
  endfacet
  facet normal 0 1 0
    outer loop
      vertex 35.5 50 6.5
      vertex 6.5 50 0
      vertex 6.5 50 6.5
    endloop
  endfacet
  facet normal 1 0 0
    outer loop
      vertex 42 100 30
      vertex 42 150 0
      vertex 42 150 30
    endloop
  endfacet
  facet normal 1 0 0
    outer loop
      vertex 42 150 0
      vertex 42 100 30
      vertex 42 100 0
    endloop
  endfacet
  facet normal 0 0 1
    outer loop
      vertex 6.5 150 6.5
      vertex 35.5 100 6.5
      vertex 35.5 150 6.5
    endloop
  endfacet
  facet normal 0 0 1
    outer loop
      vertex 35.5 100 6.5
      vertex 6.5 150 6.5
      vertex 6.5 100 6.5
    endloop
  endfacet
  facet normal 0 -1 0
    outer loop
      vertex 6.5 100 6.5
      vertex 6.5 100 0
      vertex 35.5 100 6.5
    endloop
  endfacet
  facet normal 0 -1 0
    outer loop
      vertex 35.5 100 6.5
      vertex 42 100 30
      vertex 35.5 100 30
    endloop
  endfacet
  facet normal 0 -1 0
    outer loop
      vertex 35.5 100 6.5
      vertex 42 100 0
      vertex 42 100 30
    endloop
  endfacet
  facet normal 0 -1 0
    outer loop
      vertex 42 100 0
      vertex 35.5 100 6.5
      vertex 6.5 100 0
    endloop
  endfacet
  facet normal 0 0 1
    outer loop
      vertex 35.5 50 30
      vertex 42 0 30
      vertex 42 50 30
    endloop
  endfacet
  facet normal 0 0 1
    outer loop
      vertex 42 0 30
      vertex 35.5 50 30
      vertex 35.5 0 30
    endloop
  endfacet
  facet normal -1 0 0
    outer loop
      vertex 35.5 0 6.5
      vertex 35.5 50 30
      vertex 35.5 50 6.5
    endloop
  endfacet
  facet normal -1 0 0
    outer loop
      vertex 35.5 50 30
      vertex 35.5 0 6.5
      vertex 35.5 0 30
    endloop
  endfacet
  facet normal 0 0 1
    outer loop
      vertex 35.5 150 30
      vertex 42 100 30
      vertex 42 150 30
    endloop
  endfacet
  facet normal 0 0 1
    outer loop
      vertex 42 100 30
      vertex 35.5 150 30
      vertex 35.5 100 30
    endloop
  endfacet
  facet normal -1 0 0
    outer loop
      vertex 35.5 100 6.5
      vertex 35.5 150 30
      vertex 35.5 150 6.5
    endloop
  endfacet
  facet normal -1 0 0
    outer loop
      vertex 35.5 150 30
      vertex 35.5 100 6.5
      vertex 35.5 100 30
    endloop
  endfacet
endsolid OpenSCAD_Model
