solid OpenSCAD_Model
  facet normal 1 0 0
    outer loop
      vertex 0.5 126.81801948466054 46.81801948466054
      vertex 0.5 130 45.5
      vertex 0.5 128.23223304703362 48.23223304703363
    endloop
  endfacet
  facet normal 1 0 0
    outer loop
      vertex 0.5 126.81801948466054 46.81801948466054
      vertex 0.5 128.23223304703362 48.23223304703363
      vertex 0.5 127.5 50
    endloop
  endfacet
  facet normal 1 0 0
    outer loop
      vertex 0.5 130 45.5
      vertex 0.5 130 47.5
      vertex 0.5 128.23223304703362 48.23223304703363
    endloop
  endfacet
  facet normal 1 0 0
    outer loop
      vertex 0.5 130 45.5
      vertex 0.5 131.76776695296638 48.23223304703363
      vertex 0.5 130 47.5
    endloop
  endfacet
  facet normal 1 0 0
    outer loop
      vertex 0.5 126.81801948466054 46.81801948466054
      vertex 0.5 126.81801948466054 53.18198051533946
      vertex 0.5 125.5 50
    endloop
  endfacet
  facet normal 1 0 0
    outer loop
      vertex 0.5 126.81801948466054 46.81801948466054
      vertex 0.5 127.5 50
      vertex 0.5 126.81801948466054 53.18198051533946
    endloop
  endfacet
  facet normal 1 0 0
    outer loop
      vertex 0.5 127.5 50
      vertex 0.5 128.23223304703362 51.76776695296637
      vertex 0.5 126.81801948466054 53.18198051533946
    endloop
  endfacet
  facet normal 1 0 0
    outer loop
      vertex 0.5 130 45.5
      vertex 0.5 133.18198051533946 46.81801948466054
      vertex 0.5 131.76776695296638 48.23223304703363
    endloop
  endfacet
  facet normal 1 0 0
    outer loop
      vertex 0.5 133.18198051533946 46.81801948466054
      vertex 0.5 132.5 50
      vertex 0.5 131.76776695296638 48.23223304703363
    endloop
  endfacet
  facet normal 1 0 0
    outer loop
      vertex 0.5 133.18198051533946 46.81801948466054
      vertex 0.5 133.18198051533946 53.18198051533946
      vertex 0.5 132.5 50
    endloop
  endfacet
  facet normal 1 0 0
    outer loop
      vertex 0.5 133.18198051533946 46.81801948466054
      vertex 0.5 134.5 50
      vertex 0.5 133.18198051533946 53.18198051533946
    endloop
  endfacet
  facet normal 1 0 0
    outer loop
      vertex 0.5 132.5 50
      vertex 0.5 133.18198051533946 53.18198051533946
      vertex 0.5 131.76776695296638 51.76776695296637
    endloop
  endfacet
  facet normal 2.464857613811266e-17 0.3826834323650908 0.9238795325112864
    outer loop
      vertex 0.5 126.81801948466054 46.81801948466054
      vertex 5.5 130 45.5
      vertex 0.5 130 45.5
    endloop
  endfacet
  facet normal 0 0.9238795325112864 0.3826834323650908
    outer loop
      vertex 0.5 126.81801948466054 46.81801948466054
      vertex 5.5 125.5 50
      vertex 5.5 126.81801948466054 46.81801948466054
    endloop
  endfacet
  facet normal 0 0.3826834323650908 0.9238795325112864
    outer loop
      vertex 0.5 126.81801948466054 46.81801948466054
      vertex 5.5 126.81801948466054 46.81801948466054
      vertex 5.5 130 45.5
    endloop
  endfacet
  facet normal 0 -0.3826834323650908 0.9238795325112864
    outer loop
      vertex 0.5 130 45.5
      vertex 5.5 130 45.5
      vertex 5.5 133.18198051533946 46.81801948466054
    endloop
  endfacet
  facet normal 2.464857613811266e-17 0.9238795325112864 0.3826834323650908
    outer loop
      vertex 0.5 126.81801948466054 46.81801948466054
      vertex 0.5 125.5 50
      vertex 5.5 125.5 50
    endloop
  endfacet
  facet normal -2.464857613811266e-17 0.9238795325112864 -0.3826834323650908
    outer loop
      vertex 0.5 125.5 50
      vertex 0.5 126.81801948466054 53.18198051533946
      vertex 5.5 126.81801948466054 53.18198051533946
    endloop
  endfacet
  facet normal 0 0.9238795325112864 -0.3826834323650908
    outer loop
      vertex 0.5 125.5 50
      vertex 5.5 126.81801948466054 53.18198051533946
      vertex 5.5 125.5 50
    endloop
  endfacet
  facet normal -2.464857613811266e-17 -0.3826834323650908 0.9238795325112864
    outer loop
      vertex 0.5 130 45.5
      vertex 5.5 133.18198051533946 46.81801948466054
      vertex 0.5 133.18198051533946 46.81801948466054
    endloop
  endfacet
  facet normal 0 -0.9238795325112864 0.3826834323650908
    outer loop
      vertex 0.5 133.18198051533946 46.81801948466054
      vertex 5.5 133.18198051533946 46.81801948466054
      vertex 0.5 134.5 50
    endloop
  endfacet
  facet normal 0 -0.9238795325112864 -0.3826834323650908
    outer loop
      vertex 0.5 134.5 50
      vertex 5.5 134.5 50
      vertex 0.5 133.18198051533946 53.18198051533946
    endloop
  endfacet
  facet normal 0 -0.9238795325112864 0.3826834323650908
    outer loop
      vertex 0.5 134.5 50
      vertex 5.5 133.18198051533946 46.81801948466054
      vertex 5.5 134.5 50
    endloop
  endfacet
  facet normal 0 -0.9238795325112864 -0.3826834323650908
    outer loop
      vertex 0.5 133.18198051533946 53.18198051533946
      vertex 5.5 134.5 50
      vertex 5.5 133.18198051533946 53.18198051533946
    endloop
  endfacet
  facet normal 1 0 0
    outer loop
      vertex 0.5 128.23223304703362 51.76776695296637
      vertex 0.5 130 54.5
      vertex 0.5 126.81801948466054 53.18198051533946
    endloop
  endfacet
  facet normal 1 0 0
    outer loop
      vertex 0.5 128.23223304703362 51.76776695296637
      vertex 0.5 130 52.5
      vertex 0.5 130 54.5
    endloop
  endfacet
  facet normal 1 0 0
    outer loop
      vertex 0.5 131.76776695296638 51.76776695296637
      vertex 0.5 130 54.5
      vertex 0.5 130 52.5
    endloop
  endfacet
  facet normal 1 0 0
    outer loop
      vertex 0.5 131.76776695296638 51.76776695296637
      vertex 0.5 133.18198051533946 53.18198051533946
      vertex 0.5 130 54.5
    endloop
  endfacet
  facet normal 0 0.3826834323650908 -0.9238795325112864
    outer loop
      vertex 0.5 126.81801948466054 53.18198051533946
      vertex 0.5 130 54.5
      vertex 5.5 126.81801948466054 53.18198051533946
    endloop
  endfacet
  facet normal 0 -0.3826834323650908 -0.9238795325112864
    outer loop
      vertex 0.5 130 54.5
      vertex 0.5 133.18198051533946 53.18198051533946
      vertex 5.5 130 54.5
    endloop
  endfacet
  facet normal 0 0.3826834323650908 -0.9238795325112864
    outer loop
      vertex 0.5 130 54.5
      vertex 5.5 130 54.5
      vertex 5.5 126.81801948466054 53.18198051533946
    endloop
  endfacet
  facet normal 0 -0.3826834323650908 -0.9238795325112864
    outer loop
      vertex 0.5 133.18198051533946 53.18198051533946
      vertex 5.5 133.18198051533946 53.18198051533946
      vertex 5.5 130 54.5
    endloop
  endfacet
  facet normal 1 0 0
    outer loop
      vertex 0.5 6.818019484660535 46.81801948466054
      vertex 0.5 10 45.5
      vertex 0.5 8.232233047033631 48.23223304703363
    endloop
  endfacet
  facet normal 1 0 0
    outer loop
      vertex 0.5 6.818019484660535 46.81801948466054
      vertex 0.5 8.232233047033631 48.23223304703363
      vertex 0.5 7.5 50
    endloop
  endfacet
  facet normal 1 0 0
    outer loop
      vertex 0.5 6.818019484660535 46.81801948466054
      vertex 0.5 6.818019484660535 53.18198051533946
      vertex 0.5 5.5 50
    endloop
  endfacet
  facet normal 1 0 0
    outer loop
      vertex 0.5 6.818019484660535 46.81801948466054
      vertex 0.5 7.5 50
      vertex 0.5 6.818019484660535 53.18198051533946
    endloop
  endfacet
  facet normal 1 0 0
    outer loop
      vertex 0.5 7.5 50
      vertex 0.5 8.232233047033631 51.76776695296637
      vertex 0.5 6.818019484660535 53.18198051533946
    endloop
  endfacet
  facet normal 1 0 0
    outer loop
      vertex 0.5 10 45.5
      vertex 0.5 13.181980515339465 46.81801948466054
      vertex 0.5 11.767766952966369 48.23223304703363
    endloop
  endfacet
  facet normal 1 0 0
    outer loop
      vertex 0.5 8.232233047033631 48.23223304703363
      vertex 0.5 10 45.5
      vertex 0.5 10 47.5
    endloop
  endfacet
  facet normal 1 0 0
    outer loop
      vertex 0.5 10 45.5
      vertex 0.5 11.767766952966369 48.23223304703363
      vertex 0.5 10 47.5
    endloop
  endfacet
  facet normal 1 0 0
    outer loop
      vertex 0.5 11.767766952966369 48.23223304703363
      vertex 0.5 13.181980515339465 46.81801948466054
      vertex 0.5 12.5 50
    endloop
  endfacet
  facet normal 1 0 0
    outer loop
      vertex 0.5 13.181980515339465 46.81801948466054
      vertex 0.5 13.181980515339465 53.18198051533946
      vertex 0.5 12.5 50
    endloop
  endfacet
  facet normal 1 0 0
    outer loop
      vertex 0.5 12.5 50
      vertex 0.5 13.181980515339465 53.18198051533946
      vertex 0.5 11.767766952966369 51.76776695296637
    endloop
  endfacet
  facet normal 1 0 0
    outer loop
      vertex 0.5 13.181980515339465 46.81801948466054
      vertex 0.5 14.5 50
      vertex 0.5 13.181980515339465 53.18198051533946
    endloop
  endfacet
  facet normal 0 0.38268343236509034 0.9238795325112865
    outer loop
      vertex 0.5 6.818019484660535 46.81801948466054
      vertex 5.5 6.818019484660535 46.81801948466054
      vertex 5.5 10 45.5
    endloop
  endfacet
  facet normal 0 0.9238795325112868 0.3826834323650899
    outer loop
      vertex 0.5 6.818019484660535 46.81801948466054
      vertex 5.5 5.5 50
      vertex 5.5 6.818019484660535 46.81801948466054
    endloop
  endfacet
  facet normal 1.0615871927047128e-17 0.9238795325112868 0.3826834323650899
    outer loop
      vertex 0.5 6.818019484660535 46.81801948466054
      vertex 0.5 5.5 50
      vertex 5.5 5.5 50
    endloop
  endfacet
  facet normal -1.0615871927047128e-17 0.9238795325112868 -0.3826834323650899
    outer loop
      vertex 0.5 5.5 50
      vertex 0.5 6.818019484660535 53.18198051533946
      vertex 5.5 6.818019484660535 53.18198051533946
    endloop
  endfacet
  facet normal 0 0.9238795325112868 -0.3826834323650899
    outer loop
      vertex 0.5 5.5 50
      vertex 5.5 6.818019484660535 53.18198051533946
      vertex 5.5 5.5 50
    endloop
  endfacet
  facet normal 1.0615871927047113e-17 0.38268343236509034 0.9238795325112865
    outer loop
      vertex 0.5 6.818019484660535 46.81801948466054
      vertex 5.5 10 45.5
      vertex 0.5 10 45.5
    endloop
  endfacet
  facet normal -1.0615871927047113e-17 -0.38268343236509034 0.9238795325112865
    outer loop
      vertex 0.5 10 45.5
      vertex 5.5 13.181980515339465 46.81801948466054
      vertex 0.5 13.181980515339465 46.81801948466054
    endloop
  endfacet
  facet normal 0 -0.9238795325112868 0.3826834323650899
    outer loop
      vertex 0.5 13.181980515339465 46.81801948466054
      vertex 5.5 13.181980515339465 46.81801948466054
      vertex 0.5 14.5 50
    endloop
  endfacet
  facet normal 0 -0.38268343236509034 0.9238795325112865
    outer loop
      vertex 0.5 10 45.5
      vertex 5.5 10 45.5
      vertex 5.5 13.181980515339465 46.81801948466054
    endloop
  endfacet
  facet normal 0 -0.9238795325112868 -0.3826834323650899
    outer loop
      vertex 0.5 14.5 50
      vertex 5.5 14.5 50
      vertex 0.5 13.181980515339465 53.18198051533946
    endloop
  endfacet
  facet normal 0 -0.9238795325112868 0.3826834323650899
    outer loop
      vertex 0.5 14.5 50
      vertex 5.5 13.181980515339465 46.81801948466054
      vertex 5.5 14.5 50
    endloop
  endfacet
  facet normal 0 -0.9238795325112868 -0.3826834323650899
    outer loop
      vertex 0.5 13.181980515339465 53.18198051533946
      vertex 5.5 14.5 50
      vertex 5.5 13.181980515339465 53.18198051533946
    endloop
  endfacet
  facet normal 1 0 0
    outer loop
      vertex 0.5 8.232233047033631 51.76776695296637
      vertex 0.5 10 54.5
      vertex 0.5 6.818019484660535 53.18198051533946
    endloop
  endfacet
  facet normal 1 0 0
    outer loop
      vertex 0.5 8.232233047033631 51.76776695296637
      vertex 0.5 10 52.5
      vertex 0.5 10 54.5
    endloop
  endfacet
  facet normal 1 0 0
    outer loop
      vertex 0.5 11.767766952966369 51.76776695296637
      vertex 0.5 10 54.5
      vertex 0.5 10 52.5
    endloop
  endfacet
  facet normal 1 0 0
    outer loop
      vertex 0.5 11.767766952966369 51.76776695296637
      vertex 0.5 13.181980515339465 53.18198051533946
      vertex 0.5 10 54.5
    endloop
  endfacet
  facet normal 0 0.38268343236509034 -0.9238795325112865
    outer loop
      vertex 0.5 6.818019484660535 53.18198051533946
      vertex 0.5 10 54.5
      vertex 5.5 6.818019484660535 53.18198051533946
    endloop
  endfacet
  facet normal 0 -0.38268343236509034 -0.9238795325112865
    outer loop
      vertex 0.5 10 54.5
      vertex 0.5 13.181980515339465 53.18198051533946
      vertex 5.5 10 54.5
    endloop
  endfacet
  facet normal 0 0.38268343236509034 -0.9238795325112865
    outer loop
      vertex 0.5 10 54.5
      vertex 5.5 10 54.5
      vertex 5.5 6.818019484660535 53.18198051533946
    endloop
  endfacet
  facet normal 0 -0.38268343236509034 -0.9238795325112865
    outer loop
      vertex 0.5 13.181980515339465 53.18198051533946
      vertex 5.5 13.181980515339465 53.18198051533946
      vertex 5.5 10 54.5
    endloop
  endfacet
  facet normal 0 0.3826834323650871 0.9238795325112878
    outer loop
      vertex 0 128.23223304703362 48.23223304703363
      vertex 0.5 128.23223304703362 48.23223304703363
      vertex 0.5 130 47.5
    endloop
  endfacet
  facet normal 4.115240736909664e-17 0.3826834323650871 0.9238795325112878
    outer loop
      vertex 0 128.23223304703362 48.23223304703363
      vertex 0.5 130 47.5
      vertex 0 130 47.5
    endloop
  endfacet
  facet normal 0 -0.3826834323650871 0.9238795325112878
    outer loop
      vertex 0 130 47.5
      vertex 0.5 130 47.5
      vertex 0.5 131.76776695296638 48.23223304703363
    endloop
  endfacet
  facet normal -4.115240736909664e-17 -0.3826834323650871 0.9238795325112878
    outer loop
      vertex 0 130 47.5
      vertex 0.5 131.76776695296638 48.23223304703363
      vertex 0 131.76776695296638 48.23223304703363
    endloop
  endfacet
  facet normal 4.1152407369097036e-17 0.9238795325112893 0.38268343236508334
    outer loop
      vertex 0 128.23223304703362 48.23223304703363
      vertex 0 127.5 50
      vertex 0.5 127.5 50
    endloop
  endfacet
  facet normal 0 0.9238795325112893 0.38268343236508334
    outer loop
      vertex 0 128.23223304703362 48.23223304703363
      vertex 0.5 127.5 50
      vertex 0.5 128.23223304703362 48.23223304703363
    endloop
  endfacet
  facet normal 0 0.9238795325112893 -0.38268343236508334
    outer loop
      vertex 0 127.5 50
      vertex 0.5 128.23223304703362 51.76776695296637
      vertex 0.5 127.5 50
    endloop
  endfacet
  facet normal -4.1152407369097036e-17 0.9238795325112893 -0.38268343236508334
    outer loop
      vertex 0 127.5 50
      vertex 0 128.23223304703362 51.76776695296637
      vertex 0.5 128.23223304703362 51.76776695296637
    endloop
  endfacet
  facet normal 0 0.3826834323650871 -0.9238795325112878
    outer loop
      vertex 0 128.23223304703362 51.76776695296637
      vertex 0 130 52.5
      vertex 0.5 128.23223304703362 51.76776695296637
    endloop
  endfacet
  facet normal 4.115240736909664e-17 -0.3826834323650871 -0.9238795325112878
    outer loop
      vertex 0 131.76776695296638 51.76776695296637
      vertex 0.5 130 52.5
      vertex 0 130 52.5
    endloop
  endfacet
  facet normal -4.115240736909664e-17 0.3826834323650871 -0.9238795325112878
    outer loop
      vertex 0.5 128.23223304703362 51.76776695296637
      vertex 0 130 52.5
      vertex 0.5 130 52.5
    endloop
  endfacet
  facet normal 0 -0.3826834323650871 -0.9238795325112878
    outer loop
      vertex 0 131.76776695296638 51.76776695296637
      vertex 0.5 131.76776695296638 51.76776695296637
      vertex 0.5 130 52.5
    endloop
  endfacet
  facet normal 0 -0.9238795325112893 0.38268343236508334
    outer loop
      vertex 0 131.76776695296638 48.23223304703363
      vertex 0.5 131.76776695296638 48.23223304703363
      vertex 0 132.5 50
    endloop
  endfacet
  facet normal -4.1152407369097036e-17 -0.9238795325112893 0.38268343236508334
    outer loop
      vertex 0.5 131.76776695296638 48.23223304703363
      vertex 0.5 132.5 50
      vertex 0 132.5 50
    endloop
  endfacet
  facet normal 0 -0.9238795325112893 -0.38268343236508334
    outer loop
      vertex 0 132.5 50
      vertex 0.5 132.5 50
      vertex 0 131.76776695296638 51.76776695296637
    endloop
  endfacet
  facet normal 4.1152407369097036e-17 -0.9238795325112893 -0.38268343236508334
    outer loop
      vertex 0.5 132.5 50
      vertex 0.5 131.76776695296638 51.76776695296637
      vertex 0 131.76776695296638 51.76776695296637
    endloop
  endfacet
  facet normal 9.336049682804933e-18 0.9238795325112867 0.3826834323650897
    outer loop
      vertex 0 8.232233047033631 48.23223304703363
      vertex 0 7.5 50
      vertex 0.5 7.5 50
    endloop
  endfacet
  facet normal 0 0.9238795325112867 0.3826834323650897
    outer loop
      vertex 0 8.232233047033631 48.23223304703363
      vertex 0.5 7.5 50
      vertex 0.5 8.232233047033631 48.23223304703363
    endloop
  endfacet
  facet normal 0 0.9238795325112867 -0.3826834323650897
    outer loop
      vertex 0 7.5 50
      vertex 0.5 8.232233047033631 51.76776695296637
      vertex 0.5 7.5 50
    endloop
  endfacet
  facet normal -9.336049682804933e-18 0.9238795325112867 -0.3826834323650897
    outer loop
      vertex 0 7.5 50
      vertex 0 8.232233047033631 51.76776695296637
      vertex 0.5 8.232233047033631 51.76776695296637
    endloop
  endfacet
  facet normal 9.336049682804933e-18 0.3826834323650897 0.9238795325112867
    outer loop
      vertex 0 8.232233047033631 48.23223304703363
      vertex 0.5 10 47.5
      vertex 0 10 47.5
    endloop
  endfacet
  facet normal 0 -0.3826834323650897 0.9238795325112867
    outer loop
      vertex 0 10 47.5
      vertex 0.5 10 47.5
      vertex 0.5 11.767766952966369 48.23223304703363
    endloop
  endfacet
  facet normal 0 0.3826834323650897 0.9238795325112867
    outer loop
      vertex 0 8.232233047033631 48.23223304703363
      vertex 0.5 8.232233047033631 48.23223304703363
      vertex 0.5 10 47.5
    endloop
  endfacet
  facet normal -9.336049682804933e-18 -0.3826834323650897 0.9238795325112867
    outer loop
      vertex 0 10 47.5
      vertex 0.5 11.767766952966369 48.23223304703363
      vertex 0 11.767766952966369 48.23223304703363
    endloop
  endfacet
  facet normal 0 -0.9238795325112867 0.3826834323650897
    outer loop
      vertex 0 11.767766952966369 48.23223304703363
      vertex 0.5 11.767766952966369 48.23223304703363
      vertex 0 12.5 50
    endloop
  endfacet
  facet normal -9.336049682804933e-18 -0.9238795325112867 0.3826834323650897
    outer loop
      vertex 0.5 11.767766952966369 48.23223304703363
      vertex 0.5 12.5 50
      vertex 0 12.5 50
    endloop
  endfacet
  facet normal 0 -0.9238795325112867 -0.3826834323650897
    outer loop
      vertex 0 12.5 50
      vertex 0.5 12.5 50
      vertex 0 11.767766952966369 51.76776695296637
    endloop
  endfacet
  facet normal 0 0.3826834323650897 -0.9238795325112867
    outer loop
      vertex 0 8.232233047033631 51.76776695296637
      vertex 0 10 52.5
      vertex 0.5 8.232233047033631 51.76776695296637
    endloop
  endfacet
  facet normal 9.336049682804933e-18 -0.3826834323650897 -0.9238795325112867
    outer loop
      vertex 0 11.767766952966369 51.76776695296637
      vertex 0.5 10 52.5
      vertex 0 10 52.5
    endloop
  endfacet
  facet normal -9.336049682804933e-18 0.3826834323650897 -0.9238795325112867
    outer loop
      vertex 0.5 8.232233047033631 51.76776695296637
      vertex 0 10 52.5
      vertex 0.5 10 52.5
    endloop
  endfacet
  facet normal 9.336049682804933e-18 -0.9238795325112867 -0.3826834323650897
    outer loop
      vertex 0.5 12.5 50
      vertex 0.5 11.767766952966369 51.76776695296637
      vertex 0 11.767766952966369 51.76776695296637
    endloop
  endfacet
  facet normal 0 -0.3826834323650897 -0.9238795325112867
    outer loop
      vertex 0 11.767766952966369 51.76776695296637
      vertex 0.5 11.767766952966369 51.76776695296637
      vertex 0.5 10 52.5
    endloop
  endfacet
  facet normal 0 -1 0
    outer loop
      vertex 0 0 0
      vertex 5.5 0 0
      vertex 5.5 0 4.5
    endloop
  endfacet
  facet normal 0 0 -1
    outer loop
      vertex 0 0 0
      vertex 5.5 50 0
      vertex 5.5 0 0
    endloop
  endfacet
  facet normal 0 -1 0
    outer loop
      vertex 0 0 0
      vertex 5.5 0 4.5
      vertex 5.5 0 60
    endloop
  endfacet
  facet normal 1 0 0
    outer loop
      vertex 5.5 5.5 50
      vertex 5.5 0 4.5
      vertex 5.5 2 6.5
    endloop
  endfacet
  facet normal 1 0 0
    outer loop
      vertex 5.5 13.181980515339465 46.81801948466054
      vertex 5.5 2 6.5
      vertex 5.5 48 6.5
    endloop
  endfacet
  facet normal 0 0 -1
    outer loop
      vertex 0 0 0
      vertex 5.5 90 0
      vertex 5.5 50 0
    endloop
  endfacet
  facet normal 1 0 0
    outer loop
      vertex 5.5 50 4.5
      vertex 5.5 50 0
      vertex 5.5 90 4.5
    endloop
  endfacet
  facet normal 1 0 0
    outer loop
      vertex 5.5 50 4.5
      vertex 5.5 92 6.5
      vertex 5.5 48 6.5
    endloop
  endfacet
  facet normal 1 0 0
    outer loop
      vertex 5.5 13.181980515339465 46.81801948466054
      vertex 5.5 48 6.5
      vertex 5.5 92 6.5
    endloop
  endfacet
  facet normal -1 0 0
    outer loop
      vertex 0 0 0
      vertex 0 7.5 50
      vertex 0 8.232233047033631 48.23223304703363
    endloop
  endfacet
  facet normal -1 0 0
    outer loop
      vertex 0 0 0
      vertex 0 8.232233047033631 48.23223304703363
      vertex 0 10 47.5
    endloop
  endfacet
  facet normal -1 0 0
    outer loop
      vertex 0 0 0
      vertex 0 0 60
      vertex 0 7.5 50
    endloop
  endfacet
  facet normal 0 -1 0
    outer loop
      vertex 0 0 0
      vertex 5.5 0 60
      vertex 0 0 60
    endloop
  endfacet
  facet normal 1 0 0
    outer loop
      vertex 5.5 6.818019484660535 46.81801948466054
      vertex 5.5 2 6.5
      vertex 5.5 10 45.5
    endloop
  endfacet
  facet normal 1 0 0
    outer loop
      vertex 5.5 10 45.5
      vertex 5.5 2 6.5
      vertex 5.5 13.181980515339465 46.81801948466054
    endloop
  endfacet
  facet normal 1 0 0
    outer loop
      vertex 5.5 6.818019484660535 46.81801948466054
      vertex 5.5 5.5 50
      vertex 5.5 2 6.5
    endloop
  endfacet
  facet normal 1 0 0
    outer loop
      vertex 5.5 5.5 50
      vertex 5.5 0 60
      vertex 5.5 0 4.5
    endloop
  endfacet
  facet normal -1 0 0
    outer loop
      vertex 0 7.5 50
      vertex 0 0 60
      vertex 0 8.232233047033631 51.76776695296637
    endloop
  endfacet
  facet normal -1 0 0
    outer loop
      vertex 0 8.232233047033631 51.76776695296637
      vertex 0 0 60
      vertex 0 10 52.5
    endloop
  endfacet
  facet normal 1 0 0
    outer loop
      vertex 5.5 5.5 50
      vertex 5.5 6.818019484660535 53.18198051533946
      vertex 5.5 0 60
    endloop
  endfacet
  facet normal 1 0 0
    outer loop
      vertex 5.5 6.818019484660535 53.18198051533946
      vertex 5.5 10 54.5
      vertex 5.5 0 60
    endloop
  endfacet
  facet normal 1 0 0
    outer loop
      vertex 5.5 0 60
      vertex 5.5 10 54.5
      vertex 5.5 13.181980515339465 53.18198051533946
    endloop
  endfacet
  facet normal -1 0 0
    outer loop
      vertex 0 0 0
      vertex 0 10 47.5
      vertex 0 140 60
    endloop
  endfacet
  facet normal 1 0 0
    outer loop
      vertex 5.5 0 60
      vertex 5.5 13.181980515339465 53.18198051533946
      vertex 5.5 138 6.5
    endloop
  endfacet
  facet normal 1 0 0
    outer loop
      vertex 5.5 13.181980515339465 46.81801948466054
      vertex 5.5 138 6.5
      vertex 5.5 14.5 50
    endloop
  endfacet
  facet normal 1 0 0
    outer loop
      vertex 5.5 14.5 50
      vertex 5.5 138 6.5
      vertex 5.5 13.181980515339465 53.18198051533946
    endloop
  endfacet
  facet normal -1 0 0
    outer loop
      vertex 0 0 60
      vertex 0 140 60
      vertex 0 10 52.5
    endloop
  endfacet
  facet normal 0 0 1
    outer loop
      vertex 0 0 60
      vertex 5.5 0 60
      vertex 0 140 60
    endloop
  endfacet
  facet normal -1 0 0
    outer loop
      vertex 0 10 47.5
      vertex 0 11.767766952966369 48.23223304703363
      vertex 0 140 60
    endloop
  endfacet
  facet normal -1 0 0
    outer loop
      vertex 0 11.767766952966369 48.23223304703363
      vertex 0 12.5 50
      vertex 0 140 60
    endloop
  endfacet
  facet normal -1 0 0
    outer loop
      vertex 0 12.5 50
      vertex 0 11.767766952966369 51.76776695296637
      vertex 0 140 60
    endloop
  endfacet
  facet normal -1 0 0
    outer loop
      vertex 0 11.767766952966369 51.76776695296637
      vertex 0 10 52.5
      vertex 0 140 60
    endloop
  endfacet
  facet normal 0 0 -1
    outer loop
      vertex 0 0 0
      vertex 5.5 140 0
      vertex 5.5 90 0
    endloop
  endfacet
  facet normal 0 0 -1
    outer loop
      vertex 0 0 0
      vertex 0 140 0
      vertex 5.5 140 0
    endloop
  endfacet
  facet normal 1 0 0
    outer loop
      vertex 5.5 90 0
      vertex 5.5 90 4.5
      vertex 5.5 50 0
    endloop
  endfacet
  facet normal 1 0 0
    outer loop
      vertex 5.5 50 4.5
      vertex 5.5 90 4.5
      vertex 5.5 92 6.5
    endloop
  endfacet
  facet normal -1 0 0
    outer loop
      vertex 0 0 0
      vertex 0 128.23223304703362 48.23223304703363
      vertex 0 140 0
    endloop
  endfacet
  facet normal 1 0 0
    outer loop
      vertex 5.5 13.181980515339465 46.81801948466054
      vertex 5.5 92 6.5
      vertex 5.5 138 6.5
    endloop
  endfacet
  facet normal 0 1 0
    outer loop
      vertex 0 140 0
      vertex 0 140 60
      vertex 5.5 140 0
    endloop
  endfacet
  facet normal 0 1 0
    outer loop
      vertex 5.5 140 0
      vertex 0 140 60
      vertex 5.5 140 4.5
    endloop
  endfacet
  facet normal 1 0 0
    outer loop
      vertex 5.5 130 45.5
      vertex 5.5 138 6.5
      vertex 5.5 140 4.5
    endloop
  endfacet
  facet normal -1 0 0
    outer loop
      vertex 0 0 0
      vertex 0 127.5 50
      vertex 0 128.23223304703362 48.23223304703363
    endloop
  endfacet
  facet normal -1 0 0
    outer loop
      vertex 0 0 0
      vertex 0 128.23223304703362 51.76776695296637
      vertex 0 127.5 50
    endloop
  endfacet
  facet normal -1 0 0
    outer loop
      vertex 0 0 0
      vertex 0 130 52.5
      vertex 0 128.23223304703362 51.76776695296637
    endloop
  endfacet
  facet normal -1 0 0
    outer loop
      vertex 0 0 0
      vertex 0 140 60
      vertex 0 130 52.5
    endloop
  endfacet
  facet normal 1 0 0
    outer loop
      vertex 5.5 0 60
      vertex 5.5 138 6.5
      vertex 5.5 130 45.5
    endloop
  endfacet
  facet normal 0 0 1
    outer loop
      vertex 5.5 0 60
      vertex 5.5 140 60
      vertex 0 140 60
    endloop
  endfacet
  facet normal 1 0 0
    outer loop
      vertex 5.5 0 60
      vertex 5.5 126.81801948466054 46.81801948466054
      vertex 5.5 125.5 50
    endloop
  endfacet
  facet normal 1 0 0
    outer loop
      vertex 5.5 0 60
      vertex 5.5 130 45.5
      vertex 5.5 126.81801948466054 46.81801948466054
    endloop
  endfacet
  facet normal 1 0 0
    outer loop
      vertex 5.5 0 60
      vertex 5.5 125.5 50
      vertex 5.5 126.81801948466054 53.18198051533946
    endloop
  endfacet
  facet normal 1 0 0
    outer loop
      vertex 5.5 0 60
      vertex 5.5 126.81801948466054 53.18198051533946
      vertex 5.5 130 54.5
    endloop
  endfacet
  facet normal 1 0 0
    outer loop
      vertex 5.5 0 60
      vertex 5.5 130 54.5
      vertex 5.5 140 60
    endloop
  endfacet
  facet normal -1 0 0
    outer loop
      vertex 0 140 0
      vertex 0 128.23223304703362 48.23223304703363
      vertex 0 130 47.5
    endloop
  endfacet
  facet normal -1 0 0
    outer loop
      vertex 0 140 0
      vertex 0 130 47.5
      vertex 0 131.76776695296638 48.23223304703363
    endloop
  endfacet
  facet normal -1 0 0
    outer loop
      vertex 0 140 0
      vertex 0 131.76776695296638 48.23223304703363
      vertex 0 140 60
    endloop
  endfacet
  facet normal 0 1 0
    outer loop
      vertex 5.5 140 60
      vertex 5.5 140 4.5
      vertex 0 140 60
    endloop
  endfacet
  facet normal 1 0 0
    outer loop
      vertex 5.5 130 45.5
      vertex 5.5 140 4.5
      vertex 5.5 133.18198051533946 46.81801948466054
    endloop
  endfacet
  facet normal 1 0 0
    outer loop
      vertex 5.5 133.18198051533946 46.81801948466054
      vertex 5.5 140 4.5
      vertex 5.5 134.5 50
    endloop
  endfacet
  facet normal 1 0 0
    outer loop
      vertex 5.5 134.5 50
      vertex 5.5 140 4.5
      vertex 5.5 140 60
    endloop
  endfacet
  facet normal -1 0 0
    outer loop
      vertex 0 131.76776695296638 48.23223304703363
      vertex 0 132.5 50
      vertex 0 140 60
    endloop
  endfacet
  facet normal -1 0 0
    outer loop
      vertex 0 132.5 50
      vertex 0 131.76776695296638 51.76776695296637
      vertex 0 140 60
    endloop
  endfacet
  facet normal -1 0 0
    outer loop
      vertex 0 131.76776695296638 51.76776695296637
      vertex 0 130 52.5
      vertex 0 140 60
    endloop
  endfacet
  facet normal 1 0 0
    outer loop
      vertex 5.5 130 54.5
      vertex 5.5 133.18198051533946 53.18198051533946
      vertex 5.5 140 60
    endloop
  endfacet
  facet normal 1 0 0
    outer loop
      vertex 5.5 134.5 50
      vertex 5.5 140 60
      vertex 5.5 133.18198051533946 53.18198051533946
    endloop
  endfacet
  facet normal 0 -1 0
    outer loop
      vertex 5.5 0 0
      vertex 28.5 0 0
      vertex 5.5 0 4.5
    endloop
  endfacet
  facet normal 0 -0.7071067811865476 0.7071067811865476
    outer loop
      vertex 5.5 2 6.5
      vertex 5.5 0 4.5
      vertex 28.5 0 4.5
    endloop
  endfacet
  facet normal 0 0 1
    outer loop
      vertex 5.5 2 6.5
      vertex 26.5 2 6.5
      vertex 5.5 48 6.5
    endloop
  endfacet
  facet normal 0 0 -1
    outer loop
      vertex 26.5 48 0
      vertex 5.5 0 0
      vertex 5.5 50 0
    endloop
  endfacet
  facet normal 0 1 0
    outer loop
      vertex 5.5 50 4.5
      vertex 28.5 50 4.5
      vertex 5.5 50 0
    endloop
  endfacet
  facet normal 0 0.7071067811865476 0.7071067811865476
    outer loop
      vertex 26.5 48 6.5
      vertex 5.5 50 4.5
      vertex 5.5 48 6.5
    endloop
  endfacet
  facet normal 0 0 -1
    outer loop
      vertex 5.5 0 0
      vertex 26.5 2 0
      vertex 28.5 0 0
    endloop
  endfacet
  facet normal 0 -0.7071067811865476 0.7071067811865476
    outer loop
      vertex 28.5 0 4.5
      vertex 26.5 2 6.5
      vertex 5.5 2 6.5
    endloop
  endfacet
  facet normal 0 0 -1
    outer loop
      vertex 5.5 0 0
      vertex 26.5 48 0
      vertex 26.5 2 0
    endloop
  endfacet
  facet normal 0 0 1
    outer loop
      vertex 5.5 48 6.5
      vertex 26.5 2 6.5
      vertex 26.5 48 6.5
    endloop
  endfacet
  facet normal 0 -1 0
    outer loop
      vertex 28.5 0 4.5
      vertex 5.5 0 4.5
      vertex 28.5 0 0
    endloop
  endfacet
  facet normal 0 0 -1
    outer loop
      vertex 26.5 48 0
      vertex 5.5 50 0
      vertex 28.5 50 0
    endloop
  endfacet
  facet normal 0 0.7071067811865476 0.7071067811865476
    outer loop
      vertex 5.5 50 4.5
      vertex 26.5 48 6.5
      vertex 28.5 50 4.5
    endloop
  endfacet
  facet normal 0 1 0
    outer loop
      vertex 28.5 50 0
      vertex 5.5 50 0
      vertex 28.5 50 4.5
    endloop
  endfacet
  facet normal 0 -1 0
    outer loop
      vertex 5.5 90 0
      vertex 28.5 90 0
      vertex 5.5 90 4.5
    endloop
  endfacet
  facet normal 0 -0.7071067811865476 0.7071067811865476
    outer loop
      vertex 5.5 90 4.5
      vertex 28.5 90 4.5
      vertex 5.5 92 6.5
    endloop
  endfacet
  facet normal 0 0 1
    outer loop
      vertex 5.5 138 6.5
      vertex 5.5 92 6.5
      vertex 26.5 92 6.5
    endloop
  endfacet
  facet normal 0 0 -1
    outer loop
      vertex 26.5 138 0
      vertex 5.5 90 0
      vertex 5.5 140 0
    endloop
  endfacet
  facet normal 0 1 0
    outer loop
      vertex 5.5 140 4.5
      vertex 28.5 140 4.5
      vertex 5.5 140 0
    endloop
  endfacet
  facet normal 0 0.7071067811865476 0.7071067811865476
    outer loop
      vertex 26.5 138 6.5
      vertex 5.5 140 4.5
      vertex 5.5 138 6.5
    endloop
  endfacet
  facet normal 0 0 -1
    outer loop
      vertex 26.5 92 0
      vertex 28.5 90 0
      vertex 5.5 90 0
    endloop
  endfacet
  facet normal 0 -0.7071067811865476 0.7071067811865476
    outer loop
      vertex 28.5 90 4.5
      vertex 26.5 92 6.5
      vertex 5.5 92 6.5
    endloop
  endfacet
  facet normal 0 -1 0
    outer loop
      vertex 28.5 90 4.5
      vertex 5.5 90 4.5
      vertex 28.5 90 0
    endloop
  endfacet
  facet normal 0 0 -1
    outer loop
      vertex 26.5 92 0
      vertex 5.5 90 0
      vertex 26.5 138 0
    endloop
  endfacet
  facet normal 0 0 1
    outer loop
      vertex 5.5 138 6.5
      vertex 26.5 92 6.5
      vertex 26.5 138 6.5
    endloop
  endfacet
  facet normal 0 0 -1
    outer loop
      vertex 26.5 138 0
      vertex 5.5 140 0
      vertex 28.5 140 0
    endloop
  endfacet
  facet normal 0 0.7071067811865476 0.7071067811865476
    outer loop
      vertex 5.5 140 4.5
      vertex 26.5 138 6.5
      vertex 28.5 140 4.5
    endloop
  endfacet
  facet normal 0 1 0
    outer loop
      vertex 28.5 140 0
      vertex 5.5 140 0
      vertex 28.5 140 4.5
    endloop
  endfacet
  facet normal 0 0 -1
    outer loop
      vertex 26.5 2 0
      vertex 26.5 48 0
      vertex 33 0 0
    endloop
  endfacet
  facet normal 0 0 -1
    outer loop
      vertex 26.5 2 0
      vertex 33 0 0
      vertex 28.5 0 0
    endloop
  endfacet
  facet normal 0 -1 0
    outer loop
      vertex 28.5 0 0
      vertex 33 0 34
      vertex 28.5 0 4.5
    endloop
  endfacet
  facet normal 0 -1 0
    outer loop
      vertex 28.5 0 0
      vertex 33 0 0
      vertex 33 0 34
    endloop
  endfacet
  facet normal 0 0 -1
    outer loop
      vertex 33 0 0
      vertex 26.5 48 0
      vertex 28.5 50 0
    endloop
  endfacet
  facet normal 0 0 -1
    outer loop
      vertex 33 0 0
      vertex 28.5 50 0
      vertex 33 50 0
    endloop
  endfacet
  facet normal 1 0 0
    outer loop
      vertex 33 0 0
      vertex 33 50 0
      vertex 33 50 34
    endloop
  endfacet
  facet normal -0.7071067811865475 -0.7071067811865475 0
    outer loop
      vertex 28.5 0 34
      vertex 26.5 2 6.5
      vertex 28.5 0 4.5
    endloop
  endfacet
  facet normal -1 0 0
    outer loop
      vertex 26.5 2 34
      vertex 26.5 48 34
      vertex 26.5 2 6.5
    endloop
  endfacet
  facet normal -0.7071067811865475 -0.7071067811865475 0
    outer loop
      vertex 26.5 2 34
      vertex 26.5 2 6.5
      vertex 28.5 0 34
    endloop
  endfacet
  facet normal -1 0 0
    outer loop
      vertex 26.5 48 34
      vertex 26.5 48 6.5
      vertex 26.5 2 6.5
    endloop
  endfacet
  facet normal 0 -1 0
    outer loop
      vertex 28.5 0 34
      vertex 28.5 0 4.5
      vertex 33 0 34
    endloop
  endfacet
  facet normal 1 0 0
    outer loop
      vertex 33 0 0
      vertex 33 50 34
      vertex 33 0 34
    endloop
  endfacet
  facet normal 0 1 0
    outer loop
      vertex 33 50 34
      vertex 28.5 50 0
      vertex 28.5 50 4.5
    endloop
  endfacet
  facet normal 0 1 0
    outer loop
      vertex 28.5 50 0
      vertex 33 50 34
      vertex 33 50 0
    endloop
  endfacet
  facet normal -0.7071067811865475 0.7071067811865475 0
    outer loop
      vertex 28.5 50 34
      vertex 28.5 50 4.5
      vertex 26.5 48 6.5
    endloop
  endfacet
  facet normal -0.7071067811865475 0.7071067811865475 0
    outer loop
      vertex 26.5 48 34
      vertex 28.5 50 34
      vertex 26.5 48 6.5
    endloop
  endfacet
  facet normal 0 1 0
    outer loop
      vertex 28.5 50 4.5
      vertex 28.5 50 34
      vertex 33 50 34
    endloop
  endfacet
  facet normal -0.5773502691896258 -0.5773502691896258 0.5773502691896258
    outer loop
      vertex 26.5 2 34
      vertex 28.5 0 34
      vertex 28.5 2 36
    endloop
  endfacet
  facet normal -0.7071067811865476 0 0.7071067811865476
    outer loop
      vertex 26.5 2 34
      vertex 28.5 2 36
      vertex 26.5 48 34
    endloop
  endfacet
  facet normal -0.7071067811865476 0 0.7071067811865476
    outer loop
      vertex 28.5 2 36
      vertex 28.5 48 36
      vertex 26.5 48 34
    endloop
  endfacet
  facet normal 0 -0.7071067811865476 0.7071067811865476
    outer loop
      vertex 28.5 0 34
      vertex 33 0 34
      vertex 28.5 2 36
    endloop
  endfacet
  facet normal 0 -0.7071067811865476 0.7071067811865476
    outer loop
      vertex 28.5 2 36
      vertex 33 0 34
      vertex 33 2 36
    endloop
  endfacet
  facet normal 0 0 1
    outer loop
      vertex 28.5 2 36
      vertex 33 2 36
      vertex 33 48 36
    endloop
  endfacet
  facet normal 1 0 0
    outer loop
      vertex 33 0 34
      vertex 33 50 34
      vertex 33 2 36
    endloop
  endfacet
  facet normal 0 0 1
    outer loop
      vertex 28.5 2 36
      vertex 33 48 36
      vertex 28.5 48 36
    endloop
  endfacet
  facet normal 1 0 0
    outer loop
      vertex 33 2 36
      vertex 33 50 34
      vertex 33 48 36
    endloop
  endfacet
  facet normal -0.5773502691896258 0.5773502691896258 0.5773502691896258
    outer loop
      vertex 26.5 48 34
      vertex 28.5 48 36
      vertex 28.5 50 34
    endloop
  endfacet
  facet normal 0 0.7071067811865476 0.7071067811865476
    outer loop
      vertex 28.5 48 36
      vertex 33 50 34
      vertex 28.5 50 34
    endloop
  endfacet
  facet normal 0 0.7071067811865476 0.7071067811865476
    outer loop
      vertex 28.5 48 36
      vertex 33 48 36
      vertex 33 50 34
    endloop
  endfacet
  facet normal 0 0 -1
    outer loop
      vertex 26.5 92 0
      vertex 33 90 0
      vertex 28.5 90 0
    endloop
  endfacet
  facet normal 0 -1 0
    outer loop
      vertex 28.5 90 0
      vertex 33 90 34
      vertex 28.5 90 4.5
    endloop
  endfacet
  facet normal 0 -1 0
    outer loop
      vertex 28.5 90 0
      vertex 33 90 0
      vertex 33 90 34
    endloop
  endfacet
  facet normal -0.7071067811865475 -0.7071067811865475 0
    outer loop
      vertex 28.5 90 34
      vertex 26.5 92 6.5
      vertex 28.5 90 4.5
    endloop
  endfacet
  facet normal -0.7071067811865475 -0.7071067811865475 0
    outer loop
      vertex 26.5 92 34
      vertex 26.5 92 6.5
      vertex 28.5 90 34
    endloop
  endfacet
  facet normal 0 -1 0
    outer loop
      vertex 28.5 90 34
      vertex 28.5 90 4.5
      vertex 33 90 34
    endloop
  endfacet
  facet normal 0 0 -1
    outer loop
      vertex 26.5 92 0
      vertex 26.5 138 0
      vertex 33 90 0
    endloop
  endfacet
  facet normal 0 0 -1
    outer loop
      vertex 33 90 0
      vertex 26.5 138 0
      vertex 28.5 140 0
    endloop
  endfacet
  facet normal 0 0 -1
    outer loop
      vertex 33 90 0
      vertex 28.5 140 0
      vertex 33 140 0
    endloop
  endfacet
  facet normal 0 1 0
    outer loop
      vertex 33 140 34
      vertex 28.5 140 0
      vertex 28.5 140 4.5
    endloop
  endfacet
  facet normal 1 0 0
    outer loop
      vertex 33 90 0
      vertex 33 140 0
      vertex 33 140 34
    endloop
  endfacet
  facet normal 0 1 0
    outer loop
      vertex 28.5 140 0
      vertex 33 140 34
      vertex 33 140 0
    endloop
  endfacet
  facet normal -1 0 0
    outer loop
      vertex 26.5 92 34
      vertex 26.5 138 34
      vertex 26.5 92 6.5
    endloop
  endfacet
  facet normal -1 0 0
    outer loop
      vertex 26.5 138 34
      vertex 26.5 138 6.5
      vertex 26.5 92 6.5
    endloop
  endfacet
  facet normal -0.7071067811865475 0.7071067811865475 0
    outer loop
      vertex 28.5 140 34
      vertex 28.5 140 4.5
      vertex 26.5 138 6.5
    endloop
  endfacet
  facet normal -0.7071067811865475 0.7071067811865475 0
    outer loop
      vertex 26.5 138 34
      vertex 28.5 140 34
      vertex 26.5 138 6.5
    endloop
  endfacet
  facet normal 1 0 0
    outer loop
      vertex 33 90 0
      vertex 33 140 34
      vertex 33 90 34
    endloop
  endfacet
  facet normal 0 1 0
    outer loop
      vertex 28.5 140 4.5
      vertex 28.5 140 34
      vertex 33 140 34
    endloop
  endfacet
  facet normal -0.5773502691896258 -0.5773502691896258 0.5773502691896258
    outer loop
      vertex 26.5 92 34
      vertex 28.5 90 34
      vertex 28.5 92 36
    endloop
  endfacet
  facet normal 0 -0.7071067811865476 0.7071067811865476
    outer loop
      vertex 28.5 90 34
      vertex 33 90 34
      vertex 28.5 92 36
    endloop
  endfacet
  facet normal 0 -0.7071067811865476 0.7071067811865476
    outer loop
      vertex 28.5 92 36
      vertex 33 90 34
      vertex 33 92 36
    endloop
  endfacet
  facet normal -0.7071067811865476 0 0.7071067811865476
    outer loop
      vertex 26.5 92 34
      vertex 28.5 92 36
      vertex 26.5 138 34
    endloop
  endfacet
  facet normal -0.7071067811865476 0 0.7071067811865476
    outer loop
      vertex 28.5 92 36
      vertex 28.5 138 36
      vertex 26.5 138 34
    endloop
  endfacet
  facet normal -0.5773502691896258 0.5773502691896258 0.5773502691896258
    outer loop
      vertex 26.5 138 34
      vertex 28.5 138 36
      vertex 28.5 140 34
    endloop
  endfacet
  facet normal 0 0 1
    outer loop
      vertex 28.5 92 36
      vertex 33 92 36
      vertex 33 138 36
    endloop
  endfacet
  facet normal 1 0 0
    outer loop
      vertex 33 90 34
      vertex 33 140 34
      vertex 33 92 36
    endloop
  endfacet
  facet normal 0 0 1
    outer loop
      vertex 28.5 92 36
      vertex 33 138 36
      vertex 28.5 138 36
    endloop
  endfacet
  facet normal 0 0.7071067811865476 0.7071067811865476
    outer loop
      vertex 28.5 140 34
      vertex 28.5 138 36
      vertex 33 140 34
    endloop
  endfacet
  facet normal 1 0 0
    outer loop
      vertex 33 92 36
      vertex 33 140 34
      vertex 33 138 36
    endloop
  endfacet
  facet normal 0 0.7071067811865476 0.7071067811865476
    outer loop
      vertex 28.5 138 36
      vertex 33 138 36
      vertex 33 140 34
    endloop
  endfacet
endsolid OpenSCAD_Model
