solid OpenSCAD_Model
  facet normal 1 0 0
    outer loop
      vertex 20 0 10
      vertex 20 20 0
      vertex 20 20 10
    endloop
  endfacet
  facet normal 1 0 0
    outer loop
      vertex 20 20 0
      vertex 20 0 10
      vertex 20 0 0
    endloop
  endfacet
  facet normal 0 0 1
    outer loop
      vertex 20 20 10
      vertex 19 19 10
      vertex 20 0 10
    endloop
  endfacet
  facet normal 0 0 1
    outer loop
      vertex 20 20 10
      vertex 1 19 10
      vertex 19 19 10
    endloop
  endfacet
  facet normal 0 0 1
    outer loop
      vertex 1 19 10
      vertex 0 20 10
      vertex 1 1 10
    endloop
  endfacet
  facet normal 0 0 1
    outer loop
      vertex 0 20 10
      vertex 1 19 10
      vertex 20 20 10
    endloop
  endfacet
  facet normal 0 0 1
    outer loop
      vertex 19 1 10
      vertex 20 0 10
      vertex 19 19 10
    endloop
  endfacet
  facet normal 0 0 1
    outer loop
      vertex 1 1 10
      vertex 20 0 10
      vertex 19 1 10
    endloop
  endfacet
  facet normal 0 0 1
    outer loop
      vertex 1 1 10
      vertex 0 0 10
      vertex 20 0 10
    endloop
  endfacet
  facet normal 0 0 1
    outer loop
      vertex 0 0 10
      vertex 1 1 10
      vertex 0 20 10
    endloop
  endfacet
  facet normal 0 0 -1
    outer loop
      vertex 0 0 0
      vertex 20 20 0
      vertex 20 0 0
    endloop
  endfacet
  facet normal 0 0 -1
    outer loop
      vertex 20 20 0
      vertex 0 0 0
      vertex 0 20 0
    endloop
  endfacet
  facet normal -1 0 0
    outer loop
      vertex 0 0 0
      vertex 0 20 10
      vertex 0 20 0
    endloop
  endfacet
  facet normal -1 0 0
    outer loop
      vertex 0 20 10
      vertex 0 0 0
      vertex 0 0 10
    endloop
  endfacet
  facet normal 0 1 0
    outer loop
      vertex 20 20 0
      vertex 0 20 10
      vertex 20 20 10
    endloop
  endfacet
  facet normal 0 1 0
    outer loop
      vertex 0 20 10
      vertex 20 20 0
      vertex 0 20 0
    endloop
  endfacet
  facet normal 0 -1 0
    outer loop
      vertex 0 0 0
      vertex 20 0 10
      vertex 0 0 10
    endloop
  endfacet
  facet normal 0 -1 0
    outer loop
      vertex 20 0 10
      vertex 0 0 0
      vertex 20 0 0
    endloop
  endfacet
  facet normal -1 0 0
    outer loop
      vertex 19 1 1
      vertex 19 19 10
      vertex 19 19 1
    endloop
  endfacet
  facet normal -1 0 0
    outer loop
      vertex 19 19 10
      vertex 19 1 1
      vertex 19 1 10
    endloop
  endfacet
  facet normal 0 0 1
    outer loop
      vertex 1 19 1
      vertex 19 1 1
      vertex 19 19 1
    endloop
  endfacet
  facet normal 0 0 1
    outer loop
      vertex 19 1 1
      vertex 1 19 1
      vertex 1 1 1
    endloop
  endfacet
  facet normal 1 0 0
    outer loop
      vertex 1 1 10
      vertex 1 19 1
      vertex 1 19 10
    endloop
  endfacet
  facet normal 1 0 0
    outer loop
      vertex 1 19 1
      vertex 1 1 10
      vertex 1 1 1
    endloop
  endfacet
  facet normal 0 -1 0
    outer loop
      vertex 1 19 1
      vertex 19 19 10
      vertex 1 19 10
    endloop
  endfacet
  facet normal 0 -1 0
    outer loop
      vertex 19 19 10
      vertex 1 19 1
      vertex 19 19 1
    endloop
  endfacet
  facet normal 0 1 0
    outer loop
      vertex 19 1 1
      vertex 1 1 10
      vertex 19 1 10
    endloop
  endfacet
  facet normal 0 1 0
    outer loop
      vertex 1 1 10
      vertex 19 1 1
      vertex 1 1 1
    endloop
  endfacet
endsolid OpenSCAD_Model
