solid OpenSCAD_Model
  facet normal 1 0 0
    outer loop
      vertex 50 0 50
      vertex 50 4 0
      vertex 50 4 50
    endloop
  endfacet
  facet normal 1 0 0
    outer loop
      vertex 50 4 0
      vertex 50 0 50
      vertex 50 0 0
    endloop
  endfacet
  facet normal 0 0 1
    outer loop
      vertex -50 4 50
      vertex 50 0 50
      vertex 50 4 50
    endloop
  endfacet
  facet normal 0 0 1
    outer loop
      vertex 50 0 50
      vertex -50 4 50
      vertex -50 0 50
    endloop
  endfacet
  facet normal 0 0 1
    outer loop
      vertex -50 18 0
      vertex 50 4 0
      vertex 50 18 0
    endloop
  endfacet
  facet normal 0 0 1
    outer loop
      vertex 50 4 0
      vertex -50 18 0
      vertex -50 4 0
    endloop
  endfacet
  facet normal 0 0 1
    outer loop
      vertex -50 36 0
      vertex 50 22 0
      vertex 50 36 0
    endloop
  endfacet
  facet normal 0 0 1
    outer loop
      vertex 50 22 0
      vertex -50 36 0
      vertex -50 22 0
    endloop
  endfacet
  facet normal 0 0 1
    outer loop
      vertex -50 54 0
      vertex 50 40 0
      vertex 50 54 0
    endloop
  endfacet
  facet normal 0 0 1
    outer loop
      vertex 50 40 0
      vertex -50 54 0
      vertex -50 40 0
    endloop
  endfacet
  facet normal 0 0 1
    outer loop
      vertex -50 72 0
      vertex 50 58 0
      vertex 50 72 0
    endloop
  endfacet
  facet normal 0 0 1
    outer loop
      vertex 50 58 0
      vertex -50 72 0
      vertex -50 58 0
    endloop
  endfacet
  facet normal 0 0 1
    outer loop
      vertex -50 90 0
      vertex 50 76 0
      vertex 50 90 0
    endloop
  endfacet
  facet normal 0 0 1
    outer loop
      vertex 50 76 0
      vertex -50 90 0
      vertex -50 76 0
    endloop
  endfacet
  facet normal 0 0 1
    outer loop
      vertex 50 90 0
      vertex 64 104 0
      vertex 50 94 0
    endloop
  endfacet
  facet normal 0 0 1
    outer loop
      vertex 64 104 0
      vertex -50 94 0
      vertex 50 94 0
    endloop
  endfacet
  facet normal 0 0 1
    outer loop
      vertex -64 104 0
      vertex -50 90 0
      vertex -50 94 0
    endloop
  endfacet
  facet normal 0 0 1
    outer loop
      vertex -50 90 0
      vertex -64 104 0
      vertex -50 76 0
    endloop
  endfacet
  facet normal 0 0 1
    outer loop
      vertex -50 76 0
      vertex -64 104 0
      vertex -50 72 0
    endloop
  endfacet
  facet normal 0 0 1
    outer loop
      vertex -50 72 0
      vertex -64 104 0
      vertex -50 58 0
    endloop
  endfacet
  facet normal 0 0 1
    outer loop
      vertex -50 58 0
      vertex -64 104 0
      vertex -50 54 0
    endloop
  endfacet
  facet normal 0 0 1
    outer loop
      vertex -50 54 0
      vertex -64 104 0
      vertex -50 40 0
    endloop
  endfacet
  facet normal 0 0 1
    outer loop
      vertex -64 -14 0
      vertex -50 40 0
      vertex -64 104 0
    endloop
  endfacet
  facet normal 0 0 1
    outer loop
      vertex -50 40 0
      vertex -64 -14 0
      vertex -50 36 0
    endloop
  endfacet
  facet normal 0 0 1
    outer loop
      vertex -50 36 0
      vertex -64 -14 0
      vertex -50 22 0
    endloop
  endfacet
  facet normal 0 0 1
    outer loop
      vertex -50 22 0
      vertex -64 -14 0
      vertex -50 18 0
    endloop
  endfacet
  facet normal 0 0 1
    outer loop
      vertex -50 18 0
      vertex -64 -14 0
      vertex -50 4 0
    endloop
  endfacet
  facet normal 0 0 1
    outer loop
      vertex -64 104 0
      vertex -50 94 0
      vertex 64 104 0
    endloop
  endfacet
  facet normal 0 0 1
    outer loop
      vertex 50 76 0
      vertex 64 104 0
      vertex 50 90 0
    endloop
  endfacet
  facet normal 0 0 1
    outer loop
      vertex 50 72 0
      vertex 64 104 0
      vertex 50 76 0
    endloop
  endfacet
  facet normal 0 0 1
    outer loop
      vertex 50 58 0
      vertex 64 104 0
      vertex 50 72 0
    endloop
  endfacet
  facet normal 0 0 1
    outer loop
      vertex 50 54 0
      vertex 64 104 0
      vertex 50 58 0
    endloop
  endfacet
  facet normal 0 0 1
    outer loop
      vertex 50 40 0
      vertex 64 104 0
      vertex 50 54 0
    endloop
  endfacet
  facet normal 0 0 1
    outer loop
      vertex 64 104 0
      vertex 50 40 0
      vertex 64 -14 0
    endloop
  endfacet
  facet normal 0 0 1
    outer loop
      vertex 50 36 0
      vertex 64 -14 0
      vertex 50 40 0
    endloop
  endfacet
  facet normal 0 0 1
    outer loop
      vertex 50 22 0
      vertex 64 -14 0
      vertex 50 36 0
    endloop
  endfacet
  facet normal 0 0 1
    outer loop
      vertex 50 18 0
      vertex 64 -14 0
      vertex 50 22 0
    endloop
  endfacet
  facet normal 0 0 1
    outer loop
      vertex 50 4 0
      vertex 64 -14 0
      vertex 50 18 0
    endloop
  endfacet
  facet normal 0 0 1
    outer loop
      vertex 50 0 0
      vertex 64 -14 0
      vertex 50 4 0
    endloop
  endfacet
  facet normal 0 0 1
    outer loop
      vertex -50 0 0
      vertex 64 -14 0
      vertex 50 0 0
    endloop
  endfacet
  facet normal 0 0 1
    outer loop
      vertex -50 0 0
      vertex -64 -14 0
      vertex 64 -14 0
    endloop
  endfacet
  facet normal 0 0 1
    outer loop
      vertex -50 4 0
      vertex -64 -14 0
      vertex -50 0 0
    endloop
  endfacet
  facet normal -1 0 0
    outer loop
      vertex -50 0 0
      vertex -50 4 50
      vertex -50 4 0
    endloop
  endfacet
  facet normal -1 0 0
    outer loop
      vertex -50 4 50
      vertex -50 0 0
      vertex -50 0 50
    endloop
  endfacet
  facet normal 0 1 0
    outer loop
      vertex 50 4 0
      vertex -50 4 50
      vertex 50 4 50
    endloop
  endfacet
  facet normal 0 1 0
    outer loop
      vertex -50 4 50
      vertex 50 4 0
      vertex -50 4 0
    endloop
  endfacet
  facet normal 0 -1 0
    outer loop
      vertex -50 0 0
      vertex 50 0 50
      vertex -50 0 50
    endloop
  endfacet
  facet normal 0 -1 0
    outer loop
      vertex 50 0 50
      vertex -50 0 0
      vertex 50 0 0
    endloop
  endfacet
  facet normal 1 0 0
    outer loop
      vertex 50 18 50
      vertex 50 22 0
      vertex 50 22 50
    endloop
  endfacet
  facet normal 1 0 0
    outer loop
      vertex 50 22 0
      vertex 50 18 50
      vertex 50 18 0
    endloop
  endfacet
  facet normal 0 0 1
    outer loop
      vertex -50 22 50
      vertex 50 18 50
      vertex 50 22 50
    endloop
  endfacet
  facet normal 0 0 1
    outer loop
      vertex 50 18 50
      vertex -50 22 50
      vertex -50 18 50
    endloop
  endfacet
  facet normal -1 0 0
    outer loop
      vertex -50 18 0
      vertex -50 22 50
      vertex -50 22 0
    endloop
  endfacet
  facet normal -1 0 0
    outer loop
      vertex -50 22 50
      vertex -50 18 0
      vertex -50 18 50
    endloop
  endfacet
  facet normal 0 1 0
    outer loop
      vertex 50 22 0
      vertex -50 22 50
      vertex 50 22 50
    endloop
  endfacet
  facet normal 0 1 0
    outer loop
      vertex -50 22 50
      vertex 50 22 0
      vertex -50 22 0
    endloop
  endfacet
  facet normal 0 -1 0
    outer loop
      vertex -50 18 0
      vertex 50 18 50
      vertex -50 18 50
    endloop
  endfacet
  facet normal 0 -1 0
    outer loop
      vertex 50 18 50
      vertex -50 18 0
      vertex 50 18 0
    endloop
  endfacet
  facet normal 1 0 0
    outer loop
      vertex 50 36 50
      vertex 50 40 0
      vertex 50 40 50
    endloop
  endfacet
  facet normal 1 0 0
    outer loop
      vertex 50 40 0
      vertex 50 36 50
      vertex 50 36 0
    endloop
  endfacet
  facet normal 0 0 1
    outer loop
      vertex -50 40 50
      vertex 50 36 50
      vertex 50 40 50
    endloop
  endfacet
  facet normal 0 0 1
    outer loop
      vertex 50 36 50
      vertex -50 40 50
      vertex -50 36 50
    endloop
  endfacet
  facet normal -1 0 0
    outer loop
      vertex -50 36 0
      vertex -50 40 50
      vertex -50 40 0
    endloop
  endfacet
  facet normal -1 0 0
    outer loop
      vertex -50 40 50
      vertex -50 36 0
      vertex -50 36 50
    endloop
  endfacet
  facet normal 0 1 0
    outer loop
      vertex 50 40 0
      vertex -50 40 50
      vertex 50 40 50
    endloop
  endfacet
  facet normal 0 1 0
    outer loop
      vertex -50 40 50
      vertex 50 40 0
      vertex -50 40 0
    endloop
  endfacet
  facet normal 0 -1 0
    outer loop
      vertex -50 36 0
      vertex 50 36 50
      vertex -50 36 50
    endloop
  endfacet
  facet normal 0 -1 0
    outer loop
      vertex 50 36 50
      vertex -50 36 0
      vertex 50 36 0
    endloop
  endfacet
  facet normal 1 0 0
    outer loop
      vertex 50 54 50
      vertex 50 58 0
      vertex 50 58 50
    endloop
  endfacet
  facet normal 1 0 0
    outer loop
      vertex 50 58 0
      vertex 50 54 50
      vertex 50 54 0
    endloop
  endfacet
  facet normal 0 0 1
    outer loop
      vertex -50 58 50
      vertex 50 54 50
      vertex 50 58 50
    endloop
  endfacet
  facet normal 0 0 1
    outer loop
      vertex 50 54 50
      vertex -50 58 50
      vertex -50 54 50
    endloop
  endfacet
  facet normal -1 0 0
    outer loop
      vertex -50 54 0
      vertex -50 58 50
      vertex -50 58 0
    endloop
  endfacet
  facet normal -1 0 0
    outer loop
      vertex -50 58 50
      vertex -50 54 0
      vertex -50 54 50
    endloop
  endfacet
  facet normal 0 1 0
    outer loop
      vertex 50 58 0
      vertex -50 58 50
      vertex 50 58 50
    endloop
  endfacet
  facet normal 0 1 0
    outer loop
      vertex -50 58 50
      vertex 50 58 0
      vertex -50 58 0
    endloop
  endfacet
  facet normal 0 -1 0
    outer loop
      vertex -50 54 0
      vertex 50 54 50
      vertex -50 54 50
    endloop
  endfacet
  facet normal 0 -1 0
    outer loop
      vertex 50 54 50
      vertex -50 54 0
      vertex 50 54 0
    endloop
  endfacet
  facet normal 1 0 0
    outer loop
      vertex 50 72 50
      vertex 50 76 0
      vertex 50 76 50
    endloop
  endfacet
  facet normal 1 0 0
    outer loop
      vertex 50 76 0
      vertex 50 72 50
      vertex 50 72 0
    endloop
  endfacet
  facet normal 0 0 1
    outer loop
      vertex -50 76 50
      vertex 50 72 50
      vertex 50 76 50
    endloop
  endfacet
  facet normal 0 0 1
    outer loop
      vertex 50 72 50
      vertex -50 76 50
      vertex -50 72 50
    endloop
  endfacet
  facet normal -1 0 0
    outer loop
      vertex -50 72 0
      vertex -50 76 50
      vertex -50 76 0
    endloop
  endfacet
  facet normal -1 0 0
    outer loop
      vertex -50 76 50
      vertex -50 72 0
      vertex -50 72 50
    endloop
  endfacet
  facet normal 0 1 0
    outer loop
      vertex 50 76 0
      vertex -50 76 50
      vertex 50 76 50
    endloop
  endfacet
  facet normal 0 1 0
    outer loop
      vertex -50 76 50
      vertex 50 76 0
      vertex -50 76 0
    endloop
  endfacet
  facet normal 0 -1 0
    outer loop
      vertex -50 72 0
      vertex 50 72 50
      vertex -50 72 50
    endloop
  endfacet
  facet normal 0 -1 0
    outer loop
      vertex 50 72 50
      vertex -50 72 0
      vertex 50 72 0
    endloop
  endfacet
  facet normal 1 0 0
    outer loop
      vertex 50 90 50
      vertex 50 94 0
      vertex 50 94 50
    endloop
  endfacet
  facet normal 1 0 0
    outer loop
      vertex 50 94 0
      vertex 50 90 50
      vertex 50 90 0
    endloop
  endfacet
  facet normal 0 0 1
    outer loop
      vertex -50 94 50
      vertex 50 90 50
      vertex 50 94 50
    endloop
  endfacet
  facet normal 0 0 1
    outer loop
      vertex 50 90 50
      vertex -50 94 50
      vertex -50 90 50
    endloop
  endfacet
  facet normal -1 0 0
    outer loop
      vertex -50 90 0
      vertex -50 94 50
      vertex -50 94 0
    endloop
  endfacet
  facet normal -1 0 0
    outer loop
      vertex -50 94 50
      vertex -50 90 0
      vertex -50 90 50
    endloop
  endfacet
  facet normal 0 1 0
    outer loop
      vertex 50 94 0
      vertex -50 94 50
      vertex 50 94 50
    endloop
  endfacet
  facet normal 0 1 0
    outer loop
      vertex -50 94 50
      vertex 50 94 0
      vertex -50 94 0
    endloop
  endfacet
  facet normal 0 -1 0
    outer loop
      vertex -50 90 0
      vertex 50 90 50
      vertex -50 90 50
    endloop
  endfacet
  facet normal 0 -1 0
    outer loop
      vertex 50 90 50
      vertex -50 90 0
      vertex 50 90 0
    endloop
  endfacet
  facet normal 1 0 0
    outer loop
      vertex 64 -14 0
      vertex 64 104 -12
      vertex 64 104 0
    endloop
  endfacet
  facet normal 1 0 0
    outer loop
      vertex 64 104 -12
      vertex 64 -14 0
      vertex 64 -14 -12
    endloop
  endfacet
  facet normal 0 0 -1
    outer loop
      vertex 45.786755 3.5353317 -12
      vertex -45.786755 3.5353317 -12
      vertex 45.786755 86.46467 -12
    endloop
  endfacet
  facet normal 0 0 -1
    outer loop
      vertex 45.786755 86.46467 -12
      vertex -44.831688 88.11889 -12
      vertex -44.5 90 -12
    endloop
  endfacet
  facet normal 0 0 -1
    outer loop
      vertex -45.786755 86.46467 -12
      vertex 45.786755 86.46467 -12
      vertex -45.786755 3.5353317 -12
    endloop
  endfacet
  facet normal 0 0 -1
    outer loop
      vertex 45.786755 86.46467 -12
      vertex -45.786755 86.46467 -12
      vertex -44.831688 88.11889 -12
    endloop
  endfacet
  facet normal 0 0 -1
    outer loop
      vertex -47.25 4.763139 -12
      vertex -45.786755 86.46467 -12
      vertex -45.786755 3.5353317 -12
    endloop
  endfacet
  facet normal 0 0 -1
    outer loop
      vertex -47.25 4.763139 -12
      vertex -47.25 85.23686 -12
      vertex -45.786755 86.46467 -12
    endloop
  endfacet
  facet normal 0 0 -1
    outer loop
      vertex -49.044933 5.416442 -12
      vertex -47.25 85.23686 -12
      vertex -47.25 4.763139 -12
    endloop
  endfacet
  facet normal 0 0 -1
    outer loop
      vertex -49.044933 5.416442 -12
      vertex -49.044933 84.58356 -12
      vertex -47.25 85.23686 -12
    endloop
  endfacet
  facet normal 0 0 -1
    outer loop
      vertex -50.955063 5.416442 -12
      vertex -49.044933 84.58356 -12
      vertex -49.044933 5.416442 -12
    endloop
  endfacet
  facet normal 0 0 -1
    outer loop
      vertex -50.955063 5.416442 -12
      vertex -50.955063 84.58356 -12
      vertex -49.044933 84.58356 -12
    endloop
  endfacet
  facet normal 0 0 -1
    outer loop
      vertex -52.75 4.763139 -12
      vertex -50.955063 84.58356 -12
      vertex -50.955063 5.416442 -12
    endloop
  endfacet
  facet normal 0 0 -1
    outer loop
      vertex -52.75 4.763139 -12
      vertex -52.75 85.23686 -12
      vertex -50.955063 84.58356 -12
    endloop
  endfacet
  facet normal 0 0 -1
    outer loop
      vertex -54.21324 3.5353317 -12
      vertex -52.75 85.23686 -12
      vertex -52.75 4.763139 -12
    endloop
  endfacet
  facet normal 0 0 -1
    outer loop
      vertex -54.21324 3.5353317 -12
      vertex -54.21324 86.46467 -12
      vertex -52.75 85.23686 -12
    endloop
  endfacet
  facet normal 0 0 -1
    outer loop
      vertex -55.16831 1.8811102 -12
      vertex -54.21324 86.46467 -12
      vertex -54.21324 3.5353317 -12
    endloop
  endfacet
  facet normal 0 0 -1
    outer loop
      vertex -55.16831 1.8811102 -12
      vertex -55.16831 88.11889 -12
      vertex -54.21324 86.46467 -12
    endloop
  endfacet
  facet normal 0 0 -1
    outer loop
      vertex -64 -14 -12
      vertex -55.16831 1.8811102 -12
      vertex -55.5 0 -12
    endloop
  endfacet
  facet normal 0 0 -1
    outer loop
      vertex -55.16831 1.8811102 -12
      vertex -64 -14 -12
      vertex -55.16831 88.11889 -12
    endloop
  endfacet
  facet normal 0 0 -1
    outer loop
      vertex 55.16831 88.11889 -12
      vertex 64 104 -12
      vertex 55.16831 1.8811102 -12
    endloop
  endfacet
  facet normal 0 0 -1
    outer loop
      vertex 64 104 -12
      vertex 55.16831 88.11889 -12
      vertex 55.5 90 -12
    endloop
  endfacet
  facet normal 0 0 -1
    outer loop
      vertex 54.21324 3.5353317 -12
      vertex 55.16831 88.11889 -12
      vertex 55.16831 1.8811102 -12
    endloop
  endfacet
  facet normal 0 0 -1
    outer loop
      vertex 54.21324 3.5353317 -12
      vertex 54.21324 86.46467 -12
      vertex 55.16831 88.11889 -12
    endloop
  endfacet
  facet normal 0 0 -1
    outer loop
      vertex 52.75 4.763139 -12
      vertex 54.21324 86.46467 -12
      vertex 54.21324 3.5353317 -12
    endloop
  endfacet
  facet normal 0 0 -1
    outer loop
      vertex 52.75 4.763139 -12
      vertex 52.75 85.23686 -12
      vertex 54.21324 86.46467 -12
    endloop
  endfacet
  facet normal 0 0 -1
    outer loop
      vertex 50.955063 5.416442 -12
      vertex 52.75 85.23686 -12
      vertex 52.75 4.763139 -12
    endloop
  endfacet
  facet normal 0 0 -1
    outer loop
      vertex 50.955063 5.416442 -12
      vertex 50.955063 84.58356 -12
      vertex 52.75 85.23686 -12
    endloop
  endfacet
  facet normal 0 0 -1
    outer loop
      vertex 49.044933 5.416442 -12
      vertex 50.955063 84.58356 -12
      vertex 50.955063 5.416442 -12
    endloop
  endfacet
  facet normal 0 0 -1
    outer loop
      vertex 49.044933 5.416442 -12
      vertex 49.044933 84.58356 -12
      vertex 50.955063 84.58356 -12
    endloop
  endfacet
  facet normal 0 0 -1
    outer loop
      vertex 47.25 4.763139 -12
      vertex 49.044933 84.58356 -12
      vertex 49.044933 5.416442 -12
    endloop
  endfacet
  facet normal 0 0 -1
    outer loop
      vertex 47.25 4.763139 -12
      vertex 47.25 85.23686 -12
      vertex 49.044933 84.58356 -12
    endloop
  endfacet
  facet normal 0 0 -1
    outer loop
      vertex 45.786755 3.5353317 -12
      vertex 47.25 85.23686 -12
      vertex 47.25 4.763139 -12
    endloop
  endfacet
  facet normal 0 0 -1
    outer loop
      vertex 45.786755 3.5353317 -12
      vertex 45.786755 86.46467 -12
      vertex 47.25 85.23686 -12
    endloop
  endfacet
  facet normal 0 0 -1
    outer loop
      vertex -44.831688 1.8811102 -12
      vertex 44.831688 1.8811102 -12
      vertex -44.5 0 -12
    endloop
  endfacet
  facet normal 0 0 -1
    outer loop
      vertex 44.831688 1.8811102 -12
      vertex -44.831688 1.8811102 -12
      vertex 45.786755 3.5353317 -12
    endloop
  endfacet
  facet normal 0 0 -1
    outer loop
      vertex -44.5 0 -12
      vertex 44.831688 1.8811102 -12
      vertex 44.5 0 -12
    endloop
  endfacet
  facet normal 0 0 -1
    outer loop
      vertex -45.786755 3.5353317 -12
      vertex 45.786755 3.5353317 -12
      vertex -44.831688 1.8811102 -12
    endloop
  endfacet
  facet normal 0 0 -1
    outer loop
      vertex 55.16831 1.8811102 -12
      vertex 64 -14 -12
      vertex 55.5 0 -12
    endloop
  endfacet
  facet normal 0 0 -1
    outer loop
      vertex 64 -14 -12
      vertex 55.16831 -1.8811102 -12
      vertex 55.5 0 -12
    endloop
  endfacet
  facet normal 0 0 -1
    outer loop
      vertex 64 -14 -12
      vertex 54.21324 -3.5353317 -12
      vertex 55.16831 -1.8811102 -12
    endloop
  endfacet
  facet normal 0 0 -1
    outer loop
      vertex 64 -14 -12
      vertex 52.75 -4.763139 -12
      vertex 54.21324 -3.5353317 -12
    endloop
  endfacet
  facet normal 0 0 -1
    outer loop
      vertex 64 -14 -12
      vertex 50.955063 -5.416442 -12
      vertex 52.75 -4.763139 -12
    endloop
  endfacet
  facet normal 0 0 -1
    outer loop
      vertex 64 -14 -12
      vertex 49.044933 -5.416442 -12
      vertex 50.955063 -5.416442 -12
    endloop
  endfacet
  facet normal 0 0 -1
    outer loop
      vertex 64 -14 -12
      vertex 47.25 -4.763139 -12
      vertex 49.044933 -5.416442 -12
    endloop
  endfacet
  facet normal 0 0 -1
    outer loop
      vertex 45.786755 86.46467 -12
      vertex -44.5 90 -12
      vertex 44.831688 88.11889 -12
    endloop
  endfacet
  facet normal 0 0 -1
    outer loop
      vertex 44.831688 -1.8811102 -12
      vertex -44.5 0 -12
      vertex 44.5 0 -12
    endloop
  endfacet
  facet normal 0 0 -1
    outer loop
      vertex -44.831688 -1.8811102 -12
      vertex 44.831688 -1.8811102 -12
      vertex 45.786755 -3.5353317 -12
    endloop
  endfacet
  facet normal 0 0 -1
    outer loop
      vertex -45.786755 -3.5353317 -12
      vertex 45.786755 -3.5353317 -12
      vertex 47.25 -4.763139 -12
    endloop
  endfacet
  facet normal 0 0 -1
    outer loop
      vertex -47.25 -4.763139 -12
      vertex 47.25 -4.763139 -12
      vertex 64 -14 -12
    endloop
  endfacet
  facet normal 0 0 -1
    outer loop
      vertex 44.831688 -1.8811102 -12
      vertex -44.831688 -1.8811102 -12
      vertex -44.5 0 -12
    endloop
  endfacet
  facet normal 0 0 -1
    outer loop
      vertex 45.786755 -3.5353317 -12
      vertex -45.786755 -3.5353317 -12
      vertex -44.831688 -1.8811102 -12
    endloop
  endfacet
  facet normal 0 0 -1
    outer loop
      vertex 47.25 -4.763139 -12
      vertex -47.25 -4.763139 -12
      vertex -45.786755 -3.5353317 -12
    endloop
  endfacet
  facet normal 0 0 -1
    outer loop
      vertex -64 -14 -12
      vertex -47.25 -4.763139 -12
      vertex 64 -14 -12
    endloop
  endfacet
  facet normal 0 0 -1
    outer loop
      vertex -47.25 -4.763139 -12
      vertex -64 -14 -12
      vertex -49.044933 -5.416442 -12
    endloop
  endfacet
  facet normal 0 0 -1
    outer loop
      vertex -64 104 -12
      vertex -55.16831 88.11889 -12
      vertex -64 -14 -12
    endloop
  endfacet
  facet normal 0 0 -1
    outer loop
      vertex -55.16831 -1.8811102 -12
      vertex -64 -14 -12
      vertex -55.5 0 -12
    endloop
  endfacet
  facet normal 0 0 -1
    outer loop
      vertex -54.21324 -3.5353317 -12
      vertex -64 -14 -12
      vertex -55.16831 -1.8811102 -12
    endloop
  endfacet
  facet normal 0 0 -1
    outer loop
      vertex -52.75 -4.763139 -12
      vertex -64 -14 -12
      vertex -54.21324 -3.5353317 -12
    endloop
  endfacet
  facet normal 0 0 -1
    outer loop
      vertex -50.955063 -5.416442 -12
      vertex -64 -14 -12
      vertex -52.75 -4.763139 -12
    endloop
  endfacet
  facet normal 0 0 -1
    outer loop
      vertex -49.044933 -5.416442 -12
      vertex -64 -14 -12
      vertex -50.955063 -5.416442 -12
    endloop
  endfacet
  facet normal 0 0 -1
    outer loop
      vertex 64 -14 -12
      vertex 55.16831 1.8811102 -12
      vertex 64 104 -12
    endloop
  endfacet
  facet normal 0 0 -1
    outer loop
      vertex 55.16831 91.88111 -12
      vertex 64 104 -12
      vertex 55.5 90 -12
    endloop
  endfacet
  facet normal 0 0 -1
    outer loop
      vertex 54.21324 93.53533 -12
      vertex 64 104 -12
      vertex 55.16831 91.88111 -12
    endloop
  endfacet
  facet normal 0 0 -1
    outer loop
      vertex 52.75 94.76314 -12
      vertex 64 104 -12
      vertex 54.21324 93.53533 -12
    endloop
  endfacet
  facet normal 0 0 -1
    outer loop
      vertex 50.955063 95.41644 -12
      vertex 64 104 -12
      vertex 52.75 94.76314 -12
    endloop
  endfacet
  facet normal 0 0 -1
    outer loop
      vertex 49.044933 95.41644 -12
      vertex 64 104 -12
      vertex 50.955063 95.41644 -12
    endloop
  endfacet
  facet normal 0 0 -1
    outer loop
      vertex 47.25 94.76314 -12
      vertex 64 104 -12
      vertex 49.044933 95.41644 -12
    endloop
  endfacet
  facet normal 0 0 -1
    outer loop
      vertex 44.831688 88.11889 -12
      vertex -44.5 90 -12
      vertex 44.5 90 -12
    endloop
  endfacet
  facet normal 0 0 -1
    outer loop
      vertex 44.5 90 -12
      vertex -44.5 90 -12
      vertex 44.831688 91.88111 -12
    endloop
  endfacet
  facet normal 0 0 -1
    outer loop
      vertex -44.831688 91.88111 -12
      vertex 44.831688 91.88111 -12
      vertex -44.5 90 -12
    endloop
  endfacet
  facet normal 0 0 -1
    outer loop
      vertex 44.831688 91.88111 -12
      vertex -44.831688 91.88111 -12
      vertex 45.786755 93.53533 -12
    endloop
  endfacet
  facet normal 0 0 -1
    outer loop
      vertex -45.786755 93.53533 -12
      vertex 45.786755 93.53533 -12
      vertex -44.831688 91.88111 -12
    endloop
  endfacet
  facet normal 0 0 -1
    outer loop
      vertex 45.786755 93.53533 -12
      vertex -45.786755 93.53533 -12
      vertex 47.25 94.76314 -12
    endloop
  endfacet
  facet normal 0 0 -1
    outer loop
      vertex -47.25 94.76314 -12
      vertex 47.25 94.76314 -12
      vertex -45.786755 93.53533 -12
    endloop
  endfacet
  facet normal 0 0 -1
    outer loop
      vertex 47.25 94.76314 -12
      vertex -47.25 94.76314 -12
      vertex 64 104 -12
    endloop
  endfacet
  facet normal 0 0 -1
    outer loop
      vertex -64 104 -12
      vertex -47.25 94.76314 -12
      vertex -49.044933 95.41644 -12
    endloop
  endfacet
  facet normal 0 0 -1
    outer loop
      vertex -64 104 -12
      vertex -49.044933 95.41644 -12
      vertex -50.955063 95.41644 -12
    endloop
  endfacet
  facet normal 0 0 -1
    outer loop
      vertex -47.25 94.76314 -12
      vertex -64 104 -12
      vertex 64 104 -12
    endloop
  endfacet
  facet normal 0 0 -1
    outer loop
      vertex -52.75 94.76314 -12
      vertex -64 104 -12
      vertex -50.955063 95.41644 -12
    endloop
  endfacet
  facet normal 0 0 -1
    outer loop
      vertex -54.21324 93.53533 -12
      vertex -64 104 -12
      vertex -52.75 94.76314 -12
    endloop
  endfacet
  facet normal 0 0 -1
    outer loop
      vertex -55.16831 91.88111 -12
      vertex -64 104 -12
      vertex -54.21324 93.53533 -12
    endloop
  endfacet
  facet normal 0 0 -1
    outer loop
      vertex -55.5 90 -12
      vertex -64 104 -12
      vertex -55.16831 91.88111 -12
    endloop
  endfacet
  facet normal 0 0 -1
    outer loop
      vertex -55.16831 88.11889 -12
      vertex -64 104 -12
      vertex -55.5 90 -12
    endloop
  endfacet
  facet normal -1 0 0
    outer loop
      vertex -64 -14 -12
      vertex -64 104 0
      vertex -64 104 -12
    endloop
  endfacet
  facet normal -1 0 0
    outer loop
      vertex -64 104 0
      vertex -64 -14 -12
      vertex -64 -14 0
    endloop
  endfacet
  facet normal 0 1 0
    outer loop
      vertex 64 104 -12
      vertex -64 104 0
      vertex 64 104 0
    endloop
  endfacet
  facet normal 0 1 0
    outer loop
      vertex -64 104 0
      vertex 64 104 -12
      vertex -64 104 -12
    endloop
  endfacet
  facet normal 0 -1 0
    outer loop
      vertex -64 -14 -12
      vertex 64 -14 0
      vertex -64 -14 0
    endloop
  endfacet
  facet normal 0 -1 0
    outer loop
      vertex 64 -14 0
      vertex -64 -14 -12
      vertex 64 -14 -12
    endloop
  endfacet
  facet normal 0.8660251 -0.50000054 0
    outer loop
      vertex -55.16831 1.8811102 -10
      vertex -54.21324 3.5353317 -12
      vertex -54.21324 3.5353317 -10
    endloop
  endfacet
  facet normal 0.8660251 -0.50000054 0
    outer loop
      vertex -54.21324 3.5353317 -12
      vertex -55.16831 1.8811102 -10
      vertex -55.16831 1.8811102 -12
    endloop
  endfacet
  facet normal -0.98480797 -0.17364688 0
    outer loop
      vertex -44.5 0 -12
      vertex -44.831688 1.8811102 -10
      vertex -44.831688 1.8811102 -12
    endloop
  endfacet
  facet normal -0.98480797 -0.17364688 0
    outer loop
      vertex -44.831688 1.8811102 -10
      vertex -44.5 0 -12
      vertex -44.5 0 -10
    endloop
  endfacet
  facet normal -0.6427871 -0.76604486 0
    outer loop
      vertex -47.25 4.763139 -12
      vertex -45.786755 3.5353317 -10
      vertex -47.25 4.763139 -10
    endloop
  endfacet
  facet normal -0.6427871 -0.76604486 0
    outer loop
      vertex -45.786755 3.5353317 -10
      vertex -47.25 4.763139 -12
      vertex -45.786755 3.5353317 -12
    endloop
  endfacet
  facet normal 0.6427881 0.766044 0
    outer loop
      vertex -52.75 -4.763139 -12
      vertex -54.21324 -3.5353317 -10
      vertex -52.75 -4.763139 -10
    endloop
  endfacet
  facet normal 0.6427881 0.766044 0
    outer loop
      vertex -54.21324 -3.5353317 -10
      vertex -52.75 -4.763139 -12
      vertex -54.21324 -3.5353317 -12
    endloop
  endfacet
  facet normal -0.98480797 0.17364688 0
    outer loop
      vertex -44.831688 -1.8811102 -12
      vertex -44.5 0 -10
      vertex -44.5 0 -12
    endloop
  endfacet
  facet normal -0.98480797 0.17364688 0
    outer loop
      vertex -44.5 0 -10
      vertex -44.831688 -1.8811102 -12
      vertex -44.831688 -1.8811102 -10
    endloop
  endfacet
  facet normal -0.8660251 -0.50000054 0
    outer loop
      vertex -44.831688 1.8811102 -12
      vertex -45.786755 3.5353317 -10
      vertex -45.786755 3.5353317 -12
    endloop
  endfacet
  facet normal -0.8660251 -0.50000054 0
    outer loop
      vertex -45.786755 3.5353317 -10
      vertex -44.831688 1.8811102 -12
      vertex -44.831688 1.8811102 -10
    endloop
  endfacet
  facet normal -0.34202054 -0.9396925 0
    outer loop
      vertex -49.044933 5.416442 -12
      vertex -47.25 4.763139 -10
      vertex -49.044933 5.416442 -10
    endloop
  endfacet
  facet normal -0.34202054 -0.9396925 0
    outer loop
      vertex -47.25 4.763139 -10
      vertex -49.044933 5.416442 -12
      vertex -47.25 4.763139 -12
    endloop
  endfacet
  facet normal 0.9848076 0.17364882 0
    outer loop
      vertex -55.16831 -1.8811102 -10
      vertex -55.5 0 -12
      vertex -55.5 0 -10
    endloop
  endfacet
  facet normal 0.9848076 0.17364882 0
    outer loop
      vertex -55.5 0 -12
      vertex -55.16831 -1.8811102 -10
      vertex -55.16831 -1.8811102 -12
    endloop
  endfacet
  facet normal -0.8660251 0.50000054 0
    outer loop
      vertex -45.786755 -3.5353317 -12
      vertex -44.831688 -1.8811102 -10
      vertex -44.831688 -1.8811102 -12
    endloop
  endfacet
  facet normal -0.8660251 0.50000054 0
    outer loop
      vertex -44.831688 -1.8811102 -10
      vertex -45.786755 -3.5353317 -12
      vertex -45.786755 -3.5353317 -10
    endloop
  endfacet
  facet normal 0 -1 0
    outer loop
      vertex -50.955063 5.416442 -12
      vertex -49.044933 5.416442 -10
      vertex -50.955063 5.416442 -10
    endloop
  endfacet
  facet normal 0 -1 0
    outer loop
      vertex -49.044933 5.416442 -10
      vertex -50.955063 5.416442 -12
      vertex -49.044933 5.416442 -12
    endloop
  endfacet
  facet normal 0.3420199 -0.93969274 0
    outer loop
      vertex -52.75 4.763139 -12
      vertex -50.955063 5.416442 -10
      vertex -52.75 4.763139 -10
    endloop
  endfacet
  facet normal 0.3420199 -0.93969274 0
    outer loop
      vertex -50.955063 5.416442 -10
      vertex -52.75 4.763139 -12
      vertex -50.955063 5.416442 -12
    endloop
  endfacet
  facet normal 0.9848076 -0.17364882 0
    outer loop
      vertex -55.5 0 -10
      vertex -55.16831 1.8811102 -12
      vertex -55.16831 1.8811102 -10
    endloop
  endfacet
  facet normal 0.9848076 -0.17364882 0
    outer loop
      vertex -55.16831 1.8811102 -12
      vertex -55.5 0 -10
      vertex -55.5 0 -12
    endloop
  endfacet
  facet normal 0 1 0
    outer loop
      vertex -49.044933 -5.416442 -12
      vertex -50.955063 -5.416442 -10
      vertex -49.044933 -5.416442 -10
    endloop
  endfacet
  facet normal 0 1 0
    outer loop
      vertex -50.955063 -5.416442 -10
      vertex -49.044933 -5.416442 -12
      vertex -50.955063 -5.416442 -12
    endloop
  endfacet
  facet normal -0.6427871 0.76604486 0
    outer loop
      vertex -45.786755 -3.5353317 -12
      vertex -47.25 -4.763139 -10
      vertex -45.786755 -3.5353317 -10
    endloop
  endfacet
  facet normal -0.6427871 0.76604486 0
    outer loop
      vertex -47.25 -4.763139 -10
      vertex -45.786755 -3.5353317 -12
      vertex -47.25 -4.763139 -12
    endloop
  endfacet
  facet normal 0.3420199 0.93969274 0
    outer loop
      vertex -50.955063 -5.416442 -12
      vertex -52.75 -4.763139 -10
      vertex -50.955063 -5.416442 -10
    endloop
  endfacet
  facet normal 0.3420199 0.93969274 0
    outer loop
      vertex -52.75 -4.763139 -10
      vertex -50.955063 -5.416442 -12
      vertex -52.75 -4.763139 -12
    endloop
  endfacet
  facet normal 0.6427881 -0.766044 0
    outer loop
      vertex -54.21324 3.5353317 -12
      vertex -52.75 4.763139 -10
      vertex -54.21324 3.5353317 -10
    endloop
  endfacet
  facet normal 0.6427881 -0.766044 0
    outer loop
      vertex -52.75 4.763139 -10
      vertex -54.21324 3.5353317 -12
      vertex -52.75 4.763139 -12
    endloop
  endfacet
  facet normal -0.34202054 0.9396925 0
    outer loop
      vertex -47.25 -4.763139 -12
      vertex -49.044933 -5.416442 -10
      vertex -47.25 -4.763139 -10
    endloop
  endfacet
  facet normal -0.34202054 0.9396925 0
    outer loop
      vertex -49.044933 -5.416442 -10
      vertex -47.25 -4.763139 -12
      vertex -49.044933 -5.416442 -12
    endloop
  endfacet
  facet normal 0.8660251 0.50000054 0
    outer loop
      vertex -54.21324 -3.5353317 -10
      vertex -55.16831 -1.8811102 -12
      vertex -55.16831 -1.8811102 -10
    endloop
  endfacet
  facet normal 0.8660251 0.50000054 0
    outer loop
      vertex -55.16831 -1.8811102 -12
      vertex -54.21324 -3.5353317 -10
      vertex -54.21324 -3.5353317 -12
    endloop
  endfacet
  facet normal 0 0 -1
    outer loop
      vertex -44.831688 -1.8811102 -10
      vertex -44.831688 1.8811102 -10
      vertex -44.5 0 -10
    endloop
  endfacet
  facet normal 0 0 -1
    outer loop
      vertex -45.786755 -3.5353317 -10
      vertex -44.831688 1.8811102 -10
      vertex -44.831688 -1.8811102 -10
    endloop
  endfacet
  facet normal 0 0 -1
    outer loop
      vertex -45.786755 -3.5353317 -10
      vertex -45.786755 3.5353317 -10
      vertex -44.831688 1.8811102 -10
    endloop
  endfacet
  facet normal 0 0 -1
    outer loop
      vertex -47.25 -4.763139 -10
      vertex -45.786755 3.5353317 -10
      vertex -45.786755 -3.5353317 -10
    endloop
  endfacet
  facet normal 0 0 -1
    outer loop
      vertex -47.25 -4.763139 -10
      vertex -47.25 4.763139 -10
      vertex -45.786755 3.5353317 -10
    endloop
  endfacet
  facet normal 0 0 -1
    outer loop
      vertex -49.044933 -5.416442 -10
      vertex -47.25 4.763139 -10
      vertex -47.25 -4.763139 -10
    endloop
  endfacet
  facet normal 0 0 -1
    outer loop
      vertex -49.044933 -5.416442 -10
      vertex -49.044933 5.416442 -10
      vertex -47.25 4.763139 -10
    endloop
  endfacet
  facet normal 0 0 -1
    outer loop
      vertex -50.955063 -5.416442 -10
      vertex -49.044933 5.416442 -10
      vertex -49.044933 -5.416442 -10
    endloop
  endfacet
  facet normal 0 0 -1
    outer loop
      vertex -50.955063 -5.416442 -10
      vertex -50.955063 5.416442 -10
      vertex -49.044933 5.416442 -10
    endloop
  endfacet
  facet normal 0 0 -1
    outer loop
      vertex -52.75 -4.763139 -10
      vertex -50.955063 5.416442 -10
      vertex -50.955063 -5.416442 -10
    endloop
  endfacet
  facet normal 0 0 -1
    outer loop
      vertex -52.75 -4.763139 -10
      vertex -52.75 4.763139 -10
      vertex -50.955063 5.416442 -10
    endloop
  endfacet
  facet normal 0 0 -1
    outer loop
      vertex -54.21324 -3.5353317 -10
      vertex -52.75 4.763139 -10
      vertex -52.75 -4.763139 -10
    endloop
  endfacet
  facet normal 0 0 -1
    outer loop
      vertex -54.21324 -3.5353317 -10
      vertex -54.21324 3.5353317 -10
      vertex -52.75 4.763139 -10
    endloop
  endfacet
  facet normal 0 0 -1
    outer loop
      vertex -55.16831 -1.8811102 -10
      vertex -54.21324 3.5353317 -10
      vertex -54.21324 -3.5353317 -10
    endloop
  endfacet
  facet normal 0 0 -1
    outer loop
      vertex -55.16831 -1.8811102 -10
      vertex -55.16831 1.8811102 -10
      vertex -54.21324 3.5353317 -10
    endloop
  endfacet
  facet normal 0 0 -1
    outer loop
      vertex -55.16831 1.8811102 -10
      vertex -55.16831 -1.8811102 -10
      vertex -55.5 0 -10
    endloop
  endfacet
  facet normal -0.9848076 -0.17364882 0
    outer loop
      vertex 55.5 0 -12
      vertex 55.16831 1.8811102 -10
      vertex 55.16831 1.8811102 -12
    endloop
  endfacet
  facet normal -0.9848076 -0.17364882 0
    outer loop
      vertex 55.16831 1.8811102 -10
      vertex 55.5 0 -12
      vertex 55.5 0 -10
    endloop
  endfacet
  facet normal -0.9848076 0.17364882 0
    outer loop
      vertex 55.16831 -1.8811102 -12
      vertex 55.5 0 -10
      vertex 55.5 0 -12
    endloop
  endfacet
  facet normal -0.9848076 0.17364882 0
    outer loop
      vertex 55.5 0 -10
      vertex 55.16831 -1.8811102 -12
      vertex 55.16831 -1.8811102 -10
    endloop
  endfacet
  facet normal -0.8660251 0.50000054 0
    outer loop
      vertex 54.21324 -3.5353317 -12
      vertex 55.16831 -1.8811102 -10
      vertex 55.16831 -1.8811102 -12
    endloop
  endfacet
  facet normal -0.8660251 0.50000054 0
    outer loop
      vertex 55.16831 -1.8811102 -10
      vertex 54.21324 -3.5353317 -12
      vertex 54.21324 -3.5353317 -10
    endloop
  endfacet
  facet normal 0.8660251 -0.50000054 0
    outer loop
      vertex 44.831688 1.8811102 -10
      vertex 45.786755 3.5353317 -12
      vertex 45.786755 3.5353317 -10
    endloop
  endfacet
  facet normal 0.8660251 -0.50000054 0
    outer loop
      vertex 45.786755 3.5353317 -12
      vertex 44.831688 1.8811102 -10
      vertex 44.831688 1.8811102 -12
    endloop
  endfacet
  facet normal -0.6427881 0.766044 0
    outer loop
      vertex 54.21324 -3.5353317 -12
      vertex 52.75 -4.763139 -10
      vertex 54.21324 -3.5353317 -10
    endloop
  endfacet
  facet normal -0.6427881 0.766044 0
    outer loop
      vertex 52.75 -4.763139 -10
      vertex 54.21324 -3.5353317 -12
      vertex 52.75 -4.763139 -12
    endloop
  endfacet
  facet normal -0.3420199 -0.93969274 0
    outer loop
      vertex 50.955063 5.416442 -12
      vertex 52.75 4.763139 -10
      vertex 50.955063 5.416442 -10
    endloop
  endfacet
  facet normal -0.3420199 -0.93969274 0
    outer loop
      vertex 52.75 4.763139 -10
      vertex 50.955063 5.416442 -12
      vertex 52.75 4.763139 -12
    endloop
  endfacet
  facet normal -0.8660251 -0.50000054 0
    outer loop
      vertex 55.16831 1.8811102 -12
      vertex 54.21324 3.5353317 -10
      vertex 54.21324 3.5353317 -12
    endloop
  endfacet
  facet normal -0.8660251 -0.50000054 0
    outer loop
      vertex 54.21324 3.5353317 -10
      vertex 55.16831 1.8811102 -12
      vertex 55.16831 1.8811102 -10
    endloop
  endfacet
  facet normal 0.34202054 0.9396925 0
    outer loop
      vertex 49.044933 -5.416442 -12
      vertex 47.25 -4.763139 -10
      vertex 49.044933 -5.416442 -10
    endloop
  endfacet
  facet normal 0.34202054 0.9396925 0
    outer loop
      vertex 47.25 -4.763139 -10
      vertex 49.044933 -5.416442 -12
      vertex 47.25 -4.763139 -12
    endloop
  endfacet
  facet normal 0 -1 0
    outer loop
      vertex 49.044933 5.416442 -12
      vertex 50.955063 5.416442 -10
      vertex 49.044933 5.416442 -10
    endloop
  endfacet
  facet normal 0 -1 0
    outer loop
      vertex 50.955063 5.416442 -10
      vertex 49.044933 5.416442 -12
      vertex 50.955063 5.416442 -12
    endloop
  endfacet
  facet normal 0 0 -1
    outer loop
      vertex 55.16831 -1.8811102 -10
      vertex 55.16831 1.8811102 -10
      vertex 55.5 0 -10
    endloop
  endfacet
  facet normal 0 0 -1
    outer loop
      vertex 54.21324 -3.5353317 -10
      vertex 55.16831 1.8811102 -10
      vertex 55.16831 -1.8811102 -10
    endloop
  endfacet
  facet normal 0 0 -1
    outer loop
      vertex 54.21324 -3.5353317 -10
      vertex 54.21324 3.5353317 -10
      vertex 55.16831 1.8811102 -10
    endloop
  endfacet
  facet normal 0 0 -1
    outer loop
      vertex 52.75 -4.763139 -10
      vertex 54.21324 3.5353317 -10
      vertex 54.21324 -3.5353317 -10
    endloop
  endfacet
  facet normal 0 0 -1
    outer loop
      vertex 52.75 -4.763139 -10
      vertex 52.75 4.763139 -10
      vertex 54.21324 3.5353317 -10
    endloop
  endfacet
  facet normal 0 0 -1
    outer loop
      vertex 50.955063 -5.416442 -10
      vertex 52.75 4.763139 -10
      vertex 52.75 -4.763139 -10
    endloop
  endfacet
  facet normal 0 0 -1
    outer loop
      vertex 50.955063 -5.416442 -10
      vertex 50.955063 5.416442 -10
      vertex 52.75 4.763139 -10
    endloop
  endfacet
  facet normal 0 0 -1
    outer loop
      vertex 49.044933 -5.416442 -10
      vertex 50.955063 5.416442 -10
      vertex 50.955063 -5.416442 -10
    endloop
  endfacet
  facet normal 0 0 -1
    outer loop
      vertex 49.044933 -5.416442 -10
      vertex 49.044933 5.416442 -10
      vertex 50.955063 5.416442 -10
    endloop
  endfacet
  facet normal 0 0 -1
    outer loop
      vertex 47.25 -4.763139 -10
      vertex 49.044933 5.416442 -10
      vertex 49.044933 -5.416442 -10
    endloop
  endfacet
  facet normal 0 0 -1
    outer loop
      vertex 47.25 -4.763139 -10
      vertex 47.25 4.763139 -10
      vertex 49.044933 5.416442 -10
    endloop
  endfacet
  facet normal 0 0 -1
    outer loop
      vertex 45.786755 -3.5353317 -10
      vertex 47.25 4.763139 -10
      vertex 47.25 -4.763139 -10
    endloop
  endfacet
  facet normal 0 0 -1
    outer loop
      vertex 45.786755 -3.5353317 -10
      vertex 45.786755 3.5353317 -10
      vertex 47.25 4.763139 -10
    endloop
  endfacet
  facet normal 0 0 -1
    outer loop
      vertex 44.831688 -1.8811102 -10
      vertex 45.786755 3.5353317 -10
      vertex 45.786755 -3.5353317 -10
    endloop
  endfacet
  facet normal 0 0 -1
    outer loop
      vertex 44.831688 -1.8811102 -10
      vertex 44.831688 1.8811102 -10
      vertex 45.786755 3.5353317 -10
    endloop
  endfacet
  facet normal 0 0 -1
    outer loop
      vertex 44.831688 1.8811102 -10
      vertex 44.831688 -1.8811102 -10
      vertex 44.5 0 -10
    endloop
  endfacet
  facet normal 0.8660251 0.50000054 0
    outer loop
      vertex 45.786755 -3.5353317 -10
      vertex 44.831688 -1.8811102 -12
      vertex 44.831688 -1.8811102 -10
    endloop
  endfacet
  facet normal 0.8660251 0.50000054 0
    outer loop
      vertex 44.831688 -1.8811102 -12
      vertex 45.786755 -3.5353317 -10
      vertex 45.786755 -3.5353317 -12
    endloop
  endfacet
  facet normal -0.6427881 -0.766044 0
    outer loop
      vertex 52.75 4.763139 -12
      vertex 54.21324 3.5353317 -10
      vertex 52.75 4.763139 -10
    endloop
  endfacet
  facet normal -0.6427881 -0.766044 0
    outer loop
      vertex 54.21324 3.5353317 -10
      vertex 52.75 4.763139 -12
      vertex 54.21324 3.5353317 -12
    endloop
  endfacet
  facet normal 0.98480797 -0.17364688 0
    outer loop
      vertex 44.5 0 -10
      vertex 44.831688 1.8811102 -12
      vertex 44.831688 1.8811102 -10
    endloop
  endfacet
  facet normal 0.98480797 -0.17364688 0
    outer loop
      vertex 44.831688 1.8811102 -12
      vertex 44.5 0 -10
      vertex 44.5 0 -12
    endloop
  endfacet
  facet normal 0 1 0
    outer loop
      vertex 50.955063 -5.416442 -12
      vertex 49.044933 -5.416442 -10
      vertex 50.955063 -5.416442 -10
    endloop
  endfacet
  facet normal 0 1 0
    outer loop
      vertex 49.044933 -5.416442 -10
      vertex 50.955063 -5.416442 -12
      vertex 49.044933 -5.416442 -12
    endloop
  endfacet
  facet normal -0.3420199 0.93969274 0
    outer loop
      vertex 52.75 -4.763139 -12
      vertex 50.955063 -5.416442 -10
      vertex 52.75 -4.763139 -10
    endloop
  endfacet
  facet normal -0.3420199 0.93969274 0
    outer loop
      vertex 50.955063 -5.416442 -10
      vertex 52.75 -4.763139 -12
      vertex 50.955063 -5.416442 -12
    endloop
  endfacet
  facet normal 0.6427871 -0.76604486 0
    outer loop
      vertex 45.786755 3.5353317 -12
      vertex 47.25 4.763139 -10
      vertex 45.786755 3.5353317 -10
    endloop
  endfacet
  facet normal 0.6427871 -0.76604486 0
    outer loop
      vertex 47.25 4.763139 -10
      vertex 45.786755 3.5353317 -12
      vertex 47.25 4.763139 -12
    endloop
  endfacet
  facet normal 0.98480797 0.17364688 0
    outer loop
      vertex 44.831688 -1.8811102 -10
      vertex 44.5 0 -12
      vertex 44.5 0 -10
    endloop
  endfacet
  facet normal 0.98480797 0.17364688 0
    outer loop
      vertex 44.5 0 -12
      vertex 44.831688 -1.8811102 -10
      vertex 44.831688 -1.8811102 -12
    endloop
  endfacet
  facet normal 0.34202054 -0.9396925 0
    outer loop
      vertex 47.25 4.763139 -12
      vertex 49.044933 5.416442 -10
      vertex 47.25 4.763139 -10
    endloop
  endfacet
  facet normal 0.34202054 -0.9396925 0
    outer loop
      vertex 49.044933 5.416442 -10
      vertex 47.25 4.763139 -12
      vertex 49.044933 5.416442 -12
    endloop
  endfacet
  facet normal 0.6427871 0.76604486 0
    outer loop
      vertex 47.25 -4.763139 -12
      vertex 45.786755 -3.5353317 -10
      vertex 47.25 -4.763139 -10
    endloop
  endfacet
  facet normal 0.6427871 0.76604486 0
    outer loop
      vertex 45.786755 -3.5353317 -10
      vertex 47.25 -4.763139 -12
      vertex 45.786755 -3.5353317 -12
    endloop
  endfacet
  facet normal -0.98480797 -0.1736468 0
    outer loop
      vertex -44.5 90 -12
      vertex -44.831688 91.88111 -10
      vertex -44.831688 91.88111 -12
    endloop
  endfacet
  facet normal -0.98480797 -0.1736468 0
    outer loop
      vertex -44.831688 91.88111 -10
      vertex -44.5 90 -12
      vertex -44.5 90 -10
    endloop
  endfacet
  facet normal 0.866025 -0.5000008 0
    outer loop
      vertex -55.16831 91.88111 -10
      vertex -54.21324 93.53533 -12
      vertex -54.21324 93.53533 -10
    endloop
  endfacet
  facet normal 0.866025 -0.5000008 0
    outer loop
      vertex -54.21324 93.53533 -12
      vertex -55.16831 91.88111 -10
      vertex -55.16831 91.88111 -12
    endloop
  endfacet
  facet normal -0.6427868 -0.7660451 0
    outer loop
      vertex -47.25 94.76314 -12
      vertex -45.786755 93.53533 -10
      vertex -47.25 94.76314 -10
    endloop
  endfacet
  facet normal -0.6427868 -0.7660451 0
    outer loop
      vertex -45.786755 93.53533 -10
      vertex -47.25 94.76314 -12
      vertex -45.786755 93.53533 -12
    endloop
  endfacet
  facet normal -0.866025 -0.5000008 0
    outer loop
      vertex -44.831688 91.88111 -12
      vertex -45.786755 93.53533 -10
      vertex -45.786755 93.53533 -12
    endloop
  endfacet
  facet normal -0.866025 -0.5000008 0
    outer loop
      vertex -45.786755 93.53533 -10
      vertex -44.831688 91.88111 -12
      vertex -44.831688 91.88111 -10
    endloop
  endfacet
  facet normal -0.98480797 0.1736468 0
    outer loop
      vertex -44.831688 88.11889 -12
      vertex -44.5 90 -10
      vertex -44.5 90 -12
    endloop
  endfacet
  facet normal -0.98480797 0.1736468 0
    outer loop
      vertex -44.5 90 -10
      vertex -44.831688 88.11889 -12
      vertex -44.831688 88.11889 -10
    endloop
  endfacet
  facet normal 0.34202078 -0.9396924 0
    outer loop
      vertex -52.75 94.76314 -12
      vertex -50.955063 95.41644 -10
      vertex -52.75 94.76314 -10
    endloop
  endfacet
  facet normal 0.34202078 -0.9396924 0
    outer loop
      vertex -50.955063 95.41644 -10
      vertex -52.75 94.76314 -12
      vertex -50.955063 95.41644 -12
    endloop
  endfacet
  facet normal 0 1 0
    outer loop
      vertex -49.044933 84.58356 -12
      vertex -50.955063 84.58356 -10
      vertex -49.044933 84.58356 -10
    endloop
  endfacet
  facet normal 0 1 0
    outer loop
      vertex -50.955063 84.58356 -10
      vertex -49.044933 84.58356 -12
      vertex -50.955063 84.58356 -12
    endloop
  endfacet
  facet normal 0 -1 0
    outer loop
      vertex -50.955063 95.41644 -12
      vertex -49.044933 95.41644 -10
      vertex -50.955063 95.41644 -10
    endloop
  endfacet
  facet normal 0 -1 0
    outer loop
      vertex -49.044933 95.41644 -10
      vertex -50.955063 95.41644 -12
      vertex -49.044933 95.41644 -12
    endloop
  endfacet
  facet normal 0.98480767 0.17364873 0
    outer loop
      vertex -55.16831 88.11889 -10
      vertex -55.5 90 -12
      vertex -55.5 90 -10
    endloop
  endfacet
  facet normal 0.98480767 0.17364873 0
    outer loop
      vertex -55.5 90 -12
      vertex -55.16831 88.11889 -10
      vertex -55.16831 88.11889 -12
    endloop
  endfacet
  facet normal -0.3420214 -0.93969214 0
    outer loop
      vertex -49.044933 95.41644 -12
      vertex -47.25 94.76314 -10
      vertex -49.044933 95.41644 -10
    endloop
  endfacet
  facet normal -0.3420214 -0.93969214 0
    outer loop
      vertex -47.25 94.76314 -10
      vertex -49.044933 95.41644 -12
      vertex -47.25 94.76314 -12
    endloop
  endfacet
  facet normal 0.34202078 0.9396924 0
    outer loop
      vertex -50.955063 84.58356 -12
      vertex -52.75 85.23686 -10
      vertex -50.955063 84.58356 -10
    endloop
  endfacet
  facet normal 0.34202078 0.9396924 0
    outer loop
      vertex -52.75 85.23686 -10
      vertex -50.955063 84.58356 -12
      vertex -52.75 85.23686 -12
    endloop
  endfacet
  facet normal 0.98480767 -0.17364873 0
    outer loop
      vertex -55.5 90 -10
      vertex -55.16831 91.88111 -12
      vertex -55.16831 91.88111 -10
    endloop
  endfacet
  facet normal 0.98480767 -0.17364873 0
    outer loop
      vertex -55.16831 91.88111 -12
      vertex -55.5 90 -10
      vertex -55.5 90 -12
    endloop
  endfacet
  facet normal -0.866025 0.5000008 0
    outer loop
      vertex -45.786755 86.46467 -12
      vertex -44.831688 88.11889 -10
      vertex -44.831688 88.11889 -12
    endloop
  endfacet
  facet normal -0.866025 0.5000008 0
    outer loop
      vertex -44.831688 88.11889 -10
      vertex -45.786755 86.46467 -12
      vertex -45.786755 86.46467 -10
    endloop
  endfacet
  facet normal 0.6427878 0.76604426 0
    outer loop
      vertex -52.75 85.23686 -12
      vertex -54.21324 86.46467 -10
      vertex -52.75 85.23686 -10
    endloop
  endfacet
  facet normal 0.6427878 0.76604426 0
    outer loop
      vertex -54.21324 86.46467 -10
      vertex -52.75 85.23686 -12
      vertex -54.21324 86.46467 -12
    endloop
  endfacet
  facet normal 0.6427878 -0.76604426 0
    outer loop
      vertex -54.21324 93.53533 -12
      vertex -52.75 94.76314 -10
      vertex -54.21324 93.53533 -10
    endloop
  endfacet
  facet normal 0.6427878 -0.76604426 0
    outer loop
      vertex -52.75 94.76314 -10
      vertex -54.21324 93.53533 -12
      vertex -52.75 94.76314 -12
    endloop
  endfacet
  facet normal -0.6427868 0.7660451 0
    outer loop
      vertex -45.786755 86.46467 -12
      vertex -47.25 85.23686 -10
      vertex -45.786755 86.46467 -10
    endloop
  endfacet
  facet normal -0.6427868 0.7660451 0
    outer loop
      vertex -47.25 85.23686 -10
      vertex -45.786755 86.46467 -12
      vertex -47.25 85.23686 -12
    endloop
  endfacet
  facet normal -0.3420214 0.93969214 0
    outer loop
      vertex -47.25 85.23686 -12
      vertex -49.044933 84.58356 -10
      vertex -47.25 85.23686 -10
    endloop
  endfacet
  facet normal -0.3420214 0.93969214 0
    outer loop
      vertex -49.044933 84.58356 -10
      vertex -47.25 85.23686 -12
      vertex -49.044933 84.58356 -12
    endloop
  endfacet
  facet normal 0.866025 0.5000008 0
    outer loop
      vertex -54.21324 86.46467 -10
      vertex -55.16831 88.11889 -12
      vertex -55.16831 88.11889 -10
    endloop
  endfacet
  facet normal 0.866025 0.5000008 0
    outer loop
      vertex -55.16831 88.11889 -12
      vertex -54.21324 86.46467 -10
      vertex -54.21324 86.46467 -12
    endloop
  endfacet
  facet normal 0 0 -1
    outer loop
      vertex -44.831688 88.11889 -10
      vertex -44.831688 91.88111 -10
      vertex -44.5 90 -10
    endloop
  endfacet
  facet normal 0 0 -1
    outer loop
      vertex -45.786755 86.46467 -10
      vertex -44.831688 91.88111 -10
      vertex -44.831688 88.11889 -10
    endloop
  endfacet
  facet normal 0 0 -1
    outer loop
      vertex -45.786755 86.46467 -10
      vertex -45.786755 93.53533 -10
      vertex -44.831688 91.88111 -10
    endloop
  endfacet
  facet normal 0 0 -1
    outer loop
      vertex -47.25 85.23686 -10
      vertex -45.786755 93.53533 -10
      vertex -45.786755 86.46467 -10
    endloop
  endfacet
  facet normal 0 0 -1
    outer loop
      vertex -47.25 85.23686 -10
      vertex -47.25 94.76314 -10
      vertex -45.786755 93.53533 -10
    endloop
  endfacet
  facet normal 0 0 -1
    outer loop
      vertex -49.044933 84.58356 -10
      vertex -47.25 94.76314 -10
      vertex -47.25 85.23686 -10
    endloop
  endfacet
  facet normal 0 0 -1
    outer loop
      vertex -49.044933 84.58356 -10
      vertex -49.044933 95.41644 -10
      vertex -47.25 94.76314 -10
    endloop
  endfacet
  facet normal 0 0 -1
    outer loop
      vertex -50.955063 84.58356 -10
      vertex -49.044933 95.41644 -10
      vertex -49.044933 84.58356 -10
    endloop
  endfacet
  facet normal 0 0 -1
    outer loop
      vertex -50.955063 84.58356 -10
      vertex -50.955063 95.41644 -10
      vertex -49.044933 95.41644 -10
    endloop
  endfacet
  facet normal 0 0 -1
    outer loop
      vertex -52.75 85.23686 -10
      vertex -50.955063 95.41644 -10
      vertex -50.955063 84.58356 -10
    endloop
  endfacet
  facet normal 0 0 -1
    outer loop
      vertex -52.75 85.23686 -10
      vertex -52.75 94.76314 -10
      vertex -50.955063 95.41644 -10
    endloop
  endfacet
  facet normal 0 0 -1
    outer loop
      vertex -54.21324 86.46467 -10
      vertex -52.75 94.76314 -10
      vertex -52.75 85.23686 -10
    endloop
  endfacet
  facet normal 0 0 -1
    outer loop
      vertex -54.21324 86.46467 -10
      vertex -54.21324 93.53533 -10
      vertex -52.75 94.76314 -10
    endloop
  endfacet
  facet normal 0 0 -1
    outer loop
      vertex -55.16831 88.11889 -10
      vertex -54.21324 93.53533 -10
      vertex -54.21324 86.46467 -10
    endloop
  endfacet
  facet normal 0 0 -1
    outer loop
      vertex -55.16831 88.11889 -10
      vertex -55.16831 91.88111 -10
      vertex -54.21324 93.53533 -10
    endloop
  endfacet
  facet normal 0 0 -1
    outer loop
      vertex -55.16831 91.88111 -10
      vertex -55.16831 88.11889 -10
      vertex -55.5 90 -10
    endloop
  endfacet
  facet normal -0.98480767 -0.17364873 0
    outer loop
      vertex 55.5 90 -12
      vertex 55.16831 91.88111 -10
      vertex 55.16831 91.88111 -12
    endloop
  endfacet
  facet normal -0.98480767 -0.17364873 0
    outer loop
      vertex 55.16831 91.88111 -10
      vertex 55.5 90 -12
      vertex 55.5 90 -10
    endloop
  endfacet
  facet normal -0.98480767 0.17364873 0
    outer loop
      vertex 55.16831 88.11889 -12
      vertex 55.5 90 -10
      vertex 55.5 90 -12
    endloop
  endfacet
  facet normal -0.98480767 0.17364873 0
    outer loop
      vertex 55.5 90 -10
      vertex 55.16831 88.11889 -12
      vertex 55.16831 88.11889 -10
    endloop
  endfacet
  facet normal -0.6427878 -0.76604426 0
    outer loop
      vertex 52.75 94.76314 -12
      vertex 54.21324 93.53533 -10
      vertex 52.75 94.76314 -10
    endloop
  endfacet
  facet normal -0.6427878 -0.76604426 0
    outer loop
      vertex 54.21324 93.53533 -10
      vertex 52.75 94.76314 -12
      vertex 54.21324 93.53533 -12
    endloop
  endfacet
  facet normal -0.866025 0.5000008 0
    outer loop
      vertex 54.21324 86.46467 -12
      vertex 55.16831 88.11889 -10
      vertex 55.16831 88.11889 -12
    endloop
  endfacet
  facet normal -0.866025 0.5000008 0
    outer loop
      vertex 55.16831 88.11889 -10
      vertex 54.21324 86.46467 -12
      vertex 54.21324 86.46467 -10
    endloop
  endfacet
  facet normal -0.34202078 -0.9396924 0
    outer loop
      vertex 50.955063 95.41644 -12
      vertex 52.75 94.76314 -10
      vertex 50.955063 95.41644 -10
    endloop
  endfacet
  facet normal -0.34202078 -0.9396924 0
    outer loop
      vertex 52.75 94.76314 -10
      vertex 50.955063 95.41644 -12
      vertex 52.75 94.76314 -12
    endloop
  endfacet
  facet normal -0.866025 -0.5000008 0
    outer loop
      vertex 55.16831 91.88111 -12
      vertex 54.21324 93.53533 -10
      vertex 54.21324 93.53533 -12
    endloop
  endfacet
  facet normal -0.866025 -0.5000008 0
    outer loop
      vertex 54.21324 93.53533 -10
      vertex 55.16831 91.88111 -12
      vertex 55.16831 91.88111 -10
    endloop
  endfacet
  facet normal 0.3420214 0.93969214 0
    outer loop
      vertex 49.044933 84.58356 -12
      vertex 47.25 85.23686 -10
      vertex 49.044933 84.58356 -10
    endloop
  endfacet
  facet normal 0.3420214 0.93969214 0
    outer loop
      vertex 47.25 85.23686 -10
      vertex 49.044933 84.58356 -12
      vertex 47.25 85.23686 -12
    endloop
  endfacet
  facet normal 0 -1 0
    outer loop
      vertex 49.044933 95.41644 -12
      vertex 50.955063 95.41644 -10
      vertex 49.044933 95.41644 -10
    endloop
  endfacet
  facet normal 0 -1 0
    outer loop
      vertex 50.955063 95.41644 -10
      vertex 49.044933 95.41644 -12
      vertex 50.955063 95.41644 -12
    endloop
  endfacet
  facet normal 0 0 -1
    outer loop
      vertex 55.16831 88.11889 -10
      vertex 55.16831 91.88111 -10
      vertex 55.5 90 -10
    endloop
  endfacet
  facet normal 0 0 -1
    outer loop
      vertex 54.21324 86.46467 -10
      vertex 55.16831 91.88111 -10
      vertex 55.16831 88.11889 -10
    endloop
  endfacet
  facet normal 0 0 -1
    outer loop
      vertex 54.21324 86.46467 -10
      vertex 54.21324 93.53533 -10
      vertex 55.16831 91.88111 -10
    endloop
  endfacet
  facet normal 0 0 -1
    outer loop
      vertex 52.75 85.23686 -10
      vertex 54.21324 93.53533 -10
      vertex 54.21324 86.46467 -10
    endloop
  endfacet
  facet normal 0 0 -1
    outer loop
      vertex 52.75 85.23686 -10
      vertex 52.75 94.76314 -10
      vertex 54.21324 93.53533 -10
    endloop
  endfacet
  facet normal 0 0 -1
    outer loop
      vertex 50.955063 84.58356 -10
      vertex 52.75 94.76314 -10
      vertex 52.75 85.23686 -10
    endloop
  endfacet
  facet normal 0 0 -1
    outer loop
      vertex 50.955063 84.58356 -10
      vertex 50.955063 95.41644 -10
      vertex 52.75 94.76314 -10
    endloop
  endfacet
  facet normal 0 0 -1
    outer loop
      vertex 49.044933 84.58356 -10
      vertex 50.955063 95.41644 -10
      vertex 50.955063 84.58356 -10
    endloop
  endfacet
  facet normal 0 0 -1
    outer loop
      vertex 49.044933 84.58356 -10
      vertex 49.044933 95.41644 -10
      vertex 50.955063 95.41644 -10
    endloop
  endfacet
  facet normal 0 0 -1
    outer loop
      vertex 47.25 85.23686 -10
      vertex 49.044933 95.41644 -10
      vertex 49.044933 84.58356 -10
    endloop
  endfacet
  facet normal 0 0 -1
    outer loop
      vertex 47.25 85.23686 -10
      vertex 47.25 94.76314 -10
      vertex 49.044933 95.41644 -10
    endloop
  endfacet
  facet normal 0 0 -1
    outer loop
      vertex 45.786755 86.46467 -10
      vertex 47.25 94.76314 -10
      vertex 47.25 85.23686 -10
    endloop
  endfacet
  facet normal 0 0 -1
    outer loop
      vertex 45.786755 86.46467 -10
      vertex 45.786755 93.53533 -10
      vertex 47.25 94.76314 -10
    endloop
  endfacet
  facet normal 0 0 -1
    outer loop
      vertex 44.831688 88.11889 -10
      vertex 45.786755 93.53533 -10
      vertex 45.786755 86.46467 -10
    endloop
  endfacet
  facet normal 0 0 -1
    outer loop
      vertex 44.831688 88.11889 -10
      vertex 44.831688 91.88111 -10
      vertex 45.786755 93.53533 -10
    endloop
  endfacet
  facet normal 0 0 -1
    outer loop
      vertex 44.831688 91.88111 -10
      vertex 44.831688 88.11889 -10
      vertex 44.5 90 -10
    endloop
  endfacet
  facet normal 0.866025 0.5000008 0
    outer loop
      vertex 45.786755 86.46467 -10
      vertex 44.831688 88.11889 -12
      vertex 44.831688 88.11889 -10
    endloop
  endfacet
  facet normal 0.866025 0.5000008 0
    outer loop
      vertex 44.831688 88.11889 -12
      vertex 45.786755 86.46467 -10
      vertex 45.786755 86.46467 -12
    endloop
  endfacet
  facet normal 0.98480797 -0.1736468 0
    outer loop
      vertex 44.5 90 -10
      vertex 44.831688 91.88111 -12
      vertex 44.831688 91.88111 -10
    endloop
  endfacet
  facet normal 0.98480797 -0.1736468 0
    outer loop
      vertex 44.831688 91.88111 -12
      vertex 44.5 90 -10
      vertex 44.5 90 -12
    endloop
  endfacet
  facet normal 0 1 0
    outer loop
      vertex 50.955063 84.58356 -12
      vertex 49.044933 84.58356 -10
      vertex 50.955063 84.58356 -10
    endloop
  endfacet
  facet normal 0 1 0
    outer loop
      vertex 49.044933 84.58356 -10
      vertex 50.955063 84.58356 -12
      vertex 49.044933 84.58356 -12
    endloop
  endfacet
  facet normal -0.34202078 0.9396924 0
    outer loop
      vertex 52.75 85.23686 -12
      vertex 50.955063 84.58356 -10
      vertex 52.75 85.23686 -10
    endloop
  endfacet
  facet normal -0.34202078 0.9396924 0
    outer loop
      vertex 50.955063 84.58356 -10
      vertex 52.75 85.23686 -12
      vertex 50.955063 84.58356 -12
    endloop
  endfacet
  facet normal 0.6427868 -0.7660451 0
    outer loop
      vertex 45.786755 93.53533 -12
      vertex 47.25 94.76314 -10
      vertex 45.786755 93.53533 -10
    endloop
  endfacet
  facet normal 0.6427868 -0.7660451 0
    outer loop
      vertex 47.25 94.76314 -10
      vertex 45.786755 93.53533 -12
      vertex 47.25 94.76314 -12
    endloop
  endfacet
  facet normal 0.98480797 0.1736468 0
    outer loop
      vertex 44.831688 88.11889 -10
      vertex 44.5 90 -12
      vertex 44.5 90 -10
    endloop
  endfacet
  facet normal 0.98480797 0.1736468 0
    outer loop
      vertex 44.5 90 -12
      vertex 44.831688 88.11889 -10
      vertex 44.831688 88.11889 -12
    endloop
  endfacet
  facet normal -0.6427878 0.76604426 0
    outer loop
      vertex 54.21324 86.46467 -12
      vertex 52.75 85.23686 -10
      vertex 54.21324 86.46467 -10
    endloop
  endfacet
  facet normal -0.6427878 0.76604426 0
    outer loop
      vertex 52.75 85.23686 -10
      vertex 54.21324 86.46467 -12
      vertex 52.75 85.23686 -12
    endloop
  endfacet
  facet normal 0.866025 -0.5000008 0
    outer loop
      vertex 44.831688 91.88111 -10
      vertex 45.786755 93.53533 -12
      vertex 45.786755 93.53533 -10
    endloop
  endfacet
  facet normal 0.866025 -0.5000008 0
    outer loop
      vertex 45.786755 93.53533 -12
      vertex 44.831688 91.88111 -10
      vertex 44.831688 91.88111 -12
    endloop
  endfacet
  facet normal 0.3420214 -0.93969214 0
    outer loop
      vertex 47.25 94.76314 -12
      vertex 49.044933 95.41644 -10
      vertex 47.25 94.76314 -10
    endloop
  endfacet
  facet normal 0.3420214 -0.93969214 0
    outer loop
      vertex 49.044933 95.41644 -10
      vertex 47.25 94.76314 -12
      vertex 49.044933 95.41644 -12
    endloop
  endfacet
  facet normal 0.6427868 0.7660451 0
    outer loop
      vertex 47.25 85.23686 -12
      vertex 45.786755 86.46467 -10
      vertex 47.25 85.23686 -10
    endloop
  endfacet
  facet normal 0.6427868 0.7660451 0
    outer loop
      vertex 45.786755 86.46467 -10
      vertex 47.25 85.23686 -12
      vertex 45.786755 86.46467 -12
    endloop
  endfacet
endsolid OpenSCAD_Model
