solid OpenSCAD_Model
  facet normal 0.94400215 0.09921871 0.31466737
    outer loop
      vertex 11.737771 2.4949398 0
      vertex 2 0 30
      vertex 12 0 0
    endloop
  endfacet
  facet normal 0.9027444 0.2933206 0.31466743
    outer loop
      vertex 10.962545 4.8808393 0
      vertex 1.8270903 0.81347275 30
      vertex 1.956295 0.41582298 30
    endloop
  endfacet
  facet normal 0.9440021 0.09921914 0.3146674
    outer loop
      vertex 11.737771 2.4949398 0
      vertex 1.956295 0.41582298 30
      vertex 2 0 30
    endloop
  endfacet
  facet normal 0.94400215 -0.09921871 0.31466737
    outer loop
      vertex 12 0 0
      vertex 2 0 30
      vertex 11.737771 -2.4949398 0
    endloop
  endfacet
  facet normal 0.5579272 0.7679204 0.3146674
    outer loop
      vertex 8.029567 8.917737 0
      vertex 1 1.73205 30
      vertex 1.3382607 1.486289 30
    endloop
  endfacet
  facet normal 0.822033 0.4746011 0.3146674
    outer loop
      vertex 9.708203 7.053423 0
      vertex 1.6180334 1.1755705 30
      vertex 10.962545 4.8808393 0
    endloop
  endfacet
  facet normal -0.5579272 -0.7679204 0.3146674
    outer loop
      vertex -1.3382607 -1.486289 30
      vertex -8.029567 -8.917737 0
      vertex -1 -1.73205 30
    endloop
  endfacet
  facet normal -0.5579272 0.7679204 0.3146674
    outer loop
      vertex -1 1.73205 30
      vertex -8.029567 8.917737 0
      vertex -1.3382607 1.486289 30
    endloop
  endfacet
  facet normal 0.9027444 -0.2933206 0.31466743
    outer loop
      vertex 1.956295 -0.41582298 30
      vertex 1.8270903 -0.81347275 30
      vertex 10.962545 -4.8808393 0
    endloop
  endfacet
  facet normal -0.90274477 -0.29331952 0.3146674
    outer loop
      vertex -1.956295 -0.41582298 30
      vertex -11.737771 -2.4949398 0
      vertex -10.962545 -4.8808393 0
    endloop
  endfacet
  facet normal 0.8220334 0.47460034 0.31466743
    outer loop
      vertex 10.962545 4.8808393 0
      vertex 1.6180334 1.1755705 30
      vertex 1.8270903 0.81347275 30
    endloop
  endfacet
  facet normal -0.19735019 0.92845964 0.31466737
    outer loop
      vertex -1.2543411 11.934262 0
      vertex -3.7082033 11.412678 0
      vertex -0.6180334 1.902113 30
    endloop
  endfacet
  facet normal -0.38607514 -0.8671392 0.31466737
    outer loop
      vertex -0.6180334 -1.902113 30
      vertex -6 -10.392304 0
      vertex -3.7082033 -11.412678 0
    endloop
  endfacet
  facet normal 0.70539397 0.6351408 0.3146674
    outer loop
      vertex 8.029567 8.917737 0
      vertex 1.3382607 1.486289 30
      vertex 1.6180334 1.1755705 30
    endloop
  endfacet
  facet normal -0.70539445 -0.63514024 0.31466737
    outer loop
      vertex -1.6180334 -1.1755705 30
      vertex -9.708203 -7.053423 0
      vertex -8.029567 -8.917737 0
    endloop
  endfacet
  facet normal 0.19734937 0.9284598 0.3146674
    outer loop
      vertex 1.2543411 11.934262 0
      vertex 0.20905685 1.9890432 30
      vertex 0.6180334 1.902113 30
    endloop
  endfacet
  facet normal 0.90274477 0.29331952 0.3146674
    outer loop
      vertex 10.962545 4.8808393 0
      vertex 1.956295 0.41582298 30
      vertex 11.737771 2.4949398 0
    endloop
  endfacet
  facet normal -0.9027444 0.2933206 0.31466743
    outer loop
      vertex -1.8270903 0.81347275 30
      vertex -10.962545 4.8808393 0
      vertex -1.956295 0.41582298 30
    endloop
  endfacet
  facet normal -0.70539397 0.6351408 0.3146674
    outer loop
      vertex -1.3382607 1.486289 30
      vertex -8.029567 8.917737 0
      vertex -1.6180334 1.1755705 30
    endloop
  endfacet
  facet normal -0.70539397 -0.6351408 0.3146674
    outer loop
      vertex -1.6180334 -1.1755705 30
      vertex -8.029567 -8.917737 0
      vertex -1.3382607 -1.486289 30
    endloop
  endfacet
  facet normal -0.55792713 0.7679204 0.3146674
    outer loop
      vertex -6 10.392304 0
      vertex -8.029567 8.917737 0
      vertex -1 1.73205 30
    endloop
  endfacet
  facet normal 0.19734937 -0.9284598 0.3146674
    outer loop
      vertex 0.6180334 -1.902113 30
      vertex 0.20905685 -1.9890432 30
      vertex 1.2543411 -11.934262 0
    endloop
  endfacet
  facet normal 0 0 1
    outer loop
      vertex 11.737771 21.505058 0
      vertex 12 0 0
      vertex 12 24 0
    endloop
  endfacet
  facet normal 0 0 1
    outer loop
      vertex 11.737771 21.505058 0
      vertex 11.737771 2.4949398 0
      vertex 12 0 0
    endloop
  endfacet
  facet normal 0 0 1
    outer loop
      vertex 10.962545 19.11916 0
      vertex 11.737771 2.4949398 0
      vertex 11.737771 21.505058 0
    endloop
  endfacet
  facet normal 0 0 1
    outer loop
      vertex 10.962545 19.11916 0
      vertex 10.962545 4.8808393 0
      vertex 11.737771 2.4949398 0
    endloop
  endfacet
  facet normal 0 0 1
    outer loop
      vertex 9.708203 16.946575 0
      vertex 10.962545 4.8808393 0
      vertex 10.962545 19.11916 0
    endloop
  endfacet
  facet normal 0 0 1
    outer loop
      vertex 9.708203 16.946575 0
      vertex 9.708203 7.053423 0
      vertex 10.962545 4.8808393 0
    endloop
  endfacet
  facet normal 0 0 1
    outer loop
      vertex 8.029567 15.082262 0
      vertex 9.708203 7.053423 0
      vertex 9.708203 16.946575 0
    endloop
  endfacet
  facet normal 0 0 1
    outer loop
      vertex 8.029567 15.082262 0
      vertex 8.029567 8.917737 0
      vertex 9.708203 7.053423 0
    endloop
  endfacet
  facet normal 0 0 1
    outer loop
      vertex 6 13.607695 0
      vertex 8.029567 8.917737 0
      vertex 8.029567 15.082262 0
    endloop
  endfacet
  facet normal 0 0 1
    outer loop
      vertex 6 13.607695 0
      vertex 6 10.392304 0
      vertex 8.029567 8.917737 0
    endloop
  endfacet
  facet normal 0 0 1
    outer loop
      vertex 3.7082033 12.587321 0
      vertex 6 10.392304 0
      vertex 6 13.607695 0
    endloop
  endfacet
  facet normal 0 0 1
    outer loop
      vertex 3.7082033 12.587321 0
      vertex 3.7082033 11.412678 0
      vertex 6 10.392304 0
    endloop
  endfacet
  facet normal 0 0 1
    outer loop
      vertex 1.2543411 12.065737 0
      vertex 3.7082033 11.412678 0
      vertex 3.7082033 12.587321 0
    endloop
  endfacet
  facet normal 0 0 1
    outer loop
      vertex 1.2543411 12.065737 0
      vertex 1.2543411 11.934262 0
      vertex 3.7082033 11.412678 0
    endloop
  endfacet
  facet normal 0 0 1
    outer loop
      vertex -1.2543411 12.065737 0
      vertex 1.2543411 11.934262 0
      vertex 1.2543411 12.065737 0
    endloop
  endfacet
  facet normal 0 0 1
    outer loop
      vertex -1.2543411 12.065737 0
      vertex -1.2543411 11.934262 0
      vertex 1.2543411 11.934262 0
    endloop
  endfacet
  facet normal 0 0 1
    outer loop
      vertex -3.7082033 12.587321 0
      vertex -1.2543411 11.934262 0
      vertex -1.2543411 12.065737 0
    endloop
  endfacet
  facet normal 0 0 1
    outer loop
      vertex -3.7082033 12.587321 0
      vertex -3.7082033 11.412678 0
      vertex -1.2543411 11.934262 0
    endloop
  endfacet
  facet normal 0 0 1
    outer loop
      vertex -6 13.607695 0
      vertex -3.7082033 11.412678 0
      vertex -3.7082033 12.587321 0
    endloop
  endfacet
  facet normal 0 0 1
    outer loop
      vertex -6 13.607695 0
      vertex -6 10.392304 0
      vertex -3.7082033 11.412678 0
    endloop
  endfacet
  facet normal 0 0 1
    outer loop
      vertex -8.029567 15.082262 0
      vertex -6 10.392304 0
      vertex -6 13.607695 0
    endloop
  endfacet
  facet normal 0 0 1
    outer loop
      vertex -8.029567 15.082262 0
      vertex -8.029567 8.917737 0
      vertex -6 10.392304 0
    endloop
  endfacet
  facet normal 0 0 1
    outer loop
      vertex -9.708203 16.946575 0
      vertex -8.029567 8.917737 0
      vertex -8.029567 15.082262 0
    endloop
  endfacet
  facet normal 0 0 1
    outer loop
      vertex -9.708203 16.946575 0
      vertex -9.708203 7.053423 0
      vertex -8.029567 8.917737 0
    endloop
  endfacet
  facet normal 0 0 1
    outer loop
      vertex -10.962545 19.11916 0
      vertex -9.708203 7.053423 0
      vertex -9.708203 16.946575 0
    endloop
  endfacet
  facet normal 0 0 1
    outer loop
      vertex -10.962545 19.11916 0
      vertex -10.962545 4.8808393 0
      vertex -9.708203 7.053423 0
    endloop
  endfacet
  facet normal 0 0 1
    outer loop
      vertex -11.737771 21.505058 0
      vertex -10.962545 4.8808393 0
      vertex -10.962545 19.11916 0
    endloop
  endfacet
  facet normal 0 0 1
    outer loop
      vertex -11.737771 21.505058 0
      vertex -11.737771 2.4949398 0
      vertex -10.962545 4.8808393 0
    endloop
  endfacet
  facet normal 0 0 1
    outer loop
      vertex -12 24 0
      vertex -11.737771 2.4949398 0
      vertex -11.737771 21.505058 0
    endloop
  endfacet
  facet normal 0 0 1
    outer loop
      vertex -11.737771 2.4949398 0
      vertex -12 24 0
      vertex -12 0 0
    endloop
  endfacet
  facet normal 0.38607624 0.8671387 0.31466743
    outer loop
      vertex 6 10.392304 0
      vertex 0.6180334 1.902113 30
      vertex 1 1.73205 30
    endloop
  endfacet
  facet normal 0.38607514 0.8671392 0.31466737
    outer loop
      vertex 3.7082033 11.412678 0
      vertex 0.6180334 1.902113 30
      vertex 6 10.392304 0
    endloop
  endfacet
  facet normal -0.55792713 -0.7679204 0.3146674
    outer loop
      vertex -1 -1.73205 30
      vertex -8.029567 -8.917737 0
      vertex -6 -10.392304 0
    endloop
  endfacet
  facet normal -0.38607624 0.8671387 0.31466743
    outer loop
      vertex -0.6180334 1.902113 30
      vertex -6 10.392304 0
      vertex -1 1.73205 30
    endloop
  endfacet
  facet normal -0.822033 0.4746011 0.3146674
    outer loop
      vertex -9.708203 7.053423 0
      vertex -10.962545 4.8808393 0
      vertex -1.6180334 1.1755705 30
    endloop
  endfacet
  facet normal 0.55792713 -0.7679204 0.3146674
    outer loop
      vertex 8.029567 -8.917737 0
      vertex 1 -1.73205 30
      vertex 6 -10.392304 0
    endloop
  endfacet
  facet normal 0.38607624 -0.8671387 0.31466743
    outer loop
      vertex 1 -1.73205 30
      vertex 0.6180334 -1.902113 30
      vertex 6 -10.392304 0
    endloop
  endfacet
  facet normal 0.19735019 -0.92845964 0.31466737
    outer loop
      vertex 3.7082033 -11.412678 0
      vertex 0.6180334 -1.902113 30
      vertex 1.2543411 -11.934262 0
    endloop
  endfacet
  facet normal 0.55792713 0.7679204 0.3146674
    outer loop
      vertex 6 10.392304 0
      vertex 1 1.73205 30
      vertex 8.029567 8.917737 0
    endloop
  endfacet
  facet normal -0.9440021 -0.09921914 0.3146674
    outer loop
      vertex -2 0 30
      vertex -11.737771 -2.4949398 0
      vertex -1.956295 -0.41582298 30
    endloop
  endfacet
  facet normal 0.19735019 0.92845964 0.31466737
    outer loop
      vertex 1.2543411 11.934262 0
      vertex 0.6180334 1.902113 30
      vertex 3.7082033 11.412678 0
    endloop
  endfacet
  facet normal 0.70539445 0.63514024 0.31466737
    outer loop
      vertex 8.029567 8.917737 0
      vertex 1.6180334 1.1755705 30
      vertex 9.708203 7.053423 0
    endloop
  endfacet
  facet normal -0.70539445 0.63514024 0.31466737
    outer loop
      vertex -8.029567 8.917737 0
      vertex -9.708203 7.053423 0
      vertex -1.6180334 1.1755705 30
    endloop
  endfacet
  facet normal -0.822033 -0.4746011 0.3146674
    outer loop
      vertex -1.6180334 -1.1755705 30
      vertex -10.962545 -4.8808393 0
      vertex -9.708203 -7.053423 0
    endloop
  endfacet
  facet normal -0.38607514 0.8671392 0.31466737
    outer loop
      vertex -3.7082033 11.412678 0
      vertex -6 10.392304 0
      vertex -0.6180334 1.902113 30
    endloop
  endfacet
  facet normal 0.90274477 -0.29331952 0.3146674
    outer loop
      vertex 11.737771 -2.4949398 0
      vertex 1.956295 -0.41582298 30
      vertex 10.962545 -4.8808393 0
    endloop
  endfacet
  facet normal -0.38607624 -0.8671387 0.31466743
    outer loop
      vertex -1 -1.73205 30
      vertex -6 -10.392304 0
      vertex -0.6180334 -1.902113 30
    endloop
  endfacet
  facet normal -0.19734937 0.9284598 0.3146674
    outer loop
      vertex -0.20905685 1.9890432 30
      vertex -1.2543411 11.934262 0
      vertex -0.6180334 1.902113 30
    endloop
  endfacet
  facet normal 0.8220334 -0.47460034 0.31466743
    outer loop
      vertex 1.8270903 -0.81347275 30
      vertex 1.6180334 -1.1755705 30
      vertex 10.962545 -4.8808393 0
    endloop
  endfacet
  facet normal -0.19735019 -0.92845964 0.31466737
    outer loop
      vertex -0.6180334 -1.902113 30
      vertex -3.7082033 -11.412678 0
      vertex -1.2543411 -11.934262 0
    endloop
  endfacet
  facet normal 0.9440021 -0.09921914 0.3146674
    outer loop
      vertex 2 0 30
      vertex 1.956295 -0.41582298 30
      vertex 11.737771 -2.4949398 0
    endloop
  endfacet
  facet normal 0.38607514 -0.8671392 0.31466737
    outer loop
      vertex 6 -10.392304 0
      vertex 0.6180334 -1.902113 30
      vertex 3.7082033 -11.412678 0
    endloop
  endfacet
  facet normal -0.94400215 0.09921871 0.31466737
    outer loop
      vertex -11.737771 2.4949398 0
      vertex -12 0 0
      vertex -2 0 30
    endloop
  endfacet
  facet normal -0.94400215 -0.09921871 0.31466737
    outer loop
      vertex -2 0 30
      vertex -12 0 0
      vertex -11.737771 -2.4949398 0
    endloop
  endfacet
  facet normal 0 -0.949202 0.3146674
    outer loop
      vertex -1.2543411 -11.934262 0
      vertex 0.20905685 -1.9890432 30
      vertex -0.20905685 -1.9890432 30
    endloop
  endfacet
  facet normal 0 -0.949202 0.3146674
    outer loop
      vertex 0.20905685 -1.9890432 30
      vertex -1.2543411 -11.934262 0
      vertex 1.2543411 -11.934262 0
    endloop
  endfacet
  facet normal -0.19734937 -0.9284598 0.3146674
    outer loop
      vertex -0.6180334 -1.902113 30
      vertex -1.2543411 -11.934262 0
      vertex -0.20905685 -1.9890432 30
    endloop
  endfacet
  facet normal -0.9027444 -0.2933206 0.31466743
    outer loop
      vertex -1.956295 -0.41582298 30
      vertex -10.962545 -4.8808393 0
      vertex -1.8270903 -0.81347275 30
    endloop
  endfacet
  facet normal -0.8220334 -0.47460034 0.31466743
    outer loop
      vertex -1.8270903 -0.81347275 30
      vertex -10.962545 -4.8808393 0
      vertex -1.6180334 -1.1755705 30
    endloop
  endfacet
  facet normal 0 0 1
    outer loop
      vertex 1.956295 0.41582298 30
      vertex 1.956295 -0.41582298 30
      vertex 2 0 30
    endloop
  endfacet
  facet normal 0 0 1
    outer loop
      vertex 1.8270903 0.81347275 30
      vertex 1.956295 -0.41582298 30
      vertex 1.956295 0.41582298 30
    endloop
  endfacet
  facet normal 0 0 1
    outer loop
      vertex 1.8270903 0.81347275 30
      vertex 1.8270903 -0.81347275 30
      vertex 1.956295 -0.41582298 30
    endloop
  endfacet
  facet normal 0 0 1
    outer loop
      vertex 1.6180334 1.1755705 30
      vertex 1.8270903 -0.81347275 30
      vertex 1.8270903 0.81347275 30
    endloop
  endfacet
  facet normal 0 0 1
    outer loop
      vertex 1.6180334 1.1755705 30
      vertex 1.6180334 -1.1755705 30
      vertex 1.8270903 -0.81347275 30
    endloop
  endfacet
  facet normal 0 0 1
    outer loop
      vertex 1.3382607 1.486289 30
      vertex 1.6180334 -1.1755705 30
      vertex 1.6180334 1.1755705 30
    endloop
  endfacet
  facet normal 0 0 1
    outer loop
      vertex 1.3382607 1.486289 30
      vertex 1.3382607 -1.486289 30
      vertex 1.6180334 -1.1755705 30
    endloop
  endfacet
  facet normal 0 0 1
    outer loop
      vertex 1 1.73205 30
      vertex 1.3382607 -1.486289 30
      vertex 1.3382607 1.486289 30
    endloop
  endfacet
  facet normal 0 0 1
    outer loop
      vertex 1 1.73205 30
      vertex 1 -1.73205 30
      vertex 1.3382607 -1.486289 30
    endloop
  endfacet
  facet normal 0 0 1
    outer loop
      vertex 0.6180334 1.902113 30
      vertex 1 -1.73205 30
      vertex 1 1.73205 30
    endloop
  endfacet
  facet normal 0 0 1
    outer loop
      vertex 0.6180334 1.902113 30
      vertex 0.6180334 -1.902113 30
      vertex 1 -1.73205 30
    endloop
  endfacet
  facet normal 0 0 1
    outer loop
      vertex 0.20905685 1.9890432 30
      vertex 0.6180334 -1.902113 30
      vertex 0.6180334 1.902113 30
    endloop
  endfacet
  facet normal 0 0 1
    outer loop
      vertex 0.20905685 1.9890432 30
      vertex 0.20905685 -1.9890432 30
      vertex 0.6180334 -1.902113 30
    endloop
  endfacet
  facet normal 0 0 1
    outer loop
      vertex -0.20905685 1.9890432 30
      vertex 0.20905685 -1.9890432 30
      vertex 0.20905685 1.9890432 30
    endloop
  endfacet
  facet normal 0 0 1
    outer loop
      vertex -0.20905685 1.9890432 30
      vertex -0.20905685 -1.9890432 30
      vertex 0.20905685 -1.9890432 30
    endloop
  endfacet
  facet normal 0 0 1
    outer loop
      vertex -0.6180334 1.902113 30
      vertex -0.20905685 -1.9890432 30
      vertex -0.20905685 1.9890432 30
    endloop
  endfacet
  facet normal 0 0 1
    outer loop
      vertex -0.6180334 1.902113 30
      vertex -0.6180334 -1.902113 30
      vertex -0.20905685 -1.9890432 30
    endloop
  endfacet
  facet normal 0 0 1
    outer loop
      vertex -1 1.73205 30
      vertex -0.6180334 -1.902113 30
      vertex -0.6180334 1.902113 30
    endloop
  endfacet
  facet normal 0 0 1
    outer loop
      vertex -1 1.73205 30
      vertex -1 -1.73205 30
      vertex -0.6180334 -1.902113 30
    endloop
  endfacet
  facet normal 0 0 1
    outer loop
      vertex -1.3382607 1.486289 30
      vertex -1 -1.73205 30
      vertex -1 1.73205 30
    endloop
  endfacet
  facet normal 0 0 1
    outer loop
      vertex -1.3382607 1.486289 30
      vertex -1.3382607 -1.486289 30
      vertex -1 -1.73205 30
    endloop
  endfacet
  facet normal 0 0 1
    outer loop
      vertex -1.6180334 1.1755705 30
      vertex -1.3382607 -1.486289 30
      vertex -1.3382607 1.486289 30
    endloop
  endfacet
  facet normal 0 0 1
    outer loop
      vertex -1.6180334 1.1755705 30
      vertex -1.6180334 -1.1755705 30
      vertex -1.3382607 -1.486289 30
    endloop
  endfacet
  facet normal 0 0 1
    outer loop
      vertex -1.8270903 0.81347275 30
      vertex -1.6180334 -1.1755705 30
      vertex -1.6180334 1.1755705 30
    endloop
  endfacet
  facet normal 0 0 1
    outer loop
      vertex -1.8270903 0.81347275 30
      vertex -1.8270903 -0.81347275 30
      vertex -1.6180334 -1.1755705 30
    endloop
  endfacet
  facet normal 0 0 1
    outer loop
      vertex -1.956295 0.41582298 30
      vertex -1.8270903 -0.81347275 30
      vertex -1.8270903 0.81347275 30
    endloop
  endfacet
  facet normal 0 0 1
    outer loop
      vertex -1.956295 0.41582298 30
      vertex -1.956295 -0.41582298 30
      vertex -1.8270903 -0.81347275 30
    endloop
  endfacet
  facet normal 0 0 1
    outer loop
      vertex -1.956295 -0.41582298 30
      vertex -1.956295 0.41582298 30
      vertex -2 0 30
    endloop
  endfacet
  facet normal 0.70539445 -0.63514024 0.31466737
    outer loop
      vertex 9.708203 -7.053423 0
      vertex 1.6180334 -1.1755705 30
      vertex 8.029567 -8.917737 0
    endloop
  endfacet
  facet normal 0.822033 -0.4746011 0.3146674
    outer loop
      vertex 10.962545 -4.8808393 0
      vertex 1.6180334 -1.1755705 30
      vertex 9.708203 -7.053423 0
    endloop
  endfacet
  facet normal 0 0.949202 0.3146674
    outer loop
      vertex 1.2543411 11.934262 0
      vertex -0.20905685 1.9890432 30
      vertex 0.20905685 1.9890432 30
    endloop
  endfacet
  facet normal 0 0.949202 0.3146674
    outer loop
      vertex -0.20905685 1.9890432 30
      vertex 1.2543411 11.934262 0
      vertex -1.2543411 11.934262 0
    endloop
  endfacet
  facet normal -0.90274477 0.29331952 0.3146674
    outer loop
      vertex -10.962545 4.8808393 0
      vertex -11.737771 2.4949398 0
      vertex -1.956295 0.41582298 30
    endloop
  endfacet
  facet normal -0.9440021 0.09921914 0.3146674
    outer loop
      vertex -1.956295 0.41582298 30
      vertex -11.737771 2.4949398 0
      vertex -2 0 30
    endloop
  endfacet
  facet normal 0.70539397 -0.6351408 0.3146674
    outer loop
      vertex 1.6180334 -1.1755705 30
      vertex 1.3382607 -1.486289 30
      vertex 8.029567 -8.917737 0
    endloop
  endfacet
  facet normal -0.8220334 0.47460034 0.31466743
    outer loop
      vertex -1.6180334 1.1755705 30
      vertex -10.962545 4.8808393 0
      vertex -1.8270903 0.81347275 30
    endloop
  endfacet
  facet normal 0.5579272 -0.7679204 0.3146674
    outer loop
      vertex 1.3382607 -1.486289 30
      vertex 1 -1.73205 30
      vertex 8.029567 -8.917737 0
    endloop
  endfacet
  facet normal 0.94400215 0.09921871 0.31466737
    outer loop
      vertex 11.737771 26.49494 0
      vertex 2 24 30
      vertex 12 24 0
    endloop
  endfacet
  facet normal 0.9027444 0.2933206 0.31466746
    outer loop
      vertex 10.962545 28.88084 0
      vertex 1.8270903 24.813473 30
      vertex 1.956295 24.415823 30
    endloop
  endfacet
  facet normal -0.55792576 0.76792145 0.31466728
    outer loop
      vertex -1 25.73205 30
      vertex -8.029567 32.917736 0
      vertex -1.3382607 25.48629 30
    endloop
  endfacet
  facet normal 0.9440021 0.09921914 0.3146674
    outer loop
      vertex 11.737771 26.49494 0
      vertex 1.956295 24.415823 30
      vertex 2 24 30
    endloop
  endfacet
  facet normal 0.94400215 -0.09921864 0.3146674
    outer loop
      vertex 12 24 0
      vertex 2 24 30
      vertex 11.737771 21.505058 0
    endloop
  endfacet
  facet normal -0.38607514 -0.8671392 0.31466734
    outer loop
      vertex -0.6180334 22.097885 30
      vertex -6 13.607695 0
      vertex -3.7082033 12.587321 0
    endloop
  endfacet
  facet normal -0.19735146 0.9284594 0.31466728
    outer loop
      vertex -0.20905685 25.989044 30
      vertex -1.2543411 35.93426 0
      vertex -0.6180334 25.902113 30
    endloop
  endfacet
  facet normal 0.82203287 0.47460127 0.31466737
    outer loop
      vertex 9.708203 31.053423 0
      vertex 1.6180334 25.175571 30
      vertex 10.962545 28.88084 0
    endloop
  endfacet
  facet normal 0.82203305 -0.47460094 0.3146674
    outer loop
      vertex 10.962545 19.11916 0
      vertex 1.6180334 22.824429 30
      vertex 9.708203 16.946575 0
    endloop
  endfacet
  facet normal 0.19735019 -0.92845964 0.31466734
    outer loop
      vertex 3.7082033 12.587321 0
      vertex 0.6180334 22.097885 30
      vertex 1.2543411 12.065737 0
    endloop
  endfacet
  facet normal 0.70539427 0.6351404 0.31466734
    outer loop
      vertex 8.029567 32.917736 0
      vertex 1.6180334 25.175571 30
      vertex 9.708203 31.053423 0
    endloop
  endfacet
  facet normal -0.94400215 -0.09921869 0.3146674
    outer loop
      vertex -2 24 30
      vertex -11.737771 21.505058 0
      vertex -1.956295 23.584175 30
    endloop
  endfacet
  facet normal -0.38607544 0.8671391 0.31466737
    outer loop
      vertex -3.7082033 35.412678 0
      vertex -6 34.392303 0
      vertex -0.6180334 25.902113 30
    endloop
  endfacet
  facet normal 0 0.949202 0.31466734
    outer loop
      vertex 1.2543411 35.93426 0
      vertex -0.20905685 25.989044 30
      vertex 0.20905685 25.989044 30
    endloop
  endfacet
  facet normal 0 0.949202 0.31466734
    outer loop
      vertex -0.20905685 25.989044 30
      vertex 1.2543411 35.93426 0
      vertex -1.2543411 35.93426 0
    endloop
  endfacet
  facet normal 0.38607544 0.8671391 0.31466737
    outer loop
      vertex 3.7082033 35.412678 0
      vertex 0.6180334 25.902113 30
      vertex 6 34.392303 0
    endloop
  endfacet
  facet normal -0.38607624 -0.86713874 0.3146674
    outer loop
      vertex -1 22.267948 30
      vertex -6 13.607695 0
      vertex -0.6180334 22.097885 30
    endloop
  endfacet
  facet normal 0.82203394 0.47459942 0.31466746
    outer loop
      vertex 10.962545 28.88084 0
      vertex 1.6180334 25.175571 30
      vertex 1.8270903 24.813473 30
    endloop
  endfacet
  facet normal 0.19735146 0.9284594 0.31466728
    outer loop
      vertex 1.2543411 35.93426 0
      vertex 0.20905685 25.989044 30
      vertex 0.6180334 25.902113 30
    endloop
  endfacet
  facet normal -0.55792713 -0.7679204 0.31466737
    outer loop
      vertex -1 22.267948 30
      vertex -8.029567 15.082262 0
      vertex -6 13.607695 0
    endloop
  endfacet
  facet normal 0.90274477 0.2933194 0.3146674
    outer loop
      vertex 10.962545 28.88084 0
      vertex 1.956295 24.415823 30
      vertex 11.737771 26.49494 0
    endloop
  endfacet
  facet normal -0.19734985 0.92845976 0.31466737
    outer loop
      vertex -1.2543411 35.93426 0
      vertex -3.7082033 35.412678 0
      vertex -0.6180334 25.902113 30
    endloop
  endfacet
  facet normal -0.82203287 0.47460127 0.31466737
    outer loop
      vertex -9.708203 31.053423 0
      vertex -10.962545 28.88084 0
      vertex -1.6180334 25.175571 30
    endloop
  endfacet
  facet normal 0.38607624 0.86713874 0.3146674
    outer loop
      vertex 6 34.392303 0
      vertex 0.6180334 25.902113 30
      vertex 1 25.73205 30
    endloop
  endfacet
  facet normal -0.9027447 -0.2933196 0.31466737
    outer loop
      vertex -1.956295 23.584175 30
      vertex -11.737771 21.505058 0
      vertex -10.962545 19.11916 0
    endloop
  endfacet
  facet normal -0.38607624 0.86713874 0.3146674
    outer loop
      vertex -0.6180334 25.902113 30
      vertex -6 34.392303 0
      vertex -1 25.73205 30
    endloop
  endfacet
  facet normal -0.94400215 -0.09921864 0.3146674
    outer loop
      vertex -2 24 30
      vertex -12 24 0
      vertex -11.737771 21.505058 0
    endloop
  endfacet
  facet normal 0.9027447 -0.2933196 0.31466737
    outer loop
      vertex 11.737771 21.505058 0
      vertex 1.956295 23.584175 30
      vertex 10.962545 19.11916 0
    endloop
  endfacet
  facet normal -0.70539397 0.6351408 0.31466737
    outer loop
      vertex -1.3382607 25.48629 30
      vertex -8.029567 32.917736 0
      vertex -1.6180334 25.175571 30
    endloop
  endfacet
  facet normal 0.55792576 0.76792145 0.31466728
    outer loop
      vertex 8.029567 32.917736 0
      vertex 1 25.73205 30
      vertex 1.3382607 25.48629 30
    endloop
  endfacet
  facet normal -0.19735019 -0.92845964 0.31466734
    outer loop
      vertex -0.6180334 22.097885 30
      vertex -3.7082033 12.587321 0
      vertex -1.2543411 12.065737 0
    endloop
  endfacet
  facet normal 0.55792713 0.7679204 0.31466737
    outer loop
      vertex 6 34.392303 0
      vertex 1 25.73205 30
      vertex 8.029567 32.917736 0
    endloop
  endfacet
  facet normal -0.9027444 0.2933206 0.31466746
    outer loop
      vertex -1.8270903 24.813473 30
      vertex -10.962545 28.88084 0
      vertex -1.956295 24.415823 30
    endloop
  endfacet
  facet normal -0.82203305 -0.47460094 0.3146674
    outer loop
      vertex -1.6180334 22.824429 30
      vertex -10.962545 19.11916 0
      vertex -9.708203 16.946575 0
    endloop
  endfacet
  facet normal 0.38607514 -0.8671392 0.31466734
    outer loop
      vertex 6 13.607695 0
      vertex 0.6180334 22.097885 30
      vertex 3.7082033 12.587321 0
    endloop
  endfacet
  facet normal -0.90274394 -0.29332185 0.3146675
    outer loop
      vertex -1.956295 23.584175 30
      vertex -10.962545 19.11916 0
      vertex -1.8270903 23.186527 30
    endloop
  endfacet
  facet normal -0.70539427 -0.6351404 0.3146674
    outer loop
      vertex -1.6180334 22.824429 30
      vertex -9.708203 16.946575 0
      vertex -8.029567 15.082262 0
    endloop
  endfacet
  facet normal 0.55792713 -0.7679204 0.31466737
    outer loop
      vertex 8.029567 15.082262 0
      vertex 1 22.267948 30
      vertex 6 13.607695 0
    endloop
  endfacet
  facet normal 0.90274394 -0.29332185 0.3146675
    outer loop
      vertex 1.956295 23.584175 30
      vertex 1.8270903 23.186527 30
      vertex 10.962545 19.11916 0
    endloop
  endfacet
  facet normal -0.1973473 -0.92846024 0.3146675
    outer loop
      vertex -0.6180334 22.097885 30
      vertex -1.2543411 12.065737 0
      vertex -0.20905685 22.010956 30
    endloop
  endfacet
  facet normal -0.70539397 -0.6351408 0.3146674
    outer loop
      vertex -1.6180334 22.824429 30
      vertex -8.029567 15.082262 0
      vertex -1.3382607 22.51371 30
    endloop
  endfacet
  facet normal -0.94400215 0.09921871 0.31466737
    outer loop
      vertex -11.737771 26.49494 0
      vertex -12 24 0
      vertex -2 24 30
    endloop
  endfacet
  facet normal 0.38607624 -0.86713874 0.3146674
    outer loop
      vertex 1 22.267948 30
      vertex 0.6180334 22.097885 30
      vertex 6 13.607695 0
    endloop
  endfacet
  facet normal 0.82203394 -0.47459942 0.31466746
    outer loop
      vertex 1.8270903 23.186527 30
      vertex 1.6180334 22.824429 30
      vertex 10.962545 19.11916 0
    endloop
  endfacet
  facet normal 0.70539397 0.6351408 0.31466737
    outer loop
      vertex 8.029567 32.917736 0
      vertex 1.3382607 25.48629 30
      vertex 1.6180334 25.175571 30
    endloop
  endfacet
  facet normal 0.94400215 -0.09921869 0.3146674
    outer loop
      vertex 2 24 30
      vertex 1.956295 23.584175 30
      vertex 11.737771 21.505058 0
    endloop
  endfacet
  facet normal 0.19734985 0.92845976 0.31466737
    outer loop
      vertex 1.2543411 35.93426 0
      vertex 0.6180334 25.902113 30
      vertex 3.7082033 35.412678 0
    endloop
  endfacet
  facet normal -0.70539427 0.6351404 0.31466734
    outer loop
      vertex -8.029567 32.917736 0
      vertex -9.708203 31.053423 0
      vertex -1.6180334 25.175571 30
    endloop
  endfacet
  facet normal -0.55792713 0.7679204 0.31466737
    outer loop
      vertex -6 34.392303 0
      vertex -8.029567 32.917736 0
      vertex -1 25.73205 30
    endloop
  endfacet
  facet normal -0.9440021 0.09921914 0.3146674
    outer loop
      vertex -1.956295 24.415823 30
      vertex -11.737771 26.49494 0
      vertex -2 24 30
    endloop
  endfacet
  facet normal -0.90274477 0.2933194 0.3146674
    outer loop
      vertex -10.962545 28.88084 0
      vertex -11.737771 26.49494 0
      vertex -1.956295 24.415823 30
    endloop
  endfacet
  facet normal -0.82203394 0.47459942 0.31466746
    outer loop
      vertex -1.6180334 25.175571 30
      vertex -10.962545 28.88084 0
      vertex -1.8270903 24.813473 30
    endloop
  endfacet
  facet normal 0 -0.949202 0.3146674
    outer loop
      vertex -1.2543411 12.065737 0
      vertex 0.20905685 22.010956 30
      vertex -0.20905685 22.010956 30
    endloop
  endfacet
  facet normal 0 -0.949202 0.3146674
    outer loop
      vertex 0.20905685 22.010956 30
      vertex -1.2543411 12.065737 0
      vertex 1.2543411 12.065737 0
    endloop
  endfacet
  facet normal 0.1973473 -0.92846024 0.3146675
    outer loop
      vertex 0.6180334 22.097885 30
      vertex 0.20905685 22.010956 30
      vertex 1.2543411 12.065737 0
    endloop
  endfacet
  facet normal 0.70539427 -0.6351404 0.3146674
    outer loop
      vertex 9.708203 16.946575 0
      vertex 1.6180334 22.824429 30
      vertex 8.029567 15.082262 0
    endloop
  endfacet
  facet normal 0.5579286 -0.7679193 0.31466746
    outer loop
      vertex 1.3382607 22.51371 30
      vertex 1 22.267948 30
      vertex 8.029567 15.082262 0
    endloop
  endfacet
  facet normal -0.82203394 -0.47459942 0.31466746
    outer loop
      vertex -1.8270903 23.186527 30
      vertex -10.962545 19.11916 0
      vertex -1.6180334 22.824429 30
    endloop
  endfacet
  facet normal 0.70539397 -0.6351408 0.3146674
    outer loop
      vertex 1.6180334 22.824429 30
      vertex 1.3382607 22.51371 30
      vertex 8.029567 15.082262 0
    endloop
  endfacet
  facet normal -0.5579286 -0.7679193 0.31466746
    outer loop
      vertex -1.3382607 22.51371 30
      vertex -8.029567 15.082262 0
      vertex -1 22.267948 30
    endloop
  endfacet
  facet normal 0 0 1
    outer loop
      vertex 1.956295 24.415823 30
      vertex 1.956295 23.584175 30
      vertex 2 24 30
    endloop
  endfacet
  facet normal 0 0 1
    outer loop
      vertex 1.8270903 24.813473 30
      vertex 1.956295 23.584175 30
      vertex 1.956295 24.415823 30
    endloop
  endfacet
  facet normal 0 0 1
    outer loop
      vertex 1.8270903 24.813473 30
      vertex 1.8270903 23.186527 30
      vertex 1.956295 23.584175 30
    endloop
  endfacet
  facet normal 0 0 1
    outer loop
      vertex 1.6180334 25.175571 30
      vertex 1.8270903 23.186527 30
      vertex 1.8270903 24.813473 30
    endloop
  endfacet
  facet normal 0 0 1
    outer loop
      vertex 1.6180334 25.175571 30
      vertex 1.6180334 22.824429 30
      vertex 1.8270903 23.186527 30
    endloop
  endfacet
  facet normal 0 0 1
    outer loop
      vertex 1.3382607 25.48629 30
      vertex 1.6180334 22.824429 30
      vertex 1.6180334 25.175571 30
    endloop
  endfacet
  facet normal 0 0 1
    outer loop
      vertex 1.3382607 25.48629 30
      vertex 1.3382607 22.51371 30
      vertex 1.6180334 22.824429 30
    endloop
  endfacet
  facet normal 0 0 1
    outer loop
      vertex 1 25.73205 30
      vertex 1.3382607 22.51371 30
      vertex 1.3382607 25.48629 30
    endloop
  endfacet
  facet normal 0 0 1
    outer loop
      vertex 1 25.73205 30
      vertex 1 22.267948 30
      vertex 1.3382607 22.51371 30
    endloop
  endfacet
  facet normal 0 0 1
    outer loop
      vertex 0.6180334 25.902113 30
      vertex 1 22.267948 30
      vertex 1 25.73205 30
    endloop
  endfacet
  facet normal 0 0 1
    outer loop
      vertex 0.6180334 25.902113 30
      vertex 0.6180334 22.097885 30
      vertex 1 22.267948 30
    endloop
  endfacet
  facet normal 0 0 1
    outer loop
      vertex 0.20905685 25.989044 30
      vertex 0.6180334 22.097885 30
      vertex 0.6180334 25.902113 30
    endloop
  endfacet
  facet normal 0 0 1
    outer loop
      vertex 0.20905685 25.989044 30
      vertex 0.20905685 22.010956 30
      vertex 0.6180334 22.097885 30
    endloop
  endfacet
  facet normal 0 0 1
    outer loop
      vertex -0.20905685 25.989044 30
      vertex 0.20905685 22.010956 30
      vertex 0.20905685 25.989044 30
    endloop
  endfacet
  facet normal 0 0 1
    outer loop
      vertex -0.20905685 25.989044 30
      vertex -0.20905685 22.010956 30
      vertex 0.20905685 22.010956 30
    endloop
  endfacet
  facet normal 0 0 1
    outer loop
      vertex -0.6180334 25.902113 30
      vertex -0.20905685 22.010956 30
      vertex -0.20905685 25.989044 30
    endloop
  endfacet
  facet normal 0 0 1
    outer loop
      vertex -0.6180334 25.902113 30
      vertex -0.6180334 22.097885 30
      vertex -0.20905685 22.010956 30
    endloop
  endfacet
  facet normal 0 0 1
    outer loop
      vertex -1 25.73205 30
      vertex -0.6180334 22.097885 30
      vertex -0.6180334 25.902113 30
    endloop
  endfacet
  facet normal 0 0 1
    outer loop
      vertex -1 25.73205 30
      vertex -1 22.267948 30
      vertex -0.6180334 22.097885 30
    endloop
  endfacet
  facet normal 0 0 1
    outer loop
      vertex -1.3382607 25.48629 30
      vertex -1 22.267948 30
      vertex -1 25.73205 30
    endloop
  endfacet
  facet normal 0 0 1
    outer loop
      vertex -1.3382607 25.48629 30
      vertex -1.3382607 22.51371 30
      vertex -1 22.267948 30
    endloop
  endfacet
  facet normal 0 0 1
    outer loop
      vertex -1.6180334 25.175571 30
      vertex -1.3382607 22.51371 30
      vertex -1.3382607 25.48629 30
    endloop
  endfacet
  facet normal 0 0 1
    outer loop
      vertex -1.6180334 25.175571 30
      vertex -1.6180334 22.824429 30
      vertex -1.3382607 22.51371 30
    endloop
  endfacet
  facet normal 0 0 1
    outer loop
      vertex -1.8270903 24.813473 30
      vertex -1.6180334 22.824429 30
      vertex -1.6180334 25.175571 30
    endloop
  endfacet
  facet normal 0 0 1
    outer loop
      vertex -1.8270903 24.813473 30
      vertex -1.8270903 23.186527 30
      vertex -1.6180334 22.824429 30
    endloop
  endfacet
  facet normal 0 0 1
    outer loop
      vertex -1.956295 24.415823 30
      vertex -1.8270903 23.186527 30
      vertex -1.8270903 24.813473 30
    endloop
  endfacet
  facet normal 0 0 1
    outer loop
      vertex -1.956295 24.415823 30
      vertex -1.956295 23.584175 30
      vertex -1.8270903 23.186527 30
    endloop
  endfacet
  facet normal 0 0 1
    outer loop
      vertex -1.956295 23.584175 30
      vertex -1.956295 24.415823 30
      vertex -2 24 30
    endloop
  endfacet
  facet normal 1 0 0
    outer loop
      vertex 12 0 0
      vertex 12 24 -4
      vertex 12 24 0
    endloop
  endfacet
  facet normal 1 0 0
    outer loop
      vertex 12 24 -4
      vertex 12 0 0
      vertex 12 0 -4
    endloop
  endfacet
  facet normal 0 0 -1
    outer loop
      vertex -12 0 -4
      vertex 12 0 -4
      vertex 11.737771 -2.4949398 -4
    endloop
  endfacet
  facet normal 0 0 -1
    outer loop
      vertex 12 0 -4
      vertex -12 0 -4
      vertex 12 24 -4
    endloop
  endfacet
  facet normal 0 0 -1
    outer loop
      vertex -12 0 -4
      vertex 11.737771 -2.4949398 -4
      vertex 10.962545 -4.8808393 -4
    endloop
  endfacet
  facet normal 0 0 -1
    outer loop
      vertex -12 24 -4
      vertex 12 24 -4
      vertex -12 0 -4
    endloop
  endfacet
  facet normal 0 0 -1
    outer loop
      vertex -12 0 -4
      vertex 10.962545 -4.8808393 -4
      vertex 9.708203 -7.053423 -4
    endloop
  endfacet
  facet normal 0 0 -1
    outer loop
      vertex 12 24 -4
      vertex -12 24 -4
      vertex 11.737771 26.49494 -4
    endloop
  endfacet
  facet normal 0 0 -1
    outer loop
      vertex -12 0 -4
      vertex 9.708203 -7.053423 -4
      vertex 8.029567 -8.917737 -4
    endloop
  endfacet
  facet normal 0 0 -1
    outer loop
      vertex 11.737771 26.49494 -4
      vertex -12 24 -4
      vertex 10.962545 28.88084 -4
    endloop
  endfacet
  facet normal 0 0 -1
    outer loop
      vertex -12 0 -4
      vertex 8.029567 -8.917737 -4
      vertex 6 -10.392304 -4
    endloop
  endfacet
  facet normal 0 0 -1
    outer loop
      vertex 10.962545 28.88084 -4
      vertex -12 24 -4
      vertex 9.708203 31.053423 -4
    endloop
  endfacet
  facet normal 0 0 -1
    outer loop
      vertex -12 0 -4
      vertex 6 -10.392304 -4
      vertex 3.7082033 -11.412678 -4
    endloop
  endfacet
  facet normal 0 0 -1
    outer loop
      vertex 9.708203 31.053423 -4
      vertex -12 24 -4
      vertex 8.029567 32.917736 -4
    endloop
  endfacet
  facet normal 0 0 -1
    outer loop
      vertex -12 0 -4
      vertex 3.7082033 -11.412678 -4
      vertex 1.2543411 -11.934262 -4
    endloop
  endfacet
  facet normal 0 0 -1
    outer loop
      vertex 8.029567 32.917736 -4
      vertex -12 24 -4
      vertex 6 34.392303 -4
    endloop
  endfacet
  facet normal 0 0 -1
    outer loop
      vertex -12 0 -4
      vertex 1.2543411 -11.934262 -4
      vertex -1.2543411 -11.934262 -4
    endloop
  endfacet
  facet normal 0 0 -1
    outer loop
      vertex 6 34.392303 -4
      vertex -12 24 -4
      vertex 3.7082033 35.412678 -4
    endloop
  endfacet
  facet normal 0 0 -1
    outer loop
      vertex -12 0 -4
      vertex -1.2543411 -11.934262 -4
      vertex -3.7082033 -11.412678 -4
    endloop
  endfacet
  facet normal 0 0 -1
    outer loop
      vertex 3.7082033 35.412678 -4
      vertex -12 24 -4
      vertex 1.2543411 35.93426 -4
    endloop
  endfacet
  facet normal 0 0 -1
    outer loop
      vertex -12 0 -4
      vertex -3.7082033 -11.412678 -4
      vertex -6 -10.392304 -4
    endloop
  endfacet
  facet normal 0 0 -1
    outer loop
      vertex 1.2543411 35.93426 -4
      vertex -12 24 -4
      vertex -1.2543411 35.93426 -4
    endloop
  endfacet
  facet normal 0 0 -1
    outer loop
      vertex -12 0 -4
      vertex -6 -10.392304 -4
      vertex -8.029567 -8.917737 -4
    endloop
  endfacet
  facet normal 0 0 -1
    outer loop
      vertex -1.2543411 35.93426 -4
      vertex -12 24 -4
      vertex -3.7082033 35.412678 -4
    endloop
  endfacet
  facet normal 0 0 -1
    outer loop
      vertex -12 0 -4
      vertex -8.029567 -8.917737 -4
      vertex -9.708203 -7.053423 -4
    endloop
  endfacet
  facet normal 0 0 -1
    outer loop
      vertex -3.7082033 35.412678 -4
      vertex -12 24 -4
      vertex -6 34.392303 -4
    endloop
  endfacet
  facet normal 0 0 -1
    outer loop
      vertex -12 0 -4
      vertex -9.708203 -7.053423 -4
      vertex -10.962545 -4.8808393 -4
    endloop
  endfacet
  facet normal 0 0 -1
    outer loop
      vertex -6 34.392303 -4
      vertex -12 24 -4
      vertex -8.029567 32.917736 -4
    endloop
  endfacet
  facet normal 0 0 -1
    outer loop
      vertex -12 0 -4
      vertex -10.962545 -4.8808393 -4
      vertex -11.737771 -2.4949398 -4
    endloop
  endfacet
  facet normal 0 0 -1
    outer loop
      vertex -8.029567 32.917736 -4
      vertex -12 24 -4
      vertex -9.708203 31.053423 -4
    endloop
  endfacet
  facet normal 0 0 -1
    outer loop
      vertex -9.708203 31.053423 -4
      vertex -12 24 -4
      vertex -10.962545 28.88084 -4
    endloop
  endfacet
  facet normal 0 0 -1
    outer loop
      vertex -10.962545 28.88084 -4
      vertex -12 24 -4
      vertex -11.737771 26.49494 -4
    endloop
  endfacet
  facet normal -1 0 0
    outer loop
      vertex -12 0 -4
      vertex -12 24 0
      vertex -12 24 -4
    endloop
  endfacet
  facet normal -1 0 0
    outer loop
      vertex -12 24 0
      vertex -12 0 -4
      vertex -12 0 0
    endloop
  endfacet
  facet normal 0.99452186 -0.104528554 0
    outer loop
      vertex 11.737771 -2.4949398 0
      vertex 12 0 -4
      vertex 12 0 0
    endloop
  endfacet
  facet normal 0.99452186 -0.104528554 0
    outer loop
      vertex 12 0 -4
      vertex 11.737771 -2.4949398 0
      vertex 11.737771 -2.4949398 -4
    endloop
  endfacet
  facet normal 0 -1 0
    outer loop
      vertex -1.2543411 -11.934262 -4
      vertex 1.2543411 -11.934262 0
      vertex -1.2543411 -11.934262 0
    endloop
  endfacet
  facet normal 0 -1 0
    outer loop
      vertex 1.2543411 -11.934262 0
      vertex -1.2543411 -11.934262 -4
      vertex 1.2543411 -11.934262 -4
    endloop
  endfacet
  facet normal -0.20791169 -0.9781476 0
    outer loop
      vertex -3.7082033 -11.412678 -4
      vertex -1.2543411 -11.934262 0
      vertex -3.7082033 -11.412678 0
    endloop
  endfacet
  facet normal -0.20791169 -0.9781476 0
    outer loop
      vertex -1.2543411 -11.934262 0
      vertex -3.7082033 -11.412678 -4
      vertex -1.2543411 -11.934262 -4
    endloop
  endfacet
  facet normal 0.5877855 -0.8090168 0
    outer loop
      vertex 6 -10.392304 -4
      vertex 8.029567 -8.917737 0
      vertex 6 -10.392304 0
    endloop
  endfacet
  facet normal 0.5877855 -0.8090168 0
    outer loop
      vertex 8.029567 -8.917737 0
      vertex 6 -10.392304 -4
      vertex 8.029567 -8.917737 -4
    endloop
  endfacet
  facet normal -0.5877855 -0.8090168 0
    outer loop
      vertex -8.029567 -8.917737 -4
      vertex -6 -10.392304 0
      vertex -8.029567 -8.917737 0
    endloop
  endfacet
  facet normal -0.5877855 -0.8090168 0
    outer loop
      vertex -6 -10.392304 0
      vertex -8.029567 -8.917737 -4
      vertex -6 -10.392304 -4
    endloop
  endfacet
  facet normal 0.7431447 -0.66913074 0
    outer loop
      vertex 8.029567 -8.917737 0
      vertex 9.708203 -7.053423 -4
      vertex 9.708203 -7.053423 0
    endloop
  endfacet
  facet normal 0.7431447 -0.66913074 0
    outer loop
      vertex 9.708203 -7.053423 -4
      vertex 8.029567 -8.917737 0
      vertex 8.029567 -8.917737 -4
    endloop
  endfacet
  facet normal 0.40673655 -0.9135455 0
    outer loop
      vertex 3.7082033 -11.412678 -4
      vertex 6 -10.392304 0
      vertex 3.7082033 -11.412678 0
    endloop
  endfacet
  facet normal 0.40673655 -0.9135455 0
    outer loop
      vertex 6 -10.392304 0
      vertex 3.7082033 -11.412678 -4
      vertex 6 -10.392304 -4
    endloop
  endfacet
  facet normal -0.40673655 -0.9135455 0
    outer loop
      vertex -6 -10.392304 -4
      vertex -3.7082033 -11.412678 0
      vertex -6 -10.392304 0
    endloop
  endfacet
  facet normal -0.40673655 -0.9135455 0
    outer loop
      vertex -3.7082033 -11.412678 0
      vertex -6 -10.392304 -4
      vertex -3.7082033 -11.412678 -4
    endloop
  endfacet
  facet normal -0.99452186 -0.104528554 0
    outer loop
      vertex -11.737771 -2.4949398 -4
      vertex -12 0 0
      vertex -12 0 -4
    endloop
  endfacet
  facet normal -0.99452186 -0.104528554 0
    outer loop
      vertex -12 0 0
      vertex -11.737771 -2.4949398 -4
      vertex -11.737771 -2.4949398 0
    endloop
  endfacet
  facet normal 0.8660253 -0.5000001 0
    outer loop
      vertex 9.708203 -7.053423 0
      vertex 10.962545 -4.8808393 -4
      vertex 10.962545 -4.8808393 0
    endloop
  endfacet
  facet normal 0.8660253 -0.5000001 0
    outer loop
      vertex 10.962545 -4.8808393 -4
      vertex 9.708203 -7.053423 0
      vertex 9.708203 -7.053423 -4
    endloop
  endfacet
  facet normal 0.95105654 -0.30901694 0
    outer loop
      vertex 10.962545 -4.8808393 0
      vertex 11.737771 -2.4949398 -4
      vertex 11.737771 -2.4949398 0
    endloop
  endfacet
  facet normal 0.95105654 -0.30901694 0
    outer loop
      vertex 11.737771 -2.4949398 -4
      vertex 10.962545 -4.8808393 0
      vertex 10.962545 -4.8808393 -4
    endloop
  endfacet
  facet normal 0.20791169 -0.9781476 0
    outer loop
      vertex 1.2543411 -11.934262 -4
      vertex 3.7082033 -11.412678 0
      vertex 1.2543411 -11.934262 0
    endloop
  endfacet
  facet normal 0.20791169 -0.9781476 0
    outer loop
      vertex 3.7082033 -11.412678 0
      vertex 1.2543411 -11.934262 -4
      vertex 3.7082033 -11.412678 -4
    endloop
  endfacet
  facet normal -0.95105654 -0.30901694 0
    outer loop
      vertex -10.962545 -4.8808393 -4
      vertex -11.737771 -2.4949398 0
      vertex -11.737771 -2.4949398 -4
    endloop
  endfacet
  facet normal -0.95105654 -0.30901694 0
    outer loop
      vertex -11.737771 -2.4949398 0
      vertex -10.962545 -4.8808393 -4
      vertex -10.962545 -4.8808393 0
    endloop
  endfacet
  facet normal -0.8660253 -0.5000001 0
    outer loop
      vertex -9.708203 -7.053423 -4
      vertex -10.962545 -4.8808393 0
      vertex -10.962545 -4.8808393 -4
    endloop
  endfacet
  facet normal -0.8660253 -0.5000001 0
    outer loop
      vertex -10.962545 -4.8808393 0
      vertex -9.708203 -7.053423 -4
      vertex -9.708203 -7.053423 0
    endloop
  endfacet
  facet normal -0.7431447 -0.66913074 0
    outer loop
      vertex -8.029567 -8.917737 -4
      vertex -9.708203 -7.053423 0
      vertex -9.708203 -7.053423 -4
    endloop
  endfacet
  facet normal -0.7431447 -0.66913074 0
    outer loop
      vertex -9.708203 -7.053423 0
      vertex -8.029567 -8.917737 -4
      vertex -8.029567 -8.917737 0
    endloop
  endfacet
  facet normal 0.95105654 0.30901685 0
    outer loop
      vertex 11.737771 26.49494 0
      vertex 10.962545 28.88084 -4
      vertex 10.962545 28.88084 0
    endloop
  endfacet
  facet normal 0.95105654 0.30901685 0
    outer loop
      vertex 10.962545 28.88084 -4
      vertex 11.737771 26.49494 0
      vertex 11.737771 26.49494 -4
    endloop
  endfacet
  facet normal 0.99452186 0.104528554 0
    outer loop
      vertex 12 24 0
      vertex 11.737771 26.49494 -4
      vertex 11.737771 26.49494 0
    endloop
  endfacet
  facet normal 0.99452186 0.104528554 0
    outer loop
      vertex 11.737771 26.49494 -4
      vertex 12 24 0
      vertex 12 24 -4
    endloop
  endfacet
  facet normal 0.86602527 0.5000003 0
    outer loop
      vertex 10.962545 28.88084 0
      vertex 9.708203 31.053423 -4
      vertex 9.708203 31.053423 0
    endloop
  endfacet
  facet normal 0.86602527 0.5000003 0
    outer loop
      vertex 9.708203 31.053423 -4
      vertex 10.962545 28.88084 0
      vertex 10.962545 28.88084 -4
    endloop
  endfacet
  facet normal 0 1 0
    outer loop
      vertex 1.2543411 35.93426 -4
      vertex -1.2543411 35.93426 0
      vertex 1.2543411 35.93426 0
    endloop
  endfacet
  facet normal 0 1 0
    outer loop
      vertex -1.2543411 35.93426 0
      vertex 1.2543411 35.93426 -4
      vertex -1.2543411 35.93426 -4
    endloop
  endfacet
  facet normal -0.86602527 0.5000003 0
    outer loop
      vertex -10.962545 28.88084 -4
      vertex -9.708203 31.053423 0
      vertex -9.708203 31.053423 -4
    endloop
  endfacet
  facet normal -0.86602527 0.5000003 0
    outer loop
      vertex -9.708203 31.053423 0
      vertex -10.962545 28.88084 -4
      vertex -10.962545 28.88084 0
    endloop
  endfacet
  facet normal 0.20791133 0.9781477 0
    outer loop
      vertex 3.7082033 35.412678 -4
      vertex 1.2543411 35.93426 0
      vertex 3.7082033 35.412678 0
    endloop
  endfacet
  facet normal 0.20791133 0.9781477 0
    outer loop
      vertex 1.2543411 35.93426 0
      vertex 3.7082033 35.412678 -4
      vertex 1.2543411 35.93426 -4
    endloop
  endfacet
  facet normal -0.20791133 0.9781477 0
    outer loop
      vertex -1.2543411 35.93426 -4
      vertex -3.7082033 35.412678 0
      vertex -1.2543411 35.93426 0
    endloop
  endfacet
  facet normal -0.20791133 0.9781477 0
    outer loop
      vertex -3.7082033 35.412678 0
      vertex -1.2543411 35.93426 -4
      vertex -3.7082033 35.412678 -4
    endloop
  endfacet
  facet normal 0.7431445 0.6691309 0
    outer loop
      vertex 9.708203 31.053423 0
      vertex 8.029567 32.917736 -4
      vertex 8.029567 32.917736 0
    endloop
  endfacet
  facet normal 0.7431445 0.6691309 0
    outer loop
      vertex 8.029567 32.917736 -4
      vertex 9.708203 31.053423 0
      vertex 9.708203 31.053423 -4
    endloop
  endfacet
  facet normal 0.5877855 0.8090168 0
    outer loop
      vertex 8.029567 32.917736 -4
      vertex 6 34.392303 0
      vertex 8.029567 32.917736 0
    endloop
  endfacet
  facet normal 0.5877855 0.8090168 0
    outer loop
      vertex 6 34.392303 0
      vertex 8.029567 32.917736 -4
      vertex 6 34.392303 -4
    endloop
  endfacet
  facet normal 0.40673688 0.91354537 0
    outer loop
      vertex 6 34.392303 -4
      vertex 3.7082033 35.412678 0
      vertex 6 34.392303 0
    endloop
  endfacet
  facet normal 0.40673688 0.91354537 0
    outer loop
      vertex 3.7082033 35.412678 0
      vertex 6 34.392303 -4
      vertex 3.7082033 35.412678 -4
    endloop
  endfacet
  facet normal -0.40673688 0.91354537 0
    outer loop
      vertex -3.7082033 35.412678 -4
      vertex -6 34.392303 0
      vertex -3.7082033 35.412678 0
    endloop
  endfacet
  facet normal -0.40673688 0.91354537 0
    outer loop
      vertex -6 34.392303 0
      vertex -3.7082033 35.412678 -4
      vertex -6 34.392303 -4
    endloop
  endfacet
  facet normal -0.5877855 0.8090168 0
    outer loop
      vertex -6 34.392303 -4
      vertex -8.029567 32.917736 0
      vertex -6 34.392303 0
    endloop
  endfacet
  facet normal -0.5877855 0.8090168 0
    outer loop
      vertex -8.029567 32.917736 0
      vertex -6 34.392303 -4
      vertex -8.029567 32.917736 -4
    endloop
  endfacet
  facet normal -0.7431445 0.6691309 0
    outer loop
      vertex -9.708203 31.053423 -4
      vertex -8.029567 32.917736 0
      vertex -8.029567 32.917736 -4
    endloop
  endfacet
  facet normal -0.7431445 0.6691309 0
    outer loop
      vertex -8.029567 32.917736 0
      vertex -9.708203 31.053423 -4
      vertex -9.708203 31.053423 0
    endloop
  endfacet
  facet normal -0.99452186 0.104528554 0
    outer loop
      vertex -12 24 -4
      vertex -11.737771 26.49494 0
      vertex -11.737771 26.49494 -4
    endloop
  endfacet
  facet normal -0.99452186 0.104528554 0
    outer loop
      vertex -11.737771 26.49494 0
      vertex -12 24 -4
      vertex -12 24 0
    endloop
  endfacet
  facet normal -0.95105654 0.30901685 0
    outer loop
      vertex -11.737771 26.49494 -4
      vertex -10.962545 28.88084 0
      vertex -10.962545 28.88084 -4
    endloop
  endfacet
  facet normal -0.95105654 0.30901685 0
    outer loop
      vertex -10.962545 28.88084 0
      vertex -11.737771 26.49494 -4
      vertex -11.737771 26.49494 0
    endloop
  endfacet
endsolid OpenSCAD_Model
