solid OpenSCAD_Model
  facet normal 0 0 -1
    outer loop
      vertex 0 87.79 0
      vertex 4.5 97.29 0
      vertex 4.5 89.29 0
    endloop
  endfacet
  facet normal -0 0 -1
    outer loop
      vertex 4.5 97.29 0
      vertex 0 87.79 0
      vertex 0 98.79 0
    endloop
  endfacet
  facet normal 0 0 -1
    outer loop
      vertex 0 47.91 0
      vertex 4.5 57.41 0
      vertex 4.5 49.41 0
    endloop
  endfacet
  facet normal -0 0 -1
    outer loop
      vertex 4.5 57.41 0
      vertex 0 47.91 0
      vertex 0 58.91 0
    endloop
  endfacet
  facet normal 0 0 -1
    outer loop
      vertex 86.375 -9.15527e-06 0
      vertex 76.875 4.49999 0
      vertex 84.875 4.50001 0
    endloop
  endfacet
  facet normal 0 -0 -1
    outer loop
      vertex 76.875 4.49999 0
      vertex 86.375 -9.15527e-06 0
      vertex 75.375 -9.15527e-06 0
    endloop
  endfacet
  facet normal 0 0 -1
    outer loop
      vertex 111.35 -9.15527e-06 0
      vertex 101.85 4.49999 0
      vertex 109.85 4.50001 0
    endloop
  endfacet
  facet normal 0 -0 -1
    outer loop
      vertex 101.85 4.49999 0
      vertex 111.35 -9.15527e-06 0
      vertex 100.35 -9.15527e-06 0
    endloop
  endfacet
  facet normal 0 0 -1
    outer loop
      vertex 109.85 4.50001 0
      vertex 122.5 119.2 0
      vertex 122.5 4.50001 0
    endloop
  endfacet
  facet normal 0 0 -1
    outer loop
      vertex 101.85 4.49999 0
      vertex 122.5 119.2 0
      vertex 109.85 4.50001 0
    endloop
  endfacet
  facet normal 0 0 -1
    outer loop
      vertex 64.0662 20.3662 0
      vertex 122.5 119.2 0
      vertex 101.85 4.49999 0
    endloop
  endfacet
  facet normal 0 0 -1
    outer loop
      vertex 63.2882 21.0714 0
      vertex 122.5 119.2 0
      vertex 64.0662 20.3662 0
    endloop
  endfacet
  facet normal 0 0 -1
    outer loop
      vertex 62.4447 21.6969 0
      vertex 122.5 119.2 0
      vertex 63.2882 21.0714 0
    endloop
  endfacet
  facet normal 0 0 -1
    outer loop
      vertex 61.5441 22.2368 0
      vertex 122.5 119.2 0
      vertex 62.4447 21.6969 0
    endloop
  endfacet
  facet normal 0 0 -1
    outer loop
      vertex 60.5948 22.6857 0
      vertex 122.5 119.2 0
      vertex 61.5441 22.2368 0
    endloop
  endfacet
  facet normal 0 0 -1
    outer loop
      vertex 59.6061 23.0395 0
      vertex 122.5 119.2 0
      vertex 60.5948 22.6857 0
    endloop
  endfacet
  facet normal 0 0 -1
    outer loop
      vertex 122.5 119.2 0
      vertex 118.5 123.2 0
      vertex 122.481 119.592 0
    endloop
  endfacet
  facet normal 0 0 -1
    outer loop
      vertex 122.423 119.98 0
      vertex 118.5 123.2 0
      vertex 122.328 120.361 0
    endloop
  endfacet
  facet normal 0 0 -1
    outer loop
      vertex 122.328 120.361 0
      vertex 118.5 123.2 0
      vertex 122.196 120.731 0
    endloop
  endfacet
  facet normal 0 0 -1
    outer loop
      vertex 122.028 121.086 0
      vertex 118.5 123.2 0
      vertex 121.826 121.422 0
    endloop
  endfacet
  facet normal 0 0 -1
    outer loop
      vertex 121.592 121.738 0
      vertex 118.5 123.2 0
      vertex 121.328 122.028 0
    endloop
  endfacet
  facet normal 0 0 -1
    outer loop
      vertex 120.386 122.728 0
      vertex 118.5 123.2 0
      vertex 120.031 122.896 0
    endloop
  endfacet
  facet normal 0 0 -1
    outer loop
      vertex 120.031 122.896 0
      vertex 118.5 123.2 0
      vertex 119.661 123.028 0
    endloop
  endfacet
  facet normal 0 0 -1
    outer loop
      vertex 119.28 123.123 0
      vertex 118.5 123.2 0
      vertex 118.892 123.181 0
    endloop
  endfacet
  facet normal 0 0 -1
    outer loop
      vertex 119.661 123.028 0
      vertex 118.5 123.2 0
      vertex 119.28 123.123 0
    endloop
  endfacet
  facet normal 0 0 -1
    outer loop
      vertex 120.722 122.526 0
      vertex 118.5 123.2 0
      vertex 120.386 122.728 0
    endloop
  endfacet
  facet normal 0 0 -1
    outer loop
      vertex 65.3969 18.7447 0
      vertex 101.85 4.49999 0
      vertex 84.875 4.50001 0
    endloop
  endfacet
  facet normal 0 0 -1
    outer loop
      vertex 66.9946 14.8875 0
      vertex 84.875 4.50001 0
      vertex 76.875 4.49999 0
    endloop
  endfacet
  facet normal 0 0 -1
    outer loop
      vertex 67.2 12.8049 0
      vertex 76.875 4.49999 0
      vertex 67.2 4.50001 0
    endloop
  endfacet
  facet normal 0 0 -1
    outer loop
      vertex 67.1487 13.8488 0
      vertex 76.875 4.49999 0
      vertex 67.2 12.8049 0
    endloop
  endfacet
  facet normal 0 0 -1
    outer loop
      vertex 66.9946 14.8875 0
      vertex 76.875 4.49999 0
      vertex 67.1487 13.8488 0
    endloop
  endfacet
  facet normal 0 0 -1
    outer loop
      vertex 84.875 4.50001 0
      vertex 66.9946 14.8875 0
      vertex 66.7395 15.9061 0
    endloop
  endfacet
  facet normal 0 0 -1
    outer loop
      vertex 84.875 4.50001 0
      vertex 66.7395 15.9061 0
      vertex 66.3857 16.8948 0
    endloop
  endfacet
  facet normal 0 0 -1
    outer loop
      vertex 84.875 4.50001 0
      vertex 66.3857 16.8948 0
      vertex 65.9368 17.844 0
    endloop
  endfacet
  facet normal 0 0 -1
    outer loop
      vertex 84.875 4.50001 0
      vertex 65.9368 17.844 0
      vertex 65.3969 18.7447 0
    endloop
  endfacet
  facet normal 0 0 -1
    outer loop
      vertex 101.85 4.49999 0
      vertex 65.3969 18.7447 0
      vertex 64.7714 19.5882 0
    endloop
  endfacet
  facet normal 0 0 -1
    outer loop
      vertex 64.0662 20.3662 0
      vertex 101.85 4.49999 0
      vertex 64.7714 19.5882 0
    endloop
  endfacet
  facet normal 0 0 -1
    outer loop
      vertex 121.328 122.028 0
      vertex 118.5 123.2 0
      vertex 121.038 122.292 0
    endloop
  endfacet
  facet normal 0 0 -1
    outer loop
      vertex 121.038 122.292 0
      vertex 118.5 123.2 0
      vertex 120.722 122.526 0
    endloop
  endfacet
  facet normal 0 0 -1
    outer loop
      vertex 121.826 121.422 0
      vertex 118.5 123.2 0
      vertex 121.592 121.738 0
    endloop
  endfacet
  facet normal 0 0 -1
    outer loop
      vertex 122.196 120.731 0
      vertex 118.5 123.2 0
      vertex 122.028 121.086 0
    endloop
  endfacet
  facet normal 0 0 -1
    outer loop
      vertex 122.481 119.592 0
      vertex 118.5 123.2 0
      vertex 122.423 119.98 0
    endloop
  endfacet
  facet normal -0 0 -1
    outer loop
      vertex 122.5 119.2 0
      vertex 59.6061 23.0395 0
      vertex 118.5 123.2 0
    endloop
  endfacet
  facet normal 0 0 -1
    outer loop
      vertex 58.5875 23.2946 0
      vertex 118.5 123.2 0
      vertex 59.6061 23.0395 0
    endloop
  endfacet
  facet normal 0 0 -1
    outer loop
      vertex 57.5488 23.4487 0
      vertex 118.5 123.2 0
      vertex 58.5875 23.2946 0
    endloop
  endfacet
  facet normal 0 0 -1
    outer loop
      vertex 4.5 89.29 0
      vertex 57.5488 23.4487 0
      vertex 56.5049 23.5 0
    endloop
  endfacet
  facet normal 0 0 -1
    outer loop
      vertex 4.5 49.41 0
      vertex 56.5049 23.5 0
      vertex 4.5 23.5 0
    endloop
  endfacet
  facet normal 0 0 -1
    outer loop
      vertex 4.5 57.41 0
      vertex 56.5049 23.5 0
      vertex 4.5 49.41 0
    endloop
  endfacet
  facet normal 0 0 -1
    outer loop
      vertex 4.5 89.29 0
      vertex 56.5049 23.5 0
      vertex 4.5 57.41 0
    endloop
  endfacet
  facet normal 0 0 -1
    outer loop
      vertex 57.5488 23.4487 0
      vertex 4.5 89.29 0
      vertex 118.5 123.2 0
    endloop
  endfacet
  facet normal 0 0 -1
    outer loop
      vertex 4.5 97.29 0
      vertex 118.5 123.2 0
      vertex 4.5 89.29 0
    endloop
  endfacet
  facet normal -0 0 -1
    outer loop
      vertex 118.5 123.2 0
      vertex 4.5 97.29 0
      vertex 4.5 123.2 0
    endloop
  endfacet
  facet normal 0 0 1
    outer loop
      vertex 0 58.91 12.5
      vertex 4.5 49.41 12.5
      vertex 4.5 57.41 12.5
    endloop
  endfacet
  facet normal 0 0 1
    outer loop
      vertex 4.5 49.41 12.5
      vertex 0 58.91 12.5
      vertex 0 47.91 12.5
    endloop
  endfacet
  facet normal 0 0 1
    outer loop
      vertex 0 98.79 12.5
      vertex 4.5 89.29 12.5
      vertex 4.5 97.29 12.5
    endloop
  endfacet
  facet normal 0 0 1
    outer loop
      vertex 4.5 89.29 12.5
      vertex 0 98.79 12.5
      vertex 0 87.79 12.5
    endloop
  endfacet
  facet normal -0 0 1
    outer loop
      vertex 4.5 123.2 12.5
      vertex 102.5 120.2 12.5
      vertex 102.5 123.2 12.5
    endloop
  endfacet
  facet normal 0 0 1
    outer loop
      vertex 102.5 120.2 12.5
      vertex 64.0662 20.3662 12.5
      vertex 101.85 4.49999 12.5
    endloop
  endfacet
  facet normal -0 -0 1
    outer loop
      vertex 65.3969 18.7447 12.5
      vertex 101.85 4.49999 12.5
      vertex 64.7714 19.5882 12.5
    endloop
  endfacet
  facet normal -0 -0 1
    outer loop
      vertex 65.9368 17.844 12.5
      vertex 84.875 4.50001 12.5
      vertex 65.3969 18.7447 12.5
    endloop
  endfacet
  facet normal 0 0 1
    outer loop
      vertex 76.875 4.49999 12.5
      vertex 67.1487 13.8488 12.5
      vertex 67.2 12.8049 12.5
    endloop
  endfacet
  facet normal 0 0 1
    outer loop
      vertex 76.875 4.49999 12.5
      vertex 66.9946 14.8875 12.5
      vertex 67.1487 13.8488 12.5
    endloop
  endfacet
  facet normal 0 0 1
    outer loop
      vertex 84.875 4.50001 12.5
      vertex 66.9946 14.8875 12.5
      vertex 76.875 4.49999 12.5
    endloop
  endfacet
  facet normal -0 -0 1
    outer loop
      vertex 66.9946 14.8875 12.5
      vertex 84.875 4.50001 12.5
      vertex 66.7395 15.9061 12.5
    endloop
  endfacet
  facet normal -0 -0 1
    outer loop
      vertex 66.7395 15.9061 12.5
      vertex 84.875 4.50001 12.5
      vertex 66.3857 16.8948 12.5
    endloop
  endfacet
  facet normal -0 -0 1
    outer loop
      vertex 66.3857 16.8948 12.5
      vertex 84.875 4.50001 12.5
      vertex 65.9368 17.844 12.5
    endloop
  endfacet
  facet normal 0 0 1
    outer loop
      vertex 101.85 4.49999 12.5
      vertex 65.3969 18.7447 12.5
      vertex 84.875 4.50001 12.5
    endloop
  endfacet
  facet normal 0 0 1
    outer loop
      vertex 101.85 4.49999 12.5
      vertex 64.0662 20.3662 12.5
      vertex 64.7714 19.5882 12.5
    endloop
  endfacet
  facet normal 0 0 1
    outer loop
      vertex 102.5 120.2 12.5
      vertex 63.2882 21.0714 12.5
      vertex 64.0662 20.3662 12.5
    endloop
  endfacet
  facet normal 0 0 1
    outer loop
      vertex 102.5 120.2 12.5
      vertex 62.4447 21.6969 12.5
      vertex 63.2882 21.0714 12.5
    endloop
  endfacet
  facet normal 0 0 1
    outer loop
      vertex 102.5 120.2 12.5
      vertex 61.5441 22.2368 12.5
      vertex 62.4447 21.6969 12.5
    endloop
  endfacet
  facet normal 0 0 1
    outer loop
      vertex 102.5 120.2 12.5
      vertex 60.5948 22.6857 12.5
      vertex 61.5441 22.2368 12.5
    endloop
  endfacet
  facet normal 0 0 1
    outer loop
      vertex 102.5 120.2 12.5
      vertex 59.6061 23.0395 12.5
      vertex 60.5948 22.6857 12.5
    endloop
  endfacet
  facet normal 0 0 1
    outer loop
      vertex 102.5 120.2 12.5
      vertex 58.5875 23.2946 12.5
      vertex 59.6061 23.0395 12.5
    endloop
  endfacet
  facet normal 0 0 1
    outer loop
      vertex 102.5 120.2 12.5
      vertex 57.5488 23.4487 12.5
      vertex 58.5875 23.2946 12.5
    endloop
  endfacet
  facet normal 0 0 1
    outer loop
      vertex 102.5 120.2 12.5
      vertex 4.5 89.29 12.5
      vertex 57.5488 23.4487 12.5
    endloop
  endfacet
  facet normal 0 0 1
    outer loop
      vertex 102.5 120.2 12.5
      vertex 4.5 123.2 12.5
      vertex 4.5 97.29 12.5
    endloop
  endfacet
  facet normal 0 0 1
    outer loop
      vertex 102.5 120.2 12.5
      vertex 4.5 97.29 12.5
      vertex 4.5 89.29 12.5
    endloop
  endfacet
  facet normal 0 0 1
    outer loop
      vertex 57.5488 23.4487 12.5
      vertex 4.5 89.29 12.5
      vertex 56.5049 23.5 12.5
    endloop
  endfacet
  facet normal -0 0 1
    outer loop
      vertex 4.5 57.41 12.5
      vertex 56.5049 23.5 12.5
      vertex 4.5 89.29 12.5
    endloop
  endfacet
  facet normal -0 0 1
    outer loop
      vertex 4.5 49.41 12.5
      vertex 56.5049 23.5 12.5
      vertex 4.5 57.41 12.5
    endloop
  endfacet
  facet normal 0 0 1
    outer loop
      vertex 56.5049 23.5 12.5
      vertex 4.5 49.41 12.5
      vertex 4.5 23.5 12.5
    endloop
  endfacet
  facet normal 0 0 1
    outer loop
      vertex 119.5 120.2 12.5
      vertex 109.85 4.50001 12.5
      vertex 119.5 4.50001 12.5
    endloop
  endfacet
  facet normal 0 -0 1
    outer loop
      vertex 109.85 4.50001 12.5
      vertex 119.5 120.2 12.5
      vertex 102.5 120.2 12.5
    endloop
  endfacet
  facet normal 0 0 1
    outer loop
      vertex 101.85 4.49999 12.5
      vertex 109.85 4.50001 12.5
      vertex 102.5 120.2 12.5
    endloop
  endfacet
  facet normal -0 0 1
    outer loop
      vertex 101.85 4.49999 12.5
      vertex 111.35 -9.15527e-06 12.5
      vertex 109.85 4.50001 12.5
    endloop
  endfacet
  facet normal 0 0 1
    outer loop
      vertex 111.35 -9.15527e-06 12.5
      vertex 101.85 4.49999 12.5
      vertex 100.35 -9.15527e-06 12.5
    endloop
  endfacet
  facet normal -0 0 1
    outer loop
      vertex 76.875 4.49999 12.5
      vertex 86.375 -9.15527e-06 12.5
      vertex 84.875 4.50001 12.5
    endloop
  endfacet
  facet normal 0 0 1
    outer loop
      vertex 86.375 -9.15527e-06 12.5
      vertex 76.875 4.49999 12.5
      vertex 75.375 -9.15527e-06 12.5
    endloop
  endfacet
  facet normal 0 0 1
    outer loop
      vertex 76.875 4.49999 12.5
      vertex 67.2 12.8049 12.5
      vertex 67.2 4.50001 12.5
    endloop
  endfacet
  facet normal 0 -1 0
    outer loop
      vertex 4.5 23.5 0
      vertex 56.5049 23.5 12.5
      vertex 4.5 23.5 12.5
    endloop
  endfacet
  facet normal 0 -1 -0
    outer loop
      vertex 56.5049 23.5 12.5
      vertex 4.5 23.5 0
      vertex 56.5049 23.5 0
    endloop
  endfacet
  facet normal -0.0490834 -0.998795 0
    outer loop
      vertex 56.5049 23.5 0
      vertex 57.5488 23.4487 12.5
      vertex 56.5049 23.5 12.5
    endloop
  endfacet
  facet normal -0.0490834 -0.998795 -0
    outer loop
      vertex 57.5488 23.4487 12.5
      vertex 56.5049 23.5 0
      vertex 57.5488 23.4487 0
    endloop
  endfacet
  facet normal -0.146752 -0.989173 0
    outer loop
      vertex 57.5488 23.4487 0
      vertex 58.5875 23.2946 12.5
      vertex 57.5488 23.4487 12.5
    endloop
  endfacet
  facet normal -0.146752 -0.989173 -0
    outer loop
      vertex 58.5875 23.2946 12.5
      vertex 57.5488 23.4487 0
      vertex 58.5875 23.2946 0
    endloop
  endfacet
  facet normal -0.242939 -0.970042 0
    outer loop
      vertex 58.5875 23.2946 0
      vertex 59.6061 23.0395 12.5
      vertex 58.5875 23.2946 12.5
    endloop
  endfacet
  facet normal -0.242939 -0.970042 -0
    outer loop
      vertex 59.6061 23.0395 12.5
      vertex 58.5875 23.2946 0
      vertex 59.6061 23.0395 0
    endloop
  endfacet
  facet normal -0.336921 -0.941533 0
    outer loop
      vertex 59.6061 23.0395 0
      vertex 60.5948 22.6857 12.5
      vertex 59.6061 23.0395 12.5
    endloop
  endfacet
  facet normal -0.336921 -0.941533 -0
    outer loop
      vertex 60.5948 22.6857 12.5
      vertex 59.6061 23.0395 0
      vertex 60.5948 22.6857 0
    endloop
  endfacet
  facet normal -0.427489 -0.904021 0
    outer loop
      vertex 60.5948 22.6857 0
      vertex 61.5441 22.2368 12.5
      vertex 60.5948 22.6857 12.5
    endloop
  endfacet
  facet normal -0.427489 -0.904021 -0
    outer loop
      vertex 61.5441 22.2368 12.5
      vertex 60.5948 22.6857 0
      vertex 61.5441 22.2368 0
    endloop
  endfacet
  facet normal -0.514174 -0.857686 0
    outer loop
      vertex 61.5441 22.2368 0
      vertex 62.4447 21.6969 12.5
      vertex 61.5441 22.2368 12.5
    endloop
  endfacet
  facet normal -0.514174 -0.857686 -0
    outer loop
      vertex 62.4447 21.6969 12.5
      vertex 61.5441 22.2368 0
      vertex 62.4447 21.6969 0
    endloop
  endfacet
  facet normal -0.595649 -0.803245 0
    outer loop
      vertex 62.4447 21.6969 0
      vertex 63.2882 21.0714 12.5
      vertex 62.4447 21.6969 12.5
    endloop
  endfacet
  facet normal -0.595649 -0.803245 -0
    outer loop
      vertex 63.2882 21.0714 12.5
      vertex 62.4447 21.6969 0
      vertex 63.2882 21.0714 0
    endloop
  endfacet
  facet normal -0.671591 -0.740922 0
    outer loop
      vertex 63.2882 21.0714 0
      vertex 64.0662 20.3662 12.5
      vertex 63.2882 21.0714 12.5
    endloop
  endfacet
  facet normal -0.671591 -0.740922 -0
    outer loop
      vertex 64.0662 20.3662 12.5
      vertex 63.2882 21.0714 0
      vertex 64.0662 20.3662 0
    endloop
  endfacet
  facet normal -0.740922 -0.671591 2.77807e-18
    outer loop
      vertex 64.7714 19.5882 0
      vertex 64.0662 20.3662 12.5
      vertex 64.0662 20.3662 0
    endloop
  endfacet
  facet normal -0.740922 -0.671591 2.77807e-18
    outer loop
      vertex 64.0662 20.3662 12.5
      vertex 64.7714 19.5882 0
      vertex 64.7714 19.5882 12.5
    endloop
  endfacet
  facet normal -0.803245 -0.595649 -1.24013e-18
    outer loop
      vertex 65.3969 18.7447 0
      vertex 64.7714 19.5882 12.5
      vertex 64.7714 19.5882 0
    endloop
  endfacet
  facet normal -0.803245 -0.595649 -1.24013e-18
    outer loop
      vertex 64.7714 19.5882 12.5
      vertex 65.3969 18.7447 0
      vertex 65.3969 18.7447 12.5
    endloop
  endfacet
  facet normal -0.857711 -0.514132 7.2591e-19
    outer loop
      vertex 65.9368 17.844 0
      vertex 65.3969 18.7447 12.5
      vertex 65.3969 18.7447 0
    endloop
  endfacet
  facet normal -0.857711 -0.514132 7.2591e-19
    outer loop
      vertex 65.3969 18.7447 12.5
      vertex 65.9368 17.844 0
      vertex 65.9368 17.844 12.5
    endloop
  endfacet
  facet normal -0.904003 -0.427525 6.89508e-19
    outer loop
      vertex 66.3857 16.8948 0
      vertex 65.9368 17.844 12.5
      vertex 65.9368 17.844 0
    endloop
  endfacet
  facet normal -0.904003 -0.427525 6.89508e-19
    outer loop
      vertex 65.9368 17.844 12.5
      vertex 66.3857 16.8948 0
      vertex 66.3857 16.8948 12.5
    endloop
  endfacet
  facet normal -0.941533 -0.336921 -1.02813e-18
    outer loop
      vertex 66.7395 15.9061 0
      vertex 66.3857 16.8948 12.5
      vertex 66.3857 16.8948 0
    endloop
  endfacet
  facet normal -0.941533 -0.336921 -1.02813e-18
    outer loop
      vertex 66.3857 16.8948 12.5
      vertex 66.7395 15.9061 0
      vertex 66.7395 15.9061 12.5
    endloop
  endfacet
  facet normal -0.970042 -0.242939 -6.21681e-19
    outer loop
      vertex 66.9946 14.8875 0
      vertex 66.7395 15.9061 12.5
      vertex 66.7395 15.9061 0
    endloop
  endfacet
  facet normal -0.970042 -0.242939 -6.21681e-19
    outer loop
      vertex 66.7395 15.9061 12.5
      vertex 66.9946 14.8875 0
      vertex 66.9946 14.8875 12.5
    endloop
  endfacet
  facet normal -0.989173 -0.146752 4.95323e-19
    outer loop
      vertex 67.1487 13.8488 0
      vertex 66.9946 14.8875 12.5
      vertex 66.9946 14.8875 0
    endloop
  endfacet
  facet normal -0.989173 -0.146752 4.95323e-19
    outer loop
      vertex 66.9946 14.8875 12.5
      vertex 67.1487 13.8488 0
      vertex 67.1487 13.8488 12.5
    endloop
  endfacet
  facet normal -0.998795 -0.0490834 -1.89052e-19
    outer loop
      vertex 67.2 12.8049 0
      vertex 67.1487 13.8488 12.5
      vertex 67.1487 13.8488 0
    endloop
  endfacet
  facet normal -0.998795 -0.0490834 -1.89052e-19
    outer loop
      vertex 67.1487 13.8488 12.5
      vertex 67.2 12.8049 0
      vertex 67.2 12.8049 12.5
    endloop
  endfacet
  facet normal -1 0 0
    outer loop
      vertex 67.2 4.50001 0
      vertex 67.2 12.8049 12.5
      vertex 67.2 12.8049 0
    endloop
  endfacet
  facet normal -1 -0 0
    outer loop
      vertex 67.2 12.8049 12.5
      vertex 67.2 4.50001 0
      vertex 67.2 4.50001 12.5
    endloop
  endfacet
  facet normal -2.06718e-06 -1 0
    outer loop
      vertex 67.2 4.50001 0
      vertex 76.875 4.49999 12.5
      vertex 67.2 4.50001 12.5
    endloop
  endfacet
  facet normal -2.06718e-06 -1 -0
    outer loop
      vertex 76.875 4.49999 12.5
      vertex 67.2 4.50001 0
      vertex 76.875 4.49999 0
    endloop
  endfacet
  facet normal -0.948683 0.316228 0
    outer loop
      vertex 75.375 -9.15527e-06 0
      vertex 76.875 4.49999 12.5
      vertex 76.875 4.49999 0
    endloop
  endfacet
  facet normal -0.948683 0.316228 0
    outer loop
      vertex 76.875 4.49999 12.5
      vertex 75.375 -9.15527e-06 0
      vertex 75.375 -9.15527e-06 12.5
    endloop
  endfacet
  facet normal 0 -1 0
    outer loop
      vertex 75.375 -9.15527e-06 0
      vertex 86.375 -9.15527e-06 12.5
      vertex 75.375 -9.15527e-06 12.5
    endloop
  endfacet
  facet normal 0 -1 -0
    outer loop
      vertex 86.375 -9.15527e-06 12.5
      vertex 75.375 -9.15527e-06 0
      vertex 86.375 -9.15527e-06 0
    endloop
  endfacet
  facet normal 0.948684 0.316227 0
    outer loop
      vertex 86.375 -9.15527e-06 12.5
      vertex 84.875 4.50001 0
      vertex 84.875 4.50001 12.5
    endloop
  endfacet
  facet normal 0.948684 0.316227 0
    outer loop
      vertex 84.875 4.50001 0
      vertex 86.375 -9.15527e-06 12.5
      vertex 86.375 -9.15527e-06 0
    endloop
  endfacet
  facet normal -1.1782e-06 -1 0
    outer loop
      vertex 84.875 4.50001 0
      vertex 101.85 4.49999 12.5
      vertex 84.875 4.50001 12.5
    endloop
  endfacet
  facet normal -1.1782e-06 -1 -0
    outer loop
      vertex 101.85 4.49999 12.5
      vertex 84.875 4.50001 0
      vertex 101.85 4.49999 0
    endloop
  endfacet
  facet normal -0.948683 0.316228 0
    outer loop
      vertex 100.35 -9.15527e-06 0
      vertex 101.85 4.49999 12.5
      vertex 101.85 4.49999 0
    endloop
  endfacet
  facet normal -0.948683 0.316228 0
    outer loop
      vertex 101.85 4.49999 12.5
      vertex 100.35 -9.15527e-06 0
      vertex 100.35 -9.15527e-06 12.5
    endloop
  endfacet
  facet normal 0 -1 0
    outer loop
      vertex 100.35 -9.15527e-06 0
      vertex 111.35 -9.15527e-06 12.5
      vertex 100.35 -9.15527e-06 12.5
    endloop
  endfacet
  facet normal 0 -1 -0
    outer loop
      vertex 111.35 -9.15527e-06 12.5
      vertex 100.35 -9.15527e-06 0
      vertex 111.35 -9.15527e-06 0
    endloop
  endfacet
  facet normal 0.948684 0.316227 0
    outer loop
      vertex 111.35 -9.15527e-06 12.5
      vertex 109.85 4.50001 0
      vertex 109.85 4.50001 12.5
    endloop
  endfacet
  facet normal 0.948684 0.316227 0
    outer loop
      vertex 109.85 4.50001 0
      vertex 111.35 -9.15527e-06 12.5
      vertex 111.35 -9.15527e-06 0
    endloop
  endfacet
  facet normal 0 -1 0
    outer loop
      vertex 109.85 4.50001 12.5
      vertex 109.85 4.50001 0
      vertex 119.5 4.50001 12.5
    endloop
  endfacet
  facet normal 0 -1 0
    outer loop
      vertex 119.5 4.50001 12.5
      vertex 122.5 4.50001 15
      vertex 119.5 4.50001 15
    endloop
  endfacet
  facet normal 0 -1 0
    outer loop
      vertex 122.5 4.50001 0
      vertex 119.5 4.50001 12.5
      vertex 109.85 4.50001 0
    endloop
  endfacet
  facet normal 0 -1 0
    outer loop
      vertex 119.5 4.50001 12.5
      vertex 122.5 4.50001 0
      vertex 122.5 4.50001 15
    endloop
  endfacet
  facet normal 1 -0 0
    outer loop
      vertex 122.5 4.50001 15
      vertex 122.5 119.2 0
      vertex 122.5 119.2 15
    endloop
  endfacet
  facet normal 1 0 0
    outer loop
      vertex 122.5 119.2 0
      vertex 122.5 4.50001 15
      vertex 122.5 4.50001 0
    endloop
  endfacet
  facet normal 0.998827 0.0484126 1.84537e-20
    outer loop
      vertex 122.5 119.2 15
      vertex 122.481 119.592 0
      vertex 122.481 119.592 15
    endloop
  endfacet
  facet normal 0.998827 0.0484126 1.84537e-20
    outer loop
      vertex 122.481 119.592 0
      vertex 122.5 119.2 15
      vertex 122.5 119.2 0
    endloop
  endfacet
  facet normal 0.989011 0.147842 1.07878e-19
    outer loop
      vertex 122.481 119.592 15
      vertex 122.423 119.98 0
      vertex 122.423 119.98 15
    endloop
  endfacet
  facet normal 0.989011 0.147842 1.07878e-19
    outer loop
      vertex 122.423 119.98 0
      vertex 122.481 119.592 15
      vertex 122.481 119.592 0
    endloop
  endfacet
  facet normal 0.970292 0.241936 2.71431e-20
    outer loop
      vertex 122.423 119.98 15
      vertex 122.328 120.361 0
      vertex 122.328 120.361 15
    endloop
  endfacet
  facet normal 0.970292 0.241936 2.71431e-20
    outer loop
      vertex 122.328 120.361 0
      vertex 122.423 119.98 15
      vertex 122.423 119.98 0
    endloop
  endfacet
  facet normal 0.941857 0.336014 3.63253e-19
    outer loop
      vertex 122.328 120.361 15
      vertex 122.196 120.731 0
      vertex 122.196 120.731 15
    endloop
  endfacet
  facet normal 0.941857 0.336014 3.63253e-19
    outer loop
      vertex 122.196 120.731 0
      vertex 122.328 120.361 15
      vertex 122.328 120.361 0
    endloop
  endfacet
  facet normal 0.903893 0.427758 -2.56676e-19
    outer loop
      vertex 122.196 120.731 15
      vertex 122.028 121.086 0
      vertex 122.028 121.086 15
    endloop
  endfacet
  facet normal 0.903893 0.427758 -2.56676e-19
    outer loop
      vertex 122.028 121.086 0
      vertex 122.196 120.731 15
      vertex 122.196 120.731 0
    endloop
  endfacet
  facet normal 0.857042 0.515246 -9.05745e-19
    outer loop
      vertex 122.028 121.086 15
      vertex 121.826 121.422 0
      vertex 121.826 121.422 15
    endloop
  endfacet
  facet normal 0.857042 0.515246 -9.05745e-19
    outer loop
      vertex 121.826 121.422 0
      vertex 122.028 121.086 15
      vertex 122.028 121.086 0
    endloop
  endfacet
  facet normal 0.803647 0.595106 4.60194e-19
    outer loop
      vertex 121.826 121.422 15
      vertex 121.592 121.738 0
      vertex 121.592 121.738 15
    endloop
  endfacet
  facet normal 0.803647 0.595106 4.60194e-19
    outer loop
      vertex 121.592 121.738 0
      vertex 121.826 121.422 15
      vertex 121.826 121.422 0
    endloop
  endfacet
  facet normal 0.739478 0.67318 4.06152e-19
    outer loop
      vertex 121.592 121.738 15
      vertex 121.328 122.028 0
      vertex 121.328 122.028 15
    endloop
  endfacet
  facet normal 0.739478 0.67318 4.06152e-19
    outer loop
      vertex 121.328 122.028 0
      vertex 121.592 121.738 15
      vertex 121.592 121.738 0
    endloop
  endfacet
  facet normal 0.67318 0.739478 -0
    outer loop
      vertex 121.328 122.028 0
      vertex 121.038 122.292 15
      vertex 121.328 122.028 15
    endloop
  endfacet
  facet normal 0.67318 0.739478 0
    outer loop
      vertex 121.038 122.292 15
      vertex 121.328 122.028 0
      vertex 121.038 122.292 0
    endloop
  endfacet
  facet normal 0.595106 0.803647 -0
    outer loop
      vertex 121.038 122.292 0
      vertex 120.722 122.526 15
      vertex 121.038 122.292 15
    endloop
  endfacet
  facet normal 0.595106 0.803647 0
    outer loop
      vertex 120.722 122.526 15
      vertex 121.038 122.292 0
      vertex 120.722 122.526 0
    endloop
  endfacet
  facet normal 0.515246 0.857042 -0
    outer loop
      vertex 120.722 122.526 0
      vertex 120.386 122.728 15
      vertex 120.722 122.526 15
    endloop
  endfacet
  facet normal 0.515246 0.857042 0
    outer loop
      vertex 120.386 122.728 15
      vertex 120.722 122.526 0
      vertex 120.386 122.728 0
    endloop
  endfacet
  facet normal 0.427758 0.903893 -0
    outer loop
      vertex 120.386 122.728 0
      vertex 120.031 122.896 15
      vertex 120.386 122.728 15
    endloop
  endfacet
  facet normal 0.427758 0.903893 0
    outer loop
      vertex 120.031 122.896 15
      vertex 120.386 122.728 0
      vertex 120.031 122.896 0
    endloop
  endfacet
  facet normal 0.336014 0.941857 -0
    outer loop
      vertex 120.031 122.896 0
      vertex 119.661 123.028 15
      vertex 120.031 122.896 15
    endloop
  endfacet
  facet normal 0.336014 0.941857 0
    outer loop
      vertex 119.661 123.028 15
      vertex 120.031 122.896 0
      vertex 119.661 123.028 0
    endloop
  endfacet
  facet normal 0.241936 0.970292 -0
    outer loop
      vertex 119.661 123.028 0
      vertex 119.28 123.123 15
      vertex 119.661 123.028 15
    endloop
  endfacet
  facet normal 0.241936 0.970292 0
    outer loop
      vertex 119.28 123.123 15
      vertex 119.661 123.028 0
      vertex 119.28 123.123 0
    endloop
  endfacet
  facet normal 0.147842 0.989011 -0
    outer loop
      vertex 119.28 123.123 0
      vertex 118.892 123.181 15
      vertex 119.28 123.123 15
    endloop
  endfacet
  facet normal 0.147842 0.989011 0
    outer loop
      vertex 118.892 123.181 15
      vertex 119.28 123.123 0
      vertex 118.892 123.181 0
    endloop
  endfacet
  facet normal 0.0484126 0.998827 -0
    outer loop
      vertex 118.892 123.181 0
      vertex 118.5 123.2 15
      vertex 118.892 123.181 15
    endloop
  endfacet
  facet normal 0.0484126 0.998827 0
    outer loop
      vertex 118.5 123.2 15
      vertex 118.892 123.181 0
      vertex 118.5 123.2 0
    endloop
  endfacet
  facet normal 0 1 0
    outer loop
      vertex 118.5 123.2 15
      vertex 102.5 123.2 12.5
      vertex 102.5 123.2 15
    endloop
  endfacet
  facet normal 0 1 -0
    outer loop
      vertex 118.5 123.2 0
      vertex 102.5 123.2 12.5
      vertex 118.5 123.2 15
    endloop
  endfacet
  facet normal 0 1 0
    outer loop
      vertex 4.5 123.2 0
      vertex 102.5 123.2 12.5
      vertex 118.5 123.2 0
    endloop
  endfacet
  facet normal 0 1 0
    outer loop
      vertex 102.5 123.2 12.5
      vertex 4.5 123.2 0
      vertex 4.5 123.2 12.5
    endloop
  endfacet
  facet normal 0 0 1
    outer loop
      vertex 119.28 123.123 15
      vertex 119.5 120.2 15
      vertex 119.661 123.028 15
    endloop
  endfacet
  facet normal 0 0 1
    outer loop
      vertex 118.892 123.181 15
      vertex 119.5 120.2 15
      vertex 119.28 123.123 15
    endloop
  endfacet
  facet normal 0 0 1
    outer loop
      vertex 118.5 123.2 15
      vertex 119.5 120.2 15
      vertex 118.892 123.181 15
    endloop
  endfacet
  facet normal 0 0 1
    outer loop
      vertex 102.5 120.2 15
      vertex 118.5 123.2 15
      vertex 102.5 123.2 15
    endloop
  endfacet
  facet normal 0 0 1
    outer loop
      vertex 118.5 123.2 15
      vertex 102.5 120.2 15
      vertex 119.5 120.2 15
    endloop
  endfacet
  facet normal 0 0 1
    outer loop
      vertex 119.5 120.2 15
      vertex 122.5 119.2 15
      vertex 122.481 119.592 15
    endloop
  endfacet
  facet normal 0 0 1
    outer loop
      vertex 119.5 120.2 15
      vertex 122.481 119.592 15
      vertex 122.423 119.98 15
    endloop
  endfacet
  facet normal -0 0 1
    outer loop
      vertex 119.5 120.2 15
      vertex 122.423 119.98 15
      vertex 122.328 120.361 15
    endloop
  endfacet
  facet normal 0 0 1
    outer loop
      vertex 119.5 120.2 15
      vertex 122.328 120.361 15
      vertex 122.196 120.731 15
    endloop
  endfacet
  facet normal 0 0 1
    outer loop
      vertex 119.5 120.2 15
      vertex 122.196 120.731 15
      vertex 122.028 121.086 15
    endloop
  endfacet
  facet normal 0 0 1
    outer loop
      vertex 119.5 120.2 15
      vertex 122.028 121.086 15
      vertex 121.826 121.422 15
    endloop
  endfacet
  facet normal 0 0 1
    outer loop
      vertex 119.5 120.2 15
      vertex 121.826 121.422 15
      vertex 121.592 121.738 15
    endloop
  endfacet
  facet normal 0 0 1
    outer loop
      vertex 119.5 120.2 15
      vertex 121.592 121.738 15
      vertex 121.328 122.028 15
    endloop
  endfacet
  facet normal 0 0 1
    outer loop
      vertex 119.5 120.2 15
      vertex 121.328 122.028 15
      vertex 121.038 122.292 15
    endloop
  endfacet
  facet normal 0 0 1
    outer loop
      vertex 119.5 120.2 15
      vertex 121.038 122.292 15
      vertex 120.722 122.526 15
    endloop
  endfacet
  facet normal 0 0 1
    outer loop
      vertex 119.5 120.2 15
      vertex 120.722 122.526 15
      vertex 120.386 122.728 15
    endloop
  endfacet
  facet normal 0 0 1
    outer loop
      vertex 119.5 120.2 15
      vertex 120.386 122.728 15
      vertex 120.031 122.896 15
    endloop
  endfacet
  facet normal 0 0 1
    outer loop
      vertex 119.5 120.2 15
      vertex 120.031 122.896 15
      vertex 119.661 123.028 15
    endloop
  endfacet
  facet normal 0 0 1
    outer loop
      vertex 122.5 119.2 15
      vertex 119.5 120.2 15
      vertex 119.5 4.50001 15
    endloop
  endfacet
  facet normal 0 0 1
    outer loop
      vertex 122.5 119.2 15
      vertex 119.5 4.50001 15
      vertex 122.5 4.50001 15
    endloop
  endfacet
  facet normal -1 0 0
    outer loop
      vertex 102.5 120.2 12.5
      vertex 102.5 123.2 15
      vertex 102.5 123.2 12.5
    endloop
  endfacet
  facet normal -1 -0 0
    outer loop
      vertex 102.5 123.2 15
      vertex 102.5 120.2 12.5
      vertex 102.5 120.2 15
    endloop
  endfacet
  facet normal 0 -1 0
    outer loop
      vertex 102.5 120.2 12.5
      vertex 119.5 120.2 15
      vertex 102.5 120.2 15
    endloop
  endfacet
  facet normal 0 -1 -0
    outer loop
      vertex 119.5 120.2 15
      vertex 102.5 120.2 12.5
      vertex 119.5 120.2 12.5
    endloop
  endfacet
  facet normal -1 0 0
    outer loop
      vertex 119.5 4.50001 12.5
      vertex 119.5 120.2 15
      vertex 119.5 120.2 12.5
    endloop
  endfacet
  facet normal -1 -0 0
    outer loop
      vertex 119.5 120.2 15
      vertex 119.5 4.50001 12.5
      vertex 119.5 4.50001 15
    endloop
  endfacet
  facet normal -1 0 0
    outer loop
      vertex 4.5 97.29 0
      vertex 4.5 123.2 12.5
      vertex 4.5 123.2 0
    endloop
  endfacet
  facet normal -1 -0 0
    outer loop
      vertex 4.5 123.2 12.5
      vertex 4.5 97.29 0
      vertex 4.5 97.29 12.5
    endloop
  endfacet
  facet normal -1 0 0
    outer loop
      vertex 4.5 57.41 0
      vertex 4.5 89.29 12.5
      vertex 4.5 89.29 0
    endloop
  endfacet
  facet normal -1 -0 0
    outer loop
      vertex 4.5 89.29 12.5
      vertex 4.5 57.41 0
      vertex 4.5 57.41 12.5
    endloop
  endfacet
  facet normal -1 0 0
    outer loop
      vertex 4.5 23.5 0
      vertex 4.5 49.41 12.5
      vertex 4.5 49.41 0
    endloop
  endfacet
  facet normal -1 -0 0
    outer loop
      vertex 4.5 49.41 12.5
      vertex 4.5 23.5 0
      vertex 4.5 23.5 12.5
    endloop
  endfacet
  facet normal 0.316228 0.948683 -0
    outer loop
      vertex 4.5 97.29 0
      vertex 0 98.79 12.5
      vertex 4.5 97.29 12.5
    endloop
  endfacet
  facet normal 0.316228 0.948683 0
    outer loop
      vertex 0 98.79 12.5
      vertex 4.5 97.29 0
      vertex 0 98.79 0
    endloop
  endfacet
  facet normal -1 0 0
    outer loop
      vertex 0 87.79 0
      vertex 0 98.79 12.5
      vertex 0 98.79 0
    endloop
  endfacet
  facet normal -1 -0 0
    outer loop
      vertex 0 98.79 12.5
      vertex 0 87.79 0
      vertex 0 87.79 12.5
    endloop
  endfacet
  facet normal 0.316228 -0.948683 0
    outer loop
      vertex 0 87.79 0
      vertex 4.5 89.29 12.5
      vertex 0 87.79 12.5
    endloop
  endfacet
  facet normal 0.316228 -0.948683 0
    outer loop
      vertex 4.5 89.29 12.5
      vertex 0 87.79 0
      vertex 4.5 89.29 0
    endloop
  endfacet
  facet normal 0.316228 0.948683 -0
    outer loop
      vertex 4.5 57.41 0
      vertex 0 58.91 12.5
      vertex 4.5 57.41 12.5
    endloop
  endfacet
  facet normal 0.316228 0.948683 0
    outer loop
      vertex 0 58.91 12.5
      vertex 4.5 57.41 0
      vertex 0 58.91 0
    endloop
  endfacet
  facet normal -1 0 0
    outer loop
      vertex 0 47.91 0
      vertex 0 58.91 12.5
      vertex 0 58.91 0
    endloop
  endfacet
  facet normal -1 -0 0
    outer loop
      vertex 0 58.91 12.5
      vertex 0 47.91 0
      vertex 0 47.91 12.5
    endloop
  endfacet
  facet normal 0.316228 -0.948683 0
    outer loop
      vertex 0 47.91 0
      vertex 4.5 49.41 12.5
      vertex 0 47.91 12.5
    endloop
  endfacet
  facet normal 0.316228 -0.948683 0
    outer loop
      vertex 4.5 49.41 12.5
      vertex 0 47.91 0
      vertex 4.5 49.41 0
    endloop
  endfacet
endsolid OpenSCAD_Model
