solid OpenSCAD_Model
  facet normal 0 0 -1
    outer loop
      vertex 11.149999998509884 1.4901075928719365e-9 0
      vertex 12.649999998509884 4.500000001490108 0
      vertex 22.149999998509884 1.4901075928719365e-9 0
    endloop
  endfacet
  facet normal 0 0 -1
    outer loop
      vertex 12.649999998509884 4.500000001490108 0
      vertex 20.649999998509884 4.500000001490108 0
      vertex 22.149999998509884 1.4901075928719365e-9 0
    endloop
  endfacet
  facet normal 0 0 -1
    outer loop
      vertex 36.125 1.4901075928719365e-9 0
      vertex 37.625 4.500000001490108 0
      vertex 47.125 1.4901075928719365e-9 0
    endloop
  endfacet
  facet normal 0 -1 0
    outer loop
      vertex 0 4.500000001490108 0
      vertex 12.649999998509884 4.500000001490108 0
      vertex 0 4.500000001490108 12.5
    endloop
  endfacet
  facet normal -0.9486832980505138 0.31622776601683794 0
    outer loop
      vertex 11.149999998509884 1.4901075928719365e-9 0
      vertex 12.649999998509884 4.500000001490108 12.5
      vertex 12.649999998509884 4.500000001490108 0
    endloop
  endfacet
  facet normal 0 -1 0
    outer loop
      vertex 11.149999998509884 1.4901075928719365e-9 0
      vertex 22.149999998509884 1.4901075928719365e-9 0
      vertex 11.149999998509884 1.4901075928719365e-9 12.5
    endloop
  endfacet
  facet normal 0.9486832980505138 0.31622776601683794 0
    outer loop
      vertex 20.649999998509884 4.500000001490108 0
      vertex 22.149999998509884 1.4901075928719365e-9 12.5
      vertex 22.149999998509884 1.4901075928719365e-9 0
    endloop
  endfacet
  facet normal 0 -1 0
    outer loop
      vertex 20.649999998509884 4.500000001490108 0
      vertex 37.625 4.500000001490108 0
      vertex 20.649999998509884 4.500000001490108 12.5
    endloop
  endfacet
  facet normal -0.9486832980505138 0.31622776601683794 0
    outer loop
      vertex 36.125 1.4901075928719365e-9 0
      vertex 37.625 4.500000001490108 12.5
      vertex 37.625 4.500000001490108 0
    endloop
  endfacet
  facet normal 0 -1 0
    outer loop
      vertex 36.125 1.4901075928719365e-9 0
      vertex 47.125 1.4901075928719365e-9 0
      vertex 36.125 1.4901075928719365e-9 12.5
    endloop
  endfacet
  facet normal 0 0 -1
    outer loop
      vertex 0 4.500000001490108 0
      vertex 0 119.19999999701976 0
      vertex 12.649999998509884 4.500000001490108 0
    endloop
  endfacet
  facet normal 0 0 -1
    outer loop
      vertex 12.649999998509884 4.500000001490108 0
      vertex 0 119.19999999701976 0
      vertex 20.649999998509884 4.500000001490108 0
    endloop
  endfacet
  facet normal 0 0 -1
    outer loop
      vertex 20.649999998509884 4.500000001490108 0
      vertex 0 119.19999999701976 0
      vertex 37.625 4.500000001490108 0
    endloop
  endfacet
  facet normal 0 0 -1
    outer loop
      vertex 37.625 4.500000001490108 0
      vertex 0 119.19999999701976 0
      vertex 45.625 4.500000001490108 0
    endloop
  endfacet
  facet normal 0 0 -1
    outer loop
      vertex 45.625 4.500000001490108 0
      vertex 0 119.19999999701976 0
      vertex 55.29999999701977 12.804909729957572 0
    endloop
  endfacet
  facet normal 0 0 -1
    outer loop
      vertex 55.29999999701977 12.804909729957572 0
      vertex 0 119.19999999701976 0
      vertex 55.35128338634968 13.848807053267947 0
    endloop
  endfacet
  facet normal 0 0 -1
    outer loop
      vertex 55.35128338634968 13.848807053267947 0
      vertex 0 119.19999999701976 0
      vertex 55.505360931158066 14.887513512372962 0
    endloop
  endfacet
  facet normal 0 0 -1
    outer loop
      vertex 55.505360931158066 14.887513512372962 0
      vertex 0 119.19999999701976 0
      vertex 55.760507591068745 15.906116062402717 0
    endloop
  endfacet
  facet normal 0 0 -1
    outer loop
      vertex 55.760507591068745 15.906116062402717 0
      vertex 0 119.19999999701976 0
      vertex 56.11426616460085 16.894805037975303 0
    endloop
  endfacet
  facet normal 0 0 -1
    outer loop
      vertex 56.11426616460085 16.894805037975303 0
      vertex 0 119.19999999701976 0
      vertex 56.563229754567146 17.844058790802947 0
    endloop
  endfacet
  facet normal 0 0 -1
    outer loop
      vertex 56.563229754567146 17.844058790802947 0
      vertex 0 119.19999999701976 0
      vertex 57.103074595332146 18.744735503196708 0
    endloop
  endfacet
  facet normal 0 0 -1
    outer loop
      vertex 57.103074595332146 18.744735503196708 0
      vertex 0 119.19999999701976 0
      vertex 57.728601701557636 19.588161157071582 0
    endloop
  endfacet
  facet normal 0 0 -1
    outer loop
      vertex 57.728601701557636 19.588161157071582 0
      vertex 0 119.19999999701976 0
      vertex 58.433786891400814 20.366213114559642 0
    endloop
  endfacet
  facet normal 0 0 -1
    outer loop
      vertex 58.433786891400814 20.366213114559642 0
      vertex 0 119.19999999701976 0
      vertex 59.211838848888874 21.07139830440282 0
    endloop
  endfacet
  facet normal 0 0 -1
    outer loop
      vertex 59.211838848888874 21.07139830440282 0
      vertex 0 119.19999999701976 0
      vertex 60.05526450276375 21.69692541062831 0
    endloop
  endfacet
  facet normal 0 0 -1
    outer loop
      vertex 60.05526450276375 21.69692541062831 0
      vertex 0 119.19999999701976 0
      vertex 60.95594121515751 22.23677025139331 0
    endloop
  endfacet
  facet normal 0 0 -1
    outer loop
      vertex 60.95594121515751 22.23677025139331 0
      vertex 0 119.19999999701976 0
      vertex 61.90519496798515 22.685733841359607 0
    endloop
  endfacet
  facet normal 0 0 -1
    outer loop
      vertex 61.90519496798515 22.685733841359607 0
      vertex 0 119.19999999701976 0
      vertex 62.89388394355774 23.03949241489171 0
    endloop
  endfacet
  facet normal 0 0 -1
    outer loop
      vertex 37.625 4.500000001490108 0
      vertex 45.625 4.500000001490108 0
      vertex 47.125 1.4901075928719365e-9 0
    endloop
  endfacet
  facet normal 0 0 -1
    outer loop
      vertex 45.625 4.500000001490108 0
      vertex 55.29999999701977 12.804909729957572 0
      vertex 55.29999999701977 4.500000001490108 0
    endloop
  endfacet
  facet normal 0.9486832980505138 0.31622776601683794 0
    outer loop
      vertex 47.125 1.4901075928719365e-9 0
      vertex 45.625 4.500000001490108 0
      vertex 47.125 1.4901075928719365e-9 12.5
    endloop
  endfacet
  facet normal 0 -1 0
    outer loop
      vertex 45.625 4.500000001490108 0
      vertex 55.29999999701977 4.500000001490108 0
      vertex 45.625 4.500000001490108 12.5
    endloop
  endfacet
  facet normal 1 0 0
    outer loop
      vertex 55.29999999701977 4.500000001490108 0
      vertex 55.29999999701977 12.804909729957572 0
      vertex 55.29999999701977 4.500000001490108 12.5
    endloop
  endfacet
  facet normal 0.9987954560948427 -0.04906767657323299 0
    outer loop
      vertex 55.29999999701977 12.804909729957572 0
      vertex 55.35128338634968 13.848807053267947 0
      vertex 55.29999999701977 12.804909729957572 12.5
    endloop
  endfacet
  facet normal 0.9891765104575974 -0.14673047113306362 0
    outer loop
      vertex 55.35128338634968 13.848807053267947 0
      vertex 55.505360931158066 14.887513512372962 0
      vertex 55.35128338634968 13.848807053267947 12.5
    endloop
  endfacet
  facet normal 0.9700312524065543 -0.24298018304909524 0
    outer loop
      vertex 55.505360931158066 14.887513512372962 0
      vertex 55.760507591068745 15.906116062402717 0
      vertex 55.505360931158066 14.887513512372962 12.5
    endloop
  endfacet
  facet normal 0.9415440647384812 -0.33688985463462473 0
    outer loop
      vertex 55.760507591068745 15.906116062402717 0
      vertex 56.11426616460085 16.894805037975303 0
      vertex 55.760507591068745 15.906116062402717 12.5
    endloop
  endfacet
  facet normal 0.9039892925727384 -0.42755509459464996 0
    outer loop
      vertex 56.11426616460085 16.894805037975303 0
      vertex 56.563229754567146 17.844058790802947 0
      vertex 56.11426616460085 16.894805037975303 12.5
    endloop
  endfacet
  facet normal 0.857728612246199 -0.5141027404461189 0
    outer loop
      vertex 56.563229754567146 17.844058790802947 0
      vertex 57.103074595332146 18.744735503196708 0
      vertex 56.563229754567146 17.844058790802947 12.5
    endloop
  endfacet
  facet normal 0.803207527247913 -0.5956993101996116 0
    outer loop
      vertex 57.103074595332146 18.744735503196708 0
      vertex 57.728601701557636 19.588161157071582 0
      vertex 57.103074595332146 18.744735503196708 12.5
    endloop
  endfacet
  facet normal 0.7409511249644618 -0.6715589552778659 0
    outer loop
      vertex 57.728601701557636 19.588161157071582 0
      vertex 58.433786891400814 20.366213114559642 0
      vertex 57.728601701557636 19.588161157071582 12.5
    endloop
  endfacet
  facet normal 0.6715589552778659 -0.7409511249644618 0
    outer loop
      vertex 58.433786891400814 20.366213114559642 0
      vertex 59.211838848888874 21.07139830440282 0
      vertex 58.433786891400814 20.366213114559642 12.5
    endloop
  endfacet
  facet normal 0.5956993101996116 -0.803207527247913 0
    outer loop
      vertex 59.211838848888874 21.07139830440282 0
      vertex 60.05526450276375 21.69692541062831 0
      vertex 59.211838848888874 21.07139830440282 12.5
    endloop
  endfacet
  facet normal 0.5141027404461189 -0.857728612246199 0
    outer loop
      vertex 60.05526450276375 21.69692541062831 0
      vertex 60.95594121515751 22.23677025139331 0
      vertex 60.05526450276375 21.69692541062831 12.5
    endloop
  endfacet
  facet normal 0.42755509459464996 -0.9039892925727384 0
    outer loop
      vertex 60.95594121515751 22.23677025139331 0
      vertex 61.90519496798515 22.685733841359607 0
      vertex 60.95594121515751 22.23677025139331 12.5
    endloop
  endfacet
  facet normal 0.33688985463462473 -0.9415440647384812 0
    outer loop
      vertex 61.90519496798515 22.685733841359607 0
      vertex 62.89388394355774 23.03949241489171 0
      vertex 61.90519496798515 22.685733841359607 12.5
    endloop
  endfacet
  facet normal 0.24298018304909524 -0.9700312524065543 0
    outer loop
      vertex 62.89388394355774 23.03949241489171 0
      vertex 63.912486493587494 23.29463907480239 0
      vertex 62.89388394355774 23.03949241489171 12.5
    endloop
  endfacet
  facet normal 0.14673047113306362 -0.9891765104575974 0
    outer loop
      vertex 63.912486493587494 23.29463907480239 0
      vertex 64.95119295269251 23.448716619610778 0
      vertex 63.912486493587494 23.29463907480239 12.5
    endloop
  endfacet
  facet normal 0.04906767657323299 -0.9987954560948427 0
    outer loop
      vertex 64.95119295269251 23.448716619610778 0
      vertex 65.99509027600288 23.500000008940688 0
      vertex 64.95119295269251 23.448716619610778 12.5
    endloop
  endfacet
  facet normal 0 0 -1
    outer loop
      vertex 62.89388394355774 23.03949241489171 0
      vertex 0 119.19999999701976 0
      vertex 63.912486493587494 23.29463907480239 0
    endloop
  endfacet
  facet normal 0 0 -1
    outer loop
      vertex 63.912486493587494 23.29463907480239 0
      vertex 0 119.19999999701976 0
      vertex 64.95119295269251 23.448716619610778 0
    endloop
  endfacet
  facet normal 0 0 -1
    outer loop
      vertex 64.95119295269251 23.448716619610778 0
      vertex 0 119.19999999701976 0
      vertex 65.99509027600288 23.500000008940688 0
    endloop
  endfacet
  facet normal 0 0 -1
    outer loop
      vertex 65.99509027600288 23.500000008940688 0
      vertex 0 119.19999999701976 0
      vertex 135 23.500000008940688 0
    endloop
  endfacet
  facet normal 0 -1 0
    outer loop
      vertex 12.649999998509884 4.500000001490108 0
      vertex 3 4.500000001490108 12.5
      vertex 0 4.500000001490108 12.5
    endloop
  endfacet
  facet normal 0 -1 0
    outer loop
      vertex 12.649999998509884 4.500000001490108 0
      vertex 12.649999998509884 4.500000001490108 12.5
      vertex 3 4.500000001490108 12.5
    endloop
  endfacet
  facet normal -0.9486832980505138 0.31622776601683794 0
    outer loop
      vertex 11.149999998509884 1.4901075928719365e-9 0
      vertex 11.149999998509884 1.4901075928719365e-9 12.5
      vertex 12.649999998509884 4.500000001490108 12.5
    endloop
  endfacet
  facet normal 0 -1 0
    outer loop
      vertex 22.149999998509884 1.4901075928719365e-9 0
      vertex 22.149999998509884 1.4901075928719365e-9 12.5
      vertex 11.149999998509884 1.4901075928719365e-9 12.5
    endloop
  endfacet
  facet normal 0.9486832980505138 0.31622776601683794 0
    outer loop
      vertex 20.649999998509884 4.500000001490108 0
      vertex 20.649999998509884 4.500000001490108 12.5
      vertex 22.149999998509884 1.4901075928719365e-9 12.5
    endloop
  endfacet
  facet normal -0.9486832980505138 0.31622776601683794 0
    outer loop
      vertex 36.125 1.4901075928719365e-9 0
      vertex 36.125 1.4901075928719365e-9 12.5
      vertex 37.625 4.500000001490108 12.5
    endloop
  endfacet
  facet normal 0 -1 0
    outer loop
      vertex 37.625 4.500000001490108 0
      vertex 37.625 4.500000001490108 12.5
      vertex 20.649999998509884 4.500000001490108 12.5
    endloop
  endfacet
  facet normal 0 0 1
    outer loop
      vertex 11.149999998509884 1.4901075928719365e-9 12.5
      vertex 22.149999998509884 1.4901075928719365e-9 12.5
      vertex 12.649999998509884 4.500000001490108 12.5
    endloop
  endfacet
  facet normal 0 0 1
    outer loop
      vertex 12.649999998509884 4.500000001490108 12.5
      vertex 22.149999998509884 1.4901075928719365e-9 12.5
      vertex 20.649999998509884 4.500000001490108 12.5
    endloop
  endfacet
  facet normal 0 0 1
    outer loop
      vertex 3 4.500000001490108 12.5
      vertex 12.649999998509884 4.500000001490108 12.5
      vertex 55.29999999701977 12.804909729957572 12.5
    endloop
  endfacet
  facet normal 0 0 1
    outer loop
      vertex 12.649999998509884 4.500000001490108 12.5
      vertex 20.649999998509884 4.500000001490108 12.5
      vertex 55.29999999701977 12.804909729957572 12.5
    endloop
  endfacet
  facet normal 0 0 1
    outer loop
      vertex 36.125 1.4901075928719365e-9 12.5
      vertex 47.125 1.4901075928719365e-9 12.5
      vertex 37.625 4.500000001490108 12.5
    endloop
  endfacet
  facet normal 0 0 1
    outer loop
      vertex 20.649999998509884 4.500000001490108 12.5
      vertex 37.625 4.500000001490108 12.5
      vertex 55.29999999701977 12.804909729957572 12.5
    endloop
  endfacet
  facet normal 0 0 1
    outer loop
      vertex 3 4.500000001490108 12.5
      vertex 55.29999999701977 12.804909729957572 12.5
      vertex 55.35128338634968 13.848807053267947 12.5
    endloop
  endfacet
  facet normal 0 0 1
    outer loop
      vertex 3 4.500000001490108 12.5
      vertex 55.35128338634968 13.848807053267947 12.5
      vertex 55.505360931158066 14.887513512372962 12.5
    endloop
  endfacet
  facet normal 0 0 1
    outer loop
      vertex 3 4.500000001490108 12.5
      vertex 55.505360931158066 14.887513512372962 12.5
      vertex 55.760507591068745 15.906116062402717 12.5
    endloop
  endfacet
  facet normal 0 0 1
    outer loop
      vertex 3 4.500000001490108 12.5
      vertex 55.760507591068745 15.906116062402717 12.5
      vertex 56.11426616460085 16.894805037975303 12.5
    endloop
  endfacet
  facet normal 0 0 1
    outer loop
      vertex 3 4.500000001490108 12.5
      vertex 56.11426616460085 16.894805037975303 12.5
      vertex 56.563229754567146 17.844058790802947 12.5
    endloop
  endfacet
  facet normal 0 0 1
    outer loop
      vertex 3 4.500000001490108 12.5
      vertex 56.563229754567146 17.844058790802947 12.5
      vertex 57.103074595332146 18.744735503196708 12.5
    endloop
  endfacet
  facet normal 0 0 1
    outer loop
      vertex 3 4.500000001490108 12.5
      vertex 57.103074595332146 18.744735503196708 12.5
      vertex 57.728601701557636 19.588161157071582 12.5
    endloop
  endfacet
  facet normal 0 0 1
    outer loop
      vertex 3 4.500000001490108 12.5
      vertex 57.728601701557636 19.588161157071582 12.5
      vertex 58.433786891400814 20.366213114559642 12.5
    endloop
  endfacet
  facet normal 0 0 1
    outer loop
      vertex 3 4.500000001490108 12.5
      vertex 58.433786891400814 20.366213114559642 12.5
      vertex 59.211838848888874 21.07139830440282 12.5
    endloop
  endfacet
  facet normal 0 0 1
    outer loop
      vertex 3 4.500000001490108 12.5
      vertex 59.211838848888874 21.07139830440282 12.5
      vertex 60.05526450276375 21.69692541062831 12.5
    endloop
  endfacet
  facet normal 0 0 1
    outer loop
      vertex 3 4.500000001490108 12.5
      vertex 60.05526450276375 21.69692541062831 12.5
      vertex 60.95594121515751 22.23677025139331 12.5
    endloop
  endfacet
  facet normal 0 0 1
    outer loop
      vertex 3 4.500000001490108 12.5
      vertex 60.95594121515751 22.23677025139331 12.5
      vertex 61.90519496798515 22.685733841359607 12.5
    endloop
  endfacet
  facet normal -1 0 0
    outer loop
      vertex 0 4.500000001490108 0
      vertex 0 4.500000001490108 12.5
      vertex 0 119.19999999701976 12.5
    endloop
  endfacet
  facet normal 0 0 1
    outer loop
      vertex 3 4.500000001490108 12.5
      vertex 62.89388394355774 23.03949241489171 12.5
      vertex 3 120.19999999701976 12.5
    endloop
  endfacet
  facet normal 0 -1 0
    outer loop
      vertex 47.125 1.4901075928719365e-9 0
      vertex 47.125 1.4901075928719365e-9 12.5
      vertex 36.125 1.4901075928719365e-9 12.5
    endloop
  endfacet
  facet normal 0.9486832980505138 0.31622776601683794 0
    outer loop
      vertex 45.625 4.500000001490108 0
      vertex 45.625 4.500000001490108 12.5
      vertex 47.125 1.4901075928719365e-9 12.5
    endloop
  endfacet
  facet normal 0 -1 0
    outer loop
      vertex 55.29999999701977 4.500000001490108 0
      vertex 55.29999999701977 4.500000001490108 12.5
      vertex 45.625 4.500000001490108 12.5
    endloop
  endfacet
  facet normal 1 0 0
    outer loop
      vertex 55.29999999701977 12.804909729957572 0
      vertex 55.29999999701977 12.804909729957572 12.5
      vertex 55.29999999701977 4.500000001490108 12.5
    endloop
  endfacet
  facet normal 0.9987954560948427 -0.04906767657323299 0
    outer loop
      vertex 55.35128338634968 13.848807053267947 0
      vertex 55.35128338634968 13.848807053267947 12.5
      vertex 55.29999999701977 12.804909729957572 12.5
    endloop
  endfacet
  facet normal 0.9891765104575974 -0.14673047113306362 0
    outer loop
      vertex 55.505360931158066 14.887513512372962 0
      vertex 55.505360931158066 14.887513512372962 12.5
      vertex 55.35128338634968 13.848807053267947 12.5
    endloop
  endfacet
  facet normal 0.9700312524065543 -0.24298018304909524 0
    outer loop
      vertex 55.760507591068745 15.906116062402717 0
      vertex 55.760507591068745 15.906116062402717 12.5
      vertex 55.505360931158066 14.887513512372962 12.5
    endloop
  endfacet
  facet normal 0.9415440647384812 -0.33688985463462473 0
    outer loop
      vertex 56.11426616460085 16.894805037975303 0
      vertex 56.11426616460085 16.894805037975303 12.5
      vertex 55.760507591068745 15.906116062402717 12.5
    endloop
  endfacet
  facet normal 0.9039892925727384 -0.42755509459464996 0
    outer loop
      vertex 56.563229754567146 17.844058790802947 0
      vertex 56.563229754567146 17.844058790802947 12.5
      vertex 56.11426616460085 16.894805037975303 12.5
    endloop
  endfacet
  facet normal 0.857728612246199 -0.5141027404461189 0
    outer loop
      vertex 57.103074595332146 18.744735503196708 0
      vertex 57.103074595332146 18.744735503196708 12.5
      vertex 56.563229754567146 17.844058790802947 12.5
    endloop
  endfacet
  facet normal 0.803207527247913 -0.5956993101996116 0
    outer loop
      vertex 57.728601701557636 19.588161157071582 0
      vertex 57.728601701557636 19.588161157071582 12.5
      vertex 57.103074595332146 18.744735503196708 12.5
    endloop
  endfacet
  facet normal 0.7409511249644618 -0.6715589552778659 0
    outer loop
      vertex 58.433786891400814 20.366213114559642 0
      vertex 58.433786891400814 20.366213114559642 12.5
      vertex 57.728601701557636 19.588161157071582 12.5
    endloop
  endfacet
  facet normal 0.6715589552778659 -0.7409511249644618 0
    outer loop
      vertex 59.211838848888874 21.07139830440282 0
      vertex 59.211838848888874 21.07139830440282 12.5
      vertex 58.433786891400814 20.366213114559642 12.5
    endloop
  endfacet
  facet normal 0.5956993101996116 -0.803207527247913 0
    outer loop
      vertex 60.05526450276375 21.69692541062831 0
      vertex 60.05526450276375 21.69692541062831 12.5
      vertex 59.211838848888874 21.07139830440282 12.5
    endloop
  endfacet
  facet normal 0.5141027404461189 -0.857728612246199 0
    outer loop
      vertex 60.95594121515751 22.23677025139331 0
      vertex 60.95594121515751 22.23677025139331 12.5
      vertex 60.05526450276375 21.69692541062831 12.5
    endloop
  endfacet
  facet normal 0.42755509459464996 -0.9039892925727384 0
    outer loop
      vertex 61.90519496798515 22.685733841359607 0
      vertex 61.90519496798515 22.685733841359607 12.5
      vertex 60.95594121515751 22.23677025139331 12.5
    endloop
  endfacet
  facet normal 0.33688985463462473 -0.9415440647384812 0
    outer loop
      vertex 62.89388394355774 23.03949241489171 0
      vertex 62.89388394355774 23.03949241489171 12.5
      vertex 61.90519496798515 22.685733841359607 12.5
    endloop
  endfacet
  facet normal 0.24298018304909524 -0.9700312524065543 0
    outer loop
      vertex 63.912486493587494 23.29463907480239 0
      vertex 63.912486493587494 23.29463907480239 12.5
      vertex 62.89388394355774 23.03949241489171 12.5
    endloop
  endfacet
  facet normal 0.14673047113306362 -0.9891765104575974 0
    outer loop
      vertex 64.95119295269251 23.448716619610778 0
      vertex 64.95119295269251 23.448716619610778 12.5
      vertex 63.912486493587494 23.29463907480239 12.5
    endloop
  endfacet
  facet normal 0.04906767657323299 -0.9987954560948427 0
    outer loop
      vertex 65.99509027600288 23.500000008940688 0
      vertex 65.99509027600288 23.500000008940688 12.5
      vertex 64.95119295269251 23.448716619610778 12.5
    endloop
  endfacet
  facet normal 0 0 1
    outer loop
      vertex 37.625 4.500000001490108 12.5
      vertex 47.125 1.4901075928719365e-9 12.5
      vertex 45.625 4.500000001490108 12.5
    endloop
  endfacet
  facet normal 0 0 1
    outer loop
      vertex 37.625 4.500000001490108 12.5
      vertex 45.625 4.500000001490108 12.5
      vertex 55.29999999701977 12.804909729957572 12.5
    endloop
  endfacet
  facet normal 0 0 1
    outer loop
      vertex 45.625 4.500000001490108 12.5
      vertex 55.29999999701977 4.500000001490108 12.5
      vertex 55.29999999701977 12.804909729957572 12.5
    endloop
  endfacet
  facet normal 0 0 1
    outer loop
      vertex 3 4.500000001490108 12.5
      vertex 61.90519496798515 22.685733841359607 12.5
      vertex 62.89388394355774 23.03949241489171 12.5
    endloop
  endfacet
  facet normal 0 0 1
    outer loop
      vertex 62.89388394355774 23.03949241489171 12.5
      vertex 63.912486493587494 23.29463907480239 12.5
      vertex 3 120.19999999701976 12.5
    endloop
  endfacet
  facet normal 0 0 1
    outer loop
      vertex 63.912486493587494 23.29463907480239 12.5
      vertex 64.95119295269251 23.448716619610778 12.5
      vertex 3 120.19999999701976 12.5
    endloop
  endfacet
  facet normal 0 0 1
    outer loop
      vertex 64.95119295269251 23.448716619610778 12.5
      vertex 65.99509027600288 23.500000008940688 12.5
      vertex 3 120.19999999701976 12.5
    endloop
  endfacet
  facet normal 0 0 1
    outer loop
      vertex 65.99509027600288 23.500000008940688 12.5
      vertex 168 23.500000008940688 12.5
      vertex 3 120.19999999701976 12.5
    endloop
  endfacet
  facet normal -1 0 0
    outer loop
      vertex 0 4.500000001490108 0
      vertex 0 119.19999999701976 12.5
      vertex 0 119.19999999701976 0
    endloop
  endfacet
  facet normal -0.9987954563973426 0.0490676704157047 0
    outer loop
      vertex 0 119.19999999701976 0
      vertex 0.019261091947555542 119.59206856191157 12.5
      vertex 0.019261091947555542 119.59206856191157 0
    endloop
  endfacet
  facet normal -0.9891765093153608 0.14673047883339677 0
    outer loop
      vertex 0.019261091947555542 119.59206856191157 0
      vertex 0.07685887813568115 119.98036128431558 12.5
      vertex 0.07685887813568115 119.98036128431558 0
    endloop
  endfacet
  facet normal -0.970031253702096 0.24298017787700282 0
    outer loop
      vertex 0.07685887813568115 119.98036128431558 0
      vertex 0.17223865538835526 120.36113870292901 12.5
      vertex 0.17223865538835526 120.36113870292901 0
    endloop
  endfacet
  facet normal -0.9415440627982695 0.3368898600571533 0
    outer loop
      vertex 0.17223865538835526 120.36113870292901 0
      vertex 0.3044818714261055 120.73073372393846 12.5
      vertex 0.3044818714261055 120.73073372393846 0
    endloop
  endfacet
  facet normal -0.9039892993552974 0.4275550802541337 0
    outer loop
      vertex 0.3044818714261055 120.73073372393846 0
      vertex 0.4723149389028549 121.08558694422244 12.5
      vertex 0.4723149389028549 121.08558694422244 0
    endloop
  endfacet
  facet normal -0.857728607028397 0.5141027491514958 0
    outer loop
      vertex 0.4723149389028549 121.08558694422244 0
      vertex 0.6741215512156487 121.42228093147277 12.5
      vertex 0.6741215512156487 121.42228093147277 0
    endloop
  endfacet
  facet normal -0.8032075288650011 0.5956993080192206 0
    outer loop
      vertex 0.6741215512156487 121.42228093147277 0
      vertex 0.9079581871628761 121.73757313340901 12.5
      vertex 0.9079581871628761 121.73757313340901 0
    endloop
  endfacet
  facet normal -0.7409511174895533 0.6715589635251562 0
    outer loop
      vertex 0.9079581871628761 121.73757313340901 0
      vertex 1.1715728789567947 122.02842711806296 12.5
      vertex 1.1715728789567947 122.02842711806296 0
    endloop
  endfacet
  facet normal -0.6715589635251562 0.7409511174895533 0
    outer loop
      vertex 1.1715728789567947 122.02842711806296 0
      vertex 1.4624268636107445 122.29204180985688 12.5
      vertex 1.4624268636107445 122.29204180985688 0
    endloop
  endfacet
  facet normal -0.5956993080192206 0.8032075288650011 0
    outer loop
      vertex 1.4624268636107445 122.29204180985688 0
      vertex 1.7777190655469894 122.52587844580411 12.5
      vertex 1.7777190655469894 122.52587844580411 0
    endloop
  endfacet
  facet normal -0.5141027491514958 0.857728607028397 0
    outer loop
      vertex 1.7777190655469894 122.52587844580411 0
      vertex 2.1144130527973175 122.7276850581169 12.5
      vertex 2.1144130527973175 122.7276850581169 0
    endloop
  endfacet
  facet normal -0.4275550802541337 0.9039892993552974 0
    outer loop
      vertex 2.1144130527973175 122.7276850581169 0
      vertex 2.4692662730813026 122.89551812559365 12.5
      vertex 2.4692662730813026 122.89551812559365 0
    endloop
  endfacet
  facet normal -0.3368898600571533 0.9415440627982695 0
    outer loop
      vertex 2.4692662730813026 122.89551812559365 0
      vertex 2.838861294090748 123.0277613416314 12.5
      vertex 2.838861294090748 123.0277613416314 0
    endloop
  endfacet
  facet normal -0.24298017787700282 0.970031253702096 0
    outer loop
      vertex 2.838861294090748 123.0277613416314 0
      vertex 3.2196387127041817 123.12314111888408 12.5
      vertex 3.2196387127041817 123.12314111888408 0
    endloop
  endfacet
  facet normal -0.14673047883339677 0.9891765093153608 0
    outer loop
      vertex 3.2196387127041817 123.12314111888408 0
      vertex 3.607931435108185 123.1807389050722 12.5
      vertex 3.607931435108185 123.1807389050722 0
    endloop
  endfacet
  facet normal -0.04906768935037588 0.9987954554671418 0
    outer loop
      vertex 3.607931435108185 123.1807389050722 0
      vertex 4 123.20000000447034 12.5
      vertex 4 123.20000000447034 0
    endloop
  endfacet
  facet normal 0 0 -1
    outer loop
      vertex 0 119.19999999701976 0
      vertex 0.019261091947555542 119.59206856191157 0
      vertex 135 23.500000008940688 0
    endloop
  endfacet
  facet normal 0 0 -1
    outer loop
      vertex 0.019261091947555542 119.59206856191157 0
      vertex 0.07685887813568115 119.98036128431558 0
      vertex 135 23.500000008940688 0
    endloop
  endfacet
  facet normal 0 0 -1
    outer loop
      vertex 0.07685887813568115 119.98036128431558 0
      vertex 0.17223865538835526 120.36113870292901 0
      vertex 135 23.500000008940688 0
    endloop
  endfacet
  facet normal 0 0 -1
    outer loop
      vertex 0.17223865538835526 120.36113870292901 0
      vertex 0.3044818714261055 120.73073372393846 0
      vertex 135 23.500000008940688 0
    endloop
  endfacet
  facet normal 0 0 -1
    outer loop
      vertex 0.3044818714261055 120.73073372393846 0
      vertex 0.4723149389028549 121.08558694422244 0
      vertex 135 23.500000008940688 0
    endloop
  endfacet
  facet normal 0 0 -1
    outer loop
      vertex 0.4723149389028549 121.08558694422244 0
      vertex 0.6741215512156487 121.42228093147277 0
      vertex 135 23.500000008940688 0
    endloop
  endfacet
  facet normal 0 0 -1
    outer loop
      vertex 0.6741215512156487 121.42228093147277 0
      vertex 0.9079581871628761 121.73757313340901 0
      vertex 135 23.500000008940688 0
    endloop
  endfacet
  facet normal 0 0 -1
    outer loop
      vertex 0.9079581871628761 121.73757313340901 0
      vertex 1.1715728789567947 122.02842711806296 0
      vertex 135 23.500000008940688 0
    endloop
  endfacet
  facet normal 0 0 -1
    outer loop
      vertex 1.1715728789567947 122.02842711806296 0
      vertex 1.4624268636107445 122.29204180985688 0
      vertex 135 23.500000008940688 0
    endloop
  endfacet
  facet normal 0 0 -1
    outer loop
      vertex 1.4624268636107445 122.29204180985688 0
      vertex 1.7777190655469894 122.52587844580411 0
      vertex 135 23.500000008940688 0
    endloop
  endfacet
  facet normal 0 0 -1
    outer loop
      vertex 1.7777190655469894 122.52587844580411 0
      vertex 2.1144130527973175 122.7276850581169 0
      vertex 135 23.500000008940688 0
    endloop
  endfacet
  facet normal 0 0 -1
    outer loop
      vertex 2.1144130527973175 122.7276850581169 0
      vertex 2.4692662730813026 122.89551812559365 0
      vertex 135 23.500000008940688 0
    endloop
  endfacet
  facet normal 0 0 -1
    outer loop
      vertex 2.4692662730813026 122.89551812559365 0
      vertex 2.838861294090748 123.0277613416314 0
      vertex 135 23.500000008940688 0
    endloop
  endfacet
  facet normal 0 0 -1
    outer loop
      vertex 2.838861294090748 123.0277613416314 0
      vertex 3.2196387127041817 123.12314111888408 0
      vertex 135 23.500000008940688 0
    endloop
  endfacet
  facet normal 0 0 -1
    outer loop
      vertex 3.2196387127041817 123.12314111888408 0
      vertex 3.607931435108185 123.1807389050722 0
      vertex 135 23.500000008940688 0
    endloop
  endfacet
  facet normal 0 0 -1
    outer loop
      vertex 3.607931435108185 123.1807389050722 0
      vertex 4 123.20000000447034 0
      vertex 135 23.500000008940688 0
    endloop
  endfacet
  facet normal 0 1 0
    outer loop
      vertex 4 123.20000000447034 0
      vertex 4 123.20000000447034 12.5
      vertex 135 123.20000000447034 0
    endloop
  endfacet
  facet normal -0.9987954563973426 0.0490676704157047 0
    outer loop
      vertex 0 119.19999999701976 0
      vertex 0 119.19999999701976 12.5
      vertex 0.019261091947555542 119.59206856191157 12.5
    endloop
  endfacet
  facet normal -0.9891765093153608 0.14673047883339677 0
    outer loop
      vertex 0.019261091947555542 119.59206856191157 0
      vertex 0.019261091947555542 119.59206856191157 12.5
      vertex 0.07685887813568115 119.98036128431558 12.5
    endloop
  endfacet
  facet normal -0.970031253702096 0.24298017787700282 0
    outer loop
      vertex 0.07685887813568115 119.98036128431558 0
      vertex 0.07685887813568115 119.98036128431558 12.5
      vertex 0.17223865538835526 120.36113870292901 12.5
    endloop
  endfacet
  facet normal -0.9415440627982695 0.3368898600571533 0
    outer loop
      vertex 0.17223865538835526 120.36113870292901 0
      vertex 0.17223865538835526 120.36113870292901 12.5
      vertex 0.3044818714261055 120.73073372393846 12.5
    endloop
  endfacet
  facet normal -0.9039892993552974 0.4275550802541337 0
    outer loop
      vertex 0.3044818714261055 120.73073372393846 0
      vertex 0.3044818714261055 120.73073372393846 12.5
      vertex 0.4723149389028549 121.08558694422244 12.5
    endloop
  endfacet
  facet normal -0.857728607028397 0.5141027491514958 0
    outer loop
      vertex 0.4723149389028549 121.08558694422244 0
      vertex 0.4723149389028549 121.08558694422244 12.5
      vertex 0.6741215512156487 121.42228093147277 12.5
    endloop
  endfacet
  facet normal -0.8032075288650011 0.5956993080192206 0
    outer loop
      vertex 0.6741215512156487 121.42228093147277 0
      vertex 0.6741215512156487 121.42228093147277 12.5
      vertex 0.9079581871628761 121.73757313340901 12.5
    endloop
  endfacet
  facet normal -0.7409511174895533 0.6715589635251562 0
    outer loop
      vertex 0.9079581871628761 121.73757313340901 0
      vertex 0.9079581871628761 121.73757313340901 12.5
      vertex 1.1715728789567947 122.02842711806296 12.5
    endloop
  endfacet
  facet normal -0.6715589635251562 0.7409511174895533 0
    outer loop
      vertex 1.1715728789567947 122.02842711806296 0
      vertex 1.1715728789567947 122.02842711806296 12.5
      vertex 1.4624268636107445 122.29204180985688 12.5
    endloop
  endfacet
  facet normal -0.5956993080192206 0.8032075288650011 0
    outer loop
      vertex 1.4624268636107445 122.29204180985688 0
      vertex 1.4624268636107445 122.29204180985688 12.5
      vertex 1.7777190655469894 122.52587844580411 12.5
    endloop
  endfacet
  facet normal -0.5141027491514958 0.857728607028397 0
    outer loop
      vertex 1.7777190655469894 122.52587844580411 0
      vertex 1.7777190655469894 122.52587844580411 12.5
      vertex 2.1144130527973175 122.7276850581169 12.5
    endloop
  endfacet
  facet normal -0.4275550802541337 0.9039892993552974 0
    outer loop
      vertex 2.1144130527973175 122.7276850581169 0
      vertex 2.1144130527973175 122.7276850581169 12.5
      vertex 2.4692662730813026 122.89551812559365 12.5
    endloop
  endfacet
  facet normal -0.3368898600571533 0.9415440627982695 0
    outer loop
      vertex 2.4692662730813026 122.89551812559365 0
      vertex 2.4692662730813026 122.89551812559365 12.5
      vertex 2.838861294090748 123.0277613416314 12.5
    endloop
  endfacet
  facet normal -0.24298017787700282 0.970031253702096 0
    outer loop
      vertex 2.838861294090748 123.0277613416314 0
      vertex 2.838861294090748 123.0277613416314 12.5
      vertex 3.2196387127041817 123.12314111888408 12.5
    endloop
  endfacet
  facet normal -0.14673047883339677 0.9891765093153608 0
    outer loop
      vertex 3.2196387127041817 123.12314111888408 0
      vertex 3.2196387127041817 123.12314111888408 12.5
      vertex 3.607931435108185 123.1807389050722 12.5
    endloop
  endfacet
  facet normal -0.04906768935037588 0.9987954554671418 0
    outer loop
      vertex 3.607931435108185 123.1807389050722 0
      vertex 3.607931435108185 123.1807389050722 12.5
      vertex 4 123.20000000447034 12.5
    endloop
  endfacet
  facet normal 0 0 1
    outer loop
      vertex 3.607931435108185 123.1807389050722 12.5
      vertex 3.9999999701976776 123.19999999701976 12.5
      vertex 4 123.20000000447034 12.5
    endloop
  endfacet
  facet normal 0 0 1
    outer loop
      vertex 4 123.20000000447034 12.5
      vertex 3.9999999701976776 123.19999999701976 12.5
      vertex 20 123.19999999701976 12.5
    endloop
  endfacet
  facet normal 0 0 1
    outer loop
      vertex 3 120.19999999701976 12.5
      vertex 168 23.500000008940688 12.5
      vertex 20 120.19999999701976 12.5
    endloop
  endfacet
  facet normal 0 0 1
    outer loop
      vertex 4 123.20000000447034 12.5
      vertex 20 123.19999999701976 12.5
      vertex 168 123.20000000447034 12.5
    endloop
  endfacet
  facet normal 0 0 1
    outer loop
      vertex 20 120.19999999701976 12.5
      vertex 168 123.20000000447034 12.5
      vertex 20 123.19999999701976 12.5
    endloop
  endfacet
  facet normal 0 -1 0
    outer loop
      vertex 65.99509027600288 23.500000008940688 0
      vertex 135 23.500000008940688 0
      vertex 135 23.500000008940688 8
    endloop
  endfacet
  facet normal 0 -1 0
    outer loop
      vertex 65.99509027600288 23.500000008940688 0
      vertex 135 23.500000008940688 8
      vertex 65.99509027600288 23.500000008940688 12.5
    endloop
  endfacet
  facet normal 0 -1 0
    outer loop
      vertex 151 23.500000008940688 0
      vertex 168 23.500000008940688 0
      vertex 168 23.500000008940688 12.5
    endloop
  endfacet
  facet normal 0 -1 0
    outer loop
      vertex 151 23.500000008940688 0
      vertex 168 23.500000008940688 12.5
      vertex 151 23.500000008940688 8
    endloop
  endfacet
  facet normal 0 0 -1
    outer loop
      vertex 151 23.500000008940688 0
      vertex 163.29999999701977 47.63251482099294 0
      vertex 168 23.500000008940688 0
    endloop
  endfacet
  facet normal 0 0 -1
    outer loop
      vertex 168 23.500000008940688 0
      vertex 163.29999999701977 47.63251482099294 0
      vertex 168 49.19918149111952 0
    endloop
  endfacet
  facet normal 0 -1 0
    outer loop
      vertex 65.99509027600288 23.500000008940688 12.5
      vertex 135 23.500000008940688 8
      vertex 168 23.500000008940688 12.5
    endloop
  endfacet
  facet normal 0 -1 0
    outer loop
      vertex 135 23.500000008940688 8
      vertex 151 23.500000008940688 8
      vertex 168 23.500000008940688 12.5
    endloop
  endfacet
  facet normal 0 0 1
    outer loop
      vertex 168 23.500000008940688 12.5
      vertex 168 49.19918149111952 12.5
      vertex 163.29999999701977 47.63251482099294 12.5
    endloop
  endfacet
  facet normal 0 0 -1
    outer loop
      vertex 4 123.20000000447034 0
      vertex 135 123.20000000447034 0
      vertex 135 23.500000008940688 0
    endloop
  endfacet
  facet normal 0 1 0
    outer loop
      vertex 4 123.20000000447034 12.5
      vertex 135 123.20000000447034 8
      vertex 135 123.20000000447034 0
    endloop
  endfacet
  facet normal 0 0 -1
    outer loop
      vertex 151 23.500000008940688 0
      vertex 151 123.20000000447034 0
      vertex 163.29999999701977 47.63251482099294 0
    endloop
  endfacet
  facet normal 0 0 -1
    outer loop
      vertex 168 57.62081850470814 0
      vertex 163.29999999701977 59.18748517483472 0
      vertex 168 89.07918149380173 0
    endloop
  endfacet
  facet normal 0 0 -1
    outer loop
      vertex 151 123.20000000447034 0
      vertex 163.29999999701977 59.18748517483472 0
      vertex 163.29999999701977 47.63251482099294 0
    endloop
  endfacet
  facet normal 0 0 -1
    outer loop
      vertex 163.29999999701977 87.51251482367515 0
      vertex 168 89.07918149380173 0
      vertex 163.29999999701977 59.18748517483472 0
    endloop
  endfacet
  facet normal 0 0 -1
    outer loop
      vertex 151 123.20000000447034 0
      vertex 163.29999999701977 87.51251482367515 0
      vertex 163.29999999701977 59.18748517483472 0
    endloop
  endfacet
  facet normal 0 0 -1
    outer loop
      vertex 151 123.20000000447034 0
      vertex 163.29999999701977 99.06748517751693 0
      vertex 163.29999999701977 87.51251482367515 0
    endloop
  endfacet
  facet normal 0 0 -1
    outer loop
      vertex 168 123.20000000447034 0
      vertex 168 97.50081850739035 0
      vertex 163.29999999701977 99.06748517751693 0
    endloop
  endfacet
  facet normal 0 0 -1
    outer loop
      vertex 151 123.20000000447034 0
      vertex 168 123.20000000447034 0
      vertex 163.29999999701977 99.06748517751693 0
    endloop
  endfacet
  facet normal 0 1 0
    outer loop
      vertex 151 123.20000000447034 0
      vertex 151 123.20000000447034 8
      vertex 168 123.20000000447034 0
    endloop
  endfacet
  facet normal 0 1 0
    outer loop
      vertex 168 123.20000000447034 0
      vertex 151 123.20000000447034 8
      vertex 168 123.20000000447034 12.5
    endloop
  endfacet
  facet normal 0 0 1
    outer loop
      vertex 20 120.19999999701976 12.5
      vertex 168 23.500000008940688 12.5
      vertex 163.29999999701977 47.63251482099294 12.5
    endloop
  endfacet
  facet normal 0 0 1
    outer loop
      vertex 20 120.19999999701976 12.5
      vertex 163.29999999701977 47.63251482099294 12.5
      vertex 163.29999999701977 59.18748517483472 12.5
    endloop
  endfacet
  facet normal 0 0 1
    outer loop
      vertex 20 120.19999999701976 12.5
      vertex 163.29999999701977 59.18748517483472 12.5
      vertex 163.29999999701977 87.51251482367515 12.5
    endloop
  endfacet
  facet normal 0 1 0
    outer loop
      vertex 4 123.20000000447034 12.5
      vertex 151 123.20000000447034 8
      vertex 135 123.20000000447034 8
    endloop
  endfacet
  facet normal 0 1 0
    outer loop
      vertex 4 123.20000000447034 12.5
      vertex 168 123.20000000447034 12.5
      vertex 151 123.20000000447034 8
    endloop
  endfacet
  facet normal 0 0 1
    outer loop
      vertex 20 120.19999999701976 12.5
      vertex 163.29999999701977 87.51251482367515 12.5
      vertex 163.29999999701977 99.06748517751693 12.5
    endloop
  endfacet
  facet normal 0 0 1
    outer loop
      vertex 20 120.19999999701976 12.5
      vertex 163.29999999701977 99.06748517751693 12.5
      vertex 168 123.20000000447034 12.5
    endloop
  endfacet
  facet normal 0 0 1
    outer loop
      vertex 163.29999999701977 59.18748517483472 12.5
      vertex 168 57.62081850470814 12.5
      vertex 163.29999999701977 87.51251482367515 12.5
    endloop
  endfacet
  facet normal 0 0 1
    outer loop
      vertex 168 89.07918149380173 12.5
      vertex 163.29999999701977 87.51251482367515 12.5
      vertex 168 57.62081850470814 12.5
    endloop
  endfacet
  facet normal 0 0 1
    outer loop
      vertex 168 123.20000000447034 12.5
      vertex 163.29999999701977 99.06748517751693 12.5
      vertex 168 97.50081850739035 12.5
    endloop
  endfacet
  facet normal 0 -1 0
    outer loop
      vertex 0 4.500000001490108 12.5
      vertex 3 4.500000001490108 12.5
      vertex 3 4.500000001490108 15
    endloop
  endfacet
  facet normal 0 -1 0
    outer loop
      vertex 0 4.500000001490108 12.5
      vertex 3 4.500000001490108 15
      vertex 0 4.500000001490108 15
    endloop
  endfacet
  facet normal -1 0 0
    outer loop
      vertex 0 4.500000001490108 12.5
      vertex 0 4.500000001490108 15
      vertex 0 119.19999999701976 12.5
    endloop
  endfacet
  facet normal 1 0 0
    outer loop
      vertex 3 4.500000001490108 12.5
      vertex 3 120.19999999701976 12.5
      vertex 3 4.500000001490108 15
    endloop
  endfacet
  facet normal 0 0 1
    outer loop
      vertex 0 4.500000001490108 15
      vertex 3 4.500000001490108 15
      vertex 0 119.19999999701976 15
    endloop
  endfacet
  facet normal -1 0 0
    outer loop
      vertex 0 4.500000001490108 15
      vertex 0 119.19999999701976 15
      vertex 0 119.19999999701976 12.5
    endloop
  endfacet
  facet normal 1 0 0
    outer loop
      vertex 3 4.500000001490108 15
      vertex 3 120.19999999701976 12.5
      vertex 3 120.19999999701976 15
    endloop
  endfacet
  facet normal 0 0 1
    outer loop
      vertex 3 4.500000001490108 15
      vertex 0.019261091947555542 119.59206856191157 15
      vertex 0 119.19999999701976 15
    endloop
  endfacet
  facet normal 0 0 1
    outer loop
      vertex 3 4.500000001490108 15
      vertex 0.07685887813568115 119.98036128431558 15
      vertex 0.019261091947555542 119.59206856191157 15
    endloop
  endfacet
  facet normal 0 0 1
    outer loop
      vertex 3 4.500000001490108 15
      vertex 0.17223865538835526 120.36113870292901 15
      vertex 0.07685887813568115 119.98036128431558 15
    endloop
  endfacet
  facet normal 0 0 1
    outer loop
      vertex 3 4.500000001490108 15
      vertex 3 120.19999999701976 15
      vertex 0.17223865538835526 120.36113870292901 15
    endloop
  endfacet
  facet normal -0.9987954563973426 0.0490676704157047 0
    outer loop
      vertex 0 119.19999999701976 12.5
      vertex 0 119.19999999701976 15
      vertex 0.019261091947555542 119.59206856191157 12.5
    endloop
  endfacet
  facet normal -0.9891765093153608 0.14673047883339677 0
    outer loop
      vertex 0.019261091947555542 119.59206856191157 12.5
      vertex 0.019261091947555542 119.59206856191157 15
      vertex 0.07685887813568115 119.98036128431558 12.5
    endloop
  endfacet
  facet normal -0.970031253702096 0.24298017787700282 0
    outer loop
      vertex 0.07685887813568115 119.98036128431558 12.5
      vertex 0.07685887813568115 119.98036128431558 15
      vertex 0.17223865538835526 120.36113870292901 12.5
    endloop
  endfacet
  facet normal -0.9415440627982695 0.3368898600571533 0
    outer loop
      vertex 0.17223865538835526 120.36113870292901 12.5
      vertex 0.17223865538835526 120.36113870292901 15
      vertex 0.3044818714261055 120.73073372393846 12.5
    endloop
  endfacet
  facet normal -0.9039892993552974 0.4275550802541337 0
    outer loop
      vertex 0.3044818714261055 120.73073372393846 12.5
      vertex 0.3044818714261055 120.73073372393846 15
      vertex 0.4723149389028549 121.08558694422244 12.5
    endloop
  endfacet
  facet normal -0.857728607028397 0.5141027491514958 0
    outer loop
      vertex 0.4723149389028549 121.08558694422244 12.5
      vertex 0.4723149389028549 121.08558694422244 15
      vertex 0.6741215512156487 121.42228093147277 12.5
    endloop
  endfacet
  facet normal -0.8032075288650012 0.5956993080192207 0
    outer loop
      vertex 0.6741215512156487 121.42228093147277 12.5
      vertex 0.6741215512156487 121.42228093147277 15
      vertex 0.9079581871628761 121.73757313340901 12.5
    endloop
  endfacet
  facet normal -0.7409511174895533 0.6715589635251562 0
    outer loop
      vertex 0.9079581871628761 121.73757313340901 12.5
      vertex 0.9079581871628761 121.73757313340901 15
      vertex 1.1715728789567947 122.02842711806296 12.5
    endloop
  endfacet
  facet normal -0.6715589635251562 0.7409511174895533 0
    outer loop
      vertex 1.1715728789567947 122.02842711806296 12.5
      vertex 1.1715728789567947 122.02842711806296 15
      vertex 1.4624268636107445 122.29204180985688 12.5
    endloop
  endfacet
  facet normal -0.5956993080192207 0.8032075288650012 0
    outer loop
      vertex 1.4624268636107445 122.29204180985688 12.5
      vertex 1.4624268636107445 122.29204180985688 15
      vertex 1.7777190655469894 122.52587844580411 12.5
    endloop
  endfacet
  facet normal -0.5141027491514958 0.857728607028397 0
    outer loop
      vertex 1.7777190655469894 122.52587844580411 12.5
      vertex 1.7777190655469894 122.52587844580411 15
      vertex 2.1144130527973175 122.7276850581169 12.5
    endloop
  endfacet
  facet normal -0.4275550802541337 0.9039892993552974 0
    outer loop
      vertex 2.1144130527973175 122.7276850581169 12.5
      vertex 2.1144130527973175 122.7276850581169 15
      vertex 2.4692662730813026 122.89551812559365 12.5
    endloop
  endfacet
  facet normal -0.3368898600571533 0.9415440627982695 0
    outer loop
      vertex 2.4692662730813026 122.89551812559365 12.5
      vertex 2.4692662730813026 122.89551812559365 15
      vertex 2.838861294090748 123.0277613416314 12.5
    endloop
  endfacet
  facet normal -0.24298017787700282 0.970031253702096 0
    outer loop
      vertex 2.838861294090748 123.0277613416314 12.5
      vertex 2.838861294090748 123.0277613416314 15
      vertex 3.2196387127041817 123.12314111888408 12.5
    endloop
  endfacet
  facet normal -0.14673047883339677 0.9891765093153608 0
    outer loop
      vertex 3.2196387127041817 123.12314111888408 12.5
      vertex 3.2196387127041817 123.12314111888408 15
      vertex 3.607931435108185 123.1807389050722 12.5
    endloop
  endfacet
  facet normal -0.04906767413650767 0.9987954562145512 0
    outer loop
      vertex 3.607931435108185 123.1807389050722 12.5
      vertex 3.607931435108185 123.1807389050722 15
      vertex 3.9999999701976776 123.19999999701976 12.5
    endloop
  endfacet
  facet normal 0 1 0
    outer loop
      vertex 3.9999999701976776 123.19999999701976 12.5
      vertex 3.9999999701976776 123.19999999701976 15
      vertex 20 123.19999999701976 12.5
    endloop
  endfacet
  facet normal -0.9987954563973426 0.0490676704157047 0
    outer loop
      vertex 0.019261091947555542 119.59206856191157 12.5
      vertex 0 119.19999999701976 15
      vertex 0.019261091947555542 119.59206856191157 15
    endloop
  endfacet
  facet normal -0.9891765093153608 0.14673047883339677 0
    outer loop
      vertex 0.07685887813568115 119.98036128431558 12.5
      vertex 0.019261091947555542 119.59206856191157 15
      vertex 0.07685887813568115 119.98036128431558 15
    endloop
  endfacet
  facet normal -0.970031253702096 0.24298017787700282 0
    outer loop
      vertex 0.17223865538835526 120.36113870292901 12.5
      vertex 0.07685887813568115 119.98036128431558 15
      vertex 0.17223865538835526 120.36113870292901 15
    endloop
  endfacet
  facet normal -0.9415440627982695 0.3368898600571533 0
    outer loop
      vertex 0.3044818714261055 120.73073372393846 12.5
      vertex 0.17223865538835526 120.36113870292901 15
      vertex 0.3044818714261055 120.73073372393846 15
    endloop
  endfacet
  facet normal -0.9039892993552974 0.4275550802541337 0
    outer loop
      vertex 0.4723149389028549 121.08558694422244 12.5
      vertex 0.3044818714261055 120.73073372393846 15
      vertex 0.4723149389028549 121.08558694422244 15
    endloop
  endfacet
  facet normal -0.857728607028397 0.5141027491514958 0
    outer loop
      vertex 0.6741215512156487 121.42228093147277 12.5
      vertex 0.4723149389028549 121.08558694422244 15
      vertex 0.6741215512156487 121.42228093147277 15
    endloop
  endfacet
  facet normal -0.8032075288650012 0.5956993080192207 0
    outer loop
      vertex 0.9079581871628761 121.73757313340901 12.5
      vertex 0.6741215512156487 121.42228093147277 15
      vertex 0.9079581871628761 121.73757313340901 15
    endloop
  endfacet
  facet normal -0.7409511174895533 0.6715589635251562 0
    outer loop
      vertex 1.1715728789567947 122.02842711806296 12.5
      vertex 0.9079581871628761 121.73757313340901 15
      vertex 1.1715728789567947 122.02842711806296 15
    endloop
  endfacet
  facet normal -0.6715589635251562 0.7409511174895533 0
    outer loop
      vertex 1.4624268636107445 122.29204180985688 12.5
      vertex 1.1715728789567947 122.02842711806296 15
      vertex 1.4624268636107445 122.29204180985688 15
    endloop
  endfacet
  facet normal -0.5956993080192207 0.8032075288650012 0
    outer loop
      vertex 1.7777190655469894 122.52587844580411 12.5
      vertex 1.4624268636107445 122.29204180985688 15
      vertex 1.7777190655469894 122.52587844580411 15
    endloop
  endfacet
  facet normal -0.5141027491514958 0.857728607028397 0
    outer loop
      vertex 2.1144130527973175 122.7276850581169 12.5
      vertex 1.7777190655469894 122.52587844580411 15
      vertex 2.1144130527973175 122.7276850581169 15
    endloop
  endfacet
  facet normal -0.4275550802541337 0.9039892993552974 0
    outer loop
      vertex 2.4692662730813026 122.89551812559365 12.5
      vertex 2.1144130527973175 122.7276850581169 15
      vertex 2.4692662730813026 122.89551812559365 15
    endloop
  endfacet
  facet normal -0.3368898600571533 0.9415440627982695 0
    outer loop
      vertex 2.838861294090748 123.0277613416314 12.5
      vertex 2.4692662730813026 122.89551812559365 15
      vertex 2.838861294090748 123.0277613416314 15
    endloop
  endfacet
  facet normal -0.24298017787700282 0.970031253702096 0
    outer loop
      vertex 3.2196387127041817 123.12314111888408 12.5
      vertex 2.838861294090748 123.0277613416314 15
      vertex 3.2196387127041817 123.12314111888408 15
    endloop
  endfacet
  facet normal -0.14673047883339677 0.9891765093153608 0
    outer loop
      vertex 3.607931435108185 123.1807389050722 12.5
      vertex 3.2196387127041817 123.12314111888408 15
      vertex 3.607931435108185 123.1807389050722 15
    endloop
  endfacet
  facet normal -0.04906767413650767 0.9987954562145512 0
    outer loop
      vertex 3.9999999701976776 123.19999999701976 12.5
      vertex 3.607931435108185 123.1807389050722 15
      vertex 3.9999999701976776 123.19999999701976 15
    endloop
  endfacet
  facet normal 0 0 1
    outer loop
      vertex 0.17223865538835526 120.36113870292901 15
      vertex 3 120.19999999701976 15
      vertex 0.3044818714261055 120.73073372393846 15
    endloop
  endfacet
  facet normal 0 0 1
    outer loop
      vertex 0.3044818714261055 120.73073372393846 15
      vertex 3 120.19999999701976 15
      vertex 0.4723149389028549 121.08558694422244 15
    endloop
  endfacet
  facet normal 0 0 1
    outer loop
      vertex 0.4723149389028549 121.08558694422244 15
      vertex 3 120.19999999701976 15
      vertex 0.6741215512156487 121.42228093147277 15
    endloop
  endfacet
  facet normal 0 0 1
    outer loop
      vertex 0.6741215512156487 121.42228093147277 15
      vertex 3 120.19999999701976 15
      vertex 0.9079581871628761 121.73757313340901 15
    endloop
  endfacet
  facet normal 0 0 1
    outer loop
      vertex 0.9079581871628761 121.73757313340901 15
      vertex 3 120.19999999701976 15
      vertex 1.1715728789567947 122.02842711806296 15
    endloop
  endfacet
  facet normal 0 0 1
    outer loop
      vertex 1.1715728789567947 122.02842711806296 15
      vertex 3 120.19999999701976 15
      vertex 1.4624268636107445 122.29204180985688 15
    endloop
  endfacet
  facet normal 0 0 1
    outer loop
      vertex 1.4624268636107445 122.29204180985688 15
      vertex 3 120.19999999701976 15
      vertex 1.7777190655469894 122.52587844580411 15
    endloop
  endfacet
  facet normal 0 0 1
    outer loop
      vertex 1.7777190655469894 122.52587844580411 15
      vertex 3 120.19999999701976 15
      vertex 2.1144130527973175 122.7276850581169 15
    endloop
  endfacet
  facet normal 0 0 1
    outer loop
      vertex 2.1144130527973175 122.7276850581169 15
      vertex 3 120.19999999701976 15
      vertex 2.4692662730813026 122.89551812559365 15
    endloop
  endfacet
  facet normal 0 0 1
    outer loop
      vertex 2.4692662730813026 122.89551812559365 15
      vertex 3 120.19999999701976 15
      vertex 2.838861294090748 123.0277613416314 15
    endloop
  endfacet
  facet normal 0 0 1
    outer loop
      vertex 3 120.19999999701976 15
      vertex 3.2196387127041817 123.12314111888408 15
      vertex 2.838861294090748 123.0277613416314 15
    endloop
  endfacet
  facet normal 0 0 1
    outer loop
      vertex 3 120.19999999701976 15
      vertex 3.607931435108185 123.1807389050722 15
      vertex 3.2196387127041817 123.12314111888408 15
    endloop
  endfacet
  facet normal 0 0 1
    outer loop
      vertex 3 120.19999999701976 15
      vertex 3.9999999701976776 123.19999999701976 15
      vertex 3.607931435108185 123.1807389050722 15
    endloop
  endfacet
  facet normal 0 -1 0
    outer loop
      vertex 3 120.19999999701976 12.5
      vertex 20 120.19999999701976 15
      vertex 3 120.19999999701976 15
    endloop
  endfacet
  facet normal 0 0 1
    outer loop
      vertex 3 120.19999999701976 15
      vertex 20 120.19999999701976 15
      vertex 3.9999999701976776 123.19999999701976 15
    endloop
  endfacet
  facet normal 0 -1 0
    outer loop
      vertex 3 120.19999999701976 12.5
      vertex 20 120.19999999701976 12.5
      vertex 20 120.19999999701976 15
    endloop
  endfacet
  facet normal 1 0 0
    outer loop
      vertex 20 120.19999999701976 12.5
      vertex 20 123.19999999701976 12.5
      vertex 20 123.19999999701976 15
    endloop
  endfacet
  facet normal 0 1 0
    outer loop
      vertex 20 123.19999999701976 12.5
      vertex 3.9999999701976776 123.19999999701976 15
      vertex 20 123.19999999701976 15
    endloop
  endfacet
  facet normal 0 0 1
    outer loop
      vertex 3.9999999701976776 123.19999999701976 15
      vertex 20 120.19999999701976 15
      vertex 20 123.19999999701976 15
    endloop
  endfacet
  facet normal 1 0 0
    outer loop
      vertex 20 120.19999999701976 12.5
      vertex 20 123.19999999701976 15
      vertex 20 120.19999999701976 15
    endloop
  endfacet
  facet normal 1 0 0
    outer loop
      vertex 135 23.500000008940688 0
      vertex 135 123.20000000447034 0
      vertex 135 23.500000008940688 8
    endloop
  endfacet
  facet normal -1 0 0
    outer loop
      vertex 151 23.500000008940688 0
      vertex 151 23.500000008940688 8
      vertex 151 123.20000000447034 0
    endloop
  endfacet
  facet normal 0 0 -1
    outer loop
      vertex 135 23.500000008940688 8
      vertex 135 123.20000000447034 8
      vertex 151 23.500000008940688 8
    endloop
  endfacet
  facet normal 1 0 0
    outer loop
      vertex 135 23.500000008940688 8
      vertex 135 123.20000000447034 0
      vertex 135 123.20000000447034 8
    endloop
  endfacet
  facet normal -1 0 0
    outer loop
      vertex 151 23.500000008940688 8
      vertex 151 123.20000000447034 8
      vertex 151 123.20000000447034 0
    endloop
  endfacet
  facet normal 0 0 -1
    outer loop
      vertex 151 23.500000008940688 8
      vertex 135 123.20000000447034 8
      vertex 151 123.20000000447034 8
    endloop
  endfacet
  facet normal 1 0 0
    outer loop
      vertex 168 23.500000008940688 0
      vertex 168 49.19918149111952 0
      vertex 168 49.19918149111952 12.5
    endloop
  endfacet
  facet normal 1 0 0
    outer loop
      vertex 168 23.500000008940688 0
      vertex 168 49.19918149111952 12.5
      vertex 168 23.500000008940688 12.5
    endloop
  endfacet
  facet normal 1 0 0
    outer loop
      vertex 168 57.62081850470814 0
      vertex 168 89.07918149380173 0
      vertex 168 89.07918149380173 12.5
    endloop
  endfacet
  facet normal 1 0 0
    outer loop
      vertex 168 123.20000000447034 0
      vertex 168 123.20000000447034 12.5
      vertex 168 97.50081850739035 0
    endloop
  endfacet
  facet normal 1 0 0
    outer loop
      vertex 168 57.62081850470814 0
      vertex 168 89.07918149380173 12.5
      vertex 168 57.62081850470814 12.5
    endloop
  endfacet
  facet normal 1 0 0
    outer loop
      vertex 168 123.20000000447034 12.5
      vertex 168 97.50081850739035 12.5
      vertex 168 97.50081850739035 0
    endloop
  endfacet
  facet normal -0.3162277664649096 0.9486832979011567 3.5773390963111893e-19
    outer loop
      vertex 168 49.19918149111952 0
      vertex 163.29999999701977 47.63251482099294 0
      vertex 163.29999999701977 47.63251482099294 12.5
    endloop
  endfacet
  facet normal 1 0 0
    outer loop
      vertex 163.29999999701977 47.63251482099294 0
      vertex 163.29999999701977 59.18748517483472 0
      vertex 163.29999999701977 59.18748517483472 12.5
    endloop
  endfacet
  facet normal -0.3162277664649096 -0.9486832979011567 0
    outer loop
      vertex 168 57.62081850470814 0
      vertex 168 57.62081850470814 12.5
      vertex 163.29999999701977 59.18748517483472 0
    endloop
  endfacet
  facet normal -0.3162277664649096 0.9486832979011567 0
    outer loop
      vertex 168 49.19918149111952 12.5
      vertex 168 49.19918149111952 0
      vertex 163.29999999701977 47.63251482099294 12.5
    endloop
  endfacet
  facet normal 1 0 0
    outer loop
      vertex 163.29999999701977 47.63251482099294 0
      vertex 163.29999999701977 59.18748517483472 12.5
      vertex 163.29999999701977 47.63251482099294 12.5
    endloop
  endfacet
  facet normal -0.3162277664649096 -0.9486832979011567 0
    outer loop
      vertex 163.29999999701977 59.18748517483472 12.5
      vertex 163.29999999701977 59.18748517483472 0
      vertex 168 57.62081850470814 12.5
    endloop
  endfacet
  facet normal -0.3162277664649096 0.9486832979011567 0
    outer loop
      vertex 163.29999999701977 87.51251482367515 0
      vertex 163.29999999701977 87.51251482367515 12.5
      vertex 168 89.07918149380173 0
    endloop
  endfacet
  facet normal 1 0 0
    outer loop
      vertex 163.29999999701977 87.51251482367515 0
      vertex 163.29999999701977 99.06748517751693 0
      vertex 163.29999999701977 99.06748517751693 12.5
    endloop
  endfacet
  facet normal -0.3162277664649096 -0.9486832979011567 0
    outer loop
      vertex 168 97.50081850739035 0
      vertex 168 97.50081850739035 12.5
      vertex 163.29999999701977 99.06748517751693 0
    endloop
  endfacet
  facet normal 1 0 0
    outer loop
      vertex 163.29999999701977 87.51251482367515 0
      vertex 163.29999999701977 99.06748517751693 12.5
      vertex 163.29999999701977 87.51251482367515 12.5
    endloop
  endfacet
  facet normal -0.3162277664649096 0.9486832979011567 0
    outer loop
      vertex 168 89.07918149380173 12.5
      vertex 168 89.07918149380173 0
      vertex 163.29999999701977 87.51251482367515 12.5
    endloop
  endfacet
  facet normal -0.3162277664649096 -0.9486832979011567 0
    outer loop
      vertex 163.29999999701977 99.06748517751693 12.5
      vertex 163.29999999701977 99.06748517751693 0
      vertex 168 97.50081850739035 12.5
    endloop
  endfacet
endsolid OpenSCAD_Model
